<svg width="1920" height="432" viewBox="0 0 1920 432" fill="none" xmlns="http://www.w3.org/2000/svg">
<rect width="960" height="432" fill="#764CCB"/>
<rect x="960" width="264" height="432" fill="#ED0080"/>
<rect x="1223" width="202" height="432" fill="#333333"/>
<rect x="1425" width="498" height="72" fill="#555555"/>
<rect x="1425" y="72" width="498" height="72" fill="#777777"/>
<rect x="1425" y="144" width="498" height="72" fill="#999999"/>
<rect x="1425" y="216" width="498" height="72" fill="#AAAAAA"/>
<rect x="1425" y="288" width="498" height="72" fill="#CBCBCB"/>
<rect x="1425" y="360" width="498" height="72" fill="#F85757"/>
<path d="M318.28 41.7V27.16H321.68L325.1 38.76L328.68 27.16H332V41.7H329.8V30.12L326.26 41.72H323.88L320.44 30.12V41.7H318.28ZM337.967 40.06C338.767 40.06 339.907 39.5 340.327 39V36.52C338.627 36.72 336.107 36.58 336.107 38.56C336.107 39.64 336.947 40.06 337.967 40.06ZM337.387 41.9C335.447 41.9 333.887 40.92 333.887 38.7C333.887 36.48 335.467 35.4 337.687 35.16L340.327 34.86V34.5C340.327 33.14 339.427 32.58 337.847 32.58C336.967 32.58 335.647 33 334.947 33.5C334.727 32.88 334.547 32.26 334.347 31.64C335.287 31.04 336.947 30.6 338.347 30.6C340.667 30.6 342.487 31.72 342.487 34.2V41.68H340.747L340.507 40.7C339.927 41.36 338.507 41.9 337.387 41.9ZM344.922 29.02V26.72H347.162V29.02H344.922ZM344.962 41.7V30.94H347.142V41.7H344.962ZM349.424 41.68V30.96H351.564V32.34C352.444 31.34 353.744 30.78 355.024 30.78C356.884 30.78 358.484 32 358.484 34.32V41.68H356.304V34.76C356.304 33.56 355.524 32.76 354.164 32.76C353.324 32.76 352.264 33.36 351.604 34.26V41.68H349.424Z" fill="white"/>
<path d="M321.34 67.44L320.84 70.64H323.32L323.86 67.44H321.34ZM318.44 67.44V66.08H320.42L321 62.22H322.12L321.52 66.08H324.06L324.6 62.22H325.72L325.14 66.08H326.8V67.44H324.92L324.48 70.64H326.22V71.98H324.28L323.6 76.42H322.5L323.16 71.98H320.66L320 76.42H318.88L319.52 71.98H317.88V70.64H319.74L320.2 67.44H318.44ZM329.842 76.64L335.322 63.74H328.322V62.28H337.062V63.38L331.582 76.64H329.842ZM342.955 75.52C344.655 75.52 345.795 74.12 345.795 72.12C345.795 70.06 344.495 69.02 342.955 69.02C341.735 69.02 340.475 69.94 339.895 70.9V71.06C339.895 73.38 340.775 75.52 342.955 75.52ZM342.955 76.84C339.895 76.84 338.315 74.58 338.315 70.36V69.36C338.315 64.44 340.615 62.1 343.575 62.1C345.075 62.1 346.215 62.52 347.055 63.1L346.495 64.32C345.895 63.88 344.775 63.46 343.755 63.46C341.695 63.46 340.075 64.8 339.895 69.2C340.575 68.4 341.855 67.7 343.295 67.7C345.455 67.7 347.415 69.28 347.415 72.04C347.415 74.78 345.675 76.84 342.955 76.84ZM350.626 72.26H355.526V64.86L350.626 72.26ZM355.526 76.68V73.62H348.946V72.4L355.686 62.24H356.966V72.26H359.186V73.62H356.966V76.68H355.526ZM364.932 76.9C362.152 76.9 359.912 74.86 359.912 71.36V71.14C359.912 67.66 362.452 65.84 364.872 65.84C366.472 65.84 367.572 66.34 368.272 66.9L367.712 68.14C367.092 67.68 366.152 67.18 364.952 67.18C363.292 67.18 361.552 68.6 361.552 71.04V71.42C361.552 73.96 363.112 75.52 365.132 75.52C366.312 75.52 367.312 75.02 367.852 74.64L368.332 75.9C367.732 76.42 366.232 76.9 364.932 76.9ZM374.513 76.9C371.733 76.9 369.493 74.86 369.493 71.36V71.14C369.493 67.66 372.033 65.84 374.453 65.84C376.053 65.84 377.153 66.34 377.853 66.9L377.293 68.14C376.673 67.68 375.733 67.18 374.533 67.18C372.873 67.18 371.133 68.6 371.133 71.04V71.42C371.133 73.96 372.693 75.52 374.713 75.52C375.893 75.52 376.893 75.02 377.433 74.64L377.913 75.9C377.313 76.42 375.813 76.9 374.513 76.9ZM383.733 75.48C385.333 75.48 386.853 74.2 386.853 71.34V71.12C386.853 68.16 385.373 67.28 383.673 67.28C382.833 67.28 381.473 67.94 381.033 68.68V73.86C381.453 74.72 382.593 75.48 383.733 75.48ZM384.133 76.8C382.773 76.8 381.513 76.28 381.013 75.54V76.66H379.513V61.32H381.033V67.02C381.653 66.44 382.893 65.88 384.013 65.88C386.493 65.88 388.473 67.34 388.473 71.18V71.38C388.473 75.18 386.113 76.8 384.133 76.8Z" fill="white"/>
<path d="M993.62 41.96C991.78 41.96 989.8 41.28 988.76 40.68L989.42 38.6C990.4 39.24 992.12 39.86 993.5 39.86C995.44 39.86 996.6 38.92 996.6 37.62C996.6 36.4 995.88 35.8 994.18 35.42L992.58 35.04C990.66 34.6 989 33.36 989 31.02C989 28.76 990.82 27 993.98 27C995.9 27 997.66 27.62 998.5 28.24L997.78 30.16C996.94 29.58 995.58 29 994 29C992.36 29 991.32 29.74 991.32 30.86C991.32 32.02 992.08 32.72 993.54 33.06L995.06 33.38C997.44 33.96 998.9 35.02 998.9 37.44C998.9 40.08 996.74 41.96 993.62 41.96ZM1009.56 30.96V41.68H1007.42V40.36C1006.64 41.32 1005.32 41.86 1004.06 41.86C1002.2 41.86 1000.62 40.66 1000.62 38.32V30.96H1002.8V37.9C1002.8 39.16 1003.54 39.88 1004.9 39.88C1005.74 39.88 1006.8 39.26 1007.4 38.38V30.96H1009.56ZM1016.62 39.96C1018.08 39.96 1019.32 38.76 1019.32 36.4V36.04C1019.32 33.82 1018.1 32.78 1016.52 32.78C1015.68 32.78 1014.56 33.38 1014.14 34.04V38.38C1014.6 39.4 1015.68 39.96 1016.62 39.96ZM1017.1 41.84C1015.78 41.84 1014.7 41.3 1014.1 40.6V41.68H1011.94V26.16H1014.14V31.88C1014.76 31.3 1015.92 30.78 1017.06 30.78C1019.58 30.78 1021.66 32.44 1021.66 36.04V36.36C1021.66 40.3 1019.06 41.84 1017.1 41.84Z" fill="white"/>
<path d="M992.34 67.44L991.84 70.64H994.32L994.86 67.44H992.34ZM989.44 67.44V66.08H991.42L992 62.22H993.12L992.52 66.08H995.06L995.6 62.22H996.72L996.14 66.08H997.8V67.44H995.92L995.48 70.64H997.22V71.98H995.28L994.6 76.42H993.5L994.16 71.98H991.66L991 76.42H989.88L990.52 71.98H988.88V70.64H990.74L991.2 67.44H989.44ZM1003.9 67.1C1002.62 67.1 1001 68.14 1000.84 70.44H1006.76C1006.76 68.16 1005.5 67.1 1003.9 67.1ZM1004.26 76.92C1001.18 76.92 999.262 74.78 999.262 71.66V71.26C999.262 67.6 1001.52 65.78 1003.92 65.78C1006.54 65.78 1008.3 67.58 1008.3 70.84V71.7H1000.86C1000.88 74.38 1002.38 75.56 1004.5 75.56C1005.7 75.56 1007.04 75 1007.66 74.5L1008.14 75.7C1007.46 76.28 1005.88 76.92 1004.26 76.92ZM1014.52 75.52C1015.58 75.52 1016.88 74.5 1017.26 73.74V68.52C1016.78 67.78 1015.42 67.26 1014.58 67.26C1012.86 67.26 1011.42 68.4 1011.42 71.34V71.64C1011.42 74.58 1012.92 75.52 1014.52 75.52ZM1014.16 76.86C1012.2 76.86 1009.82 75.48 1009.82 71.7V71.38C1009.82 67.6 1011.86 65.92 1014.28 65.92C1015.36 65.92 1016.62 66.34 1017.26 66.94V61.28H1018.82V76.66H1017.54L1017.3 75.34C1016.66 76.16 1015.44 76.86 1014.16 76.86ZM1025.92 75.48C1027.92 75.48 1029.16 73.96 1029.16 70.3V68.74C1029.16 65.12 1027.94 63.52 1025.94 63.52C1023.94 63.52 1022.62 65.06 1022.62 68.64V70.22C1022.62 73.78 1023.92 75.48 1025.92 75.48ZM1025.92 76.88C1023.24 76.88 1021 74.88 1021 70.04V68.84C1021 63.82 1023.4 62.1 1025.94 62.1C1028.48 62.1 1030.76 63.82 1030.76 68.76V70.04C1030.76 74.88 1028.56 76.88 1025.92 76.88ZM1037.42 75.48C1039.42 75.48 1040.66 73.96 1040.66 70.3V68.74C1040.66 65.12 1039.44 63.52 1037.44 63.52C1035.44 63.52 1034.12 65.06 1034.12 68.64V70.22C1034.12 73.78 1035.42 75.48 1037.42 75.48ZM1037.42 76.88C1034.74 76.88 1032.5 74.88 1032.5 70.04V68.84C1032.5 63.82 1034.9 62.1 1037.44 62.1C1039.98 62.1 1042.26 63.82 1042.26 68.76V70.04C1042.26 74.88 1040.06 76.88 1037.42 76.88ZM1048.87 68.44C1050.17 67.92 1051.37 66.98 1051.37 65.62C1051.37 64.24 1050.35 63.42 1048.67 63.42C1047.11 63.42 1045.99 64.22 1045.99 65.62C1045.99 67.12 1047.15 67.94 1048.87 68.44ZM1048.73 75.52C1050.41 75.52 1051.77 74.5 1051.77 73.06C1051.77 71.24 1050.55 70.5 1048.37 69.8C1047.01 70.3 1045.57 71.24 1045.57 73C1045.57 74.52 1046.91 75.52 1048.73 75.52ZM1048.71 76.88C1045.85 76.88 1043.99 75.34 1043.99 73.02C1043.99 71.02 1045.53 69.8 1047.05 69.18C1045.63 68.6 1044.33 67.52 1044.33 65.68C1044.33 63.6 1046.15 62.1 1048.65 62.1C1051.17 62.1 1052.93 63.42 1052.93 65.62C1052.93 67.34 1051.57 68.46 1050.17 69.06C1051.77 69.64 1053.43 70.82 1053.43 72.86C1053.43 75.14 1051.57 76.88 1048.71 76.88ZM1060.13 75.48C1062.13 75.48 1063.37 73.96 1063.37 70.3V68.74C1063.37 65.12 1062.15 63.52 1060.15 63.52C1058.15 63.52 1056.83 65.06 1056.83 68.64V70.22C1056.83 73.78 1058.13 75.48 1060.13 75.48ZM1060.13 76.88C1057.45 76.88 1055.21 74.88 1055.21 70.04V68.84C1055.21 63.82 1057.61 62.1 1060.15 62.1C1062.69 62.1 1064.97 63.82 1064.97 68.76V70.04C1064.97 74.88 1062.77 76.88 1060.13 76.88Z" fill="white"/>
<path d="M1259.38 29.2V41.7H1257.12V29.2H1252.7V27.18H1263.84V29.2H1259.38ZM1267.54 32.56C1266.48 32.56 1265.12 33.26 1264.96 35.24H1269.94C1269.92 33.38 1268.84 32.56 1267.54 32.56ZM1267.96 41.98C1264.68 41.98 1262.66 39.84 1262.66 36.58V36.18C1262.66 32.5 1264.98 30.66 1267.52 30.66C1270.36 30.66 1272.12 32.5 1272.12 35.8V36.96H1264.98C1265.06 39.08 1266.48 39.98 1268.12 39.98C1269.48 39.98 1270.78 39.46 1271.44 38.98L1272.06 40.68C1271.36 41.28 1269.74 41.98 1267.96 41.98ZM1272.77 41.68L1276.65 36.28L1272.97 30.96H1275.61L1278.03 34.68L1280.55 30.96H1283.01L1279.39 36.26L1283.33 41.68H1280.69L1278.03 37.8L1275.41 41.68H1272.77ZM1288.52 41.84C1286.82 41.84 1285.48 40.92 1285.48 38.54V32.82H1283.78V30.96H1285.48V28.24H1287.66V30.96H1290.74V32.82H1287.66V38.2C1287.66 39.24 1288.12 39.86 1289.12 39.86C1289.62 39.86 1290.52 39.62 1291.04 39.28L1291.42 41.14C1290.86 41.52 1289.66 41.84 1288.52 41.84ZM1300.12 39.8H1302.42C1304.98 39.8 1306.74 37.88 1306.74 34.36V34C1306.74 30.32 1304.82 29.06 1302.26 29.06H1300.12V39.8ZM1297.88 41.7V27.16H1302.4C1306.46 27.16 1309 29.16 1309 34V34.36C1309 38.96 1306.48 41.7 1302.38 41.7H1297.88ZM1315.28 32.56C1314.22 32.56 1312.86 33.26 1312.7 35.24H1317.68C1317.66 33.38 1316.58 32.56 1315.28 32.56ZM1315.7 41.98C1312.42 41.98 1310.4 39.84 1310.4 36.58V36.18C1310.4 32.5 1312.72 30.66 1315.26 30.66C1318.1 30.66 1319.86 32.5 1319.86 35.8V36.96H1312.72C1312.8 39.08 1314.22 39.98 1315.86 39.98C1317.22 39.98 1318.52 39.46 1319.18 38.98L1319.8 40.68C1319.1 41.28 1317.48 41.98 1315.7 41.98ZM1322.51 41.68V32.82H1320.91V30.96H1322.51V29.88C1322.51 27.2 1324.03 26.1 1325.91 26.1C1326.83 26.1 1327.83 26.42 1328.29 26.72L1327.81 28.46C1327.39 28.18 1326.77 28.02 1326.25 28.02C1325.15 28.02 1324.69 28.66 1324.69 29.92V30.96H1327.55V32.82H1324.69V41.68H1322.51ZM1332.24 40.06C1333.04 40.06 1334.18 39.5 1334.6 39V36.52C1332.9 36.72 1330.38 36.58 1330.38 38.56C1330.38 39.64 1331.22 40.06 1332.24 40.06ZM1331.66 41.9C1329.72 41.9 1328.16 40.92 1328.16 38.7C1328.16 36.48 1329.74 35.4 1331.96 35.16L1334.6 34.86V34.5C1334.6 33.14 1333.7 32.58 1332.12 32.58C1331.24 32.58 1329.92 33 1329.22 33.5C1329 32.88 1328.82 32.26 1328.62 31.64C1329.56 31.04 1331.22 30.6 1332.62 30.6C1334.94 30.6 1336.76 31.72 1336.76 34.2V41.68H1335.02L1334.78 40.7C1334.2 41.36 1332.78 41.9 1331.66 41.9ZM1348.07 30.96V41.68H1345.93V40.36C1345.15 41.32 1343.83 41.86 1342.57 41.86C1340.71 41.86 1339.13 40.66 1339.13 38.32V30.96H1341.31V37.9C1341.31 39.16 1342.05 39.88 1343.41 39.88C1344.25 39.88 1345.31 39.26 1345.91 38.38V30.96H1348.07ZM1350.53 41.68V26.14H1352.73V41.68H1350.53ZM1359.07 41.84C1357.37 41.84 1356.03 40.92 1356.03 38.54V32.82H1354.33V30.96H1356.03V28.24H1358.21V30.96H1361.29V32.82H1358.21V38.2C1358.21 39.24 1358.67 39.86 1359.67 39.86C1360.17 39.86 1361.07 39.62 1361.59 39.28L1361.97 41.14C1361.41 41.52 1360.21 41.84 1359.07 41.84Z" fill="white"/>
<path d="M1256.34 67.44L1255.84 70.64H1258.32L1258.86 67.44H1256.34ZM1253.44 67.44V66.08H1255.42L1256 62.22H1257.12L1256.52 66.08H1259.06L1259.6 62.22H1260.72L1260.14 66.08H1261.8V67.44H1259.92L1259.48 70.64H1261.22V71.98H1259.28L1258.6 76.42H1257.5L1258.16 71.98H1255.66L1255 76.42H1253.88L1254.52 71.98H1252.88V70.64H1254.74L1255.2 67.44H1253.44ZM1266.97 76.82C1265.43 76.82 1263.97 76.34 1263.23 75.78L1263.67 74.44C1264.39 74.94 1265.87 75.38 1266.81 75.38C1268.93 75.38 1270.21 74.3 1270.21 72.5C1270.21 70.74 1268.63 69.86 1266.85 69.84H1265.35V68.36H1266.71C1268.37 68.38 1269.73 67.38 1269.73 65.76C1269.73 64.02 1268.49 63.52 1266.97 63.52C1265.89 63.52 1264.85 63.9 1264.01 64.54L1263.45 63.28C1264.37 62.6 1265.93 62.06 1267.29 62.06C1269.61 62.06 1271.39 63.28 1271.39 65.52C1271.39 67.32 1270.33 68.46 1268.79 68.98C1270.47 69.34 1271.87 70.36 1271.87 72.52C1271.87 75.04 1269.83 76.82 1266.97 76.82ZM1277.41 76.82C1275.87 76.82 1274.41 76.34 1273.67 75.78L1274.11 74.44C1274.83 74.94 1276.31 75.38 1277.25 75.38C1279.37 75.38 1280.65 74.3 1280.65 72.5C1280.65 70.74 1279.07 69.86 1277.29 69.84H1275.79V68.36H1277.15C1278.81 68.38 1280.17 67.38 1280.17 65.76C1280.17 64.02 1278.93 63.52 1277.41 63.52C1276.33 63.52 1275.29 63.9 1274.45 64.54L1273.89 63.28C1274.81 62.6 1276.37 62.06 1277.73 62.06C1280.05 62.06 1281.83 63.28 1281.83 65.52C1281.83 67.32 1280.77 68.46 1279.23 68.98C1280.91 69.34 1282.31 70.36 1282.31 72.52C1282.31 75.04 1280.27 76.82 1277.41 76.82ZM1287.85 76.82C1286.31 76.82 1284.85 76.34 1284.11 75.78L1284.55 74.44C1285.27 74.94 1286.75 75.38 1287.69 75.38C1289.81 75.38 1291.09 74.3 1291.09 72.5C1291.09 70.74 1289.51 69.86 1287.73 69.84H1286.23V68.36H1287.59C1289.25 68.38 1290.61 67.38 1290.61 65.76C1290.61 64.02 1289.37 63.52 1287.85 63.52C1286.77 63.52 1285.73 63.9 1284.89 64.54L1284.33 63.28C1285.25 62.6 1286.81 62.06 1288.17 62.06C1290.49 62.06 1292.27 63.28 1292.27 65.52C1292.27 67.32 1291.21 68.46 1289.67 68.98C1291.35 69.34 1292.75 70.36 1292.75 72.52C1292.75 75.04 1290.71 76.82 1287.85 76.82Z" fill="white"/>
<path d="M1457.34 32.44L1456.84 35.64H1459.32L1459.86 32.44H1457.34ZM1454.44 32.44V31.08H1456.42L1457 27.22H1458.12L1457.52 31.08H1460.06L1460.6 27.22H1461.72L1461.14 31.08H1462.8V32.44H1460.92L1460.48 35.64H1462.22V36.98H1460.28L1459.6 41.42H1458.5L1459.16 36.98H1456.66L1456 41.42H1454.88L1455.52 36.98H1453.88V35.64H1455.74L1456.2 32.44H1454.44ZM1468.46 41.78C1466.76 41.78 1465.38 41.18 1464.54 40.54L1465.1 39.22C1465.84 39.8 1467.16 40.34 1468.32 40.34C1470.32 40.34 1471.68 39.1 1471.68 37.08C1471.68 34.92 1470.2 34.04 1468.24 34.04C1467.44 34.04 1466.08 34.42 1465.28 34.88L1465.78 27.3H1472.78V28.72H1467.1L1466.8 33.04C1467.4 32.82 1468.2 32.7 1468.82 32.7C1471.32 32.7 1473.32 34.06 1473.32 37.08C1473.32 39.64 1471.36 41.78 1468.46 41.78ZM1478.96 41.78C1477.26 41.78 1475.88 41.18 1475.04 40.54L1475.6 39.22C1476.34 39.8 1477.66 40.34 1478.82 40.34C1480.82 40.34 1482.18 39.1 1482.18 37.08C1482.18 34.92 1480.7 34.04 1478.74 34.04C1477.94 34.04 1476.58 34.42 1475.78 34.88L1476.28 27.3H1483.28V28.72H1477.6L1477.3 33.04C1477.9 32.82 1478.7 32.7 1479.32 32.7C1481.82 32.7 1483.82 34.06 1483.82 37.08C1483.82 39.64 1481.86 41.78 1478.96 41.78ZM1489.46 41.78C1487.76 41.78 1486.38 41.18 1485.54 40.54L1486.1 39.22C1486.84 39.8 1488.16 40.34 1489.32 40.34C1491.32 40.34 1492.68 39.1 1492.68 37.08C1492.68 34.92 1491.2 34.04 1489.24 34.04C1488.44 34.04 1487.08 34.42 1486.28 34.88L1486.78 27.3H1493.78V28.72H1488.1L1487.8 33.04C1488.4 32.82 1489.2 32.7 1489.82 32.7C1492.32 32.7 1494.32 34.06 1494.32 37.08C1494.32 39.64 1492.36 41.78 1489.46 41.78Z" fill="white"/>
<path d="M1457.34 104.44L1456.84 107.64H1459.32L1459.86 104.44H1457.34ZM1454.44 104.44V103.08H1456.42L1457 99.22H1458.12L1457.52 103.08H1460.06L1460.6 99.22H1461.72L1461.14 103.08H1462.8V104.44H1460.92L1460.48 107.64H1462.22V108.98H1460.28L1459.6 113.42H1458.5L1459.16 108.98H1456.66L1456 113.42H1454.88L1455.52 108.98H1453.88V107.64H1455.74L1456.2 104.44H1454.44ZM1465.84 113.64L1471.32 100.74H1464.32V99.28H1473.06V100.38L1467.58 113.64H1465.84ZM1476.32 113.64L1481.8 100.74H1474.8V99.28H1483.54V100.38L1478.06 113.64H1476.32ZM1486.8 113.64L1492.28 100.74H1485.28V99.28H1494.02V100.38L1488.54 113.64H1486.8Z" fill="white"/>
<path d="M1457.34 176.44L1456.84 179.64H1459.32L1459.86 176.44H1457.34ZM1454.44 176.44V175.08H1456.42L1457 171.22H1458.12L1457.52 175.08H1460.06L1460.6 171.22H1461.72L1461.14 175.08H1462.8V176.44H1460.92L1460.48 179.64H1462.22V180.98H1460.28L1459.6 185.42H1458.5L1459.16 180.98H1456.66L1456 185.42H1454.88L1455.52 180.98H1453.88V179.64H1455.74L1456.2 176.44H1454.44ZM1468.78 172.32C1467.02 172.32 1465.92 173.82 1465.92 175.74C1465.92 177.8 1467.22 179.04 1468.76 179.04C1469.98 179.04 1471.24 178.14 1471.8 177.16V176.78C1471.8 174.48 1470.96 172.32 1468.78 172.32ZM1468.78 171C1471.7 171 1473.4 173.12 1473.4 177.44V178.5C1473.4 183.42 1471.08 185.76 1468.14 185.76C1466.64 185.76 1465.5 185.32 1464.66 184.78L1465.18 183.46C1465.78 183.92 1466.94 184.38 1467.94 184.38C1470.02 184.38 1471.64 183.22 1471.82 178.86C1471.14 179.64 1469.86 180.38 1468.42 180.38C1466.28 180.38 1464.3 178.66 1464.3 175.84C1464.3 173.1 1466.1 171 1468.78 171ZM1479.5 172.32C1477.74 172.32 1476.64 173.82 1476.64 175.74C1476.64 177.8 1477.94 179.04 1479.48 179.04C1480.7 179.04 1481.96 178.14 1482.52 177.16V176.78C1482.52 174.48 1481.68 172.32 1479.5 172.32ZM1479.5 171C1482.42 171 1484.12 173.12 1484.12 177.44V178.5C1484.12 183.42 1481.8 185.76 1478.86 185.76C1477.36 185.76 1476.22 185.32 1475.38 184.78L1475.9 183.46C1476.5 183.92 1477.66 184.38 1478.66 184.38C1480.74 184.38 1482.36 183.22 1482.54 178.86C1481.86 179.64 1480.58 180.38 1479.14 180.38C1477 180.38 1475.02 178.66 1475.02 175.84C1475.02 173.1 1476.82 171 1479.5 171ZM1490.21 172.32C1488.45 172.32 1487.35 173.82 1487.35 175.74C1487.35 177.8 1488.65 179.04 1490.19 179.04C1491.41 179.04 1492.67 178.14 1493.23 177.16V176.78C1493.23 174.48 1492.39 172.32 1490.21 172.32ZM1490.21 171C1493.13 171 1494.83 173.12 1494.83 177.44V178.5C1494.83 183.42 1492.51 185.76 1489.57 185.76C1488.07 185.76 1486.93 185.32 1486.09 184.78L1486.61 183.46C1487.21 183.92 1488.37 184.38 1489.37 184.38C1491.45 184.38 1493.07 183.22 1493.25 178.86C1492.57 179.64 1491.29 180.38 1489.85 180.38C1487.71 180.38 1485.73 178.66 1485.73 175.84C1485.73 173.1 1487.53 171 1490.21 171Z" fill="white"/>
<path d="M1456.48 250.42H1458.9C1460.92 250.42 1462.08 249.42 1462.08 247.72C1462.08 245.9 1461 245.08 1458.9 245.08H1456.48V250.42ZM1454.26 257.7V243.16H1459.24C1462.48 243.16 1464.34 244.6 1464.34 247.62C1464.34 250.7 1462.2 252.32 1459.4 252.32H1456.48V257.7H1454.26ZM1466.28 257.68V242.14H1468.48V257.68H1466.28ZM1474.45 256.06C1475.25 256.06 1476.39 255.5 1476.81 255V252.52C1475.11 252.72 1472.59 252.58 1472.59 254.56C1472.59 255.64 1473.43 256.06 1474.45 256.06ZM1473.87 257.9C1471.93 257.9 1470.37 256.92 1470.37 254.7C1470.37 252.48 1471.95 251.4 1474.17 251.16L1476.81 250.86V250.5C1476.81 249.14 1475.91 248.58 1474.33 248.58C1473.45 248.58 1472.13 249 1471.43 249.5C1471.21 248.88 1471.03 248.26 1470.83 247.64C1471.77 247.04 1473.43 246.6 1474.83 246.6C1477.15 246.6 1478.97 247.72 1478.97 250.2V257.68H1477.23L1476.99 256.7C1476.41 257.36 1474.99 257.9 1473.87 257.9ZM1486.1 257.96C1483.16 257.96 1480.92 255.92 1480.92 252.38V252.02C1480.92 248.44 1483.44 246.68 1486.12 246.68C1487.66 246.68 1488.88 247.12 1489.58 247.68L1488.88 249.5C1488.28 249.04 1487.36 248.64 1486.3 248.64C1484.74 248.64 1483.26 249.94 1483.26 251.94V252.4C1483.26 254.56 1484.6 255.96 1486.38 255.96C1487.42 255.96 1488.5 255.52 1489.04 255.14L1489.64 257C1489 257.5 1487.48 257.96 1486.1 257.96ZM1495.75 248.56C1494.69 248.56 1493.33 249.26 1493.17 251.24H1498.15C1498.13 249.38 1497.05 248.56 1495.75 248.56ZM1496.17 257.98C1492.89 257.98 1490.87 255.84 1490.87 252.58V252.18C1490.87 248.5 1493.19 246.66 1495.73 246.66C1498.57 246.66 1500.33 248.5 1500.33 251.8V252.96H1493.19C1493.27 255.08 1494.69 255.98 1496.33 255.98C1497.69 255.98 1498.99 255.46 1499.65 254.98L1500.27 256.68C1499.57 257.28 1497.95 257.98 1496.17 257.98ZM1502.24 257.7V242.14H1504.4V248.32C1505.34 247.28 1506.58 246.76 1507.86 246.76C1509.68 246.76 1511.34 247.92 1511.34 250.28V257.7H1509.14V250.8C1509.14 249.52 1508.32 248.78 1507 248.78C1506.18 248.78 1504.98 249.46 1504.4 250.34V257.7H1502.24ZM1518.26 256.12C1519.74 256.12 1521.02 254.88 1521.02 252.52V252.1C1521.02 249.56 1519.62 248.54 1518.2 248.54C1516.7 248.54 1515.4 249.74 1515.4 252.08V252.5C1515.4 255.08 1516.86 256.12 1518.26 256.12ZM1518.22 258C1515.26 258 1513.12 255.86 1513.12 252.5V252.28C1513.12 248.76 1515.52 246.64 1518.24 246.64C1521.12 246.64 1523.34 248.72 1523.34 252.16V252.38C1523.34 255.82 1520.92 258 1518.22 258ZM1525.11 257.68V242.14H1527.31V257.68H1525.11ZM1534.12 255.96C1535.04 255.96 1536.26 255.2 1536.68 254.42V249.8C1536.24 249.14 1535.08 248.66 1534.24 248.66C1532.64 248.66 1531.42 249.88 1531.42 252.1V252.52C1531.42 254.92 1532.66 255.96 1534.12 255.96ZM1533.68 257.9C1531.72 257.9 1529.12 256.52 1529.12 252.56V252.2C1529.12 248.64 1531.22 246.74 1533.72 246.74C1534.82 246.74 1536.06 247.16 1536.68 247.72V242.16H1538.9V257.68H1537.02L1536.8 256.46C1536.14 257.24 1534.94 257.9 1533.68 257.9ZM1545.77 248.56C1544.71 248.56 1543.35 249.26 1543.19 251.24H1548.17C1548.15 249.38 1547.07 248.56 1545.77 248.56ZM1546.19 257.98C1542.91 257.98 1540.89 255.84 1540.89 252.58V252.18C1540.89 248.5 1543.21 246.66 1545.75 246.66C1548.59 246.66 1550.35 248.5 1550.35 251.8V252.96H1543.21C1543.29 255.08 1544.71 255.98 1546.35 255.98C1547.71 255.98 1549.01 255.46 1549.67 254.98L1550.29 256.68C1549.59 257.28 1547.97 257.98 1546.19 257.98ZM1552.25 257.68V246.98H1554.43V248.28C1555.03 247.36 1556.07 246.76 1557.13 246.76C1557.89 246.76 1558.65 246.96 1559.11 247.28L1558.51 249.38C1558.17 249.12 1557.51 248.88 1556.93 248.88C1555.85 248.88 1555.07 249.4 1554.43 250.34V257.68H1552.25Z" fill="white"/>
<path d="M1456.5 327.8H1458.8C1461.36 327.8 1463.12 325.88 1463.12 322.36V322C1463.12 318.32 1461.2 317.06 1458.64 317.06H1456.5V327.8ZM1454.26 329.7V315.16H1458.78C1462.84 315.16 1465.38 317.16 1465.38 322V322.36C1465.38 326.96 1462.86 329.7 1458.76 329.7H1454.26ZM1467.22 317.02V314.72H1469.46V317.02H1467.22ZM1467.26 329.7V318.94H1469.44V329.7H1467.26ZM1474.92 329.96C1473.52 329.96 1471.96 329.52 1471.12 329.02L1471.7 327.14C1472.44 327.62 1473.92 328.06 1474.8 328.06C1476.08 328.06 1476.82 327.42 1476.82 326.66C1476.82 325.9 1476.34 325.5 1475.32 325.28L1474.1 325.06C1472.58 324.74 1471.42 323.74 1471.42 321.94C1471.42 320.06 1472.9 318.72 1475.38 318.72C1476.88 318.72 1478.2 319.16 1478.9 319.58L1478.28 321.38C1477.62 320.96 1476.62 320.54 1475.64 320.54C1474.44 320.54 1473.62 321.04 1473.62 321.88C1473.62 322.72 1474.14 323.08 1475.02 323.24L1476.26 323.46C1478.1 323.8 1479.04 324.86 1479.04 326.54C1479.04 328.5 1477.42 329.96 1474.92 329.96ZM1484.4 328.06C1485.2 328.06 1486.34 327.5 1486.76 327V324.52C1485.06 324.72 1482.54 324.58 1482.54 326.56C1482.54 327.64 1483.38 328.06 1484.4 328.06ZM1483.82 329.9C1481.88 329.9 1480.32 328.92 1480.32 326.7C1480.32 324.48 1481.9 323.4 1484.12 323.16L1486.76 322.86V322.5C1486.76 321.14 1485.86 320.58 1484.28 320.58C1483.4 320.58 1482.08 321 1481.38 321.5C1481.16 320.88 1480.98 320.26 1480.78 319.64C1481.72 319.04 1483.38 318.6 1484.78 318.6C1487.1 318.6 1488.92 319.72 1488.92 322.2V329.68H1487.18L1486.94 328.7C1486.36 329.36 1484.94 329.9 1483.82 329.9ZM1495.99 327.96C1497.45 327.96 1498.69 326.76 1498.69 324.4V324.04C1498.69 321.82 1497.47 320.78 1495.89 320.78C1495.05 320.78 1493.93 321.38 1493.51 322.04V326.38C1493.97 327.4 1495.05 327.96 1495.99 327.96ZM1496.47 329.84C1495.15 329.84 1494.07 329.3 1493.47 328.6V329.68H1491.31V314.16H1493.51V319.88C1494.13 319.3 1495.29 318.78 1496.43 318.78C1498.95 318.78 1501.03 320.44 1501.03 324.04V324.36C1501.03 328.3 1498.43 329.84 1496.47 329.84ZM1502.97 329.68V314.14H1505.17V329.68H1502.97ZM1511.91 320.56C1510.85 320.56 1509.49 321.26 1509.33 323.24H1514.31C1514.29 321.38 1513.21 320.56 1511.91 320.56ZM1512.33 329.98C1509.05 329.98 1507.03 327.84 1507.03 324.58V324.18C1507.03 320.5 1509.35 318.66 1511.89 318.66C1514.73 318.66 1516.49 320.5 1516.49 323.8V324.96H1509.35C1509.43 327.08 1510.85 327.98 1512.49 327.98C1513.85 327.98 1515.15 327.46 1515.81 326.98L1516.43 328.68C1515.73 329.28 1514.11 329.98 1512.33 329.98ZM1522.93 327.96C1523.85 327.96 1525.07 327.2 1525.49 326.42V321.8C1525.05 321.14 1523.89 320.66 1523.05 320.66C1521.45 320.66 1520.23 321.88 1520.23 324.1V324.52C1520.23 326.92 1521.47 327.96 1522.93 327.96ZM1522.49 329.9C1520.53 329.9 1517.93 328.52 1517.93 324.56V324.2C1517.93 320.64 1520.03 318.74 1522.53 318.74C1523.63 318.74 1524.87 319.16 1525.49 319.72V314.16H1527.71V329.68H1525.83L1525.61 328.46C1524.95 329.24 1523.75 329.9 1522.49 329.9Z" fill="white"/>
<path d="M1454.28 401.7V387.16H1463.1V389.14H1456.5V393.1H1462.44V395.04H1456.5V399.7H1463.22V401.7H1454.28ZM1465.23 401.68V390.98H1467.41V392.28C1468.01 391.36 1469.05 390.76 1470.11 390.76C1470.87 390.76 1471.63 390.96 1472.09 391.28L1471.49 393.38C1471.15 393.12 1470.49 392.88 1469.91 392.88C1468.83 392.88 1468.05 393.4 1467.41 394.34V401.68H1465.23ZM1472.89 401.68V390.98H1475.07V392.28C1475.67 391.36 1476.71 390.76 1477.77 390.76C1478.53 390.76 1479.29 390.96 1479.75 391.28L1479.15 393.38C1478.81 393.12 1478.15 392.88 1477.57 392.88C1476.49 392.88 1475.71 393.4 1475.07 394.34V401.68H1472.89ZM1484.59 400.12C1486.07 400.12 1487.35 398.88 1487.35 396.52V396.1C1487.35 393.56 1485.95 392.54 1484.53 392.54C1483.03 392.54 1481.73 393.74 1481.73 396.08V396.5C1481.73 399.08 1483.19 400.12 1484.59 400.12ZM1484.55 402C1481.59 402 1479.45 399.86 1479.45 396.5V396.28C1479.45 392.76 1481.85 390.64 1484.57 390.64C1487.45 390.64 1489.67 392.72 1489.67 396.16V396.38C1489.67 399.82 1487.25 402 1484.55 402ZM1491.37 401.68V390.98H1493.55V392.28C1494.15 391.36 1495.19 390.76 1496.25 390.76C1497.01 390.76 1497.77 390.96 1498.23 391.28L1497.63 393.38C1497.29 393.12 1496.63 392.88 1496.05 392.88C1494.97 392.88 1494.19 393.4 1493.55 394.34V401.68H1491.37Z" fill="white"/>
</svg>
