<svg width="1211" height="115" viewBox="0 0 1211 115" fill="none" xmlns="http://www.w3.org/2000/svg">
<path d="M232.57 17.182C234.766 17.182 236.278 15.382 236.278 12.43V11.872C236.278 8.938 234.64 7.282 232.516 7.282C230.5 7.282 228.826 8.974 228.826 11.836V12.394C228.826 15.436 230.356 17.182 232.57 17.182ZM232.534 18.982C229.384 18.982 226.756 16.66 226.756 12.304V12.07C226.756 7.804 229.402 5.464 232.57 5.464C235.666 5.464 238.366 7.678 238.366 12.052V12.304C238.366 16.588 235.72 18.982 232.534 18.982ZM243.616 18.748L238.936 5.644H241.186L244.84 16.39L248.494 5.644H250.708L245.974 18.748H243.616ZM251.727 18.73V5.644H259.665V7.426H253.725V10.99H259.071V12.736H253.725V16.93H259.773V18.73H251.727ZM263.578 11.926H265.756C267.502 11.926 268.528 11.044 268.528 9.568C268.528 8.182 267.574 7.372 265.774 7.372H263.578V11.926ZM261.598 18.73V5.644H265.936C268.978 5.644 270.544 7.102 270.544 9.532C270.544 11.332 269.41 12.736 267.916 13.24L271.462 18.73H269.086L266.026 13.636H263.578V18.73H261.598ZM276.233 18.748L271.553 5.644H273.803L277.457 16.39L281.111 5.644H283.325L278.591 18.748H276.233ZM284.452 18.73V5.644H286.486V18.73H284.452ZM288.642 18.73V5.644H296.58V7.426H290.64V10.99H295.986V12.736H290.64V16.93H296.688V18.73H288.642ZM300.887 18.73L297.611 5.644H299.663L302.183 16.03L304.505 5.644H306.863L309.203 16.012L311.669 5.644H313.685L310.445 18.73H308.051L305.657 8.236L303.281 18.73H300.887Z" fill="white"/>
<path d="M230.352 51.888C229.216 51.888 227.824 52.848 227.696 54.848H232.832C232.816 52.832 231.744 51.888 230.352 51.888ZM230.592 59.904C228.224 59.904 226.736 58.192 226.736 55.76V55.44C226.736 52.528 228.512 51.088 230.368 51.088C232.368 51.088 233.776 52.496 233.776 55.088V55.648H227.696C227.696 58.032 228.928 59.088 230.816 59.088C231.712 59.088 232.816 58.624 233.296 58.224L233.616 58.976C233.088 59.424 231.824 59.904 230.592 59.904ZM237.64 59.776L234.28 51.296H235.304L238.2 58.672L240.952 51.296H241.96L238.632 59.776H237.64ZM245.884 51.888C244.748 51.888 243.356 52.848 243.228 54.848H248.364C248.348 52.832 247.276 51.888 245.884 51.888ZM246.124 59.904C243.756 59.904 242.268 58.192 242.268 55.76V55.44C242.268 52.528 244.044 51.088 245.9 51.088C247.9 51.088 249.308 52.496 249.308 55.088V55.648H243.228C243.228 58.032 244.46 59.088 246.348 59.088C247.244 59.088 248.348 58.624 248.828 58.224L249.148 58.976C248.62 59.424 247.356 59.904 246.124 59.904ZM250.909 59.728V51.296H251.821V52.608C252.557 51.76 253.645 51.152 254.717 51.152C256.013 51.152 257.277 51.952 257.277 53.552V59.728H256.349V53.792C256.349 52.624 255.485 51.984 254.365 51.984C253.517 51.984 252.557 52.656 251.821 53.552V59.728H250.909ZM262.367 59.824C261.135 59.824 260.079 59.072 260.079 57.456V52.112H258.607V51.296H260.079V49.2H261.023V51.296H263.711V52.112H261.023V57.232C261.023 58.512 261.551 58.992 262.543 58.992C262.991 58.992 263.855 58.736 264.143 58.512L264.367 59.328C264.031 59.568 263.103 59.824 262.367 59.824ZM271.446 58.048H272.262V61.44H280.518V62.24H271.446V58.048ZM276.55 59.152H275.734V56.096H269.126V55.296H282.598V56.096H276.55V59.152ZM272.854 50.704C272.854 52.208 274.182 53.136 275.862 53.136C277.526 53.136 278.886 52.208 278.886 50.704C278.886 49.248 277.526 48.288 275.862 48.288C274.182 48.288 272.854 49.248 272.854 50.704ZM271.99 50.704C271.99 48.88 273.606 47.472 275.862 47.472C278.118 47.472 279.766 48.88 279.766 50.704C279.766 52.528 278.118 53.936 275.862 53.936C273.606 53.936 271.99 52.528 271.99 50.704ZM296.005 55.632H295.157V53.568H292.021V52.736H295.157V50.4H292.021V49.584H295.157V47.36H296.005V55.632ZM295.093 59.216C295.093 57.824 293.813 56.72 292.037 56.72C290.261 56.72 288.965 57.824 288.965 59.216C288.965 60.672 290.261 61.728 292.037 61.728C293.813 61.728 295.093 60.672 295.093 59.216ZM295.989 59.216C295.989 61.136 294.293 62.528 292.037 62.528C289.781 62.528 288.101 61.136 288.101 59.216C288.101 57.36 289.765 55.936 292.037 55.936C294.309 55.936 295.989 57.36 295.989 59.216ZM284.949 51.552C284.949 53.024 286.213 54.224 287.749 54.224C289.333 54.224 290.597 53.024 290.597 51.552C290.597 50.096 289.333 48.896 287.749 48.896C286.213 48.896 284.949 50.096 284.949 51.552ZM284.037 51.552C284.037 49.664 285.717 48.048 287.749 48.048C289.829 48.048 291.477 49.664 291.477 51.552C291.477 53.472 289.829 55.04 287.749 55.04C285.717 55.04 284.037 53.472 284.037 51.552ZM310.232 48.288V49.568C310.184 51.216 310.104 52.064 309.736 53.584L308.936 53.504C309.304 51.92 309.416 50.784 309.416 49.728V49.104H303.064V48.288H310.232ZM305.464 57.536H306.28V61.12H314.2V61.92H305.464V57.536ZM311.64 54.736L311.72 55.504C310.152 55.728 308.2 55.856 306.536 55.936C305.192 56 303.496 56.064 302.104 56.032L302.024 55.264C302.888 55.264 304.248 55.232 305.448 55.184V51.792H306.264V55.152C306.312 55.152 306.376 55.136 306.424 55.136C307.896 55.104 310.2 54.896 311.64 54.736ZM313.72 47.376V51.904H316.12V52.72H313.72V58.288H312.872V47.376H313.72ZM326.087 55.664L326.183 56.416C324.119 56.912 321.479 57.088 318.727 57.088H317.495V52.112H323.159V49.04H317.511V48.208H323.975V52.896H318.311V56.288H319.415C321.319 56.288 324.119 56.096 326.087 55.664ZM327.911 60.72V47.408H328.727V60.72H327.911Z" fill="white"/>
<path d="M919.132 12.178H921.31C923.128 12.178 924.172 11.278 924.172 9.748C924.172 8.11 923.2 7.372 921.31 7.372H919.132V12.178ZM917.134 18.73V5.644H921.616C924.532 5.644 926.206 6.94 926.206 9.658C926.206 12.43 924.28 13.888 921.76 13.888H919.132V18.73H917.134ZM927.884 18.73V5.644H935.822V7.426H929.882V10.99H935.228V12.736H929.882V16.93H935.93V18.73H927.884ZM939.735 11.926H941.913C943.659 11.926 944.685 11.044 944.685 9.568C944.685 8.182 943.731 7.372 941.931 7.372H939.735V11.926ZM937.755 18.73V5.644H942.093C945.135 5.644 946.701 7.102 946.701 9.532C946.701 11.332 945.567 12.736 944.073 13.24L947.619 18.73H945.243L942.183 13.636H939.735V18.73H937.755ZM948.858 18.73V5.644H950.892V18.73H948.858ZM958.466 17.182C960.662 17.182 962.174 15.382 962.174 12.43V11.872C962.174 8.938 960.536 7.282 958.412 7.282C956.396 7.282 954.722 8.974 954.722 11.836V12.394C954.722 15.436 956.252 17.182 958.466 17.182ZM958.43 18.982C955.28 18.982 952.652 16.66 952.652 12.304V12.07C952.652 7.804 955.298 5.464 958.466 5.464C961.562 5.464 964.262 7.678 964.262 12.052V12.304C964.262 16.588 961.616 18.982 958.43 18.982ZM967.87 17.02H969.94C972.244 17.02 973.828 15.292 973.828 12.124V11.8C973.828 8.488 972.1 7.354 969.796 7.354H967.87V17.02ZM965.854 18.73V5.644H969.922C973.576 5.644 975.862 7.444 975.862 11.8V12.124C975.862 16.264 973.594 18.73 969.904 18.73H965.854Z" fill="white"/>
<path d="M920.672 59.008C922.352 59.008 923.408 57.776 923.408 54.768V53.328C923.408 50.368 922.384 49.04 920.688 49.04C919.008 49.04 917.856 50.304 917.856 53.232V54.688C917.856 57.616 918.992 59.008 920.672 59.008ZM920.672 59.888C918.608 59.888 916.88 58.288 916.88 54.48V53.408C916.88 49.456 918.72 48.144 920.672 48.144C922.64 48.144 924.384 49.44 924.384 53.344V54.512C924.384 58.272 922.736 59.888 920.672 59.888ZM928.317 59.76V49.472L926.333 50.016V49.456L928.701 48.224H929.213V59.76H928.317ZM932.62 60.224V59.104H933.772V60.224H932.62ZM939.739 59.728V59.12L942.699 56.256C944.235 54.752 945.547 53.216 945.547 51.52C945.547 49.888 944.555 49.04 942.955 49.04C941.947 49.04 940.955 49.504 940.363 50.016L939.947 49.216C940.571 48.688 941.915 48.144 943.099 48.144C945.115 48.144 946.555 49.376 946.555 51.44C946.555 53.376 945.515 54.832 943.307 56.896L941.243 58.848H946.667V59.728H939.739ZM951.838 59.008C953.518 59.008 954.574 57.776 954.574 54.768V53.328C954.574 50.368 953.55 49.04 951.854 49.04C950.174 49.04 949.022 50.304 949.022 53.232V54.688C949.022 57.616 950.158 59.008 951.838 59.008ZM951.838 59.888C949.774 59.888 948.046 58.288 948.046 54.48V53.408C948.046 49.456 949.886 48.144 951.838 48.144C953.806 48.144 955.55 49.44 955.55 53.344V54.512C955.55 58.272 953.902 59.888 951.838 59.888ZM956.63 59.728V59.12L959.59 56.256C961.126 54.752 962.438 53.216 962.438 51.52C962.438 49.888 961.446 49.04 959.846 49.04C958.838 49.04 957.846 49.504 957.254 50.016L956.838 49.216C957.462 48.688 958.806 48.144 959.99 48.144C962.006 48.144 963.446 49.376 963.446 51.44C963.446 53.376 962.406 54.832 960.198 56.896L958.134 58.848H963.558V59.728H956.63ZM967.975 59.824C966.759 59.824 965.719 59.44 965.127 58.992L965.431 58.16C966.039 58.592 967.175 58.928 967.911 58.928C969.767 58.928 970.871 57.952 970.871 56.464C970.871 54.944 969.495 54.16 967.959 54.16H966.807V53.184H967.863C969.271 53.2 970.423 52.32 970.423 50.928C970.423 49.44 969.367 49.008 968.087 49.008C967.175 49.008 966.375 49.328 965.703 49.888L965.255 49.136C965.975 48.576 967.143 48.096 968.215 48.096C970.039 48.096 971.447 49.072 971.447 50.816C971.447 52.272 970.535 53.2 969.271 53.6C970.631 53.888 971.847 54.64 971.847 56.416C971.847 58.352 970.215 59.824 967.975 59.824ZM981.228 53.04C981.788 53.664 982.252 54.064 982.908 54.064C983.644 54.064 984.06 53.392 984.188 52.448L984.828 52.624C984.62 54.128 983.676 54.832 982.844 54.832C982.172 54.832 981.58 54.576 980.988 53.904C980.348 53.184 980.028 52.928 979.388 52.928C978.7 52.928 978.396 53.584 978.108 54.656L977.468 54.464C977.836 52.752 978.588 52.144 979.548 52.112C980.124 52.096 980.78 52.528 981.228 53.04ZM920.672 83.008C922.352 83.008 923.408 81.776 923.408 78.768V77.328C923.408 74.368 922.384 73.04 920.688 73.04C919.008 73.04 917.856 74.304 917.856 77.232V78.688C917.856 81.616 918.992 83.008 920.672 83.008ZM920.672 83.888C918.608 83.888 916.88 82.288 916.88 78.48V77.408C916.88 73.456 918.72 72.144 920.672 72.144C922.64 72.144 924.384 73.44 924.384 77.344V78.512C924.384 82.272 922.736 83.888 920.672 83.888ZM926.641 80.32H931.089V73.664L926.641 80.32ZM931.089 83.728V81.152H925.681V80.32L931.121 72.256H931.937V80.32H933.777V81.152H931.937V83.728H931.089ZM934.698 84.224V83.104H935.85V84.224H934.698ZM941.817 83.728V83.12L944.777 80.256C946.313 78.752 947.625 77.216 947.625 75.52C947.625 73.888 946.633 73.04 945.033 73.04C944.025 73.04 943.033 73.504 942.441 74.016L942.025 73.216C942.649 72.688 943.993 72.144 945.177 72.144C947.193 72.144 948.633 73.376 948.633 75.44C948.633 77.376 947.593 78.832 945.385 80.896L943.321 82.848H948.745V83.728H941.817ZM953.916 83.008C955.596 83.008 956.652 81.776 956.652 78.768V77.328C956.652 74.368 955.628 73.04 953.932 73.04C952.252 73.04 951.1 74.304 951.1 77.232V78.688C951.1 81.616 952.236 83.008 953.916 83.008ZM953.916 83.888C951.852 83.888 950.124 82.288 950.124 78.48V77.408C950.124 73.456 951.964 72.144 953.916 72.144C955.884 72.144 957.628 73.44 957.628 77.344V78.512C957.628 82.272 955.98 83.888 953.916 83.888ZM958.709 83.728V83.12L961.669 80.256C963.205 78.752 964.517 77.216 964.517 75.52C964.517 73.888 963.525 73.04 961.925 73.04C960.917 73.04 959.925 73.504 959.333 74.016L958.917 73.216C959.541 72.688 960.885 72.144 962.069 72.144C964.085 72.144 965.525 73.376 965.525 75.44C965.525 77.376 964.485 78.832 962.277 80.896L960.213 82.848H965.637V83.728H958.709ZM967.581 80.32H972.029V73.664L967.581 80.32ZM972.029 83.728V81.152H966.621V80.32L972.061 72.256H972.877V80.32H974.717V81.152H972.877V83.728H972.029Z" fill="white"/>
<path d="M1071.15 11.926H1073.33C1075.07 11.926 1076.1 11.044 1076.1 9.568C1076.1 8.182 1075.15 7.372 1073.35 7.372H1071.15V11.926ZM1069.17 18.73V5.644H1073.51C1076.55 5.644 1078.12 7.102 1078.12 9.532C1078.12 11.332 1076.98 12.736 1075.49 13.24L1079.03 18.73H1076.66L1073.6 13.636H1071.15V18.73H1069.17ZM1083.99 17.308C1085.32 17.308 1086.47 16.192 1086.47 14.068V13.69C1086.47 11.404 1085.21 10.486 1083.94 10.486C1082.59 10.486 1081.42 11.566 1081.42 13.672V14.05C1081.42 16.372 1082.73 17.308 1083.99 17.308ZM1083.95 19C1081.29 19 1079.36 17.074 1079.36 14.05V13.852C1079.36 10.684 1081.52 8.776 1083.97 8.776C1086.56 8.776 1088.56 10.648 1088.56 13.744V13.942C1088.56 17.038 1086.38 19 1083.95 19ZM1090.16 18.712V4.726H1092.14V18.712H1090.16ZM1098.21 10.504C1097.25 10.504 1096.03 11.134 1095.89 12.916H1100.37C1100.35 11.242 1099.38 10.504 1098.21 10.504ZM1098.59 18.982C1095.63 18.982 1093.82 17.056 1093.82 14.122V13.762C1093.82 10.45 1095.9 8.794 1098.19 8.794C1100.75 8.794 1102.33 10.45 1102.33 13.42V14.464H1095.9C1095.98 16.372 1097.25 17.182 1098.73 17.182C1099.95 17.182 1101.12 16.714 1101.72 16.282L1102.28 17.812C1101.65 18.352 1100.19 18.982 1098.59 18.982ZM1110.71 12.178H1112.89C1114.71 12.178 1115.75 11.278 1115.75 9.748C1115.75 8.11 1114.78 7.372 1112.89 7.372H1110.71V12.178ZM1108.71 18.73V5.644H1113.19C1116.11 5.644 1117.78 6.94 1117.78 9.658C1117.78 12.43 1115.86 13.888 1113.34 13.888H1110.71V18.73H1108.71ZM1122.25 17.254C1122.97 17.254 1123.99 16.75 1124.37 16.3V14.068C1122.84 14.248 1120.57 14.122 1120.57 15.904C1120.57 16.876 1121.33 17.254 1122.25 17.254ZM1121.73 18.91C1119.98 18.91 1118.58 18.028 1118.58 16.03C1118.58 14.032 1120 13.06 1122 12.844L1124.37 12.574V12.25C1124.37 11.026 1123.56 10.522 1122.14 10.522C1121.35 10.522 1120.16 10.9 1119.53 11.35C1119.33 10.792 1119.17 10.234 1118.99 9.676C1119.84 9.136 1121.33 8.74 1122.59 8.74C1124.68 8.74 1126.32 9.748 1126.32 11.98V18.712H1124.75L1124.53 17.83C1124.01 18.424 1122.73 18.91 1121.73 18.91ZM1128.47 18.712V9.082H1130.43V10.252C1130.97 9.424 1131.91 8.884 1132.86 8.884C1133.55 8.884 1134.23 9.064 1134.65 9.352L1134.11 11.242C1133.8 11.008 1133.21 10.792 1132.68 10.792C1131.71 10.792 1131.01 11.26 1130.43 12.106V18.712H1128.47ZM1139.13 18.856C1137.6 18.856 1136.4 18.028 1136.4 15.886V10.738H1134.87V9.064H1136.4V6.616H1138.36V9.064H1141.13V10.738H1138.36V15.58C1138.36 16.516 1138.77 17.074 1139.67 17.074C1140.12 17.074 1140.93 16.858 1141.4 16.552L1141.74 18.226C1141.24 18.568 1140.16 18.856 1139.13 18.856ZM1142.92 7.318V5.248H1144.94V7.318H1142.92ZM1142.96 18.73V9.046H1144.92V18.73H1142.96ZM1151.24 18.964C1148.59 18.964 1146.58 17.128 1146.58 13.942V13.618C1146.58 10.396 1148.85 8.812 1151.26 8.812C1152.64 8.812 1153.74 9.208 1154.37 9.712L1153.74 11.35C1153.2 10.936 1152.37 10.576 1151.42 10.576C1150.02 10.576 1148.68 11.746 1148.68 13.546V13.96C1148.68 15.904 1149.89 17.164 1151.49 17.164C1152.43 17.164 1153.4 16.768 1153.89 16.426L1154.43 18.1C1153.85 18.55 1152.48 18.964 1151.24 18.964ZM1155.93 7.318V5.248H1157.95V7.318H1155.93ZM1155.97 18.73V9.046H1157.93V18.73H1155.97ZM1164.19 10.684C1163.35 10.684 1162.34 11.332 1161.94 12.07V16.12C1162.34 16.678 1163.35 17.164 1164.12 17.164C1165.54 17.164 1166.61 16.048 1166.61 14.05V13.744C1166.61 11.548 1165.51 10.684 1164.19 10.684ZM1164.61 8.884C1166.48 8.884 1168.71 10.108 1168.71 13.762V13.996C1168.71 17.2 1166.82 18.91 1164.59 18.91C1163.55 18.91 1162.52 18.514 1161.94 17.956V22.6H1159.98V9.064H1161.93V10.216C1162.48 9.514 1163.47 8.884 1164.61 8.884ZM1173.66 17.254C1174.38 17.254 1175.4 16.75 1175.78 16.3V14.068C1174.25 14.248 1171.98 14.122 1171.98 15.904C1171.98 16.876 1172.74 17.254 1173.66 17.254ZM1173.14 18.91C1171.39 18.91 1169.99 18.028 1169.99 16.03C1169.99 14.032 1171.41 13.06 1173.41 12.844L1175.78 12.574V12.25C1175.78 11.026 1174.97 10.522 1173.55 10.522C1172.76 10.522 1171.57 10.9 1170.94 11.35C1170.74 10.792 1170.58 10.234 1170.4 9.676C1171.25 9.136 1172.74 8.74 1174 8.74C1176.09 8.74 1177.73 9.748 1177.73 11.98V18.712H1176.16L1175.94 17.83C1175.42 18.424 1174.14 18.91 1173.14 18.91ZM1183.2 18.856C1181.67 18.856 1180.47 18.028 1180.47 15.886V10.738H1178.94V9.064H1180.47V6.616H1182.43V9.064H1185.2V10.738H1182.43V15.58C1182.43 16.516 1182.84 17.074 1183.74 17.074C1184.19 17.074 1185 16.858 1185.47 16.552L1185.81 18.226C1185.31 18.568 1184.23 18.856 1183.2 18.856ZM1186.99 7.318V5.248H1189.01V7.318H1186.99ZM1187.03 18.73V9.046H1188.99V18.73H1187.03ZM1195.22 17.308C1196.55 17.308 1197.7 16.192 1197.7 14.068V13.69C1197.7 11.404 1196.44 10.486 1195.17 10.486C1193.82 10.486 1192.65 11.566 1192.65 13.672V14.05C1192.65 16.372 1193.96 17.308 1195.22 17.308ZM1195.18 19C1192.52 19 1190.59 17.074 1190.59 14.05V13.852C1190.59 10.684 1192.75 8.776 1195.2 8.776C1197.79 8.776 1199.79 10.648 1199.79 13.744V13.942C1199.79 17.038 1197.61 19 1195.18 19ZM1201.32 18.712V9.064H1203.25V10.306C1204.04 9.406 1205.21 8.902 1206.36 8.902C1208.03 8.902 1209.47 10 1209.47 12.088V18.712H1207.51V12.484C1207.51 11.404 1206.81 10.684 1205.59 10.684C1204.83 10.684 1203.88 11.224 1203.28 12.034V18.712H1201.32Z" fill="white"/>
<path d="M1071.84 59.76V49.472L1069.86 50.016V49.456L1072.22 48.224H1072.74V59.76H1071.84ZM1079.71 59.008C1081.39 59.008 1082.45 57.776 1082.45 54.768V53.328C1082.45 50.368 1081.42 49.04 1079.73 49.04C1078.05 49.04 1076.9 50.304 1076.9 53.232V54.688C1076.9 57.616 1078.03 59.008 1079.71 59.008ZM1079.71 59.888C1077.65 59.888 1075.92 58.288 1075.92 54.48V53.408C1075.92 49.456 1077.76 48.144 1079.71 48.144C1081.68 48.144 1083.42 49.44 1083.42 53.344V54.512C1083.42 58.272 1081.78 59.888 1079.71 59.888ZM1088.67 59.008C1090.35 59.008 1091.41 57.776 1091.41 54.768V53.328C1091.41 50.368 1090.38 49.04 1088.69 49.04C1087.01 49.04 1085.86 50.304 1085.86 53.232V54.688C1085.86 57.616 1086.99 59.008 1088.67 59.008ZM1088.67 59.888C1086.61 59.888 1084.88 58.288 1084.88 54.48V53.408C1084.88 49.456 1086.72 48.144 1088.67 48.144C1090.64 48.144 1092.38 49.44 1092.38 53.344V54.512C1092.38 58.272 1090.74 59.888 1088.67 59.888ZM1103.07 59.008C1103.94 59.008 1104.51 58.208 1104.51 56.72V56.352C1104.51 54.944 1103.91 54.224 1103.07 54.224C1102.24 54.224 1101.65 54.928 1101.65 56.368V56.704C1101.65 58.192 1102.21 59.008 1103.07 59.008ZM1103.07 59.76C1101.7 59.76 1100.72 58.656 1100.72 56.704V56.48C1100.72 54.72 1101.7 53.344 1103.07 53.344C1104.5 53.344 1105.43 54.624 1105.43 56.384V56.64C1105.43 58.48 1104.51 59.76 1103.07 59.76ZM1095.36 59.744L1102.77 48.224H1103.68L1096.23 59.744H1095.36ZM1096.21 53.808C1097.07 53.808 1097.65 52.992 1097.65 51.536V51.152C1097.65 49.728 1097.04 49.024 1096.21 49.024C1095.38 49.024 1094.77 49.712 1094.77 51.168V51.52C1094.77 52.976 1095.35 53.808 1096.21 53.808ZM1096.21 54.56C1094.82 54.56 1093.86 53.456 1093.86 51.52V51.28C1093.86 49.488 1094.82 48.144 1096.21 48.144C1097.63 48.144 1098.56 49.424 1098.56 51.184V51.456C1098.56 53.28 1097.65 54.56 1096.21 54.56Z" fill="white"/>
<path d="M3.132 12.178H5.31C7.128 12.178 8.172 11.278 8.172 9.748C8.172 8.11 7.2 7.372 5.31 7.372H3.132V12.178ZM1.134 18.73V5.644H5.616C8.532 5.644 10.206 6.94 10.206 9.658C10.206 12.43 8.28 13.888 5.76 13.888H3.132V18.73H1.134ZM13.8818 11.926H16.0598C17.8058 11.926 18.8318 11.044 18.8318 9.568C18.8318 8.182 17.8778 7.372 16.0778 7.372H13.8818V11.926ZM11.9018 18.73V5.644H16.2398C19.2818 5.644 20.8478 7.102 20.8478 9.532C20.8478 11.332 19.7138 12.736 18.2198 13.24L21.7658 18.73H19.3898L16.3298 13.636H13.8818V18.73H11.9018ZM28.3148 17.182C30.5108 17.182 32.0228 15.382 32.0228 12.43V11.872C32.0228 8.938 30.3848 7.282 28.2608 7.282C26.2448 7.282 24.5708 8.974 24.5708 11.836V12.394C24.5708 15.436 26.1008 17.182 28.3148 17.182ZM28.2788 18.982C25.1288 18.982 22.5008 16.66 22.5008 12.304V12.07C22.5008 7.804 25.1468 5.464 28.3148 5.464C31.4108 5.464 34.1108 7.678 34.1108 12.052V12.304C34.1108 16.588 31.4648 18.982 28.2788 18.982ZM36.9977 18.91C36.0437 18.91 34.8017 18.64 34.1717 18.298L34.6577 16.498C35.1257 16.75 35.9717 16.966 36.6737 16.966C37.9337 16.966 38.6537 16.012 38.6537 14.338V5.644H40.7057V14.41C40.7057 17.11 39.4457 18.91 36.9977 18.91ZM42.7257 18.73V5.644H50.6637V7.426H44.7237V10.99H50.0697V12.736H44.7237V16.93H50.7717V18.73H42.7257ZM57.771 18.91C54.495 18.91 51.813 16.354 51.813 12.322V11.908C51.813 7.606 54.855 5.464 58.005 5.464C59.517 5.464 60.993 5.932 61.785 6.508L61.137 8.236C60.381 7.642 59.301 7.3 58.113 7.3C55.971 7.3 53.901 8.866 53.901 11.854V12.25C53.901 14.95 55.647 17.002 57.987 17.002C59.193 17.002 60.687 16.57 61.497 15.904L62.109 17.614C61.263 18.352 59.517 18.91 57.771 18.91ZM69.0992 7.48V18.73H67.0652V7.48H63.0872V5.662H73.1132V7.48H69.0992Z" fill="white"/>
<path d="M1.04 59.728V48.288H2.448L6.112 58.608L9.856 48.288H11.152V59.728H10.208V49.648L6.608 59.76H5.584L1.984 49.568V59.728H1.04ZM16.7445 59.76L12.4565 48.288H13.5925L17.2885 58.56L20.9525 48.288H22.0885L17.7685 59.76H16.7445ZM23.2281 59.728V48.288H24.5241L30.6361 58.432V48.288H31.5801V59.728H30.3481L24.1561 49.328V59.728H23.2281ZM38.1746 59.168C40.8306 59.168 42.2226 57.168 42.2226 54.128V53.792C42.2226 50.896 40.4946 49.024 38.1746 49.024C35.8706 49.024 34.1266 50.896 34.1266 53.792V54.128C34.1266 57.168 35.5346 59.168 38.1746 59.168ZM38.1746 60.016C35.1666 60.016 33.1186 57.904 33.1186 54.16V54.016C33.1186 50.256 35.2946 48.16 38.1746 48.16C41.0386 48.16 43.2306 50.256 43.2306 54.016V54.16C43.2306 57.904 41.1826 60.016 38.1746 60.016ZM1.104 76.336C1.104 74.08 2.736 72.416 4.96 72.416C7.152 72.416 8.784 74.016 8.784 76.336C8.784 78.56 7.152 80.288 4.96 80.288C2.736 80.288 1.104 78.56 1.104 76.336ZM2.016 76.336C2.016 78.224 3.248 79.456 4.96 79.456C6.608 79.456 7.872 78.224 7.872 76.336C7.872 74.448 6.608 73.216 4.96 73.216C3.248 73.216 2.016 74.448 2.016 76.336ZM12.048 84.72V71.408H12.896V84.72H12.048ZM27.6788 81.904H26.7988V71.376H27.6788V81.904ZM27.9028 85.984H19.0388V81.04H19.8548V85.184H27.9028V85.984ZM20.4148 78.496V75.584H16.3188V78.496H20.4148ZM21.2468 79.28H15.5028V72.16H16.3188V74.8H20.4148V72.16H21.2468V75.168H23.9828V71.568H24.7988V81.632H23.9828V76H21.2468V79.28ZM42.8935 82.832H29.4215V82.016H42.8935V82.832ZM40.5415 75.984H32.4775V78.304H40.7975V79.136H31.6455V72.064H40.6695V72.88H32.4775V75.136H40.5415V75.984ZM53.2806 79.68V76.304H49.2326V79.68H53.2806ZM60.6086 84.72H59.7766V76.736H57.3926V84.368H56.5286V71.584H57.3926V75.92H59.7766V71.392H60.6086V84.72ZM54.0966 80.48H48.4166V72.192H49.2326V75.504H53.2806V72.192H54.0966V80.48ZM74.6714 84.72H73.8554V75.936H68.9434V75.12H73.8554V71.392H74.6714V84.72ZM64.3674 72.432V79.728C67.7114 79.744 69.7914 79.52 71.7274 79.152L71.8554 79.904C69.7594 80.368 66.9594 80.56 63.5514 80.528V72.432H64.3674ZM83.2665 82.048H84.0825V85.44H92.3385V86.24H83.2665V82.048ZM88.3705 83.152H87.5545V80.096H80.9465V79.296H94.4185V80.096H88.3705V83.152ZM84.6745 74.704C84.6745 76.208 86.0025 77.136 87.6825 77.136C89.3465 77.136 90.7065 76.208 90.7065 74.704C90.7065 73.248 89.3465 72.288 87.6825 72.288C86.0025 72.288 84.6745 73.248 84.6745 74.704ZM83.8105 74.704C83.8105 72.88 85.4265 71.472 87.6825 71.472C89.9385 71.472 91.5865 72.88 91.5865 74.704C91.5865 76.528 89.9385 77.936 87.6825 77.936C85.4265 77.936 83.8105 76.528 83.8105 74.704ZM107.825 79.632H106.977V77.568H103.841V76.736H106.977V74.4H103.841V73.584H106.977V71.36H107.825V79.632ZM106.913 83.216C106.913 81.824 105.633 80.72 103.857 80.72C102.081 80.72 100.785 81.824 100.785 83.216C100.785 84.672 102.081 85.728 103.857 85.728C105.633 85.728 106.913 84.672 106.913 83.216ZM107.809 83.216C107.809 85.136 106.113 86.528 103.857 86.528C101.601 86.528 99.9213 85.136 99.9213 83.216C99.9213 81.36 101.585 79.936 103.857 79.936C106.129 79.936 107.809 81.36 107.809 83.216ZM96.7693 75.552C96.7693 77.024 98.0333 78.224 99.5693 78.224C101.153 78.224 102.417 77.024 102.417 75.552C102.417 74.096 101.153 72.896 99.5693 72.896C98.0333 72.896 96.7693 74.096 96.7693 75.552ZM95.8573 75.552C95.8573 73.664 97.5373 72.048 99.5693 72.048C101.649 72.048 103.297 73.664 103.297 75.552C103.297 77.472 101.649 79.04 99.5693 79.04C97.5373 79.04 95.8573 77.472 95.8573 75.552ZM9.36 104.368L8.832 105.072C7.328 104.368 5.472 102.256 5.152 100.576C4.832 102.336 3.232 104.4 1.456 105.392L0.864 104.704C2.928 103.584 4.672 101.28 4.672 98.096V96.016H5.584V98.016C5.584 101.168 7.344 103.312 9.36 104.368ZM13.088 108.72H12.272V100.336H8.592V99.536H12.272V95.392H13.088V108.72ZM22.0628 103.84V100.352H16.7988V103.84H22.0628ZM22.8788 104.544H15.9828V96.192H16.7988V99.648H22.0628V96.192H22.8788V104.544ZM26.4948 108.72V95.408H27.3108V108.72H26.4948ZM35.7095 97.136V96.016H36.6055V97.136C36.6055 99.536 38.6375 101.68 41.7415 102.528L41.3255 103.232C38.6535 102.528 36.7175 100.624 36.1575 99.072C35.5815 100.608 33.7095 102.512 31.0055 103.216L30.5735 102.512C33.6615 101.648 35.7095 99.536 35.7095 97.136ZM42.8935 106.8H29.4215V105.984H42.8935V106.8ZM56.1286 96.288V97.568C56.0806 99.216 56.0006 100.064 55.6326 101.584L54.8326 101.504C55.2006 99.92 55.3126 98.784 55.3126 97.728V97.104H48.9606V96.288H56.1286ZM51.3606 105.536H52.1766V109.12H60.0966V109.92H51.3606V105.536ZM57.5366 102.736L57.6166 103.504C56.0486 103.728 54.0966 103.856 52.4326 103.936C51.0886 104 49.3926 104.064 48.0006 104.032L47.9206 103.264C48.7846 103.264 50.1446 103.232 51.3446 103.184V99.792H52.1606V103.152C52.2086 103.152 52.2726 103.136 52.3206 103.136C53.7926 103.104 56.0966 102.896 57.5366 102.736ZM59.6166 95.376V99.904H62.0166V100.72H59.6166V106.288H58.7686V95.376H59.6166ZM71.9834 103.664L72.0794 104.416C70.0154 104.912 67.3754 105.088 64.6234 105.088H63.3914V100.112H69.0554V97.04H63.4074V96.208H69.8714V100.896H64.2074V104.288H65.3114C67.2154 104.288 70.0154 104.096 71.9834 103.664ZM73.8074 108.72V95.408H74.6234V108.72H73.8074Z" fill="white"/>
</svg>
