<svg width="487" height="652" viewBox="0 0 487 652" fill="none" xmlns="http://www.w3.org/2000/svg">
<path fill-rule="evenodd" clip-rule="evenodd" d="M310.094 158.214L310.177 158.294L310.261 158.372C326.332 173.444 333.764 190.376 333.764 209.802V245.308H476.73V199.549C476.73 173.068 471.485 147.719 460.993 123.636C450.981 99.3363 435.707 77.945 415.412 59.5048C395.464 40.8589 370.84 26.5279 341.912 16.2829C312.565 5.31662 279.394 0 242.644 0C209.907 0 179.751 4.45727 152.327 13.5833L152.279 13.5994L152.231 13.6158C125.557 22.6943 102.192 35.5213 82.3587 52.2284L82.2688 52.3041L82.18 52.3813C62.9724 69.0829 47.7558 88.9251 36.6038 111.811L36.5656 111.889L36.5284 111.968C25.8068 134.635 20.5393 159.348 20.5393 185.879V191.006C20.5393 222.299 25.9588 249.801 37.5318 272.909C48.8386 295.486 64.6112 314.389 84.7436 329.463L84.8318 329.529L84.921 329.594C105.121 344.261 128.467 356.016 154.798 364.978L154.943 365.027L155.09 365.074C180.945 373.287 209.294 379.987 240.097 385.211C262.339 389.098 280.136 393.729 293.75 398.956C307.567 404.262 317.57 410.038 324.401 415.948L324.624 416.141L324.854 416.325C331.57 421.689 335.788 427.525 338.145 433.802L338.203 433.955L338.263 434.106C340.939 440.785 342.322 447.995 342.322 455.868C342.322 471.725 336.162 485.435 322.5 497.664C309.862 508.976 288.801 516.055 256.337 516.055C214.625 516.055 186.732 506.059 169.515 488.968C152.23 470.672 142.966 445.928 142.966 413.148V377.643H0V418.275C0 451.269 5.41375 482.157 16.3996 510.796L16.4191 510.846L16.4389 510.897C27.4663 539.032 43.7341 563.85 65.1643 585.244L65.2412 585.321L65.3193 585.397C86.9337 606.359 113.55 622.755 144.84 634.77L145.001 634.831L145.163 634.889C177.342 646.406 213.911 652 254.625 652C289.539 652 321.351 647.571 349.895 638.476C378.331 629.416 402.966 616.285 423.501 598.891C444.021 581.508 459.674 560.603 470.307 536.284C481.522 511.369 487 483.914 487 454.159V443.907C487 388.127 469.216 343.756 431.798 313.484C396.014 284.535 345.364 264.777 281.267 253.142C256.546 248.655 236.382 243.948 220.625 239.07C205.648 234.26 193.869 229.099 184.985 223.742C177.004 218.047 172.267 212.551 169.708 207.531C166.779 201.192 165.217 194.048 165.217 185.879C165.217 170.924 171.025 159.861 183.542 151.242L183.684 151.144L183.824 151.043C196.975 141.536 216.054 135.945 242.644 135.945C273.718 135.945 295.449 144.05 310.094 158.214Z" fill="white" fill-opacity="0.2"/>
</svg>
