<svg width="25" height="44" viewBox="0 0 25 44" fill="none" xmlns="http://www.w3.org/2000/svg">
<path fill-rule="evenodd" clip-rule="evenodd" d="M23.9763 0.155046L0.969849 13.3888H25V0.584245C25 0.0298628 24.551 -0.166854 23.9763 0.155046ZM23.9763 43.197C24.5331 43.5189 25 43.3222 25 42.7678V29.9453H0.951904L23.9763 43.197ZM0 14.8548C0 14.7117 0.107759 14.6402 0.233477 14.7117L12.3384 21.6862L0.233477 28.6429C0.107759 28.7144 0 28.6429 0 28.4998V14.8548ZM24.6228 14.6196C24.7485 14.5481 24.7306 14.4766 24.5869 14.4766H2.04736L13.4518 21.0398L24.6228 14.6196ZM24.5869 28.8579C24.7306 28.8579 24.7485 28.7863 24.6228 28.7148V28.7327L13.4518 22.3125L2.04736 28.8579H24.5869Z" fill="#44207A"/>
</svg>
