<svg width="1211" height="115" viewBox="0 0 1211 115" fill="none" xmlns="http://www.w3.org/2000/svg">
<path d="M232.57 17.182C234.766 17.182 236.278 15.382 236.278 12.43V11.872C236.278 8.938 234.64 7.282 232.516 7.282C230.5 7.282 228.826 8.974 228.826 11.836V12.394C228.826 15.436 230.356 17.182 232.57 17.182ZM232.534 18.982C229.384 18.982 226.756 16.66 226.756 12.304V12.07C226.756 7.804 229.402 5.464 232.57 5.464C235.666 5.464 238.366 7.678 238.366 12.052V12.304C238.366 16.588 235.72 18.982 232.534 18.982ZM243.616 18.748L238.936 5.644H241.186L244.84 16.39L248.494 5.644H250.708L245.974 18.748H243.616ZM251.727 18.73V5.644H259.665V7.426H253.725V10.99H259.071V12.736H253.725V16.93H259.773V18.73H251.727ZM263.578 11.926H265.756C267.502 11.926 268.528 11.044 268.528 9.568C268.528 8.182 267.574 7.372 265.774 7.372H263.578V11.926ZM261.598 18.73V5.644H265.936C268.978 5.644 270.544 7.102 270.544 9.532C270.544 11.332 269.41 12.736 267.916 13.24L271.462 18.73H269.086L266.026 13.636H263.578V18.73H261.598ZM276.233 18.748L271.553 5.644H273.803L277.457 16.39L281.111 5.644H283.325L278.591 18.748H276.233ZM284.452 18.73V5.644H286.486V18.73H284.452ZM288.642 18.73V5.644H296.58V7.426H290.64V10.99H295.986V12.736H290.64V16.93H296.688V18.73H288.642ZM300.887 18.73L297.611 5.644H299.663L302.183 16.03L304.505 5.644H306.863L309.203 16.012L311.669 5.644H313.685L310.445 18.73H308.051L305.657 8.236L303.281 18.73H300.887Z" fill="#4F4F4F"/>
<path d="M227.952 54.256H230.848C232.72 54.256 233.792 53.456 233.792 51.728C233.792 49.888 232.864 49.104 230.784 49.104H227.952V54.256ZM227.024 59.728V48.288H230.88C233.392 48.288 234.8 49.264 234.8 51.648C234.8 53.952 233.152 55.12 231.024 55.12H227.952V59.728H227.024ZM240.846 59.856C238.19 59.856 235.822 57.776 235.822 54.128V53.952C235.822 50.256 238.51 48.192 241.102 48.192C242.75 48.192 243.838 48.656 244.51 49.184L244.126 50C243.358 49.424 242.414 49.056 241.102 49.056C239.006 49.056 236.814 50.88 236.814 53.952V54.096C236.814 56.848 238.558 58.976 240.862 58.976C242.334 58.976 243.598 58.56 244.446 57.872L244.83 58.576C244.03 59.328 242.51 59.856 240.846 59.856ZM246.26 60.352V59.12H247.46V60.448C247.46 61.168 246.98 61.936 246.148 62.192L246.02 61.76C246.596 61.584 246.932 61.072 246.916 60.352H246.26ZM253.682 59.728V48.288H255.09L258.754 58.608L262.498 48.288H263.794V59.728H262.85V49.648L259.25 59.76H258.226L254.626 49.568V59.728H253.682ZM269.098 59.12C270.634 59.12 271.818 57.76 271.818 55.584V55.408C271.818 52.96 270.49 51.888 269.066 51.888C267.498 51.888 266.298 53.232 266.298 55.344V55.584C266.298 57.984 267.658 59.12 269.098 59.12ZM269.066 59.92C266.89 59.92 265.338 58.24 265.338 55.584V55.472C265.338 52.752 266.97 51.088 269.082 51.088C271.21 51.088 272.81 52.704 272.81 55.424V55.536C272.81 58.176 271.146 59.92 269.066 59.92ZM277.492 58.992C278.836 58.992 280.164 57.952 280.164 55.44V55.328C280.164 52.656 278.884 52 277.476 52C276.804 52 275.604 52.576 275.252 53.184V57.696C275.572 58.32 276.516 58.992 277.492 58.992ZM277.78 59.824C276.676 59.824 275.604 59.408 275.236 58.8V59.728H274.324V47.52H275.252V52.064C275.732 51.616 276.772 51.136 277.652 51.136C279.62 51.136 281.172 52.224 281.172 55.392V55.504C281.172 58.48 279.364 59.824 277.78 59.824ZM282.864 49.408V48.24H283.904V49.408H282.864ZM282.928 59.728V51.232H283.856V59.728H282.928ZM285.968 59.728V47.472H286.896V59.728H285.968ZM292.175 51.888C291.039 51.888 289.647 52.848 289.519 54.848H294.655C294.639 52.832 293.567 51.888 292.175 51.888ZM292.415 59.904C290.047 59.904 288.559 58.192 288.559 55.76V55.44C288.559 52.528 290.335 51.088 292.191 51.088C294.191 51.088 295.599 52.496 295.599 55.088V55.648H289.519C289.519 58.032 290.751 59.088 292.639 59.088C293.535 59.088 294.639 58.624 295.119 58.224L295.439 58.976C294.911 59.424 293.647 59.904 292.415 59.904ZM303.78 59.728L300.564 48.288H301.588L304.468 58.416L306.9 48.288H308.26L310.58 58.432L313.444 48.288H314.436L311.204 59.728H309.908L307.524 49.392L305.028 59.728H303.78ZM318.887 51.888C317.751 51.888 316.359 52.848 316.231 54.848H321.367C321.351 52.832 320.279 51.888 318.887 51.888ZM319.127 59.904C316.759 59.904 315.271 58.192 315.271 55.76V55.44C315.271 52.528 317.047 51.088 318.903 51.088C320.903 51.088 322.311 52.496 322.311 55.088V55.648H316.231C316.231 58.032 317.463 59.088 319.351 59.088C320.247 59.088 321.351 58.624 321.831 58.224L322.151 58.976C321.623 59.424 320.359 59.904 319.127 59.904ZM327.08 58.992C328.424 58.992 329.752 57.952 329.752 55.44V55.328C329.752 52.656 328.472 52 327.064 52C326.392 52 325.192 52.576 324.84 53.184V57.696C325.16 58.32 326.104 58.992 327.08 58.992ZM327.368 59.824C326.264 59.824 325.192 59.408 324.824 58.8V59.728H323.912V47.52H324.84V52.064C325.32 51.616 326.36 51.136 327.24 51.136C329.208 51.136 330.76 52.224 330.76 55.392V55.504C330.76 58.48 328.952 59.824 327.368 59.824ZM231.136 83.872C228.672 83.872 227.04 82.256 227.04 79.12V72.272H227.968V79.072C227.968 81.712 229.184 83.056 231.2 83.056C233.264 83.056 234.288 81.744 234.288 79.056V72.272H235.232V79.12C235.232 82.336 233.712 83.872 231.136 83.872ZM236.315 83.728L240.315 77.68L236.635 72.288H237.835L240.907 76.896L243.899 72.288H245.131L241.467 77.728L245.451 83.728H244.251L240.843 78.528L237.515 83.728H236.315ZM245.834 86.688L250.026 71.52H250.922L246.714 86.688H245.834ZM255.864 83.872C253.4 83.872 251.768 82.256 251.768 79.12V72.272H252.696V79.072C252.696 81.712 253.912 83.056 255.928 83.056C257.992 83.056 259.016 81.744 259.016 79.056V72.272H259.96V79.12C259.96 82.336 258.44 83.872 255.864 83.872ZM261.875 83.744V72.288H262.819V83.744H261.875ZM272.307 83.056C273.219 83.056 274.291 82.128 274.579 81.52V77.104C274.179 76.48 272.995 76.032 272.339 76.032C270.899 76.032 269.667 76.912 269.667 79.584V79.76C269.667 82.336 270.963 83.056 272.307 83.056ZM272.067 83.872C270.499 83.872 268.675 82.768 268.675 79.808V79.568C268.675 76.464 270.275 75.2 272.179 75.2C273.043 75.2 274.051 75.552 274.579 76.048V71.488H275.539V83.728H274.771L274.579 82.608C274.083 83.296 273.075 83.872 272.067 83.872ZM280.799 75.888C279.663 75.888 278.271 76.848 278.143 78.848H283.279C283.263 76.832 282.191 75.888 280.799 75.888ZM281.039 83.904C278.671 83.904 277.183 82.192 277.183 79.76V79.44C277.183 76.528 278.959 75.088 280.815 75.088C282.815 75.088 284.223 76.496 284.223 79.088V79.648H278.143C278.143 82.032 279.375 83.088 281.263 83.088C282.159 83.088 283.263 82.624 283.743 82.224L284.063 82.976C283.535 83.424 282.271 83.904 281.039 83.904ZM288.304 83.92C287.296 83.92 286.16 83.52 285.568 83.136L285.92 82.304C286.464 82.656 287.648 83.072 288.4 83.072C289.84 83.072 290.608 82.208 290.608 81.392C290.608 80.544 289.936 80.096 289.008 79.92L287.888 79.76C286.704 79.536 285.696 78.912 285.696 77.424C285.696 75.984 286.992 75.12 288.72 75.12C289.824 75.12 290.896 75.584 291.344 75.92L290.992 76.736C290.416 76.336 289.456 75.952 288.656 75.952C287.584 75.952 286.656 76.416 286.656 77.424C286.656 78.384 287.232 78.72 288.048 78.848L289.376 79.072C290.624 79.28 291.568 80.032 291.568 81.392C291.568 82.88 290.16 83.92 288.304 83.92ZM293.084 73.408V72.24H294.124V73.408H293.084ZM293.148 83.728V75.232H294.076V83.728H293.148ZM299.115 80.512C300.299 80.512 301.339 79.68 301.339 78.368V78.128C301.339 76.72 300.363 75.936 299.115 75.936C297.851 75.936 296.907 76.768 296.907 78.096V78.352C296.907 79.776 297.995 80.512 299.115 80.512ZM299.291 86.416C301.275 86.416 302.443 85.664 302.443 84.688C302.443 83.712 301.851 83.44 300.635 83.44H297.851C296.987 83.664 296.315 84.016 296.315 84.88C296.315 85.92 297.515 86.416 299.291 86.416ZM299.323 87.184C296.763 87.184 295.355 86.464 295.355 84.928C295.355 83.984 296.107 83.44 296.891 83.184C296.443 82.976 296.011 82.464 296.011 81.92C296.011 81.232 296.363 80.896 296.891 80.576C296.379 80.096 295.915 79.44 295.915 78.368V78.176C295.915 76.4 297.339 75.168 299.131 75.168C299.643 75.168 300.107 75.216 300.395 75.328H303.275V76.288L301.371 76.144C301.899 76.512 302.283 77.312 302.283 78.16V78.304C302.283 80.192 300.747 81.312 299.115 81.312C298.491 81.312 297.867 81.184 297.451 80.944C297.179 81.088 296.859 81.408 296.859 81.76C296.859 82.288 297.323 82.64 297.947 82.64H300.635C302.075 82.64 303.467 82.912 303.467 84.528C303.467 85.984 302.059 87.184 299.323 87.184ZM304.536 83.728V75.296H305.448V76.608C306.184 75.76 307.272 75.152 308.344 75.152C309.64 75.152 310.904 75.952 310.904 77.552V83.728H309.976V77.792C309.976 76.624 309.112 75.984 307.992 75.984C307.144 75.984 306.184 76.656 305.448 77.552V83.728H304.536ZM227.968 102.128H230.752C232.848 102.128 233.744 101.008 233.744 99.52C233.744 98 232.816 97.104 230.8 97.104H227.968V102.128ZM227.04 107.728V96.288H230.736C233.536 96.288 234.768 97.456 234.768 99.536C234.768 101.152 233.616 102.432 232 102.816L235.392 107.728H234.192L230.976 102.944H227.968V107.728H227.04ZM239.329 99.888C238.193 99.888 236.801 100.848 236.673 102.848H241.809C241.793 100.832 240.721 99.888 239.329 99.888ZM239.569 107.904C237.201 107.904 235.713 106.192 235.713 103.76V103.44C235.713 100.528 237.489 99.088 239.345 99.088C241.345 99.088 242.753 100.496 242.753 103.088V103.648H236.673C236.673 106.032 237.905 107.088 239.793 107.088C240.689 107.088 241.793 106.624 242.273 106.224L242.593 106.976C242.065 107.424 240.801 107.904 239.569 107.904ZM246.834 107.92C245.826 107.92 244.69 107.52 244.098 107.136L244.45 106.304C244.994 106.656 246.178 107.072 246.93 107.072C248.37 107.072 249.138 106.208 249.138 105.392C249.138 104.544 248.466 104.096 247.538 103.92L246.418 103.76C245.234 103.536 244.226 102.912 244.226 101.424C244.226 99.984 245.522 99.12 247.25 99.12C248.354 99.12 249.426 99.584 249.874 99.92L249.522 100.736C248.946 100.336 247.986 99.952 247.186 99.952C246.114 99.952 245.186 100.416 245.186 101.424C245.186 102.384 245.762 102.72 246.578 102.848L247.906 103.072C249.154 103.28 250.098 104.032 250.098 105.392C250.098 106.88 248.69 107.92 246.834 107.92ZM254.765 99.952C253.821 99.952 252.749 100.912 252.461 101.52V105.92C252.861 106.544 254.045 107.024 254.733 107.024C256.141 107.024 257.357 106.112 257.357 103.456V103.28C257.357 100.704 256.109 99.952 254.765 99.952ZM254.973 99.088C256.621 99.088 258.381 100.288 258.381 103.216V103.488C258.381 106.56 256.765 107.872 254.877 107.872C253.965 107.872 253.005 107.504 252.461 106.96V111.2H251.533V99.296H252.461V100.416C252.957 99.712 253.965 99.088 254.973 99.088ZM263.278 107.12C264.814 107.12 265.998 105.76 265.998 103.584V103.408C265.998 100.96 264.67 99.888 263.246 99.888C261.678 99.888 260.478 101.232 260.478 103.344V103.584C260.478 105.984 261.838 107.12 263.278 107.12ZM263.246 107.92C261.07 107.92 259.518 106.24 259.518 103.584V103.472C259.518 100.752 261.15 99.088 263.262 99.088C265.39 99.088 266.99 100.704 266.99 103.424V103.536C266.99 106.176 265.326 107.92 263.246 107.92ZM268.503 107.728V99.296H269.415V100.608C270.151 99.76 271.239 99.152 272.311 99.152C273.607 99.152 274.871 99.952 274.871 101.552V107.728H273.943V101.792C273.943 100.624 273.079 99.984 271.959 99.984C271.111 99.984 270.151 100.656 269.415 101.552V107.728H268.503ZM279.225 107.92C278.217 107.92 277.081 107.52 276.489 107.136L276.841 106.304C277.385 106.656 278.569 107.072 279.321 107.072C280.761 107.072 281.529 106.208 281.529 105.392C281.529 104.544 280.857 104.096 279.929 103.92L278.809 103.76C277.625 103.536 276.617 102.912 276.617 101.424C276.617 99.984 277.913 99.12 279.641 99.12C280.745 99.12 281.817 99.584 282.265 99.92L281.913 100.736C281.337 100.336 280.377 99.952 279.577 99.952C278.505 99.952 277.577 100.416 277.577 101.424C277.577 102.384 278.153 102.72 278.969 102.848L280.297 103.072C281.545 103.28 282.489 104.032 282.489 105.392C282.489 106.88 281.081 107.92 279.225 107.92ZM284.005 97.408V96.24H285.045V97.408H284.005ZM284.069 107.728V99.232H284.997V107.728H284.069ZM289.556 107.776L286.196 99.296H287.22L290.116 106.672L292.868 99.296H293.876L290.548 107.776H289.556ZM297.8 99.888C296.664 99.888 295.272 100.848 295.144 102.848H300.28C300.264 100.832 299.192 99.888 297.8 99.888ZM298.04 107.904C295.672 107.904 294.184 106.192 294.184 103.76V103.44C294.184 100.528 295.96 99.088 297.816 99.088C299.816 99.088 301.224 100.496 301.224 103.088V103.648H295.144C295.144 106.032 296.376 107.088 298.264 107.088C299.16 107.088 300.264 106.624 300.744 106.224L301.064 106.976C300.536 107.424 299.272 107.904 298.04 107.904ZM307.885 102.256H310.781C312.653 102.256 313.725 101.456 313.725 99.728C313.725 97.888 312.797 97.104 310.717 97.104H307.885V102.256ZM306.957 107.728V96.288H310.813C313.325 96.288 314.733 97.264 314.733 99.648C314.733 101.952 313.085 103.12 310.957 103.12H307.885V107.728H306.957ZM322.299 99.296V107.712H321.355V106.432C320.715 107.264 319.659 107.856 318.603 107.856C317.307 107.856 316.091 107.056 316.091 105.456V99.296H317.019V105.248C317.019 106.496 317.819 107.024 318.955 107.024C319.787 107.024 320.715 106.32 321.355 105.44V99.296H322.299ZM327.439 106.992C328.783 106.992 330.111 105.952 330.111 103.44V103.328C330.111 100.656 328.831 100 327.423 100C326.751 100 325.551 100.576 325.199 101.184V105.696C325.519 106.32 326.463 106.992 327.439 106.992ZM327.727 107.824C326.623 107.824 325.551 107.408 325.183 106.8V107.728H324.271V95.52H325.199V100.064C325.679 99.616 326.719 99.136 327.599 99.136C329.567 99.136 331.119 100.224 331.119 103.392V103.504C331.119 106.48 329.311 107.824 327.727 107.824ZM332.876 107.728V95.472H333.804V107.728H332.876ZM335.851 97.408V96.24H336.891V97.408H335.851ZM335.915 107.728V99.232H336.843V107.728H335.915ZM341.307 107.92C340.299 107.92 339.163 107.52 338.571 107.136L338.923 106.304C339.467 106.656 340.651 107.072 341.403 107.072C342.843 107.072 343.611 106.208 343.611 105.392C343.611 104.544 342.939 104.096 342.011 103.92L340.891 103.76C339.707 103.536 338.699 102.912 338.699 101.424C338.699 99.984 339.995 99.12 341.723 99.12C342.827 99.12 343.899 99.584 344.347 99.92L343.995 100.736C343.419 100.336 342.459 99.952 341.659 99.952C340.587 99.952 339.659 100.416 339.659 101.424C339.659 102.384 340.235 102.72 341.051 102.848L342.379 103.072C343.627 103.28 344.571 104.032 344.571 105.392C344.571 106.88 343.163 107.92 341.307 107.92ZM346.006 107.728V95.472H346.918V100.64C347.734 99.728 348.774 99.168 349.878 99.168C351.174 99.168 352.47 99.872 352.47 101.552V107.728H351.542V101.824C351.542 100.544 350.582 100 349.526 100C348.726 100 347.558 100.8 346.918 101.664V107.728H346.006ZM354.407 97.408V96.24H355.447V97.408H354.407ZM354.471 107.728V99.232H355.399V107.728H354.471ZM357.382 107.728V99.296H358.294V100.608C359.03 99.76 360.118 99.152 361.19 99.152C362.486 99.152 363.75 99.952 363.75 101.552V107.728H362.822V101.792C362.822 100.624 361.958 99.984 360.838 99.984C359.99 99.984 359.03 100.656 358.294 101.552V107.728H357.382ZM368.681 104.512C369.865 104.512 370.905 103.68 370.905 102.368V102.128C370.905 100.72 369.929 99.936 368.681 99.936C367.417 99.936 366.473 100.768 366.473 102.096V102.352C366.473 103.776 367.561 104.512 368.681 104.512ZM368.857 110.416C370.841 110.416 372.009 109.664 372.009 108.688C372.009 107.712 371.417 107.44 370.201 107.44H367.417C366.553 107.664 365.881 108.016 365.881 108.88C365.881 109.92 367.081 110.416 368.857 110.416ZM368.889 111.184C366.329 111.184 364.921 110.464 364.921 108.928C364.921 107.984 365.673 107.44 366.457 107.184C366.009 106.976 365.577 106.464 365.577 105.92C365.577 105.232 365.929 104.896 366.457 104.576C365.945 104.096 365.481 103.44 365.481 102.368V102.176C365.481 100.4 366.905 99.168 368.697 99.168C369.209 99.168 369.673 99.216 369.961 99.328H372.841V100.288L370.937 100.144C371.465 100.512 371.849 101.312 371.849 102.16V102.304C371.849 104.192 370.313 105.312 368.681 105.312C368.057 105.312 367.433 105.184 367.017 104.944C366.745 105.088 366.425 105.408 366.425 105.76C366.425 106.288 366.889 106.64 367.513 106.64H370.201C371.641 106.64 373.033 106.912 373.033 108.528C373.033 109.984 371.625 111.184 368.889 111.184Z" fill="#4F4F4F"/>
<path d="M919.132 12.178H921.31C923.128 12.178 924.172 11.278 924.172 9.748C924.172 8.11 923.2 7.372 921.31 7.372H919.132V12.178ZM917.134 18.73V5.644H921.616C924.532 5.644 926.206 6.94 926.206 9.658C926.206 12.43 924.28 13.888 921.76 13.888H919.132V18.73H917.134ZM927.884 18.73V5.644H935.822V7.426H929.882V10.99H935.228V12.736H929.882V16.93H935.93V18.73H927.884ZM939.735 11.926H941.913C943.659 11.926 944.685 11.044 944.685 9.568C944.685 8.182 943.731 7.372 941.931 7.372H939.735V11.926ZM937.755 18.73V5.644H942.093C945.135 5.644 946.701 7.102 946.701 9.532C946.701 11.332 945.567 12.736 944.073 13.24L947.619 18.73H945.243L942.183 13.636H939.735V18.73H937.755ZM948.858 18.73V5.644H950.892V18.73H948.858ZM958.466 17.182C960.662 17.182 962.174 15.382 962.174 12.43V11.872C962.174 8.938 960.536 7.282 958.412 7.282C956.396 7.282 954.722 8.974 954.722 11.836V12.394C954.722 15.436 956.252 17.182 958.466 17.182ZM958.43 18.982C955.28 18.982 952.652 16.66 952.652 12.304V12.07C952.652 7.804 955.298 5.464 958.466 5.464C961.562 5.464 964.262 7.678 964.262 12.052V12.304C964.262 16.588 961.616 18.982 958.43 18.982ZM967.87 17.02H969.94C972.244 17.02 973.828 15.292 973.828 12.124V11.8C973.828 8.488 972.1 7.354 969.796 7.354H967.87V17.02ZM965.854 18.73V5.644H969.922C973.576 5.644 975.862 7.444 975.862 11.8V12.124C975.862 16.264 973.594 18.73 969.904 18.73H965.854Z" fill="#4F4F4F"/>
<path d="M919.84 59.76V49.472L917.856 50.016V49.456L920.224 48.224H920.736V59.76H919.84ZM923.855 59.728V59.12L926.815 56.256C928.351 54.752 929.663 53.216 929.663 51.52C929.663 49.888 928.671 49.04 927.071 49.04C926.063 49.04 925.071 49.504 924.479 50.016L924.063 49.216C924.687 48.688 926.031 48.144 927.215 48.144C929.231 48.144 930.671 49.376 930.671 51.44C930.671 53.376 929.631 54.832 927.423 56.896L925.359 58.848H930.783V59.728H923.855ZM932.464 60.224V59.104H933.616V60.224H932.464ZM939.583 59.728V59.12L942.543 56.256C944.079 54.752 945.391 53.216 945.391 51.52C945.391 49.888 944.399 49.04 942.799 49.04C941.791 49.04 940.799 49.504 940.207 50.016L939.791 49.216C940.415 48.688 941.759 48.144 942.943 48.144C944.959 48.144 946.399 49.376 946.399 51.44C946.399 53.376 945.359 54.832 943.151 56.896L941.087 58.848H946.511V59.728H939.583ZM951.681 59.008C953.361 59.008 954.417 57.776 954.417 54.768V53.328C954.417 50.368 953.393 49.04 951.697 49.04C950.017 49.04 948.865 50.304 948.865 53.232V54.688C948.865 57.616 950.001 59.008 951.681 59.008ZM951.681 59.888C949.617 59.888 947.889 58.288 947.889 54.48V53.408C947.889 49.456 949.729 48.144 951.681 48.144C953.649 48.144 955.393 49.44 955.393 53.344V54.512C955.393 58.272 953.745 59.888 951.681 59.888ZM956.474 59.728V59.12L959.434 56.256C960.97 54.752 962.282 53.216 962.282 51.52C962.282 49.888 961.29 49.04 959.69 49.04C958.682 49.04 957.69 49.504 957.098 50.016L956.682 49.216C957.306 48.688 958.65 48.144 959.834 48.144C961.85 48.144 963.29 49.376 963.29 51.44C963.29 53.376 962.25 54.832 960.042 56.896L957.978 58.848H963.402V59.728H956.474ZM967.819 59.824C966.603 59.824 965.563 59.44 964.971 58.992L965.275 58.16C965.883 58.592 967.019 58.928 967.755 58.928C969.611 58.928 970.715 57.952 970.715 56.464C970.715 54.944 969.339 54.16 967.803 54.16H966.651V53.184H967.707C969.115 53.2 970.267 52.32 970.267 50.928C970.267 49.44 969.211 49.008 967.931 49.008C967.019 49.008 966.219 49.328 965.547 49.888L965.099 49.136C965.819 48.576 966.987 48.096 968.059 48.096C969.883 48.096 971.291 49.072 971.291 50.816C971.291 52.272 970.379 53.2 969.115 53.6C970.475 53.888 971.691 54.64 971.691 56.416C971.691 58.352 970.059 59.824 967.819 59.824ZM981.072 53.04C981.632 53.664 982.096 54.064 982.752 54.064C983.488 54.064 983.904 53.392 984.032 52.448L984.672 52.624C984.464 54.128 983.52 54.832 982.688 54.832C982.016 54.832 981.424 54.576 980.832 53.904C980.192 53.184 979.872 52.928 979.232 52.928C978.544 52.928 978.24 53.584 977.952 54.656L977.312 54.464C977.68 52.752 978.432 52.144 979.392 52.112C979.968 52.096 980.624 52.528 981.072 53.04ZM920.672 83.008C922.352 83.008 923.408 81.776 923.408 78.768V77.328C923.408 74.368 922.384 73.04 920.688 73.04C919.008 73.04 917.856 74.304 917.856 77.232V78.688C917.856 81.616 918.992 83.008 920.672 83.008ZM920.672 83.888C918.608 83.888 916.88 82.288 916.88 78.48V77.408C916.88 73.456 918.72 72.144 920.672 72.144C922.64 72.144 924.384 73.44 924.384 77.344V78.512C924.384 82.272 922.736 83.888 920.672 83.888ZM925.465 83.728V83.12L928.425 80.256C929.961 78.752 931.273 77.216 931.273 75.52C931.273 73.888 930.281 73.04 928.681 73.04C927.673 73.04 926.681 73.504 926.089 74.016L925.673 73.216C926.297 72.688 927.641 72.144 928.825 72.144C930.841 72.144 932.281 73.376 932.281 75.44C932.281 77.376 931.241 78.832 929.033 80.896L926.969 82.848H932.393V83.728H925.465ZM934.073 84.224V83.104H935.225V84.224H934.073ZM941.192 83.728V83.12L944.152 80.256C945.688 78.752 947 77.216 947 75.52C947 73.888 946.008 73.04 944.408 73.04C943.4 73.04 942.408 73.504 941.816 74.016L941.4 73.216C942.024 72.688 943.368 72.144 944.552 72.144C946.568 72.144 948.008 73.376 948.008 75.44C948.008 77.376 946.968 78.832 944.76 80.896L942.696 82.848H948.12V83.728H941.192ZM953.291 83.008C954.971 83.008 956.027 81.776 956.027 78.768V77.328C956.027 74.368 955.003 73.04 953.307 73.04C951.627 73.04 950.475 74.304 950.475 77.232V78.688C950.475 81.616 951.611 83.008 953.291 83.008ZM953.291 83.888C951.227 83.888 949.499 82.288 949.499 78.48V77.408C949.499 73.456 951.339 72.144 953.291 72.144C955.259 72.144 957.003 73.44 957.003 77.344V78.512C957.003 82.272 955.355 83.888 953.291 83.888ZM958.084 83.728V83.12L961.044 80.256C962.58 78.752 963.892 77.216 963.892 75.52C963.892 73.888 962.9 73.04 961.3 73.04C960.292 73.04 959.3 73.504 958.708 74.016L958.292 73.216C958.916 72.688 960.26 72.144 961.444 72.144C963.46 72.144 964.9 73.376 964.9 75.44C964.9 77.376 963.86 78.832 961.652 80.896L959.588 82.848H965.012V83.728H958.084ZM966.956 80.32H971.404V73.664L966.956 80.32ZM971.404 83.728V81.152H965.996V80.32L971.436 72.256H972.252V80.32H974.092V81.152H972.252V83.728H971.404Z" fill="#4F4F4F"/>
<path d="M1071.15 11.926H1073.33C1075.07 11.926 1076.1 11.044 1076.1 9.568C1076.1 8.182 1075.15 7.372 1073.35 7.372H1071.15V11.926ZM1069.17 18.73V5.644H1073.51C1076.55 5.644 1078.12 7.102 1078.12 9.532C1078.12 11.332 1076.98 12.736 1075.49 13.24L1079.03 18.73H1076.66L1073.6 13.636H1071.15V18.73H1069.17ZM1083.99 17.308C1085.32 17.308 1086.47 16.192 1086.47 14.068V13.69C1086.47 11.404 1085.21 10.486 1083.94 10.486C1082.59 10.486 1081.42 11.566 1081.42 13.672V14.05C1081.42 16.372 1082.73 17.308 1083.99 17.308ZM1083.95 19C1081.29 19 1079.36 17.074 1079.36 14.05V13.852C1079.36 10.684 1081.52 8.776 1083.97 8.776C1086.56 8.776 1088.56 10.648 1088.56 13.744V13.942C1088.56 17.038 1086.38 19 1083.95 19ZM1090.16 18.712V4.726H1092.14V18.712H1090.16ZM1098.21 10.504C1097.25 10.504 1096.03 11.134 1095.89 12.916H1100.37C1100.35 11.242 1099.38 10.504 1098.21 10.504ZM1098.59 18.982C1095.63 18.982 1093.82 17.056 1093.82 14.122V13.762C1093.82 10.45 1095.9 8.794 1098.19 8.794C1100.75 8.794 1102.33 10.45 1102.33 13.42V14.464H1095.9C1095.98 16.372 1097.25 17.182 1098.73 17.182C1099.95 17.182 1101.12 16.714 1101.72 16.282L1102.28 17.812C1101.65 18.352 1100.19 18.982 1098.59 18.982ZM1110.71 12.178H1112.89C1114.71 12.178 1115.75 11.278 1115.75 9.748C1115.75 8.11 1114.78 7.372 1112.89 7.372H1110.71V12.178ZM1108.71 18.73V5.644H1113.19C1116.11 5.644 1117.78 6.94 1117.78 9.658C1117.78 12.43 1115.86 13.888 1113.34 13.888H1110.71V18.73H1108.71ZM1122.25 17.254C1122.97 17.254 1123.99 16.75 1124.37 16.3V14.068C1122.84 14.248 1120.57 14.122 1120.57 15.904C1120.57 16.876 1121.33 17.254 1122.25 17.254ZM1121.73 18.91C1119.98 18.91 1118.58 18.028 1118.58 16.03C1118.58 14.032 1120 13.06 1122 12.844L1124.37 12.574V12.25C1124.37 11.026 1123.56 10.522 1122.14 10.522C1121.35 10.522 1120.16 10.9 1119.53 11.35C1119.33 10.792 1119.17 10.234 1118.99 9.676C1119.84 9.136 1121.33 8.74 1122.59 8.74C1124.68 8.74 1126.32 9.748 1126.32 11.98V18.712H1124.75L1124.53 17.83C1124.01 18.424 1122.73 18.91 1121.73 18.91ZM1128.47 18.712V9.082H1130.43V10.252C1130.97 9.424 1131.91 8.884 1132.86 8.884C1133.55 8.884 1134.23 9.064 1134.65 9.352L1134.11 11.242C1133.8 11.008 1133.21 10.792 1132.68 10.792C1131.71 10.792 1131.01 11.26 1130.43 12.106V18.712H1128.47ZM1139.13 18.856C1137.6 18.856 1136.4 18.028 1136.4 15.886V10.738H1134.87V9.064H1136.4V6.616H1138.36V9.064H1141.13V10.738H1138.36V15.58C1138.36 16.516 1138.77 17.074 1139.67 17.074C1140.12 17.074 1140.93 16.858 1141.4 16.552L1141.74 18.226C1141.24 18.568 1140.16 18.856 1139.13 18.856ZM1142.92 7.318V5.248H1144.94V7.318H1142.92ZM1142.96 18.73V9.046H1144.92V18.73H1142.96ZM1151.24 18.964C1148.59 18.964 1146.58 17.128 1146.58 13.942V13.618C1146.58 10.396 1148.85 8.812 1151.26 8.812C1152.64 8.812 1153.74 9.208 1154.37 9.712L1153.74 11.35C1153.2 10.936 1152.37 10.576 1151.42 10.576C1150.02 10.576 1148.68 11.746 1148.68 13.546V13.96C1148.68 15.904 1149.89 17.164 1151.49 17.164C1152.43 17.164 1153.4 16.768 1153.89 16.426L1154.43 18.1C1153.85 18.55 1152.48 18.964 1151.24 18.964ZM1155.93 7.318V5.248H1157.95V7.318H1155.93ZM1155.97 18.73V9.046H1157.93V18.73H1155.97ZM1164.19 10.684C1163.35 10.684 1162.34 11.332 1161.94 12.07V16.12C1162.34 16.678 1163.35 17.164 1164.12 17.164C1165.54 17.164 1166.61 16.048 1166.61 14.05V13.744C1166.61 11.548 1165.51 10.684 1164.19 10.684ZM1164.61 8.884C1166.48 8.884 1168.71 10.108 1168.71 13.762V13.996C1168.71 17.2 1166.82 18.91 1164.59 18.91C1163.55 18.91 1162.52 18.514 1161.94 17.956V22.6H1159.98V9.064H1161.93V10.216C1162.48 9.514 1163.47 8.884 1164.61 8.884ZM1173.66 17.254C1174.38 17.254 1175.4 16.75 1175.78 16.3V14.068C1174.25 14.248 1171.98 14.122 1171.98 15.904C1171.98 16.876 1172.74 17.254 1173.66 17.254ZM1173.14 18.91C1171.39 18.91 1169.99 18.028 1169.99 16.03C1169.99 14.032 1171.41 13.06 1173.41 12.844L1175.78 12.574V12.25C1175.78 11.026 1174.97 10.522 1173.55 10.522C1172.76 10.522 1171.57 10.9 1170.94 11.35C1170.74 10.792 1170.58 10.234 1170.4 9.676C1171.25 9.136 1172.74 8.74 1174 8.74C1176.09 8.74 1177.73 9.748 1177.73 11.98V18.712H1176.16L1175.94 17.83C1175.42 18.424 1174.14 18.91 1173.14 18.91ZM1183.2 18.856C1181.67 18.856 1180.47 18.028 1180.47 15.886V10.738H1178.94V9.064H1180.47V6.616H1182.43V9.064H1185.2V10.738H1182.43V15.58C1182.43 16.516 1182.84 17.074 1183.74 17.074C1184.19 17.074 1185 16.858 1185.47 16.552L1185.81 18.226C1185.31 18.568 1184.23 18.856 1183.2 18.856ZM1186.99 7.318V5.248H1189.01V7.318H1186.99ZM1187.03 18.73V9.046H1188.99V18.73H1187.03ZM1195.22 17.308C1196.55 17.308 1197.7 16.192 1197.7 14.068V13.69C1197.7 11.404 1196.44 10.486 1195.17 10.486C1193.82 10.486 1192.65 11.566 1192.65 13.672V14.05C1192.65 16.372 1193.96 17.308 1195.22 17.308ZM1195.18 19C1192.52 19 1190.59 17.074 1190.59 14.05V13.852C1190.59 10.684 1192.75 8.776 1195.2 8.776C1197.79 8.776 1199.79 10.648 1199.79 13.744V13.942C1199.79 17.038 1197.61 19 1195.18 19ZM1201.32 18.712V9.064H1203.25V10.306C1204.04 9.406 1205.21 8.902 1206.36 8.902C1208.03 8.902 1209.47 10 1209.47 12.088V18.712H1207.51V12.484C1207.51 11.404 1206.81 10.684 1205.59 10.684C1204.83 10.684 1203.88 11.224 1203.28 12.034V18.712H1201.32Z" fill="#4F4F4F"/>
<path d="M1071.84 59.76V49.472L1069.86 50.016V49.456L1072.22 48.224H1072.74V59.76H1071.84ZM1079.71 59.008C1081.39 59.008 1082.45 57.776 1082.45 54.768V53.328C1082.45 50.368 1081.42 49.04 1079.73 49.04C1078.05 49.04 1076.9 50.304 1076.9 53.232V54.688C1076.9 57.616 1078.03 59.008 1079.71 59.008ZM1079.71 59.888C1077.65 59.888 1075.92 58.288 1075.92 54.48V53.408C1075.92 49.456 1077.76 48.144 1079.71 48.144C1081.68 48.144 1083.42 49.44 1083.42 53.344V54.512C1083.42 58.272 1081.78 59.888 1079.71 59.888ZM1088.67 59.008C1090.35 59.008 1091.41 57.776 1091.41 54.768V53.328C1091.41 50.368 1090.38 49.04 1088.69 49.04C1087.01 49.04 1085.86 50.304 1085.86 53.232V54.688C1085.86 57.616 1086.99 59.008 1088.67 59.008ZM1088.67 59.888C1086.61 59.888 1084.88 58.288 1084.88 54.48V53.408C1084.88 49.456 1086.72 48.144 1088.67 48.144C1090.64 48.144 1092.38 49.44 1092.38 53.344V54.512C1092.38 58.272 1090.74 59.888 1088.67 59.888ZM1103.07 59.008C1103.94 59.008 1104.51 58.208 1104.51 56.72V56.352C1104.51 54.944 1103.91 54.224 1103.07 54.224C1102.24 54.224 1101.65 54.928 1101.65 56.368V56.704C1101.65 58.192 1102.21 59.008 1103.07 59.008ZM1103.07 59.76C1101.7 59.76 1100.72 58.656 1100.72 56.704V56.48C1100.72 54.72 1101.7 53.344 1103.07 53.344C1104.5 53.344 1105.43 54.624 1105.43 56.384V56.64C1105.43 58.48 1104.51 59.76 1103.07 59.76ZM1095.36 59.744L1102.77 48.224H1103.68L1096.23 59.744H1095.36ZM1096.21 53.808C1097.07 53.808 1097.65 52.992 1097.65 51.536V51.152C1097.65 49.728 1097.04 49.024 1096.21 49.024C1095.38 49.024 1094.77 49.712 1094.77 51.168V51.52C1094.77 52.976 1095.35 53.808 1096.21 53.808ZM1096.21 54.56C1094.82 54.56 1093.86 53.456 1093.86 51.52V51.28C1093.86 49.488 1094.82 48.144 1096.21 48.144C1097.63 48.144 1098.56 49.424 1098.56 51.184V51.456C1098.56 53.28 1097.65 54.56 1096.21 54.56Z" fill="#4F4F4F"/>
<path d="M3.132 12.178H5.31C7.128 12.178 8.172 11.278 8.172 9.748C8.172 8.11 7.2 7.372 5.31 7.372H3.132V12.178ZM1.134 18.73V5.644H5.616C8.532 5.644 10.206 6.94 10.206 9.658C10.206 12.43 8.28 13.888 5.76 13.888H3.132V18.73H1.134ZM13.8818 11.926H16.0598C17.8058 11.926 18.8318 11.044 18.8318 9.568C18.8318 8.182 17.8778 7.372 16.0778 7.372H13.8818V11.926ZM11.9018 18.73V5.644H16.2398C19.2818 5.644 20.8478 7.102 20.8478 9.532C20.8478 11.332 19.7138 12.736 18.2198 13.24L21.7658 18.73H19.3898L16.3298 13.636H13.8818V18.73H11.9018ZM28.3148 17.182C30.5108 17.182 32.0228 15.382 32.0228 12.43V11.872C32.0228 8.938 30.3848 7.282 28.2608 7.282C26.2448 7.282 24.5708 8.974 24.5708 11.836V12.394C24.5708 15.436 26.1008 17.182 28.3148 17.182ZM28.2788 18.982C25.1288 18.982 22.5008 16.66 22.5008 12.304V12.07C22.5008 7.804 25.1468 5.464 28.3148 5.464C31.4108 5.464 34.1108 7.678 34.1108 12.052V12.304C34.1108 16.588 31.4648 18.982 28.2788 18.982ZM36.9977 18.91C36.0437 18.91 34.8017 18.64 34.1717 18.298L34.6577 16.498C35.1257 16.75 35.9717 16.966 36.6737 16.966C37.9337 16.966 38.6537 16.012 38.6537 14.338V5.644H40.7057V14.41C40.7057 17.11 39.4457 18.91 36.9977 18.91ZM42.7257 18.73V5.644H50.6637V7.426H44.7237V10.99H50.0697V12.736H44.7237V16.93H50.7717V18.73H42.7257ZM57.771 18.91C54.495 18.91 51.813 16.354 51.813 12.322V11.908C51.813 7.606 54.855 5.464 58.005 5.464C59.517 5.464 60.993 5.932 61.785 6.508L61.137 8.236C60.381 7.642 59.301 7.3 58.113 7.3C55.971 7.3 53.901 8.866 53.901 11.854V12.25C53.901 14.95 55.647 17.002 57.987 17.002C59.193 17.002 60.687 16.57 61.497 15.904L62.109 17.614C61.263 18.352 59.517 18.91 57.771 18.91ZM69.0992 7.48V18.73H67.0652V7.48H63.0872V5.662H73.1132V7.48H69.0992Z" fill="#4F4F4F"/>
<path d="M1.04 59.728V48.288H1.968V53.248H8.256V48.288H9.2V59.728H8.256V54.144H1.968V59.728H1.04ZM14.3784 59.12C15.9144 59.12 17.0984 57.76 17.0984 55.584V55.408C17.0984 52.96 15.7704 51.888 14.3464 51.888C12.7784 51.888 11.5784 53.232 11.5784 55.344V55.584C11.5784 57.984 12.9384 59.12 14.3784 59.12ZM14.3464 59.92C12.1704 59.92 10.6184 58.24 10.6184 55.584V55.472C10.6184 52.752 12.2504 51.088 14.3624 51.088C16.4904 51.088 18.0904 52.704 18.0904 55.424V55.536C18.0904 58.176 16.4264 59.92 14.3464 59.92ZM19.5875 59.728V51.296H20.4995V52.56C21.0915 51.76 22.0835 51.184 22.9475 51.184C24.2435 51.184 25.0435 51.744 25.3315 52.544C25.9555 51.648 27.0275 51.184 27.9235 51.184C29.3155 51.184 30.4675 52 30.4675 53.664V59.728H29.5235V53.92C29.5235 52.624 28.6915 52.016 27.6515 52.016C26.9315 52.016 25.7795 52.752 25.3955 53.632V59.728H24.4835V53.6C24.4835 52.4 23.6835 51.984 22.8195 51.984C21.8755 51.984 20.9155 52.928 20.4995 53.696V59.728H19.5875ZM35.8608 51.888C34.7248 51.888 33.3328 52.848 33.2048 54.848H38.3408C38.3248 52.832 37.2528 51.888 35.8608 51.888ZM36.1008 59.904C33.7328 59.904 32.2448 58.192 32.2448 55.76V55.44C32.2448 52.528 34.0208 51.088 35.8768 51.088C37.8768 51.088 39.2848 52.496 39.2848 55.088V55.648H33.2048C33.2048 58.032 34.4368 59.088 36.3248 59.088C37.2208 59.088 38.3248 58.624 38.8048 58.224L39.1248 58.976C38.5968 59.424 37.3328 59.904 36.1008 59.904ZM44.1014 51.952C43.1574 51.952 42.0854 52.912 41.7974 53.52V57.92C42.1974 58.544 43.3814 59.024 44.0694 59.024C45.4774 59.024 46.6934 58.112 46.6934 55.456V55.28C46.6934 52.704 45.4454 51.952 44.1014 51.952ZM44.3094 51.088C45.9574 51.088 47.7174 52.288 47.7174 55.216V55.488C47.7174 58.56 46.1014 59.872 44.2134 59.872C43.3014 59.872 42.3414 59.504 41.7974 58.96V63.2H40.8694V51.296H41.7974V52.416C42.2934 51.712 43.3014 51.088 44.3094 51.088ZM51.894 59.072C52.758 59.072 53.878 58.384 54.278 57.84V55.248L52.022 55.52C50.822 55.664 49.91 56.16 49.91 57.424C49.91 58.576 50.758 59.072 51.894 59.072ZM51.718 59.904C50.118 59.904 48.934 59.12 48.934 57.472C48.934 55.744 50.166 54.928 51.798 54.752L54.278 54.464V53.84C54.278 52.304 53.19 51.888 51.894 51.888C51.174 51.888 50.182 52.24 49.59 52.688L49.222 51.888C49.894 51.44 51.078 51.024 52.006 51.024C53.622 51.024 55.142 51.744 55.142 53.504V59.712H54.47L54.31 58.752C53.846 59.28 52.79 59.904 51.718 59.904ZM60.1764 56.512C61.3604 56.512 62.4004 55.68 62.4004 54.368V54.128C62.4004 52.72 61.4244 51.936 60.1764 51.936C58.9124 51.936 57.9684 52.768 57.9684 54.096V54.352C57.9684 55.776 59.0564 56.512 60.1764 56.512ZM60.3524 62.416C62.3364 62.416 63.5044 61.664 63.5044 60.688C63.5044 59.712 62.9124 59.44 61.6964 59.44H58.9124C58.0484 59.664 57.3764 60.016 57.3764 60.88C57.3764 61.92 58.5764 62.416 60.3524 62.416ZM60.3844 63.184C57.8244 63.184 56.4164 62.464 56.4164 60.928C56.4164 59.984 57.1684 59.44 57.9524 59.184C57.5044 58.976 57.0724 58.464 57.0724 57.92C57.0724 57.232 57.4244 56.896 57.9524 56.576C57.4404 56.096 56.9764 55.44 56.9764 54.368V54.176C56.9764 52.4 58.4004 51.168 60.1924 51.168C60.7044 51.168 61.1684 51.216 61.4564 51.328H64.3364V52.288L62.4324 52.144C62.9604 52.512 63.3444 53.312 63.3444 54.16V54.304C63.3444 56.192 61.8084 57.312 60.1764 57.312C59.5524 57.312 58.9284 57.184 58.5124 56.944C58.2404 57.088 57.9204 57.408 57.9204 57.76C57.9204 58.288 58.3844 58.64 59.0084 58.64H61.6964C63.1364 58.64 64.5284 58.912 64.5284 60.528C64.5284 61.984 63.1204 63.184 60.3844 63.184ZM68.8933 51.888C67.7573 51.888 66.3653 52.848 66.2373 54.848H71.3733C71.3573 52.832 70.2853 51.888 68.8933 51.888ZM69.1333 59.904C66.7653 59.904 65.2773 58.192 65.2773 55.76V55.44C65.2773 52.528 67.0533 51.088 68.9093 51.088C70.9093 51.088 72.3173 52.496 72.3173 55.088V55.648H66.2373C66.2373 58.032 67.4693 59.088 69.3573 59.088C70.2533 59.088 71.3573 58.624 71.8373 58.224L72.1573 58.976C71.6293 59.424 70.3653 59.904 69.1333 59.904ZM78.0663 59.728V48.288H79.4743L83.1383 58.608L86.8823 48.288H88.1783V59.728H87.2343V49.648L83.6343 59.76H82.6103L79.0103 49.568V59.728H78.0663ZM92.7628 59.072C93.6268 59.072 94.7468 58.384 95.1468 57.84V55.248L92.8908 55.52C91.6908 55.664 90.7788 56.16 90.7788 57.424C90.7788 58.576 91.6268 59.072 92.7628 59.072ZM92.5868 59.904C90.9868 59.904 89.8028 59.12 89.8028 57.472C89.8028 55.744 91.0348 54.928 92.6668 54.752L95.1468 54.464V53.84C95.1468 52.304 94.0588 51.888 92.7628 51.888C92.0428 51.888 91.0508 52.24 90.4588 52.688L90.0908 51.888C90.7628 51.44 91.9468 51.024 92.8748 51.024C94.4908 51.024 96.0108 51.744 96.0108 53.504V59.712H95.3388L95.1788 58.752C94.7148 59.28 93.6588 59.904 92.5868 59.904ZM98.1313 49.408V48.24H99.1713V49.408H98.1313ZM98.1953 59.728V51.232H99.1233V59.728H98.1953ZM101.107 59.728V51.296H102.019V52.608C102.755 51.76 103.843 51.152 104.915 51.152C106.211 51.152 107.475 51.952 107.475 53.552V59.728H106.547V53.792C106.547 52.624 105.683 51.984 104.563 51.984C103.715 51.984 102.755 52.656 102.019 53.552V59.728H101.107ZM116.777 59.968C115.449 59.968 113.929 59.456 113.097 58.96L113.465 58.08C114.345 58.624 115.721 59.056 116.777 59.056C118.553 59.056 119.849 58.016 119.849 56.576C119.849 55.424 119.097 54.72 117.561 54.416L116.329 54.16C114.809 53.84 113.337 52.816 113.337 51.12C113.337 49.408 114.745 48.176 117.001 48.176C118.505 48.176 119.945 48.672 120.777 49.344L120.313 50.08C119.529 49.504 118.313 49.04 116.953 49.04C115.337 49.04 114.377 49.84 114.377 51.04C114.377 52.32 115.497 53.072 116.745 53.312L117.865 53.52C119.961 53.968 120.921 54.896 120.921 56.608C120.921 58.608 118.937 59.968 116.777 59.968ZM126.059 59.888C123.899 59.888 122.123 58.256 122.123 55.472V55.36C122.123 52.608 124.155 51.136 125.995 51.136C127.275 51.136 128.123 51.552 128.667 52.016L128.283 52.768C127.787 52.4 127.035 51.952 126.011 51.952C124.635 51.952 123.131 53.136 123.131 55.28V55.552C123.131 57.744 124.475 59.04 126.187 59.04C127.195 59.04 127.963 58.624 128.379 58.32L128.731 59.072C128.251 59.504 127.083 59.888 126.059 59.888ZM129.999 59.696V51.296H130.927V52.544C131.359 51.696 132.255 51.136 133.055 51.136C133.615 51.136 134.207 51.264 134.607 51.52L134.303 52.448C133.967 52.224 133.455 52.08 133.039 52.08C132.175 52.08 131.519 52.576 130.927 53.52V59.696H129.999ZM137.896 51.888C136.76 51.888 135.368 52.848 135.24 54.848H140.376C140.36 52.832 139.288 51.888 137.896 51.888ZM138.136 59.904C135.768 59.904 134.28 58.192 134.28 55.76V55.44C134.28 52.528 136.056 51.088 137.912 51.088C139.912 51.088 141.32 52.496 141.32 55.088V55.648H135.24C135.24 58.032 136.472 59.088 138.36 59.088C139.256 59.088 140.36 58.624 140.84 58.224L141.16 58.976C140.632 59.424 139.368 59.904 138.136 59.904ZM146.217 51.888C145.081 51.888 143.689 52.848 143.561 54.848H148.697C148.681 52.832 147.609 51.888 146.217 51.888ZM146.457 59.904C144.089 59.904 142.601 58.192 142.601 55.76V55.44C142.601 52.528 144.377 51.088 146.233 51.088C148.233 51.088 149.641 52.496 149.641 55.088V55.648H143.561C143.561 58.032 144.793 59.088 146.681 59.088C147.577 59.088 148.681 58.624 149.161 58.224L149.481 58.976C148.953 59.424 147.689 59.904 146.457 59.904ZM151.242 59.728V51.296H152.154V52.608C152.89 51.76 153.978 51.152 155.05 51.152C156.346 51.152 157.61 51.952 157.61 53.552V59.728H156.682V53.792C156.682 52.624 155.818 51.984 154.698 51.984C153.85 51.984 152.89 52.656 152.154 53.552V59.728H151.242ZM1.968 78.128H4.752C6.848 78.128 7.744 77.008 7.744 75.52C7.744 74 6.816 73.104 4.8 73.104H1.968V78.128ZM1.04 83.728V72.288H4.736C7.536 72.288 8.768 73.456 8.768 75.536C8.768 77.152 7.616 78.432 6 78.816L9.392 83.728H8.192L4.976 78.944H1.968V83.728H1.04ZM13.3289 75.888C12.1929 75.888 10.8009 76.848 10.6729 78.848H15.8089C15.7929 76.832 14.7209 75.888 13.3289 75.888ZM13.5689 83.904C11.2009 83.904 9.71288 82.192 9.71288 79.76V79.44C9.71288 76.528 11.4889 75.088 13.3449 75.088C15.3449 75.088 16.7529 76.496 16.7529 79.088V79.648H10.6729C10.6729 82.032 11.9049 83.088 13.7929 83.088C14.6889 83.088 15.7929 82.624 16.2729 82.224L16.5929 82.976C16.0649 83.424 14.8009 83.904 13.5689 83.904ZM18.3535 83.728V75.296H19.2655V76.608C20.0015 75.76 21.0895 75.152 22.1615 75.152C23.4575 75.152 24.7215 75.952 24.7215 77.552V83.728H23.7935V77.792C23.7935 76.624 22.9295 75.984 21.8095 75.984C20.9615 75.984 20.0015 76.656 19.2655 77.552V83.728H18.3535ZM29.892 75.888C28.756 75.888 27.364 76.848 27.236 78.848H32.372C32.356 76.832 31.284 75.888 29.892 75.888ZM30.132 83.904C27.764 83.904 26.276 82.192 26.276 79.76V79.44C26.276 76.528 28.052 75.088 29.908 75.088C31.908 75.088 33.316 76.496 33.316 79.088V79.648H27.236C27.236 82.032 28.468 83.088 30.356 83.088C31.252 83.088 32.356 82.624 32.836 82.224L33.156 82.976C32.628 83.424 31.364 83.904 30.132 83.904ZM36.5326 83.76L34.1326 75.296H35.1566L37.1086 82.608L39.0926 75.296H40.0846L42.0206 82.608L43.9726 75.296H44.9006L42.5166 83.76H41.5086L39.5566 76.544L37.6046 83.76H36.5326ZM48.4096 83.072C49.2736 83.072 50.3936 82.384 50.7936 81.84V79.248L48.5376 79.52C47.3376 79.664 46.4256 80.16 46.4256 81.424C46.4256 82.576 47.2736 83.072 48.4096 83.072ZM48.2336 83.904C46.6336 83.904 45.4496 83.12 45.4496 81.472C45.4496 79.744 46.6816 78.928 48.3136 78.752L50.7936 78.464V77.84C50.7936 76.304 49.7056 75.888 48.4096 75.888C47.6896 75.888 46.6976 76.24 46.1056 76.688L45.7376 75.888C46.4096 75.44 47.5936 75.024 48.5216 75.024C50.1376 75.024 51.6576 75.744 51.6576 77.504V83.712H50.9856L50.8256 82.752C50.3616 83.28 49.3056 83.904 48.2336 83.904ZM53.8421 83.728V71.472H54.7701V83.728H53.8421Z" fill="#4F4F4F"/>
</svg>
