<svg width="26" height="26" viewBox="0 0 26 26" fill="none" xmlns="http://www.w3.org/2000/svg">
<path d="M22.5325 10.41L14.0325 2.41C13.7633 2.15131 13.4058 2.00472 13.0325 2C12.6592 2.00472 12.3017 2.15131 12.0325 2.41L3.53249 10.41C3.38317 10.5494 3.26426 10.7182 3.18337 10.9058C3.10248 11.0934 3.06139 11.2957 3.06252 11.5V22.5C3.06252 22.8978 3.22043 23.2794 3.50173 23.5607C3.78304 23.842 4.1647 24 4.56252 24H21.5625C21.9603 24 22.3418 23.842 22.6231 23.5607C22.9044 23.2794 23.0625 22.8978 23.0625 22.5V11.5C23.0561 11.2912 23.0054 11.0861 22.9141 10.8983C22.8227 10.7104 22.6928 10.544 22.5325 10.41V10.41ZM16.2525 19.5H9.75246C9.55436 19.4974 9.36497 19.4176 9.22488 19.2775C9.08478 19.1374 9.00505 18.9481 9.00246 18.75C9.00246 18.5511 9.08154 18.3603 9.22219 18.2197C9.36284 18.079 9.55355 18 9.75246 18H16.2525C16.3513 17.9987 16.4494 18.0171 16.541 18.0544C16.6326 18.0916 16.7158 18.1468 16.7857 18.2167C16.8556 18.2866 16.9108 18.3698 16.948 18.4614C16.9852 18.553 17.0038 18.6511 17.0025 18.75C17.0025 18.9489 16.9234 19.1397 16.7827 19.2803C16.6421 19.421 16.4514 19.5 16.2525 19.5V19.5Z" fill="black"/>
</svg>
