<svg width="858" height="115" viewBox="0 0 858 115" fill="none" xmlns="http://www.w3.org/2000/svg">
<path d="M286.57 17.182C288.766 17.182 290.278 15.382 290.278 12.43V11.872C290.278 8.938 288.64 7.282 286.516 7.282C284.5 7.282 282.826 8.974 282.826 11.836V12.394C282.826 15.436 284.356 17.182 286.57 17.182ZM286.534 18.982C283.384 18.982 280.756 16.66 280.756 12.304V12.07C280.756 7.804 283.402 5.464 286.57 5.464C289.666 5.464 292.366 7.678 292.366 12.052V12.304C292.366 16.588 289.72 18.982 286.534 18.982ZM297.616 18.748L292.936 5.644H295.186L298.84 16.39L302.494 5.644H304.708L299.974 18.748H297.616ZM305.727 18.73V5.644H313.665V7.426H307.725V10.99H313.071V12.736H307.725V16.93H313.773V18.73H305.727ZM317.578 11.926H319.756C321.502 11.926 322.528 11.044 322.528 9.568C322.528 8.182 321.574 7.372 319.774 7.372H317.578V11.926ZM315.598 18.73V5.644H319.936C322.978 5.644 324.544 7.102 324.544 9.532C324.544 11.332 323.41 12.736 321.916 13.24L325.462 18.73H323.086L320.026 13.636H317.578V18.73H315.598ZM330.233 18.748L325.553 5.644H327.803L331.457 16.39L335.111 5.644H337.325L332.591 18.748H330.233ZM338.452 18.73V5.644H340.486V18.73H338.452ZM342.642 18.73V5.644H350.58V7.426H344.64V10.99H349.986V12.736H344.64V16.93H350.688V18.73H342.642ZM354.887 18.73L351.611 5.644H353.663L356.183 16.03L358.505 5.644H360.863L363.203 16.012L365.669 5.644H367.685L364.445 18.73H362.051L359.657 8.236L357.281 18.73H354.887Z" fill="#E2E2E2"/>
<path d="M281.952 54.256H284.848C286.72 54.256 287.792 53.456 287.792 51.728C287.792 49.888 286.864 49.104 284.784 49.104H281.952V54.256ZM281.024 59.728V48.288H284.88C287.392 48.288 288.8 49.264 288.8 51.648C288.8 53.952 287.152 55.12 285.024 55.12H281.952V59.728H281.024ZM294.846 59.856C292.19 59.856 289.822 57.776 289.822 54.128V53.952C289.822 50.256 292.51 48.192 295.102 48.192C296.75 48.192 297.838 48.656 298.51 49.184L298.126 50C297.358 49.424 296.414 49.056 295.102 49.056C293.006 49.056 290.814 50.88 290.814 53.952V54.096C290.814 56.848 292.558 58.976 294.862 58.976C296.334 58.976 297.598 58.56 298.446 57.872L298.83 58.576C298.03 59.328 296.51 59.856 294.846 59.856ZM300.26 60.352V59.12H301.46V60.448C301.46 61.168 300.98 61.936 300.148 62.192L300.02 61.76C300.596 61.584 300.932 61.072 300.916 60.352H300.26ZM307.682 59.728V48.288H309.09L312.754 58.608L316.498 48.288H317.794V59.728H316.85V49.648L313.25 59.76H312.226L308.626 49.568V59.728H307.682ZM323.098 59.12C324.634 59.12 325.818 57.76 325.818 55.584V55.408C325.818 52.96 324.49 51.888 323.066 51.888C321.498 51.888 320.298 53.232 320.298 55.344V55.584C320.298 57.984 321.658 59.12 323.098 59.12ZM323.066 59.92C320.89 59.92 319.338 58.24 319.338 55.584V55.472C319.338 52.752 320.97 51.088 323.082 51.088C325.21 51.088 326.81 52.704 326.81 55.424V55.536C326.81 58.176 325.146 59.92 323.066 59.92ZM331.492 58.992C332.836 58.992 334.164 57.952 334.164 55.44V55.328C334.164 52.656 332.884 52 331.476 52C330.804 52 329.604 52.576 329.252 53.184V57.696C329.572 58.32 330.516 58.992 331.492 58.992ZM331.78 59.824C330.676 59.824 329.604 59.408 329.236 58.8V59.728H328.324V47.52H329.252V52.064C329.732 51.616 330.772 51.136 331.652 51.136C333.62 51.136 335.172 52.224 335.172 55.392V55.504C335.172 58.48 333.364 59.824 331.78 59.824ZM336.864 49.408V48.24H337.904V49.408H336.864ZM336.928 59.728V51.232H337.856V59.728H336.928ZM339.968 59.728V47.472H340.896V59.728H339.968ZM346.175 51.888C345.039 51.888 343.647 52.848 343.519 54.848H348.655C348.639 52.832 347.567 51.888 346.175 51.888ZM346.415 59.904C344.047 59.904 342.559 58.192 342.559 55.76V55.44C342.559 52.528 344.335 51.088 346.191 51.088C348.191 51.088 349.599 52.496 349.599 55.088V55.648H343.519C343.519 58.032 344.751 59.088 346.639 59.088C347.535 59.088 348.639 58.624 349.119 58.224L349.439 58.976C348.911 59.424 347.647 59.904 346.415 59.904ZM357.78 59.728L354.564 48.288H355.588L358.468 58.416L360.9 48.288H362.26L364.58 58.432L367.444 48.288H368.436L365.204 59.728H363.908L361.524 49.392L359.028 59.728H357.78ZM372.887 51.888C371.751 51.888 370.359 52.848 370.231 54.848H375.367C375.351 52.832 374.279 51.888 372.887 51.888ZM373.127 59.904C370.759 59.904 369.271 58.192 369.271 55.76V55.44C369.271 52.528 371.047 51.088 372.903 51.088C374.903 51.088 376.311 52.496 376.311 55.088V55.648H370.231C370.231 58.032 371.463 59.088 373.351 59.088C374.247 59.088 375.351 58.624 375.831 58.224L376.151 58.976C375.623 59.424 374.359 59.904 373.127 59.904ZM381.08 58.992C382.424 58.992 383.752 57.952 383.752 55.44V55.328C383.752 52.656 382.472 52 381.064 52C380.392 52 379.192 52.576 378.84 53.184V57.696C379.16 58.32 380.104 58.992 381.08 58.992ZM381.368 59.824C380.264 59.824 379.192 59.408 378.824 58.8V59.728H377.912V47.52H378.84V52.064C379.32 51.616 380.36 51.136 381.24 51.136C383.208 51.136 384.76 52.224 384.76 55.392V55.504C384.76 58.48 382.952 59.824 381.368 59.824ZM285.136 83.872C282.672 83.872 281.04 82.256 281.04 79.12V72.272H281.968V79.072C281.968 81.712 283.184 83.056 285.2 83.056C287.264 83.056 288.288 81.744 288.288 79.056V72.272H289.232V79.12C289.232 82.336 287.712 83.872 285.136 83.872ZM290.315 83.728L294.315 77.68L290.635 72.288H291.835L294.907 76.896L297.899 72.288H299.131L295.467 77.728L299.451 83.728H298.251L294.843 78.528L291.515 83.728H290.315ZM299.834 86.688L304.026 71.52H304.922L300.714 86.688H299.834ZM309.864 83.872C307.4 83.872 305.768 82.256 305.768 79.12V72.272H306.696V79.072C306.696 81.712 307.912 83.056 309.928 83.056C311.992 83.056 313.016 81.744 313.016 79.056V72.272H313.96V79.12C313.96 82.336 312.44 83.872 309.864 83.872ZM315.875 83.744V72.288H316.819V83.744H315.875ZM326.307 83.056C327.219 83.056 328.291 82.128 328.579 81.52V77.104C328.179 76.48 326.995 76.032 326.339 76.032C324.899 76.032 323.667 76.912 323.667 79.584V79.76C323.667 82.336 324.963 83.056 326.307 83.056ZM326.067 83.872C324.499 83.872 322.675 82.768 322.675 79.808V79.568C322.675 76.464 324.275 75.2 326.179 75.2C327.043 75.2 328.051 75.552 328.579 76.048V71.488H329.539V83.728H328.771L328.579 82.608C328.083 83.296 327.075 83.872 326.067 83.872ZM334.799 75.888C333.663 75.888 332.271 76.848 332.143 78.848H337.279C337.263 76.832 336.191 75.888 334.799 75.888ZM335.039 83.904C332.671 83.904 331.183 82.192 331.183 79.76V79.44C331.183 76.528 332.959 75.088 334.815 75.088C336.815 75.088 338.223 76.496 338.223 79.088V79.648H332.143C332.143 82.032 333.375 83.088 335.263 83.088C336.159 83.088 337.263 82.624 337.743 82.224L338.063 82.976C337.535 83.424 336.271 83.904 335.039 83.904ZM342.304 83.92C341.296 83.92 340.16 83.52 339.568 83.136L339.92 82.304C340.464 82.656 341.648 83.072 342.4 83.072C343.84 83.072 344.608 82.208 344.608 81.392C344.608 80.544 343.936 80.096 343.008 79.92L341.888 79.76C340.704 79.536 339.696 78.912 339.696 77.424C339.696 75.984 340.992 75.12 342.72 75.12C343.824 75.12 344.896 75.584 345.344 75.92L344.992 76.736C344.416 76.336 343.456 75.952 342.656 75.952C341.584 75.952 340.656 76.416 340.656 77.424C340.656 78.384 341.232 78.72 342.048 78.848L343.376 79.072C344.624 79.28 345.568 80.032 345.568 81.392C345.568 82.88 344.16 83.92 342.304 83.92ZM347.084 73.408V72.24H348.124V73.408H347.084ZM347.148 83.728V75.232H348.076V83.728H347.148ZM353.115 80.512C354.299 80.512 355.339 79.68 355.339 78.368V78.128C355.339 76.72 354.363 75.936 353.115 75.936C351.851 75.936 350.907 76.768 350.907 78.096V78.352C350.907 79.776 351.995 80.512 353.115 80.512ZM353.291 86.416C355.275 86.416 356.443 85.664 356.443 84.688C356.443 83.712 355.851 83.44 354.635 83.44H351.851C350.987 83.664 350.315 84.016 350.315 84.88C350.315 85.92 351.515 86.416 353.291 86.416ZM353.323 87.184C350.763 87.184 349.355 86.464 349.355 84.928C349.355 83.984 350.107 83.44 350.891 83.184C350.443 82.976 350.011 82.464 350.011 81.92C350.011 81.232 350.363 80.896 350.891 80.576C350.379 80.096 349.915 79.44 349.915 78.368V78.176C349.915 76.4 351.339 75.168 353.131 75.168C353.643 75.168 354.107 75.216 354.395 75.328H357.275V76.288L355.371 76.144C355.899 76.512 356.283 77.312 356.283 78.16V78.304C356.283 80.192 354.747 81.312 353.115 81.312C352.491 81.312 351.867 81.184 351.451 80.944C351.179 81.088 350.859 81.408 350.859 81.76C350.859 82.288 351.323 82.64 351.947 82.64H354.635C356.075 82.64 357.467 82.912 357.467 84.528C357.467 85.984 356.059 87.184 353.323 87.184ZM358.536 83.728V75.296H359.448V76.608C360.184 75.76 361.272 75.152 362.344 75.152C363.64 75.152 364.904 75.952 364.904 77.552V83.728H363.976V77.792C363.976 76.624 363.112 75.984 361.992 75.984C361.144 75.984 360.184 76.656 359.448 77.552V83.728H358.536ZM281.968 102.128H284.752C286.848 102.128 287.744 101.008 287.744 99.52C287.744 98 286.816 97.104 284.8 97.104H281.968V102.128ZM281.04 107.728V96.288H284.736C287.536 96.288 288.768 97.456 288.768 99.536C288.768 101.152 287.616 102.432 286 102.816L289.392 107.728H288.192L284.976 102.944H281.968V107.728H281.04ZM293.329 99.888C292.193 99.888 290.801 100.848 290.673 102.848H295.809C295.793 100.832 294.721 99.888 293.329 99.888ZM293.569 107.904C291.201 107.904 289.713 106.192 289.713 103.76V103.44C289.713 100.528 291.489 99.088 293.345 99.088C295.345 99.088 296.753 100.496 296.753 103.088V103.648H290.673C290.673 106.032 291.905 107.088 293.793 107.088C294.689 107.088 295.793 106.624 296.273 106.224L296.593 106.976C296.065 107.424 294.801 107.904 293.569 107.904ZM300.834 107.92C299.826 107.92 298.69 107.52 298.098 107.136L298.45 106.304C298.994 106.656 300.178 107.072 300.93 107.072C302.37 107.072 303.138 106.208 303.138 105.392C303.138 104.544 302.466 104.096 301.538 103.92L300.418 103.76C299.234 103.536 298.226 102.912 298.226 101.424C298.226 99.984 299.522 99.12 301.25 99.12C302.354 99.12 303.426 99.584 303.874 99.92L303.522 100.736C302.946 100.336 301.986 99.952 301.186 99.952C300.114 99.952 299.186 100.416 299.186 101.424C299.186 102.384 299.762 102.72 300.578 102.848L301.906 103.072C303.154 103.28 304.098 104.032 304.098 105.392C304.098 106.88 302.69 107.92 300.834 107.92ZM308.765 99.952C307.821 99.952 306.749 100.912 306.461 101.52V105.92C306.861 106.544 308.045 107.024 308.733 107.024C310.141 107.024 311.357 106.112 311.357 103.456V103.28C311.357 100.704 310.109 99.952 308.765 99.952ZM308.973 99.088C310.621 99.088 312.381 100.288 312.381 103.216V103.488C312.381 106.56 310.765 107.872 308.877 107.872C307.965 107.872 307.005 107.504 306.461 106.96V111.2H305.533V99.296H306.461V100.416C306.957 99.712 307.965 99.088 308.973 99.088ZM317.278 107.12C318.814 107.12 319.998 105.76 319.998 103.584V103.408C319.998 100.96 318.67 99.888 317.246 99.888C315.678 99.888 314.478 101.232 314.478 103.344V103.584C314.478 105.984 315.838 107.12 317.278 107.12ZM317.246 107.92C315.07 107.92 313.518 106.24 313.518 103.584V103.472C313.518 100.752 315.15 99.088 317.262 99.088C319.39 99.088 320.99 100.704 320.99 103.424V103.536C320.99 106.176 319.326 107.92 317.246 107.92ZM322.503 107.728V99.296H323.415V100.608C324.151 99.76 325.239 99.152 326.311 99.152C327.607 99.152 328.871 99.952 328.871 101.552V107.728H327.943V101.792C327.943 100.624 327.079 99.984 325.959 99.984C325.111 99.984 324.151 100.656 323.415 101.552V107.728H322.503ZM333.225 107.92C332.217 107.92 331.081 107.52 330.489 107.136L330.841 106.304C331.385 106.656 332.569 107.072 333.321 107.072C334.761 107.072 335.529 106.208 335.529 105.392C335.529 104.544 334.857 104.096 333.929 103.92L332.809 103.76C331.625 103.536 330.617 102.912 330.617 101.424C330.617 99.984 331.913 99.12 333.641 99.12C334.745 99.12 335.817 99.584 336.265 99.92L335.913 100.736C335.337 100.336 334.377 99.952 333.577 99.952C332.505 99.952 331.577 100.416 331.577 101.424C331.577 102.384 332.153 102.72 332.969 102.848L334.297 103.072C335.545 103.28 336.489 104.032 336.489 105.392C336.489 106.88 335.081 107.92 333.225 107.92ZM338.005 97.408V96.24H339.045V97.408H338.005ZM338.069 107.728V99.232H338.997V107.728H338.069ZM343.556 107.776L340.196 99.296H341.22L344.116 106.672L346.868 99.296H347.876L344.548 107.776H343.556ZM351.8 99.888C350.664 99.888 349.272 100.848 349.144 102.848H354.28C354.264 100.832 353.192 99.888 351.8 99.888ZM352.04 107.904C349.672 107.904 348.184 106.192 348.184 103.76V103.44C348.184 100.528 349.96 99.088 351.816 99.088C353.816 99.088 355.224 100.496 355.224 103.088V103.648H349.144C349.144 106.032 350.376 107.088 352.264 107.088C353.16 107.088 354.264 106.624 354.744 106.224L355.064 106.976C354.536 107.424 353.272 107.904 352.04 107.904ZM361.885 102.256H364.781C366.653 102.256 367.725 101.456 367.725 99.728C367.725 97.888 366.797 97.104 364.717 97.104H361.885V102.256ZM360.957 107.728V96.288H364.813C367.325 96.288 368.733 97.264 368.733 99.648C368.733 101.952 367.085 103.12 364.957 103.12H361.885V107.728H360.957ZM376.299 99.296V107.712H375.355V106.432C374.715 107.264 373.659 107.856 372.603 107.856C371.307 107.856 370.091 107.056 370.091 105.456V99.296H371.019V105.248C371.019 106.496 371.819 107.024 372.955 107.024C373.787 107.024 374.715 106.32 375.355 105.44V99.296H376.299ZM381.439 106.992C382.783 106.992 384.111 105.952 384.111 103.44V103.328C384.111 100.656 382.831 100 381.423 100C380.751 100 379.551 100.576 379.199 101.184V105.696C379.519 106.32 380.463 106.992 381.439 106.992ZM381.727 107.824C380.623 107.824 379.551 107.408 379.183 106.8V107.728H378.271V95.52H379.199V100.064C379.679 99.616 380.719 99.136 381.599 99.136C383.567 99.136 385.119 100.224 385.119 103.392V103.504C385.119 106.48 383.311 107.824 381.727 107.824ZM386.876 107.728V95.472H387.804V107.728H386.876ZM389.851 97.408V96.24H390.891V97.408H389.851ZM389.915 107.728V99.232H390.843V107.728H389.915ZM395.307 107.92C394.299 107.92 393.163 107.52 392.571 107.136L392.923 106.304C393.467 106.656 394.651 107.072 395.403 107.072C396.843 107.072 397.611 106.208 397.611 105.392C397.611 104.544 396.939 104.096 396.011 103.92L394.891 103.76C393.707 103.536 392.699 102.912 392.699 101.424C392.699 99.984 393.995 99.12 395.723 99.12C396.827 99.12 397.899 99.584 398.347 99.92L397.995 100.736C397.419 100.336 396.459 99.952 395.659 99.952C394.587 99.952 393.659 100.416 393.659 101.424C393.659 102.384 394.235 102.72 395.051 102.848L396.379 103.072C397.627 103.28 398.571 104.032 398.571 105.392C398.571 106.88 397.163 107.92 395.307 107.92ZM400.006 107.728V95.472H400.918V100.64C401.734 99.728 402.774 99.168 403.878 99.168C405.174 99.168 406.47 99.872 406.47 101.552V107.728H405.542V101.824C405.542 100.544 404.582 100 403.526 100C402.726 100 401.558 100.8 400.918 101.664V107.728H400.006ZM408.407 97.408V96.24H409.447V97.408H408.407ZM408.471 107.728V99.232H409.399V107.728H408.471ZM411.382 107.728V99.296H412.294V100.608C413.03 99.76 414.118 99.152 415.19 99.152C416.486 99.152 417.75 99.952 417.75 101.552V107.728H416.822V101.792C416.822 100.624 415.958 99.984 414.838 99.984C413.99 99.984 413.03 100.656 412.294 101.552V107.728H411.382ZM422.681 104.512C423.865 104.512 424.905 103.68 424.905 102.368V102.128C424.905 100.72 423.929 99.936 422.681 99.936C421.417 99.936 420.473 100.768 420.473 102.096V102.352C420.473 103.776 421.561 104.512 422.681 104.512ZM422.857 110.416C424.841 110.416 426.009 109.664 426.009 108.688C426.009 107.712 425.417 107.44 424.201 107.44H421.417C420.553 107.664 419.881 108.016 419.881 108.88C419.881 109.92 421.081 110.416 422.857 110.416ZM422.889 111.184C420.329 111.184 418.921 110.464 418.921 108.928C418.921 107.984 419.673 107.44 420.457 107.184C420.009 106.976 419.577 106.464 419.577 105.92C419.577 105.232 419.929 104.896 420.457 104.576C419.945 104.096 419.481 103.44 419.481 102.368V102.176C419.481 100.4 420.905 99.168 422.697 99.168C423.209 99.168 423.673 99.216 423.961 99.328H426.841V100.288L424.937 100.144C425.465 100.512 425.849 101.312 425.849 102.16V102.304C425.849 104.192 424.313 105.312 422.681 105.312C422.057 105.312 421.433 105.184 421.017 104.944C420.745 105.088 420.425 105.408 420.425 105.76C420.425 106.288 420.889 106.64 421.513 106.64H424.201C425.641 106.64 427.033 106.912 427.033 108.528C427.033 109.984 425.625 111.184 422.889 111.184Z" fill="#E2E2E2"/>
<path d="M533.132 12.178H535.31C537.128 12.178 538.172 11.278 538.172 9.748C538.172 8.11 537.2 7.372 535.31 7.372H533.132V12.178ZM531.134 18.73V5.644H535.616C538.532 5.644 540.206 6.94 540.206 9.658C540.206 12.43 538.28 13.888 535.76 13.888H533.132V18.73H531.134ZM541.884 18.73V5.644H549.822V7.426H543.882V10.99H549.228V12.736H543.882V16.93H549.93V18.73H541.884ZM553.735 11.926H555.913C557.659 11.926 558.685 11.044 558.685 9.568C558.685 8.182 557.731 7.372 555.931 7.372H553.735V11.926ZM551.755 18.73V5.644H556.093C559.135 5.644 560.701 7.102 560.701 9.532C560.701 11.332 559.567 12.736 558.073 13.24L561.619 18.73H559.243L556.183 13.636H553.735V18.73H551.755ZM562.858 18.73V5.644H564.892V18.73H562.858ZM572.466 17.182C574.662 17.182 576.174 15.382 576.174 12.43V11.872C576.174 8.938 574.536 7.282 572.412 7.282C570.396 7.282 568.722 8.974 568.722 11.836V12.394C568.722 15.436 570.252 17.182 572.466 17.182ZM572.43 18.982C569.28 18.982 566.652 16.66 566.652 12.304V12.07C566.652 7.804 569.298 5.464 572.466 5.464C575.562 5.464 578.262 7.678 578.262 12.052V12.304C578.262 16.588 575.616 18.982 572.43 18.982ZM581.87 17.02H583.94C586.244 17.02 587.828 15.292 587.828 12.124V11.8C587.828 8.488 586.1 7.354 583.796 7.354H581.87V17.02ZM579.854 18.73V5.644H583.922C587.576 5.644 589.862 7.444 589.862 11.8V12.124C589.862 16.264 587.594 18.73 583.904 18.73H579.854Z" fill="#E2E2E2"/>
<path d="M533.84 59.76V49.472L531.856 50.016V49.456L534.224 48.224H534.736V59.76H533.84ZM540.879 59.76V49.472L538.895 50.016V49.456L541.263 48.224H541.775V59.76H540.879ZM545.183 60.224V59.104H546.335V60.224H545.183ZM552.302 59.728V59.12L555.262 56.256C556.798 54.752 558.11 53.216 558.11 51.52C558.11 49.888 557.118 49.04 555.518 49.04C554.51 49.04 553.518 49.504 552.926 50.016L552.51 49.216C553.134 48.688 554.478 48.144 555.662 48.144C557.678 48.144 559.118 49.376 559.118 51.44C559.118 53.376 558.078 54.832 555.87 56.896L553.806 58.848H559.23V59.728H552.302ZM564.4 59.008C566.08 59.008 567.136 57.776 567.136 54.768V53.328C567.136 50.368 566.112 49.04 564.416 49.04C562.736 49.04 561.584 50.304 561.584 53.232V54.688C561.584 57.616 562.72 59.008 564.4 59.008ZM564.4 59.888C562.336 59.888 560.608 58.288 560.608 54.48V53.408C560.608 49.456 562.448 48.144 564.4 48.144C566.368 48.144 568.112 49.44 568.112 53.344V54.512C568.112 58.272 566.464 59.888 564.4 59.888ZM569.193 59.728V59.12L572.153 56.256C573.689 54.752 575.001 53.216 575.001 51.52C575.001 49.888 574.009 49.04 572.409 49.04C571.401 49.04 570.409 49.504 569.817 50.016L569.401 49.216C570.025 48.688 571.369 48.144 572.553 48.144C574.569 48.144 576.009 49.376 576.009 51.44C576.009 53.376 574.969 54.832 572.761 56.896L570.697 58.848H576.121V59.728H569.193ZM577.513 59.728V59.12L580.473 56.256C582.009 54.752 583.321 53.216 583.321 51.52C583.321 49.888 582.329 49.04 580.729 49.04C579.721 49.04 578.729 49.504 578.137 50.016L577.721 49.216C578.345 48.688 579.689 48.144 580.873 48.144C582.889 48.144 584.329 49.376 584.329 51.44C584.329 53.376 583.289 54.832 581.081 56.896L579.017 58.848H584.441V59.728H577.513ZM593.79 53.04C594.35 53.664 594.814 54.064 595.47 54.064C596.206 54.064 596.622 53.392 596.75 52.448L597.39 52.624C597.182 54.128 596.238 54.832 595.406 54.832C594.734 54.832 594.142 54.576 593.55 53.904C592.91 53.184 592.59 52.928 591.95 52.928C591.262 52.928 590.958 53.584 590.67 54.656L590.03 54.464C590.398 52.752 591.15 52.144 592.11 52.112C592.686 52.096 593.342 52.528 593.79 53.04ZM534.672 83.008C536.352 83.008 537.408 81.776 537.408 78.768V77.328C537.408 74.368 536.384 73.04 534.688 73.04C533.008 73.04 531.856 74.304 531.856 77.232V78.688C531.856 81.616 532.992 83.008 534.672 83.008ZM534.672 83.888C532.608 83.888 530.88 82.288 530.88 78.48V77.408C530.88 73.456 532.72 72.144 534.672 72.144C536.64 72.144 538.384 73.44 538.384 77.344V78.512C538.384 82.272 536.736 83.888 534.672 83.888ZM542.317 83.76V73.472L540.333 74.016V73.456L542.701 72.224H543.213V83.76H542.317ZM546.62 84.224V83.104H547.772V84.224H546.62ZM553.739 83.728V83.12L556.699 80.256C558.235 78.752 559.547 77.216 559.547 75.52C559.547 73.888 558.555 73.04 556.955 73.04C555.947 73.04 554.955 73.504 554.363 74.016L553.947 73.216C554.571 72.688 555.915 72.144 557.099 72.144C559.115 72.144 560.555 73.376 560.555 75.44C560.555 77.376 559.515 78.832 557.307 80.896L555.243 82.848H560.667V83.728H553.739ZM565.838 83.008C567.518 83.008 568.574 81.776 568.574 78.768V77.328C568.574 74.368 567.55 73.04 565.854 73.04C564.174 73.04 563.022 74.304 563.022 77.232V78.688C563.022 81.616 564.158 83.008 565.838 83.008ZM565.838 83.888C563.774 83.888 562.046 82.288 562.046 78.48V77.408C562.046 73.456 563.886 72.144 565.838 72.144C567.806 72.144 569.55 73.44 569.55 77.344V78.512C569.55 82.272 567.902 83.888 565.838 83.888ZM570.63 83.728V83.12L573.59 80.256C575.126 78.752 576.438 77.216 576.438 75.52C576.438 73.888 575.446 73.04 573.846 73.04C572.838 73.04 571.846 73.504 571.254 74.016L570.838 73.216C571.462 72.688 572.806 72.144 573.99 72.144C576.006 72.144 577.446 73.376 577.446 75.44C577.446 77.376 576.406 78.832 574.198 80.896L572.134 82.848H577.558V83.728H570.63ZM581.975 83.824C580.759 83.824 579.719 83.44 579.127 82.992L579.431 82.16C580.039 82.592 581.175 82.928 581.911 82.928C583.767 82.928 584.871 81.952 584.871 80.464C584.871 78.944 583.495 78.16 581.959 78.16H580.807V77.184H581.863C583.271 77.2 584.423 76.32 584.423 74.928C584.423 73.44 583.367 73.008 582.087 73.008C581.175 73.008 580.375 73.328 579.703 73.888L579.255 73.136C579.975 72.576 581.143 72.096 582.215 72.096C584.039 72.096 585.447 73.072 585.447 74.816C585.447 76.272 584.535 77.2 583.271 77.6C584.631 77.888 585.847 78.64 585.847 80.416C585.847 82.352 584.215 83.824 581.975 83.824Z" fill="#E2E2E2"/>
<path d="M718.15 11.926H720.328C722.074 11.926 723.1 11.044 723.1 9.568C723.1 8.182 722.146 7.372 720.346 7.372H718.15V11.926ZM716.17 18.73V5.644H720.508C723.55 5.644 725.116 7.102 725.116 9.532C725.116 11.332 723.982 12.736 722.488 13.24L726.034 18.73H723.658L720.598 13.636H718.15V18.73H716.17ZM730.989 17.308C732.321 17.308 733.473 16.192 733.473 14.068V13.69C733.473 11.404 732.213 10.486 730.935 10.486C729.585 10.486 728.415 11.566 728.415 13.672V14.05C728.415 16.372 729.729 17.308 730.989 17.308ZM730.953 19C728.289 19 726.363 17.074 726.363 14.05V13.852C726.363 10.684 728.523 8.776 730.971 8.776C733.563 8.776 735.561 10.648 735.561 13.744V13.942C735.561 17.038 733.383 19 730.953 19ZM737.16 18.712V4.726H739.14V18.712H737.16ZM745.208 10.504C744.254 10.504 743.03 11.134 742.886 12.916H747.368C747.35 11.242 746.378 10.504 745.208 10.504ZM745.586 18.982C742.634 18.982 740.816 17.056 740.816 14.122V13.762C740.816 10.45 742.904 8.794 745.19 8.794C747.746 8.794 749.33 10.45 749.33 13.42V14.464H742.904C742.976 16.372 744.254 17.182 745.73 17.182C746.954 17.182 748.124 16.714 748.718 16.282L749.276 17.812C748.646 18.352 747.188 18.982 745.586 18.982ZM757.711 12.178H759.889C761.707 12.178 762.751 11.278 762.751 9.748C762.751 8.11 761.779 7.372 759.889 7.372H757.711V12.178ZM755.713 18.73V5.644H760.195C763.111 5.644 764.785 6.94 764.785 9.658C764.785 12.43 762.859 13.888 760.339 13.888H757.711V18.73H755.713ZM769.248 17.254C769.968 17.254 770.994 16.75 771.372 16.3V14.068C769.842 14.248 767.574 14.122 767.574 15.904C767.574 16.876 768.33 17.254 769.248 17.254ZM768.726 18.91C766.98 18.91 765.576 18.028 765.576 16.03C765.576 14.032 766.998 13.06 768.996 12.844L771.372 12.574V12.25C771.372 11.026 770.562 10.522 769.14 10.522C768.348 10.522 767.16 10.9 766.53 11.35C766.332 10.792 766.17 10.234 765.99 9.676C766.836 9.136 768.33 8.74 769.59 8.74C771.678 8.74 773.316 9.748 773.316 11.98V18.712H771.75L771.534 17.83C771.012 18.424 769.734 18.91 768.726 18.91ZM775.472 18.712V9.082H777.434V10.252C777.974 9.424 778.91 8.884 779.864 8.884C780.548 8.884 781.232 9.064 781.646 9.352L781.106 11.242C780.8 11.008 780.206 10.792 779.684 10.792C778.712 10.792 778.01 11.26 777.434 12.106V18.712H775.472ZM786.132 18.856C784.602 18.856 783.396 18.028 783.396 15.886V10.738H781.866V9.064H783.396V6.616H785.358V9.064H788.13V10.738H785.358V15.58C785.358 16.516 785.772 17.074 786.672 17.074C787.122 17.074 787.932 16.858 788.4 16.552L788.742 18.226C788.238 18.568 787.158 18.856 786.132 18.856ZM789.923 7.318V5.248H791.939V7.318H789.923ZM789.959 18.73V9.046H791.921V18.73H789.959ZM798.24 18.964C795.594 18.964 793.578 17.128 793.578 13.942V13.618C793.578 10.396 795.846 8.812 798.258 8.812C799.644 8.812 800.742 9.208 801.372 9.712L800.742 11.35C800.202 10.936 799.374 10.576 798.42 10.576C797.016 10.576 795.684 11.746 795.684 13.546V13.96C795.684 15.904 796.89 17.164 798.492 17.164C799.428 17.164 800.4 16.768 800.886 16.426L801.426 18.1C800.85 18.55 799.482 18.964 798.24 18.964ZM802.931 7.318V5.248H804.947V7.318H802.931ZM802.967 18.73V9.046H804.929V18.73H802.967ZM811.194 10.684C810.348 10.684 809.34 11.332 808.944 12.07V16.12C809.34 16.678 810.348 17.164 811.122 17.164C812.544 17.164 813.606 16.048 813.606 14.05V13.744C813.606 11.548 812.508 10.684 811.194 10.684ZM811.608 8.884C813.48 8.884 815.712 10.108 815.712 13.762V13.996C815.712 17.2 813.822 18.91 811.59 18.91C810.546 18.91 809.52 18.514 808.944 17.956V22.6H806.982V9.064H808.926V10.216C809.484 9.514 810.474 8.884 811.608 8.884ZM820.657 17.254C821.377 17.254 822.403 16.75 822.781 16.3V14.068C821.251 14.248 818.983 14.122 818.983 15.904C818.983 16.876 819.739 17.254 820.657 17.254ZM820.135 18.91C818.389 18.91 816.985 18.028 816.985 16.03C816.985 14.032 818.407 13.06 820.405 12.844L822.781 12.574V12.25C822.781 11.026 821.971 10.522 820.549 10.522C819.757 10.522 818.569 10.9 817.939 11.35C817.741 10.792 817.579 10.234 817.399 9.676C818.245 9.136 819.739 8.74 820.999 8.74C823.087 8.74 824.725 9.748 824.725 11.98V18.712H823.159L822.943 17.83C822.421 18.424 821.143 18.91 820.135 18.91ZM830.202 18.856C828.672 18.856 827.466 18.028 827.466 15.886V10.738H825.936V9.064H827.466V6.616H829.428V9.064H832.2V10.738H829.428V15.58C829.428 16.516 829.842 17.074 830.742 17.074C831.192 17.074 832.002 16.858 832.47 16.552L832.812 18.226C832.308 18.568 831.228 18.856 830.202 18.856ZM833.993 7.318V5.248H836.009V7.318H833.993ZM834.029 18.73V9.046H835.991V18.73H834.029ZM842.22 17.308C843.552 17.308 844.704 16.192 844.704 14.068V13.69C844.704 11.404 843.444 10.486 842.166 10.486C840.816 10.486 839.646 11.566 839.646 13.672V14.05C839.646 16.372 840.96 17.308 842.22 17.308ZM842.184 19C839.52 19 837.594 17.074 837.594 14.05V13.852C837.594 10.684 839.754 8.776 842.202 8.776C844.794 8.776 846.792 10.648 846.792 13.744V13.942C846.792 17.038 844.614 19 842.184 19ZM848.319 18.712V9.064H850.245V10.306C851.037 9.406 852.207 8.902 853.359 8.902C855.033 8.902 856.473 10 856.473 12.088V18.712H854.511V12.484C854.511 11.404 853.809 10.684 852.585 10.684C851.829 10.684 850.875 11.224 850.281 12.034V18.712H848.319Z" fill="#E2E2E2"/>
<path d="M719.48 59.04C720.968 59.04 721.928 57.792 721.928 56.112C721.928 54.384 720.808 53.472 719.512 53.472C718.408 53.472 717.352 54.256 716.84 55.104V55.248C716.84 57.104 717.56 59.04 719.48 59.04ZM719.448 59.856C717.096 59.856 715.864 58.08 715.864 54.688V53.872C715.864 50.048 717.608 48.144 719.88 48.144C721.16 48.144 721.976 48.464 722.712 48.96L722.312 49.712C721.8 49.328 720.92 48.976 720.056 48.976C718.328 48.976 716.984 50.08 716.84 53.952C717.4 53.248 718.44 52.64 719.64 52.64C721.304 52.64 722.936 53.872 722.936 56.08C722.936 58.24 721.512 59.856 719.448 59.856ZM728.071 59.008C729.751 59.008 730.807 57.776 730.807 54.768V53.328C730.807 50.368 729.783 49.04 728.087 49.04C726.407 49.04 725.255 50.304 725.255 53.232V54.688C725.255 57.616 726.391 59.008 728.071 59.008ZM728.071 59.888C726.007 59.888 724.279 58.288 724.279 54.48V53.408C724.279 49.456 726.119 48.144 728.071 48.144C730.039 48.144 731.783 49.44 731.783 53.344V54.512C731.783 58.272 730.135 59.888 728.071 59.888ZM742.472 59.008C743.336 59.008 743.912 58.208 743.912 56.72V56.352C743.912 54.944 743.304 54.224 742.472 54.224C741.64 54.224 741.048 54.928 741.048 56.368V56.704C741.048 58.192 741.608 59.008 742.472 59.008ZM742.472 59.76C741.096 59.76 740.12 58.656 740.12 56.704V56.48C740.12 54.72 741.096 53.344 742.472 53.344C743.896 53.344 744.824 54.624 744.824 56.384V56.64C744.824 58.48 743.912 59.76 742.472 59.76ZM734.76 59.744L742.168 48.224H743.08L735.624 59.744H734.76ZM735.608 53.808C736.472 53.808 737.048 52.992 737.048 51.536V51.152C737.048 49.728 736.44 49.024 735.608 49.024C734.776 49.024 734.168 49.712 734.168 51.168V51.52C734.168 52.976 734.744 53.808 735.608 53.808ZM735.608 54.56C734.216 54.56 733.256 53.456 733.256 51.52V51.28C733.256 49.488 734.216 48.144 735.608 48.144C737.032 48.144 737.96 49.424 737.96 51.184V51.456C737.96 53.28 737.048 54.56 735.608 54.56Z" fill="#E2E2E2"/>
<path d="M3.132 12.178H5.31C7.128 12.178 8.172 11.278 8.172 9.748C8.172 8.11 7.2 7.372 5.31 7.372H3.132V12.178ZM1.134 18.73V5.644H5.616C8.532 5.644 10.206 6.94 10.206 9.658C10.206 12.43 8.28 13.888 5.76 13.888H3.132V18.73H1.134ZM13.8818 11.926H16.0598C17.8058 11.926 18.8318 11.044 18.8318 9.568C18.8318 8.182 17.8778 7.372 16.0778 7.372H13.8818V11.926ZM11.9018 18.73V5.644H16.2398C19.2818 5.644 20.8478 7.102 20.8478 9.532C20.8478 11.332 19.7138 12.736 18.2198 13.24L21.7658 18.73H19.3898L16.3298 13.636H13.8818V18.73H11.9018ZM28.3148 17.182C30.5108 17.182 32.0228 15.382 32.0228 12.43V11.872C32.0228 8.938 30.3848 7.282 28.2608 7.282C26.2448 7.282 24.5708 8.974 24.5708 11.836V12.394C24.5708 15.436 26.1008 17.182 28.3148 17.182ZM28.2788 18.982C25.1288 18.982 22.5008 16.66 22.5008 12.304V12.07C22.5008 7.804 25.1468 5.464 28.3148 5.464C31.4108 5.464 34.1108 7.678 34.1108 12.052V12.304C34.1108 16.588 31.4648 18.982 28.2788 18.982ZM36.9977 18.91C36.0437 18.91 34.8017 18.64 34.1717 18.298L34.6577 16.498C35.1257 16.75 35.9717 16.966 36.6737 16.966C37.9337 16.966 38.6537 16.012 38.6537 14.338V5.644H40.7057V14.41C40.7057 17.11 39.4457 18.91 36.9977 18.91ZM42.7257 18.73V5.644H50.6637V7.426H44.7237V10.99H50.0697V12.736H44.7237V16.93H50.7717V18.73H42.7257ZM57.771 18.91C54.495 18.91 51.813 16.354 51.813 12.322V11.908C51.813 7.606 54.855 5.464 58.005 5.464C59.517 5.464 60.993 5.932 61.785 6.508L61.137 8.236C60.381 7.642 59.301 7.3 58.113 7.3C55.971 7.3 53.901 8.866 53.901 11.854V12.25C53.901 14.95 55.647 17.002 57.987 17.002C59.193 17.002 60.687 16.57 61.497 15.904L62.109 17.614C61.263 18.352 59.517 18.91 57.771 18.91ZM69.0992 7.48V18.73H67.0652V7.48H63.0872V5.662H73.1132V7.48H69.0992Z" fill="#E2E2E2"/>
<path d="M1.968 53.28H4.736C6.256 53.28 7.616 52.688 7.616 51.12C7.616 49.584 6.56 49.12 4.8 49.12H1.968V53.28ZM1.968 58.896H5.216C6.96 58.896 8.128 58.096 8.128 56.4C8.128 54.912 6.592 54.192 4.8 54.192H1.968V58.896ZM1.04 59.728V48.288H4.816C7.408 48.288 8.608 49.248 8.608 51.024C8.608 52.208 7.888 53.344 6.512 53.68C7.936 53.984 9.104 54.816 9.104 56.48C9.104 58.4 7.6 59.728 5.248 59.728H1.04ZM16.8499 51.296V59.712H15.9059V58.432C15.2659 59.264 14.2099 59.856 13.1539 59.856C11.8579 59.856 10.6419 59.056 10.6419 57.456V51.296H11.5699V57.248C11.5699 58.496 12.3699 59.024 13.5059 59.024C14.3379 59.024 15.2659 58.32 15.9059 57.44V51.296H16.8499ZM18.8863 49.408V48.24H19.9263V49.408H18.8863ZM18.9503 59.728V51.232H19.8783V59.728H18.9503ZM21.9896 59.728V47.472H22.9176V59.728H21.9896ZM28.181 59.056C29.093 59.056 30.165 58.128 30.453 57.52V53.104C30.053 52.48 28.869 52.032 28.213 52.032C26.773 52.032 25.541 52.912 25.541 55.584V55.76C25.541 58.336 26.837 59.056 28.181 59.056ZM27.941 59.872C26.373 59.872 24.549 58.768 24.549 55.808V55.568C24.549 52.464 26.149 51.2 28.053 51.2C28.917 51.2 29.925 51.552 30.453 52.048V47.488H31.413V59.728H30.645L30.453 58.608C29.957 59.296 28.949 59.872 27.941 59.872ZM33.4419 49.408V48.24H34.4819V49.408H33.4419ZM33.5059 59.728V51.232H34.4339V59.728H33.5059ZM36.4173 59.728V51.296H37.3293V52.608C38.0653 51.76 39.1533 51.152 40.2253 51.152C41.5213 51.152 42.7853 51.952 42.7853 53.552V59.728H41.8573V53.792C41.8573 52.624 40.9933 51.984 39.8733 51.984C39.0253 51.984 38.0653 52.656 37.3293 53.552V59.728H36.4173ZM47.7157 56.512C48.8997 56.512 49.9397 55.68 49.9397 54.368V54.128C49.9397 52.72 48.9637 51.936 47.7157 51.936C46.4517 51.936 45.5077 52.768 45.5077 54.096V54.352C45.5077 55.776 46.5957 56.512 47.7157 56.512ZM47.8917 62.416C49.8757 62.416 51.0437 61.664 51.0437 60.688C51.0437 59.712 50.4517 59.44 49.2357 59.44H46.4517C45.5877 59.664 44.9157 60.016 44.9157 60.88C44.9157 61.92 46.1157 62.416 47.8917 62.416ZM47.9237 63.184C45.3637 63.184 43.9557 62.464 43.9557 60.928C43.9557 59.984 44.7077 59.44 45.4917 59.184C45.0437 58.976 44.6117 58.464 44.6117 57.92C44.6117 57.232 44.9637 56.896 45.4917 56.576C44.9797 56.096 44.5157 55.44 44.5157 54.368V54.176C44.5157 52.4 45.9397 51.168 47.7317 51.168C48.2437 51.168 48.7077 51.216 48.9957 51.328H51.8757V52.288L49.9717 52.144C50.4997 52.512 50.8837 53.312 50.8837 54.16V54.304C50.8837 56.192 49.3477 57.312 47.7157 57.312C47.0917 57.312 46.4677 57.184 46.0517 56.944C45.7797 57.088 45.4597 57.408 45.4597 57.76C45.4597 58.288 45.9237 58.64 46.5477 58.64H49.2357C50.6757 58.64 52.0677 58.912 52.0677 60.528C52.0677 61.984 50.6597 63.184 47.9237 63.184ZM59.989 59.072C60.853 59.072 61.973 58.384 62.373 57.84V55.248L60.117 55.52C58.917 55.664 58.005 56.16 58.005 57.424C58.005 58.576 58.853 59.072 59.989 59.072ZM59.813 59.904C58.213 59.904 57.029 59.12 57.029 57.472C57.029 55.744 58.261 54.928 59.893 54.752L62.373 54.464V53.84C62.373 52.304 61.285 51.888 59.989 51.888C59.269 51.888 58.277 52.24 57.685 52.688L57.317 51.888C57.989 51.44 59.173 51.024 60.101 51.024C61.717 51.024 63.237 51.744 63.237 53.504V59.712H62.565L62.405 58.752C61.941 59.28 60.885 59.904 59.813 59.904ZM69.4419 59.728V48.288H70.8499L74.5139 58.608L78.2579 48.288H79.5539V59.728H78.6099V49.648L75.0099 59.76H73.9859L70.3859 49.568V59.728H69.4419ZM85.1464 59.76L80.8584 48.288H81.9944L85.6904 58.56L89.3544 48.288H90.4904L86.1704 59.76H85.1464ZM91.63 59.728V48.288H92.926L99.038 58.432V48.288H99.982V59.728H98.75L92.558 49.328V59.728H91.63ZM106.576 59.168C109.232 59.168 110.624 57.168 110.624 54.128V53.792C110.624 50.896 108.896 49.024 106.576 49.024C104.272 49.024 102.528 50.896 102.528 53.792V54.128C102.528 57.168 103.936 59.168 106.576 59.168ZM106.576 60.016C103.568 60.016 101.52 57.904 101.52 54.16V54.016C101.52 50.256 103.696 48.16 106.576 48.16C109.44 48.16 111.632 50.256 111.632 54.016V54.16C111.632 57.904 109.584 60.016 106.576 60.016ZM119.664 59.728L116.448 48.288H117.472L120.352 58.416L122.784 48.288H124.144L126.464 58.432L129.328 48.288H130.32L127.088 59.728H125.792L123.408 49.392L120.912 59.728H119.664ZM134.771 51.888C133.635 51.888 132.243 52.848 132.115 54.848H137.251C137.235 52.832 136.163 51.888 134.771 51.888ZM135.011 59.904C132.643 59.904 131.155 58.192 131.155 55.76V55.44C131.155 52.528 132.931 51.088 134.787 51.088C136.787 51.088 138.195 52.496 138.195 55.088V55.648H132.115C132.115 58.032 133.347 59.088 135.235 59.088C136.131 59.088 137.235 58.624 137.715 58.224L138.035 58.976C137.507 59.424 136.243 59.904 135.011 59.904ZM142.964 58.992C144.308 58.992 145.636 57.952 145.636 55.44V55.328C145.636 52.656 144.356 52 142.948 52C142.276 52 141.076 52.576 140.724 53.184V57.696C141.044 58.32 141.988 58.992 142.964 58.992ZM143.252 59.824C142.148 59.824 141.076 59.408 140.708 58.8V59.728H139.796V47.52H140.724V52.064C141.204 51.616 142.244 51.136 143.124 51.136C145.092 51.136 146.644 52.224 146.644 55.392V55.504C146.644 58.48 144.836 59.824 143.252 59.824ZM155.701 59.968C154.373 59.968 152.853 59.456 152.021 58.96L152.389 58.08C153.269 58.624 154.645 59.056 155.701 59.056C157.477 59.056 158.773 58.016 158.773 56.576C158.773 55.424 158.021 54.72 156.485 54.416L155.253 54.16C153.733 53.84 152.261 52.816 152.261 51.12C152.261 49.408 153.669 48.176 155.925 48.176C157.429 48.176 158.869 48.672 159.701 49.344L159.237 50.08C158.453 49.504 157.237 49.04 155.877 49.04C154.261 49.04 153.301 49.84 153.301 51.04C153.301 52.32 154.421 53.072 155.669 53.312L156.789 53.52C158.885 53.968 159.845 54.896 159.845 56.608C159.845 58.608 157.861 59.968 155.701 59.968ZM161.462 49.408V48.24H162.502V49.408H161.462ZM161.526 59.728V51.232H162.454V59.728H161.526ZM167.654 59.824C166.422 59.824 165.366 59.072 165.366 57.456V52.112H163.894V51.296H165.366V49.2H166.31V51.296H168.998V52.112H166.31V57.232C166.31 58.512 166.838 58.992 167.83 58.992C168.278 58.992 169.142 58.736 169.43 58.512L169.654 59.328C169.318 59.568 168.39 59.824 167.654 59.824ZM173.492 51.888C172.356 51.888 170.964 52.848 170.836 54.848H175.972C175.956 52.832 174.884 51.888 173.492 51.888ZM173.732 59.904C171.364 59.904 169.876 58.192 169.876 55.76V55.44C169.876 52.528 171.652 51.088 173.508 51.088C175.508 51.088 176.916 52.496 176.916 55.088V55.648H170.836C170.836 58.032 172.068 59.088 173.956 59.088C174.852 59.088 175.956 58.624 176.436 58.224L176.756 58.976C176.228 59.424 174.964 59.904 173.732 59.904Z" fill="#E2E2E2"/>
</svg>
