<svg width="277" height="30" viewBox="0 0 277 30" fill="none" xmlns="http://www.w3.org/2000/svg">
<path d="M0 0H277V30H0V0Z" fill="#28BBF4"/>
<path d="M252.524 23.1172C251.841 23.1074 251.255 22.541 251.274 21.8477C251.255 21.1641 251.841 20.5977 252.524 20.5977C253.218 20.5977 253.784 21.1641 253.774 21.8477C253.784 22.541 253.218 23.1074 252.524 23.1172Z" fill="white"/>
<path d="M247.241 7.21875V14.0938H250.151V15.3828H247.241V24.6211H245.717V7.21875H247.241ZM234.565 20.2656V8.91797H242.67V10.1875H236.088V18.9766C239.233 18.9668 241.45 18.8301 244.037 18.3516L244.233 19.6797C241.508 20.168 239.233 20.2656 235.932 20.2656H234.565Z" fill="white"/>
<path d="M230.492 7.23828V12.9609H233.109V14.25H230.492V20.2461H228.969V7.23828H230.492ZM216.957 10.6172V9.36719H221.371V7.23828H222.895V9.36719H227.309V10.6172H216.957ZM217.953 14.8164C217.943 12.8438 219.623 11.5742 222.133 11.5742C224.613 11.5742 226.293 12.8438 226.312 14.8164C226.293 16.7695 224.613 18.0293 222.133 18.0195C219.623 18.0293 217.943 16.7695 217.953 14.8164ZM219.418 14.8164C219.408 16.0371 220.492 16.8281 222.133 16.8086C223.754 16.8281 224.848 16.0371 224.867 14.8164C224.848 13.5762 223.754 12.7754 222.133 12.7852C220.492 12.7754 219.408 13.5762 219.418 14.8164ZM219.633 24.2109V19.2109H221.137V22.9219H231.293V24.2109H219.633Z" fill="white"/>
<path d="M200.062 8.56641C202.62 8.57617 204.437 10.9297 204.456 14.6211C204.437 18.3223 202.62 20.666 200.062 20.6562C197.484 20.666 195.677 18.3223 195.687 14.6211C195.677 10.9297 197.484 8.57617 200.062 8.56641ZM197.132 14.6211C197.142 17.4434 198.343 19.2988 200.062 19.2891C201.8 19.2988 202.972 17.4434 202.972 14.6211C202.972 11.7988 201.8 9.94336 200.062 9.93359C198.343 9.94336 197.142 11.7988 197.132 14.6211ZM207.327 24.582V7.21875H208.851V11.5938H211.663V12.9023H208.851V16.7695H211.663V18.0586H208.851V24.582H207.327Z" fill="white"/>
<path d="M187.2 10.2266V11.4766H178.489V10.2266H182.102V7.74609H183.626V10.2266H187.2ZM179.114 16.5938C179.114 14.2891 180.686 12.6582 182.844 12.6484C185.032 12.6582 186.594 14.2891 186.614 16.5938C186.594 18.9277 185.032 20.5684 182.844 20.5781C180.686 20.5684 179.114 18.9277 179.114 16.5938ZM180.481 16.5938C180.481 18.1367 181.468 19.2402 182.844 19.2305C184.231 19.2402 185.247 18.1367 185.247 16.5938C185.247 15.0703 184.231 13.957 182.844 13.9375C181.468 13.957 180.481 15.0703 180.481 16.5938ZM188.098 23.7227V7.64844H189.544V14.543H191.848V7.21875H193.313V24.582H191.848V15.8125H189.544V23.7227H188.098Z" fill="white"/>
<path d="M175.452 8.27344V9.62109C175.452 11.0859 175.452 12.8438 174.993 15.207H177.541V16.4961H161.643V15.207H173.469C173.938 12.8047 173.938 11.0957 173.928 9.62109V9.52344H163.655V8.27344H175.452ZM163.752 24.1914V18.4492H165.276V22.9023H175.979V24.1914H163.752Z" fill="white"/>
<path d="M159.094 7.23828V20.0703H157.57V7.23828H159.094ZM145.109 16.75C147.717 15.9004 149.543 13.7227 149.543 11.2812V10.8125H145.539V9.58203H149.543V7.31641H151.086V9.58203H155.051V10.8125H151.066V11.2812C151.057 13.5762 152.922 15.627 155.52 16.418L154.758 17.6484C152.717 16.9844 151.105 15.6074 150.324 13.8105C149.562 15.7441 147.951 17.248 145.891 17.9609L145.109 16.75ZM147.883 24.2109V18.8789H149.406V22.9219H159.641V24.2109H147.883Z" fill="white"/>
<path d="M137.179 8.97656V10.7148C137.159 12.8438 137.159 15.2266 136.534 18.7227L134.972 18.5469C135.626 15.2266 135.626 12.7949 135.636 10.7148V10.2461H124.933V8.97656H137.179ZM123.253 22.1211V20.8516H129.464V14.6406H130.968V20.8516H139.073V22.1211H123.253Z" fill="white"/>
<path d="M119.942 7.21875V11.2812H122.559V12.5508H119.942V16.5156H118.419V7.21875H119.942ZM106.427 15.5977C110.841 14.6211 113.321 12.4336 113.575 9.69922H107.169V8.44922H115.274C115.264 12.7949 112.188 15.6758 107.071 16.8477L106.427 15.5977ZM108.946 24.3477V17.2969H120.02V18.4688H110.489V20.1875H119.825V21.3594H110.489V23.1562H120.43V24.3477H108.946Z" fill="white"/>
<path d="M98.5938 8.35156V9.875C98.5938 11.5156 98.5938 13.3223 98.0957 15.8125H100.684V17.082H93.5156V24.6211H91.9727V17.082H84.8633V15.8125H96.543C97.0703 13.3125 97.0703 11.4961 97.0703 9.875V9.62109H86.8555V8.35156H98.5938Z" fill="white"/>
<path d="M82.3141 7.23828V20.0703H80.7906V7.23828H82.3141ZM68.3297 16.75C70.9371 15.9004 72.7633 13.7227 72.7633 11.2812V10.8125H68.7594V9.58203H72.7633V7.31641H74.3063V9.58203H78.2711V10.8125H74.2867V11.2812C74.277 13.5762 76.1422 15.627 78.7399 16.418L77.9781 17.6484C75.9371 16.9844 74.3258 15.6074 73.5446 13.8105C72.7828 15.7441 71.1715 17.248 69.111 17.9609L68.3297 16.75ZM71.1031 24.2109V18.8789H72.6266V22.9219H82.861V24.2109H71.1031Z" fill="white"/>
<path d="M62.3523 16.0469V17.3164H55.3015V20.8711H53.7585V17.3164H46.4539V16.0469H62.3523ZM48.2507 11.1641C48.241 9.00586 50.6726 7.67773 54.3835 7.66797C58.0945 7.67773 60.4968 9.00586 60.4968 11.1641C60.4968 13.3027 58.0945 14.6309 54.3835 14.6211C50.6726 14.6309 48.241 13.3027 48.2507 11.1641ZM48.5046 24.2109V19.1328H50.0476V22.9023H60.575V24.2109H48.5046ZM49.8914 11.1641C49.8718 12.5117 51.6785 13.3711 54.3835 13.3711C57.0789 13.3711 58.8757 12.5117 58.8757 11.1641C58.8757 9.77734 57.0789 8.92773 54.3835 8.91797C51.6785 8.92773 49.8718 9.77734 49.8914 11.1641Z" fill="white"/>
<path d="M43.3383 7.21875V14.3867H45.975V15.6758H43.3383V24.582H41.7953V7.21875H43.3383ZM29.5297 19.7773C32.1469 17.0918 33.2113 13.8594 33.4066 10.4023H30.0765V9.11328H34.8617C34.8422 13.2441 33.9144 17.3262 30.7601 20.6562L29.5297 19.7773ZM34.5101 20.9492C37.225 17.8828 38.0355 14.0254 38.182 10.4023H35.4086V9.11328H39.6273C39.6176 13.2344 39.0121 18.0293 35.7601 21.8086L34.5101 20.9492Z" fill="white"/>
<path d="M26.1406 7.21875V14.2891H28.9531V15.5781H26.1406V24.582H24.6172V7.21875H26.1406ZM12.8203 20.0703C17.3027 17.8438 19.7441 14.4941 20.0957 10.3828H13.6211V9.09375H21.6484C21.6387 14.0059 19.334 18.4883 13.6797 21.2812L12.8203 20.0703Z" fill="white"/>
</svg>
