<svg width="253" height="30" viewBox="0 0 253 30" fill="none" xmlns="http://www.w3.org/2000/svg">
<path d="M0 0H253V30H0V0Z" fill="#28BBF4"/>
<path d="M226.4 22.1172C225.716 22.1074 225.13 21.541 225.15 20.8477C225.13 20.1641 225.716 19.5977 226.4 19.5977C227.093 19.5977 227.66 20.1641 227.65 20.8477C227.66 21.541 227.093 22.1074 226.4 22.1172Z" fill="white"/>
<path d="M221.116 6.21875V13.0938H224.027V14.3828H221.116V23.6211H219.593V6.21875H221.116ZM208.441 19.2656V7.91797H216.546V9.1875H209.964V17.9766C213.109 17.9668 215.325 17.8301 217.913 17.3516L218.109 18.6797C215.384 19.168 213.109 19.2656 209.808 19.2656H208.441Z" fill="white"/>
<path d="M204.368 6.23828V11.9609H206.985V13.25H204.368V19.2461H202.844V6.23828H204.368ZM190.833 9.61719V8.36719H195.247V6.23828H196.77V8.36719H201.184V9.61719H190.833ZM191.829 13.8164C191.819 11.8438 193.499 10.5742 196.009 10.5742C198.489 10.5742 200.169 11.8438 200.188 13.8164C200.169 15.7695 198.489 17.0293 196.009 17.0195C193.499 17.0293 191.819 15.7695 191.829 13.8164ZM193.294 13.8164C193.284 15.0371 194.368 15.8281 196.009 15.8086C197.63 15.8281 198.723 15.0371 198.743 13.8164C198.723 12.5762 197.63 11.7754 196.009 11.7852C194.368 11.7754 193.284 12.5762 193.294 13.8164ZM193.509 23.2109V18.2109H195.012V21.9219H205.169V23.2109H193.509Z" fill="white"/>
<path d="M173.938 7.56641C176.496 7.57617 178.313 9.92969 178.332 13.6211C178.313 17.3223 176.496 19.666 173.938 19.6562C171.359 19.666 169.553 17.3223 169.563 13.6211C169.553 9.92969 171.359 7.57617 173.938 7.56641ZM171.008 13.6211C171.018 16.4434 172.219 18.2988 173.938 18.2891C175.676 18.2988 176.848 16.4434 176.848 13.6211C176.848 10.7988 175.676 8.94336 173.938 8.93359C172.219 8.94336 171.018 10.7988 171.008 13.6211ZM181.203 23.582V6.21875H182.727V10.5938H185.539V11.9023H182.727V15.7695H185.539V17.0586H182.727V23.582H181.203Z" fill="white"/>
<path d="M161.076 9.22656V10.4766H152.365V9.22656H155.978V6.74609H157.502V9.22656H161.076ZM152.99 15.5938C152.99 13.2891 154.562 11.6582 156.72 11.6484C158.908 11.6582 160.47 13.2891 160.49 15.5938C160.47 17.9277 158.908 19.5684 156.72 19.5781C154.562 19.5684 152.99 17.9277 152.99 15.5938ZM154.357 15.5938C154.357 17.1367 155.343 18.2402 156.72 18.2305C158.107 18.2402 159.123 17.1367 159.123 15.5938C159.123 14.0703 158.107 12.957 156.72 12.9375C155.343 12.957 154.357 14.0703 154.357 15.5938ZM161.974 22.7227V6.64844H163.42V13.543H165.724V6.21875H167.189V23.582H165.724V14.8125H163.42V22.7227H161.974Z" fill="white"/>
<path d="M149.913 6.21875V16.5117H148.37V13.7773H144.308V15.2617H136.339V7.54688H144.308V9.05078H148.37V6.21875H149.913ZM137.863 14.0117H142.804V8.79688H137.863V14.0117ZM138.331 20.3008C138.322 18.2109 140.538 17.0098 144.152 17.0195C147.755 17.0098 149.972 18.2109 149.972 20.3008C149.972 22.3711 147.755 23.543 144.152 23.543C140.538 23.543 138.322 22.3711 138.331 20.3008ZM139.855 20.3008C139.845 21.5605 141.486 22.332 144.152 22.332C146.808 22.332 148.448 21.5605 148.448 20.3008C148.448 18.9922 146.808 18.2305 144.152 18.2109C141.486 18.2305 139.845 18.9922 139.855 20.3008ZM144.308 12.4883H148.37V10.3203H144.308V12.4883Z" fill="white"/>
<path d="M134.512 15.418V16.668H127.442V20.0664H125.919V16.668H118.614V15.418H134.512ZM120.645 23.2109V18.4648H122.169V21.9219H132.735V23.2109H120.645ZM120.743 13.7188V6.78516H122.266V9.01172H130.86V6.78516H132.384V13.7188H120.743ZM122.266 12.4688H130.86V10.1836H122.266V12.4688Z" fill="white"/>
<path d="M110.566 6.21875V13.2891H113.379V14.5781H110.566V23.582H109.043V6.21875H110.566ZM97.2461 19.0703C101.729 16.8438 104.17 13.4941 104.521 9.38281H98.0469V8.09375H106.074C106.064 13.0059 103.76 17.4883 98.1055 20.2812L97.2461 19.0703Z" fill="white"/>
<path d="M89.8141 7.80078V9.08984H82.8805V12.6836H89.1891V13.9336H82.8805V18.1328C86.1227 18.1328 88.3492 18.0156 91.0055 17.5664L91.1617 18.8359C88.4176 19.2949 86.0836 19.3926 82.7438 19.4023H81.3571V7.80078H89.8141ZM93.0563 23.582V6.21875H94.5992V23.582H93.0563Z" fill="white"/>
<path d="M72.929 7.80078V9.08984H65.9954V12.6836H72.304V13.9336H65.9954V18.1328C69.2375 18.1328 71.4641 18.0156 74.1204 17.5664L74.2766 18.8359C71.5325 19.2949 69.1985 19.3926 65.8586 19.4023H64.4719V7.80078H72.929ZM76.1711 23.582V6.21875H77.7141V23.582H76.1711Z" fill="white"/>
<path d="M53.9539 7.78125V9.05078H48.8367V14.8906C51.0339 14.8906 52.7527 14.793 54.7937 14.3828L54.9304 15.6133C52.7039 16.0625 50.8972 16.1113 48.4265 16.1211H47.3328V7.78125H53.9539ZM49.8718 23.2109V17.6055H51.4148V21.9219H61.7859V23.2109H49.8718ZM52.8601 12.332V11.082H56.4148V6.58984H57.8796V18.582H56.4148V12.332H52.8601ZM59.7937 19.0898V6.23828H61.2585V19.0898H59.7937Z" fill="white"/>
<path d="M43.9047 6.21875V23.6211H42.3617V6.21875H43.9047ZM30.2328 13.6211C30.2426 9.92969 32.0785 7.57617 34.6664 7.56641C37.2445 7.57617 39.1097 9.92969 39.1 13.6211C39.1097 17.3223 37.2445 19.666 34.6664 19.6562C32.0785 19.666 30.2426 17.3223 30.2328 13.6211ZM31.7172 13.6211C31.7172 16.4434 32.9281 18.2988 34.6664 18.2891C36.4144 18.2988 37.6156 16.4434 37.6156 13.6211C37.6156 10.7988 36.4144 8.94336 34.6664 8.93359C32.9281 8.94336 31.7172 10.7988 31.7172 13.6211Z" fill="white"/>
<path d="M17.3516 7.56641C19.9102 7.57617 21.7266 9.92969 21.7461 13.6211C21.7266 17.3223 19.9102 19.666 17.3516 19.6562C14.7735 19.666 12.9668 17.3223 12.9766 13.6211C12.9668 9.92969 14.7735 7.57617 17.3516 7.56641ZM14.4219 13.6211C14.4317 16.4434 15.6329 18.2988 17.3516 18.2891C19.0899 18.2988 20.2618 16.4434 20.2618 13.6211C20.2618 10.7988 19.0899 8.94336 17.3516 8.93359C15.6329 8.94336 14.4317 10.7988 14.4219 13.6211ZM24.6172 23.582V6.21875H26.1407V13.1523H29.0508V14.4805H26.1407V23.582H24.6172Z" fill="white"/>
</svg>
