<svg width="412" height="192" viewBox="0 0 412 192" fill="none" xmlns="http://www.w3.org/2000/svg">
<path d="M370.277 128.066C367.445 128.192 365.191 127.527 363.516 126.068C361.84 124.609 360.94 122.502 360.817 119.747C360.772 118.752 360.97 117.171 361.409 115.004C361.849 112.837 362.47 110.432 363.272 107.788C364.203 104.603 364.893 102.041 365.343 100.103C365.87 98.1626 366.192 96.8061 366.311 96.0339C366.426 95.1852 366.507 94.4147 366.553 93.7224C366.598 93.0302 366.607 92.3779 366.58 91.7656C366.384 87.4031 364.45 85.3042 360.776 85.4688C355.572 85.702 350.74 89.983 346.282 98.3118C344.018 102.554 341.4 109.152 338.427 118.104C338.168 119.19 337.731 120.551 337.114 122.189C336.571 123.748 335.924 125.579 335.175 127.683C334.83 128.542 334.351 128.985 333.739 129.013C333.203 129.037 332.695 128.829 332.216 128.391C331.732 127.875 331.48 127.388 331.46 126.929C331.446 126.623 332.581 122.853 334.864 115.618C339.222 101.619 341.234 90.9074 340.901 83.4835C340.836 82.0293 341.454 81.2731 342.755 81.2148C343.521 81.1805 344.157 81.6888 344.664 82.7397C345.168 83.7141 345.437 84.584 345.471 85.3493C345.564 87.4158 345.331 89.9186 344.773 92.8578C349.658 85.5068 355.124 81.6959 361.17 81.425C367.523 81.1403 370.853 84.4421 371.162 91.3303C371.295 94.3151 369.994 100.355 367.257 109.45C366.79 111.005 366.33 112.713 365.876 114.574C365.5 116.431 365.345 118.125 365.414 119.656C365.476 121.034 365.795 122.17 366.372 123.064C367.022 123.878 368.112 124.251 369.643 124.183C371.327 124.107 373.103 123.529 374.972 122.449C376.837 121.291 378.614 119.87 380.302 118.184C381.991 116.497 383.331 114.75 384.324 112.942C384.964 111.84 385.464 111.012 385.823 110.459C386.258 109.903 386.782 109.611 387.394 109.583C388.313 109.542 388.796 110.057 388.844 111.129C388.851 111.282 388.79 111.63 388.66 112.172C388.531 112.715 388.394 113.066 388.248 113.226C387.056 115.734 385.475 118.105 383.505 120.341C381.534 122.576 379.392 124.398 377.078 125.805C374.763 127.213 372.497 127.966 370.277 128.066Z" fill="#28BBF4"/>
<path d="M286.324 169.134C280.955 169.374 278.165 167.14 277.954 162.43C277.713 157.061 283.157 151.106 294.285 144.567C299.459 142.07 306.967 137.958 316.81 132.231C318.457 126.872 319.994 120.102 321.421 111.921C318.978 116.372 316.126 120.133 312.866 123.205C307.622 128.349 301.844 131.061 295.533 131.344C291.294 131.534 287.745 130.277 284.887 127.574C281.823 124.502 280.154 119.905 279.88 113.782C279.5 105.304 282.164 97.3507 287.872 89.9216C293.936 82.0046 301.065 77.8625 309.26 77.4953C313.876 77.2885 317.461 78.3076 320.015 80.5528C322.566 82.7038 323.913 85.3807 324.056 88.5834C324.196 91.6919 323.235 94.4721 321.174 96.9241C319.113 99.3762 316.293 100.682 312.713 100.843C309.981 100.965 308.58 100.226 308.508 98.6243C308.432 96.9288 309.76 96.0198 312.491 95.8974C314.658 95.8003 316.371 95.0629 317.631 93.685C318.98 92.2087 319.615 90.5757 319.535 88.786C319.328 84.1703 316.069 82.0039 309.758 82.2867C302.693 82.6032 296.577 86.1808 291.409 93.0194C286.601 99.4644 284.361 106.361 284.69 113.708C285.091 122.657 288.683 126.979 295.465 126.675C301.776 126.392 307.567 122.924 312.838 116.269C316.587 111.476 319.878 104.863 322.709 96.4306C323.091 94.4314 323.962 91.7495 325.322 88.3851C325.759 87.6104 326.354 87.2062 327.108 87.1724C328.898 87.0922 329.828 87.8528 329.9 89.4542L328.816 96.8649C328.305 100.191 327.551 104.425 326.554 109.567C325.647 114.61 324.545 120.558 323.248 127.412C325.068 125.915 327.067 124.174 329.243 122.188C331.51 120.105 334.235 116.679 337.419 111.912C337.681 111.428 338.212 110.649 339.013 109.575C339.81 108.406 340.539 107.808 341.198 107.778C342.234 107.732 342.776 108.226 342.822 109.263C342.843 109.734 342.817 110.207 342.744 110.682C342.765 111.153 342.6 111.679 342.248 112.261C340.144 115.848 337.29 119.563 333.687 123.405C330.178 127.243 326.134 130.728 321.555 133.859C316.044 147.792 308.529 158.087 299.011 164.743C295.358 167.455 291.129 168.919 286.324 169.134ZM287.001 165.281C289.262 165.18 292.134 163.966 295.616 161.639C302.851 156.689 308.803 149.438 313.471 139.885C311.441 140.92 308.949 142.164 305.993 143.618C303.137 145.162 299.725 146.966 295.759 149.032C287.291 153.847 283.15 158.327 283.336 162.472C283.425 164.45 284.646 165.386 287.001 165.281Z" fill="#28BBF4"/>
<path d="M269.394 82.6074C266.509 82.7367 265.002 81.3589 264.873 78.4741C264.744 75.5893 266.122 74.0823 269.006 73.953C271.891 73.8238 273.398 75.2015 273.528 78.0863C273.657 80.9711 272.279 82.4781 269.394 82.6074ZM266.063 132.681C263.261 132.807 260.866 131.882 258.878 129.906C256.89 127.93 255.827 125.418 255.691 122.368C255.524 118.659 256.706 113.692 259.235 107.467C261.764 101.243 262.947 96.3168 262.785 92.6902C262.726 91.3715 263.397 90.6807 264.798 90.6179C266.199 90.5551 266.948 91.5952 267.044 93.7382C267.177 96.7054 265.98 101.343 263.455 107.65C260.93 113.957 259.737 118.677 259.878 121.809C259.962 123.705 260.613 125.327 261.83 126.677C263.125 127.94 264.639 128.533 266.369 128.455C269.419 128.319 272.132 127.124 274.509 124.87C276.886 122.616 279.034 119.877 280.954 116.653C281.798 115.211 282.456 114.231 282.929 113.715C283.401 113.198 283.884 112.929 284.379 112.906C285.45 112.858 286.005 113.247 286.042 114.071C286.064 114.565 285.775 115.487 285.174 116.835C283.055 121.142 280.37 124.814 277.12 127.85C273.87 130.886 270.184 132.496 266.063 132.681Z" fill="#28BBF4"/>
<path d="M232.354 135.803C227.739 136.01 223.811 134.989 220.572 132.739C216.906 130.178 214.97 126.589 214.763 121.973C214.63 119.006 215.244 116.129 216.606 113.343C217.968 110.557 219.893 108.364 222.381 106.766C223.923 104.302 225.743 101.619 227.843 98.7169C229.943 95.8149 232.32 92.6526 234.975 89.2301C233.868 86.6369 233.262 84.1864 233.159 81.8785C233.037 79.1586 233.424 76.7462 234.321 74.6413C235.514 71.7798 237.43 70.29 240.067 70.1718C243.941 69.9983 245.969 71.9308 246.15 75.9695C246.264 78.5246 245.703 80.7384 244.465 82.6108L240.066 89.4975L248.343 100.028C249.918 102.022 251.084 104.076 251.84 106.19C252.677 108.299 253.142 110.384 253.235 112.445C253.512 118.627 251.646 123.996 247.639 128.553C243.631 133.109 238.536 135.526 232.354 135.803ZM238.023 85.377C239.118 84.0066 240.048 82.6435 240.813 81.2878C241.871 79.0931 242.374 77.4188 242.322 76.2649C242.267 75.0286 241.58 74.4399 240.261 74.499C238.036 74.5987 237.03 77.0389 237.244 81.8194C237.27 82.3963 237.337 82.9714 237.446 83.5447C237.636 84.1143 237.829 84.7251 238.023 85.377ZM232.037 131.482C237.229 131.249 241.397 129.328 244.538 125.718C247.759 122.023 249.257 117.661 249.031 112.633C248.876 109.172 247.399 105.687 244.599 102.178L237.254 93.0922L228.615 104.876C234.399 104.948 237.411 107.662 237.651 113.019C237.725 114.668 237.222 116.342 236.142 118.042C235.602 118.892 234.879 119.338 233.972 119.378C232.818 119.43 232.208 118.714 232.141 117.231C232.119 116.736 232.337 116.066 232.795 115.219C233.252 114.373 233.47 113.702 233.448 113.208C233.319 110.323 231.688 108.951 228.556 109.091C227.567 109.135 226.624 109.302 225.729 109.589C225.889 111.317 225.275 113.285 223.887 115.494C222.579 117.618 220.967 119.424 219.051 120.914C219.878 128.31 224.207 131.833 232.037 131.482Z" fill="#28BBF4"/>
<path d="M193.865 136.661C187.683 136.938 182.816 135.215 179.263 131.493C175.71 127.77 173.795 122.818 173.518 116.636C173.104 107.405 175.859 99.7661 181.782 93.7195C186.911 88.3693 192.689 85.5501 199.118 85.262C202.498 85.1106 205.256 85.8542 207.394 87.4927C209.611 89.0451 210.79 91.3874 210.93 94.5194C211.152 99.4648 208.53 103.629 203.066 107.012C198.321 109.868 192.817 111.436 186.553 111.716C183.173 111.868 180.394 111.579 178.214 110.851C178.09 111.765 177.967 112.721 177.847 113.717C177.805 114.627 177.804 115.536 177.845 116.442C178.07 121.47 179.532 125.534 182.232 128.634C184.927 131.652 188.706 133.052 193.569 132.834C202.306 132.442 209.088 128.05 213.915 119.658C214.53 118.639 215.072 117.83 215.54 117.231C216.009 116.632 216.573 116.318 217.233 116.288C218.057 116.251 218.491 116.727 218.535 117.716C218.561 118.293 218.499 118.75 218.349 119.087C218.281 119.421 218.21 119.672 218.135 119.84C215.547 124.746 212.092 128.741 207.77 131.826C203.445 134.827 198.81 136.439 193.865 136.661ZM185.993 107.53C191.268 107.293 195.92 106.052 199.949 103.807C204.626 101.285 206.882 98.1695 206.716 94.4605C206.557 90.9164 203.963 89.2569 198.936 89.4822C194.402 89.6853 190.275 91.5634 186.552 95.1163C183.223 98.2386 180.754 102.107 179.144 106.721C181.073 107.378 183.356 107.648 185.993 107.53Z" fill="#28BBF4"/>
<path d="M18.3146 155.924C17.3255 155.969 15.8392 155.973 13.8555 155.938C11.9954 155.898 10.5709 155.9 9.5818 155.944C7.60366 156.033 6.5675 155.026 6.47332 152.924C6.37914 150.822 7.32113 149.727 9.29927 149.639C10.1647 149.6 11.5274 149.601 13.3875 149.641C15.2475 149.682 16.6103 149.683 17.4757 149.644C28.2319 149.162 38.1252 144.63 47.1558 136.05C41.068 130.128 37.8302 122.84 37.4424 114.186C37.0989 106.521 39.3398 99.8546 44.165 94.1876C48.8722 88.6497 55.2439 85.7008 63.2801 85.3407C67.1127 85.1689 70.6077 85.7556 73.765 87.1007C75.4773 81.0777 77.1895 75.0546 78.9017 69.0315C80.6139 63.0085 82.3234 56.9236 84.0301 50.7769C88.4454 35.961 93.3276 24.6547 98.6769 16.8582L88.0812 16.7755C61.9945 17.9445 44.7828 25.0337 36.4462 38.0432C34.0217 41.9922 32.898 45.9448 33.0753 49.9011C33.247 53.7338 34.5628 56.8338 37.0227 59.2012C39.6006 61.4395 42.8059 62.4727 46.6385 62.301C47.8749 62.2456 49.5245 61.7381 51.5875 60.7785C53.6505 59.8188 54.9911 59.3252 55.6093 59.2975C57.7111 59.2033 58.8118 60.2689 58.9115 62.4943C58.9725 63.8543 57.2407 65.2946 53.7163 66.8152C50.5461 67.9483 48.1574 68.5509 46.5502 68.6229C40.9866 68.8722 36.3319 67.2845 32.5858 63.8598C28.9579 60.3059 27.022 55.809 26.7783 50.3691C26.5567 45.4237 27.9423 40.4064 30.9352 35.317C40.1667 20.1614 59.6185 11.9188 89.2906 10.5892C92.3815 10.4507 95.1042 10.3906 97.4588 10.409C99.8133 10.4274 101.8 10.5242 103.418 10.6995C107.788 5.92002 111.765 3.44998 115.35 3.28932C117.329 3.20069 118.367 4.26908 118.467 6.49449C118.534 7.9781 116.687 9.60938 112.926 11.3884C130.986 13.5523 145.863 19.3276 157.557 28.7141C170.671 39.3998 177.625 53.5824 178.417 71.262C179.453 94.3816 170.573 113.238 151.778 127.831C135.141 140.841 114.83 147.883 90.8451 148.958C73.9073 149.717 60.8915 146.769 51.7977 140.116C41.5918 150.112 30.4307 155.381 18.3146 155.924ZM90.5626 142.652C112.94 141.65 131.854 135.228 147.304 123.386C164.677 110.219 172.885 92.9415 171.926 71.5529C171.162 54.4914 164.121 41.1179 150.803 31.4325C139.535 23.2656 124.641 18.4822 106.12 17.0822C100.271 24.7772 94.9749 36.5356 90.2331 52.3572C88.5319 58.6275 86.7717 64.9624 84.9525 71.3619C83.1277 77.6378 81.3029 83.9137 79.4781 90.1895C85.3647 94.3855 88.4631 99.9453 88.7734 106.869C89.1888 116.141 87.0475 120.883 82.3495 121.093C80.4949 121.176 79.5234 120.229 79.4347 118.251C79.4126 117.756 79.9052 116.31 80.9127 113.911C82.0438 111.506 82.5677 109.377 82.4846 107.522C82.2908 103.195 80.5145 99.4962 77.156 96.4258C71.0874 113.05 64.049 126.001 56.0408 135.28C63.972 140.871 75.4793 143.328 90.5626 142.652ZM51.3988 131.214C59.0417 122.076 65.903 109.318 71.9827 92.9411C69.3365 91.9447 66.5298 91.513 63.5626 91.646C57.2573 91.9285 52.2797 94.1956 48.6298 98.4473C45.0981 102.57 43.4735 107.784 43.756 114.089C44.033 120.271 46.5806 125.979 51.3988 131.214Z" fill="#28BBF4"/>
<path fill-rule="evenodd" clip-rule="evenodd" d="M239.678 132.556C165.243 139.021 85.1055 150.391 34.0404 158.896L33.6047 156.28C84.7182 147.767 164.927 136.387 239.449 129.914C276.708 126.678 312.57 124.667 342.672 124.857C372.713 125.047 397.214 127.427 411.624 133.084L410.655 135.552C396.753 130.095 372.705 127.699 342.656 127.509C312.668 127.319 276.898 129.324 239.678 132.556Z" fill="#28BBF4"/>
</svg>
