<svg width="391" height="30" viewBox="0 0 391 30" fill="none" xmlns="http://www.w3.org/2000/svg">
<path d="M0 0H391V30H0V0Z" fill="#28BBF4"/>
<path d="M353.835 23.1172C353.152 23.1074 352.566 22.541 352.585 21.8477C352.566 21.1641 353.152 20.5977 353.835 20.5977C354.529 20.5977 355.095 21.1641 355.085 21.8477C355.095 22.541 354.529 23.1074 353.835 23.1172Z" fill="white"/>
<path d="M348.552 7.21875V14.0938H351.462V15.3828H348.552V24.6211H347.028V7.21875H348.552ZM335.876 20.2656V8.91797H343.981V10.1875H337.399V18.9766C340.544 18.9668 342.76 18.8301 345.348 18.3516L345.544 19.6797C342.819 20.168 340.544 20.2656 337.243 20.2656H335.876Z" fill="white"/>
<path d="M332.545 7.21875V24.6211H331.002V7.21875H332.545ZM318.873 14.6211C318.883 10.9297 320.719 8.57617 323.307 8.56641C325.885 8.57617 327.75 10.9297 327.741 14.6211C327.75 18.3223 325.885 20.666 323.307 20.6562C320.719 20.666 318.883 18.3223 318.873 14.6211ZM320.358 14.6211C320.358 17.4434 321.569 19.2988 323.307 19.2891C325.055 19.2988 326.256 17.4434 326.256 14.6211C326.256 11.7988 325.055 9.94336 323.307 9.93359C321.569 9.94336 320.358 11.7988 320.358 14.6211Z" fill="white"/>
<path d="M317.164 15.9883V17.2383H301.344V15.9883H308.473V13.9766H302.887V12.707H305.504V9.05469H302.828V7.78516H315.66V9.05469H312.984V12.707H315.602V13.9766H309.996V15.9883H317.164ZM303.277 24.3477V18.918H315.23V24.3477H303.277ZM304.801 23.0977H313.727V20.1094H304.801V23.0977ZM307.027 12.707H311.461V9.05469H307.027V12.707Z" fill="white"/>
<path d="M299.205 7.23828V19.0742H297.74V13.0586H295.298V17.5703H293.873V7.57031H295.298V11.7891H297.74V7.23828H299.205ZM285.22 9.85547V8.58594H291.802V13.4492H286.744V16.0469C289.029 16.0469 290.787 15.9395 292.838 15.5195L293.013 16.75C290.767 17.1992 288.931 17.2773 286.392 17.2773H285.259V12.2773H290.338V9.85547H285.22ZM286.666 23.3125C289.693 22.8438 292.623 20.998 292.642 18.7031V18.2539H294.166V18.7031C294.166 20.998 297.095 22.8438 300.142 23.3125L299.517 24.5039C296.929 24.0742 294.459 22.7363 293.404 20.793C292.339 22.7363 289.859 24.0742 287.291 24.5039L286.666 23.3125Z" fill="white"/>
<path d="M281.89 7.76562V8.97656H279.214V12.3359H281.831V13.5273H269.116V12.3359H271.734V8.97656H269.058V7.76562H281.89ZM267.573 16.2227V14.9922H283.394V16.2227H267.573ZM269.488 18.9375V17.7852H281.363V21.5547H271.05V23.2148H281.89V24.3867H269.527V20.4414H279.859V18.9375H269.488ZM273.257 12.3359H277.691V8.97656H273.257V12.3359Z" fill="white"/>
<path d="M259.643 7.23828V12.9609H262.26V14.25H259.643V20.2461H258.12V7.23828H259.643ZM246.108 10.6172V9.36719H250.522V7.23828H252.045V9.36719H256.459V10.6172H246.108ZM247.104 14.8164C247.094 12.8438 248.774 11.5742 251.284 11.5742C253.764 11.5742 255.444 12.8438 255.463 14.8164C255.444 16.7695 253.764 18.0293 251.284 18.0195C248.774 18.0293 247.094 16.7695 247.104 14.8164ZM248.569 14.8164C248.559 16.0371 249.643 16.8281 251.284 16.8086C252.905 16.8281 253.998 16.0371 254.018 14.8164C253.998 13.5762 252.905 12.7754 251.284 12.7852C249.643 12.7754 248.559 13.5762 248.569 14.8164ZM248.784 24.2109V19.2109H250.287V22.9219H260.444V24.2109H248.784Z" fill="white"/>
<path d="M235.434 10.4414C235.443 12.7754 237.289 14.9043 239.887 15.7539L239.105 16.9453C237.084 16.2617 235.482 14.8359 234.691 13C233.93 14.9727 232.309 16.5352 230.238 17.2773L229.438 16.0859C232.045 15.168 233.881 12.9023 233.891 10.4414V9.69922H229.828V8.44922H239.438V9.69922H235.434V10.4414ZM231.84 19.9141V18.6445H243.52V24.582H241.996V19.9141H231.84ZM241.996 17.7266V7.21875H243.52V17.7266H241.996Z" fill="white"/>
<path d="M220.209 7.60938C223.988 7.60938 226.332 8.83008 226.341 10.9102C226.332 12.9609 223.988 14.1621 220.209 14.1523C216.429 14.1621 214.056 12.9609 214.056 10.9102C214.056 8.83008 216.429 7.60938 220.209 7.60938ZM212.298 16.9258V15.6562H228.119V16.9258H212.298ZM214.232 24.3477V18.6445H226.185V24.3477H214.232ZM215.638 10.9102C215.629 12.1699 217.396 12.9316 220.209 12.9414C222.992 12.9316 224.769 12.1699 224.779 10.9102C224.769 9.61133 222.992 8.83984 220.209 8.83984C217.396 8.83984 215.629 9.61133 215.638 10.9102ZM215.755 23.0977H224.681V19.875H215.755V23.0977Z" fill="white"/>
<path d="M204.476 8.33203V15.8906H196.331V8.33203H204.476ZM197.835 14.6406H202.972V9.60156H197.835V14.6406ZM198.48 24.3477V18.1562H209.866V19.4258H200.023V23.0977H210.238V24.3477H198.48ZM208.226 17.1797V7.23828H209.749V17.1797H208.226Z" fill="white"/>
<path d="M187.952 12.4922V13.7227H176.057V7.86328H177.58V12.4922H187.952ZM173.889 17.3359V16.0859H189.787V17.3359H173.889ZM175.959 24.1523V19.1133H177.483V22.8828H188.049V24.1523H175.959Z" fill="white"/>
<path d="M170.461 7.21875V14.3867H173.371V15.6562H170.461V24.582H168.938V7.21875H170.461ZM156.926 11.2812V10.0117H161.398V7.43359H162.922V10.0117H167.258V11.2812H156.926ZM157.922 16.7109C157.912 14.3672 159.709 12.7266 162.18 12.7266C164.631 12.7266 166.418 14.3672 166.438 16.7109C166.418 19.0645 164.631 20.6953 162.18 20.6953C159.709 20.6953 157.912 19.0645 157.922 16.7109ZM159.387 16.7109C159.377 18.293 160.559 19.4062 162.18 19.3867C163.781 19.4062 164.953 18.293 164.973 16.7109C164.953 15.1387 163.781 14.0059 162.18 14.0156C160.559 14.0059 159.377 15.1387 159.387 16.7109Z" fill="white"/>
<path d="M155.021 7.21875V24.582H153.537V15.3828H151.115V23.7031H149.65V7.58984H151.115V14.1133H153.537V7.21875H155.021ZM140.783 19.9141V9.25H147.423V19.9141H140.783ZM142.228 18.6836H145.978V10.4805H142.228V18.6836Z" fill="white"/>
<path d="M133.175 8.87891V10.1289H131.398V15.8809C132.286 15.8223 133.165 15.7344 133.995 15.6367L134.113 16.7891C130.587 17.3359 126.505 17.4238 123.488 17.4141L123.312 16.1445C124.015 16.1445 124.767 16.1348 125.558 16.1152V10.1289H123.8V8.87891H133.175ZM125.968 24.2109V18.8008H127.472V22.9219H137.628V24.2109H125.968ZM127.062 16.0859C127.99 16.0664 128.947 16.0273 129.894 15.9785V10.1289H127.062V16.0859ZM135.304 20.0117V7.23828H136.827V12.5117H139.445V13.8203H136.827V20.0117H135.304Z" fill="white"/>
<path d="M109.659 7.53125C113.516 7.53125 115.782 8.5957 115.791 10.5195C115.782 12.4922 113.516 13.5566 109.659 13.5664C105.782 13.5566 103.506 12.4922 103.506 10.5195C103.506 8.5957 105.782 7.53125 109.659 7.53125ZM101.748 15.9883V14.7383H117.569V15.9883H101.748ZM103.662 18.6641V17.4922H115.537V21.3789H105.225V23.1758H116.065V24.3867H103.702V20.2461H114.034V18.6641H103.662ZM105.108 10.5195C105.088 11.7305 106.778 12.3945 109.659 12.3945C112.539 12.3945 114.219 11.7305 114.229 10.5195C114.219 9.37695 112.539 8.69336 109.659 8.68359C106.778 8.69336 105.088 9.37695 105.108 10.5195Z" fill="white"/>
<path d="M100.684 15.6172V16.8867H93.5156V18.9375H98.75V24.3477H86.7969V18.9375H92.0117V16.8867H84.8633V15.6172H100.684ZM86.3477 9.05469V7.78516H99.1797V9.05469H96.5039V12.707H99.1211V13.9766H86.4062V12.707H89.0234V9.05469H86.3477ZM88.3203 23.0977H97.2461V20.1484H88.3203V23.0977ZM90.5469 12.707H94.9805V9.05469H90.5469V12.707Z" fill="white"/>
<path d="M73.7789 10.0312C73.7789 12.3945 75.5758 14.5625 78.0953 15.4219L77.2555 16.6328C75.3414 15.9297 73.8278 14.4941 73.066 12.6777C72.3239 14.7383 70.7711 16.3301 68.7399 17.1211L67.9196 15.8906C70.5172 14.9238 72.2653 12.5996 72.275 9.91406V8.11719H73.7789V10.0312ZM70.2242 21.3789C70.234 19.3965 72.4117 18.2344 75.986 18.2344C79.5504 18.2344 81.7086 19.3965 81.7086 21.3789C81.7086 23.4004 79.5504 24.543 75.986 24.543C72.4117 24.543 70.234 23.4004 70.2242 21.3789ZM71.7672 21.3789C71.7477 22.6094 73.3688 23.3223 75.986 23.332C78.6129 23.3223 80.2145 22.6094 80.2242 21.3789C80.2145 20.1973 78.6129 19.4648 75.986 19.4648C73.3688 19.4648 71.7477 20.1973 71.7672 21.3789ZM80.0289 17.7852V7.21875H81.5524V11.75H84.1696V13.0391H81.5524V17.7852H80.0289Z" fill="white"/>
<path d="M60.0476 7.23828V12.9609H62.6648V14.25H60.0476V20.2461H58.5242V7.23828H60.0476ZM46.5125 10.6172V9.36719H50.9265V7.23828H52.45V9.36719H56.864V10.6172H46.5125ZM47.5085 14.8164C47.4988 12.8438 49.1785 11.5742 51.6882 11.5742C54.1687 11.5742 55.8484 12.8438 55.8679 14.8164C55.8484 16.7695 54.1687 18.0293 51.6882 18.0195C49.1785 18.0293 47.4988 16.7695 47.5085 14.8164ZM48.9734 14.8164C48.9636 16.0371 50.0476 16.8281 51.6882 16.8086C53.3093 16.8281 54.4031 16.0371 54.4226 14.8164C54.4031 13.5762 53.3093 12.7754 51.6882 12.7852C50.0476 12.7754 48.9636 13.5762 48.9734 14.8164ZM49.1882 24.2109V19.2109H50.6921V22.9219H60.8484V24.2109H49.1882Z" fill="white"/>
<path d="M45.7406 9.85547V11.125H43.1625V13.5469H45.7406V14.8359H43.1625V17.5312H41.6391V7.21875H43.1625V9.85547H45.7406ZM29.9203 12.3555C29.9106 9.93359 31.8442 8.26367 34.4711 8.27344C37.1176 8.26367 39.0219 9.93359 39.0414 12.3555C39.0219 14.7676 37.1176 16.4277 34.4711 16.4375C31.8442 16.4277 29.9106 14.7676 29.9203 12.3555ZM31.4242 12.3555C31.4145 13.9961 32.7133 15.1289 34.4711 15.1484C36.2484 15.1289 37.5277 13.9961 37.5375 12.3555C37.5277 10.7246 36.2484 9.5625 34.4711 9.58203C32.7133 9.5625 31.4145 10.7246 31.4242 12.3555ZM31.8344 21.3203C31.8442 19.2598 34.0512 18.0684 37.5961 18.0586C41.141 18.0684 43.3188 19.2598 43.3188 21.3203C43.3188 23.3418 41.141 24.543 37.5961 24.543C34.0512 24.543 31.8442 23.3418 31.8344 21.3203ZM33.3774 21.3203C33.3578 22.5703 34.9789 23.3027 37.5961 23.3125C40.2231 23.3027 41.8246 22.5703 41.8344 21.3203C41.8246 20.0605 40.2231 19.3086 37.5961 19.3086C34.9789 19.3086 33.3578 20.0605 33.3774 21.3203Z" fill="white"/>
<path d="M26.1406 7.21875V14.0938H29.0508V15.3828H26.1406V24.6211H24.6172V7.21875H26.1406ZM13.4648 20.2656V8.91797H21.5703V10.1875H14.9883V18.9766C18.1328 18.9668 20.3496 18.8301 22.9375 18.3516L23.1328 19.6797C20.4082 20.168 18.1328 20.2656 14.832 20.2656H13.4648Z" fill="white"/>
</svg>
