<svg width="1920" height="98" viewBox="0 0 1920 98" fill="none" xmlns="http://www.w3.org/2000/svg">
<rect x="-27" y="0.527344" width="1973" height="97" fill="#28BBF4"/>
<path d="M936.983 23.7673V29.5673H940.103V31.1073H936.983V40.4273H935.263V23.7673H936.983ZM933.783 33.8473L933.963 35.3273C931.203 35.9673 926.683 36.1073 923.243 36.0073V29.4473H929.703V26.2473H923.223V24.7273H931.463V30.9473H924.963V34.4673C927.703 34.5473 931.183 34.3673 933.783 33.8473ZM941.082 29.9673C941.082 26.9873 943.222 24.9073 946.062 24.9073C948.902 24.9073 951.022 26.9873 951.022 29.9673C951.022 32.9073 948.902 35.0073 946.062 35.0073C943.222 35.0073 941.082 32.9073 941.082 29.9673ZM942.902 29.9473C942.902 32.0673 944.242 33.4273 946.062 33.4273C947.862 33.4273 949.222 32.0673 949.222 29.9473C949.222 27.8473 947.862 26.5273 946.062 26.5273C944.242 26.5273 942.902 27.8473 942.902 29.9473ZM954.322 40.4273V23.7873H956.062V40.4273H954.322ZM972.66 33.5273H961.3V24.4873H963.02V27.4673H970.94V24.4873H972.66V33.5273ZM970.94 31.9873V29.0073H963.02V31.9873H970.94ZM975.42 38.2673H958.58V36.7273H975.42V38.2673ZM992.278 40.4273H990.558V30.8473H986.838V29.3073H990.558V23.7673H992.278V40.4273ZM977.638 30.7273L977.338 29.1873L984.018 28.9073C984.278 28.1273 984.438 27.2673 984.538 26.3473H978.158V24.8273H986.318V24.8873C986.318 31.1873 983.118 34.6873 977.838 36.6873L976.898 35.2473C980.238 34.0673 982.238 32.4873 983.378 30.4073L977.638 30.7273ZM1010.3 40.4273H1008.54V30.6673H1003.88V35.2273H995.417V24.8473H1003.88V29.1473H1008.54V23.7673H1010.3V40.4273ZM1002.16 33.7073V26.3873H997.177V33.7073H1002.16ZM1020.06 24.6073H1021.92V25.5673C1021.92 28.7073 1024.68 31.1873 1028.12 32.1273L1027.28 33.6273C1024.16 32.7473 1021.88 30.8273 1021 28.7673C1020.12 30.8273 1017.82 32.8073 1014.74 33.6673L1013.88 32.1673C1017.32 31.2273 1020.06 28.7073 1020.06 25.5673V24.6073ZM1029.42 38.2673H1012.58V36.7273H1029.42V38.2673ZM1049.86 33.5273H1038.5V24.4873H1040.22V27.4673H1048.14V24.4873H1049.86V33.5273ZM1048.14 31.9873V29.0073H1040.22V31.9873H1048.14ZM1052.62 38.2673H1035.78V36.7273H1052.62V38.2673ZM1069.98 42.0673H1058.7V35.8873H1060.44V40.5073H1069.98V42.0673ZM1062.74 32.3073L1062.94 33.7473C1060.72 34.2673 1057.54 34.4473 1054.26 34.3273V28.7473H1059.6V26.3073H1054.26V24.7873H1061.32V30.2473H1055.98V32.8073C1058 32.9073 1060.84 32.7273 1062.74 32.3073ZM1069.64 37.1073H1067.96V30.2273H1065.5V36.7473H1063.82V23.9873H1065.5V28.7073H1067.96V23.7473H1069.64V37.1073ZM1085.3 38.5073C1085.3 36.9673 1084.02 35.8473 1082.2 35.8473C1080.36 35.8473 1079.12 36.9673 1079.12 38.5073C1079.12 40.0873 1080.36 41.1873 1082.2 41.1873C1084.02 41.1873 1085.3 40.0873 1085.3 38.5073ZM1087.08 38.5073C1087.08 40.9673 1085.02 42.6873 1082.2 42.6873C1079.36 42.6873 1077.3 40.9673 1077.3 38.5073C1077.3 36.1273 1079.36 34.3073 1082.2 34.3073C1085.02 34.3073 1087.08 36.1273 1087.08 38.5073ZM1083.28 30.8873L1083.48 32.3873C1080.8 32.9473 1076.96 33.2073 1072.84 33.1473V24.7273H1081.2V26.2473H1074.64V31.5673C1077.72 31.6273 1081.16 31.3273 1083.28 30.8873ZM1087.5 34.1273H1085.72V23.7273H1087.5V34.1273ZM1107.74 35.2673H1102.22V33.7473H1107.74V35.2673ZM1110.68 33.7273H1108.92V23.7273H1110.68V33.7273ZM1102.94 30.9673V26.1073H1097.56V30.9673H1102.94ZM1110.76 37.9673H1105.96C1106.14 39.9673 1108.86 41.0873 1111.28 41.3673L1110.64 42.7873C1108.28 42.4873 1105.98 41.4473 1105 39.8873C1104.04 41.4673 1101.76 42.5073 1099.28 42.7873L1098.66 41.3073C1101.3 41.0473 1103.86 39.9473 1104.02 37.9673H1099.18V36.4673H1110.76V37.9673ZM1104.66 32.5073H1095.84V24.5873H1104.66V32.5073ZM1129.52 25.2273H1123.68V23.7873H1129.52V25.2273ZM1129.28 30.1073C1129.28 29.1673 1128.28 28.2873 1126.58 28.2873C1124.88 28.2873 1123.82 29.1673 1123.82 30.1073C1123.82 31.1473 1124.88 31.9673 1126.58 31.9673C1128.28 31.9673 1129.28 31.1473 1129.28 30.1073ZM1130.34 41.2073V38.7073H1122.84V41.2073H1130.34ZM1132.06 42.7073H1121.14V37.2273H1132.06V42.7073ZM1135.02 35.9873H1118.18V34.4873H1125.76V33.3673C1123.6 33.1073 1122.1 31.8273 1122.1 30.1473C1122.1 29.3273 1122.5 28.6073 1123.2 28.0473H1120.18V26.6073H1133.04V28.0473H1129.96C1130.62 28.5873 1131.02 29.3273 1131.02 30.1473C1131.02 31.8073 1129.56 33.0673 1127.48 33.3473V34.4873H1135.02V35.9873ZM1144.68 26.6873H1136.12V25.1473H1144.68V26.6873ZM1150.38 40.4273V23.7673H1152.12V40.4273H1150.38ZM1148.6 39.9073H1146.9V30.8473H1144.42V29.3073H1146.9V24.0073H1148.6V39.9073ZM1143.32 27.6873L1142.76 33.8873C1143.82 33.8073 1144.78 33.7273 1145.54 33.6273L1145.62 35.1073C1143.04 35.4273 1139.16 35.6473 1136.06 35.6673L1135.88 34.0873H1137.8L1137.34 27.7273L1139.08 27.5673L1139.44 34.0473C1140.02 34.0273 1140.6 34.0073 1141.16 33.9673L1141.6 27.5473L1143.32 27.6873ZM1154.68 29.9673C1154.68 26.9873 1156.82 24.9073 1159.66 24.9073C1162.5 24.9073 1164.62 26.9873 1164.62 29.9673C1164.62 32.9073 1162.5 35.0073 1159.66 35.0073C1156.82 35.0073 1154.68 32.9073 1154.68 29.9673ZM1156.5 29.9473C1156.5 32.0673 1157.84 33.4273 1159.66 33.4273C1161.46 33.4273 1162.82 32.0673 1162.82 29.9473C1162.82 27.8473 1161.46 26.5273 1159.66 26.5273C1157.84 26.5273 1156.5 27.8473 1156.5 29.9473ZM1167.92 40.4273V23.7873H1169.66V40.4273H1167.92ZM1185.94 40.4273V23.7673H1187.7V40.4273H1185.94ZM1183.48 34.7473L1182.5 36.0873C1180.64 35.1873 1178.66 33.2473 1178.1 31.4473C1177.64 33.3073 1175.84 35.4073 1173.8 36.4273L1172.72 35.1273C1175.42 33.7873 1177.16 31.3873 1177.16 27.8873V26.6473H1173.22V25.1073H1182.96V26.6473H1178.96V27.7673C1178.96 31.3273 1180.88 33.4673 1183.48 34.7473ZM1204.66 41.6873H1202.94V34.3473H1195.38V32.8073H1206.9C1207.42 30.7873 1207.72 28.0273 1207.66 26.0873H1197.92V24.5473H1209.44C1209.52 27.7073 1209.22 30.6873 1208.7 32.8073H1212.22V34.3473H1204.66V41.6873ZM1224.62 25.3073H1218.94V23.7873H1224.62V25.3073ZM1227.72 28.0873H1222.82C1223.04 29.7273 1225.52 30.9073 1228.54 31.1673L1227.84 32.6073C1225.04 32.3073 1222.86 31.2873 1221.82 29.8073C1220.76 31.2873 1218.56 32.3073 1215.78 32.6073L1215.08 31.1673C1218.1 30.8873 1220.58 29.7273 1220.8 28.0873H1215.86V26.6073H1227.72V28.0873ZM1230.22 35.2273H1222.68V37.0673H1227.34V42.7073H1225.62V38.5673H1215.98V37.0673H1220.96V35.2273H1213.38V33.7273H1230.22V35.2273ZM986.969 71.3873C983.749 71.3873 981.629 69.3473 981.629 65.4073V56.7673H983.409V65.1873C983.409 68.3673 984.789 69.7673 987.009 69.7673C989.249 69.7673 990.429 68.4073 990.429 65.1873V56.7673H992.229V65.3673C992.229 69.4073 990.249 71.3873 986.969 71.3873ZM993.572 71.2073L998.592 63.6073L994.012 56.7673H996.212L999.712 62.1673L1003.13 56.7673H1005.37L1000.77 63.6673L1005.79 71.2073H1003.61L999.652 65.1073L995.772 71.2073H993.572ZM1006.08 74.9073L1011.14 55.8073H1012.68L1007.6 74.9073H1006.08ZM1019.15 71.3873C1015.93 71.3873 1013.81 69.3473 1013.81 65.4073V56.7673H1015.59V65.1873C1015.59 68.3673 1016.97 69.7673 1019.19 69.7673C1021.43 69.7673 1022.61 68.4073 1022.61 65.1873V56.7673H1024.41V65.3673C1024.41 69.4073 1022.43 71.3873 1019.15 71.3873ZM1026.81 71.2273V56.7673H1028.61V71.2273H1026.81ZM1037.12 67.3073V56.9273H1045.56V58.4473H1038.88V65.7473C1042.1 65.8273 1045.2 65.5873 1047.32 65.1073L1047.56 66.6073C1044.84 67.1873 1041.08 67.3873 1037.12 67.3073ZM1049.5 72.4273V55.7873H1051.22V72.4273H1049.5ZM1071.32 63.0073H1068.2V72.4273H1066.46V55.7673H1068.2V61.4873H1071.32V63.0073ZM1064.28 66.8273L1063.3 68.1473C1061.44 67.2473 1059.5 65.3273 1058.92 63.5073C1058.46 65.3673 1056.7 67.4873 1054.68 68.4873L1053.58 67.1873C1056.26 65.8273 1058 63.4473 1058 59.9473V58.6473H1054.08V57.1073H1063.7V58.6473H1059.8V59.8273C1059.8 63.3873 1061.7 65.5273 1064.28 66.8273ZM1072.46 61.2073C1072.46 58.7273 1074.52 56.8273 1077.24 56.8273C1080.02 56.8273 1082.08 58.7073 1082.08 61.2073C1082.08 63.6873 1080.02 65.6273 1077.24 65.6273C1074.52 65.6273 1072.46 63.6873 1072.46 61.2073ZM1074.18 61.2073C1074.18 62.7873 1075.48 64.1273 1077.24 64.1273C1079.08 64.1273 1080.32 62.7873 1080.32 61.2073C1080.32 59.6273 1079.08 58.3273 1077.24 58.3273C1075.48 58.3273 1074.18 59.6273 1074.18 61.2073ZM1087.76 73.9873H1076.6V67.6273H1078.38V72.4273H1087.76V73.9873ZM1087.38 68.8073H1085.62V55.7473H1087.38V68.8073ZM1115.17 74.0673H1104.19V67.6273H1105.95V72.5073H1115.17V74.0673ZM1109.11 65.6673H1100.63V56.6273H1102.35V59.6273H1107.39V56.6273H1109.11V65.6673ZM1107.39 64.1673V61.1473H1102.35V64.1673H1107.39ZM1117.71 62.1073H1114.59V68.7673H1112.87V55.7473H1114.59V60.5873H1117.71V62.1073ZM1129.9 59.7473C1129.9 58.3273 1128.58 57.2673 1126.6 57.2673C1124.62 57.2673 1123.3 58.3273 1123.3 59.7473C1123.3 61.1873 1124.6 62.2673 1126.6 62.2673C1128.58 62.2673 1129.9 61.1873 1129.9 59.7473ZM1131.7 59.7473C1131.7 62.1473 1129.56 63.6673 1126.6 63.6673C1123.62 63.6673 1121.48 62.1473 1121.48 59.7473C1121.48 57.4073 1123.58 55.8073 1126.6 55.8073C1129.64 55.8073 1131.7 57.4073 1131.7 59.7473ZM1130.04 71.4273C1130.04 70.0273 1128.64 68.9273 1126.6 68.9273C1124.54 68.9273 1123.16 70.0273 1123.16 71.4273C1123.16 72.8273 1124.54 73.8673 1126.6 73.8673C1128.64 73.8673 1130.04 72.8273 1130.04 71.4273ZM1131.78 71.4273C1131.78 73.7473 1129.66 75.3473 1126.6 75.3473C1123.54 75.3473 1121.42 73.7473 1121.42 71.4273C1121.42 69.1673 1123.5 67.4873 1126.6 67.4873C1129.74 67.4873 1131.78 69.1673 1131.78 71.4273ZM1135.02 66.3073H1118.18V64.8073H1135.02V66.3073ZM1144.16 57.1873H1139.14V55.6473H1144.16V57.1873ZM1146.66 60.0073H1136.34V58.5073H1146.66V60.0073ZM1144.14 64.3273C1144.14 63.2273 1143.12 62.4073 1141.76 62.4073C1140.42 62.4073 1139.42 63.2273 1139.42 64.3273C1139.42 65.3673 1140.42 66.2073 1141.76 66.2073C1143.12 66.2073 1144.14 65.3673 1144.14 64.3273ZM1149.76 71.2873C1149.76 70.0073 1148.44 69.0873 1146.62 69.0873C1144.8 69.0873 1143.5 70.0073 1143.5 71.2873C1143.5 72.5673 1144.8 73.4673 1146.62 73.4673C1148.44 73.4673 1149.76 72.5673 1149.76 71.2873ZM1150.16 67.6073V65.4073H1146.98V63.8873H1150.16V62.0873H1147V60.5673H1150.16V55.7273H1151.88V67.6073H1150.16ZM1145.86 64.3073C1145.86 66.3273 1143.98 67.6273 1141.76 67.6273C1139.52 67.6273 1137.66 66.3273 1137.66 64.3073C1137.66 62.2873 1139.52 61.0073 1141.76 61.0073C1143.98 61.0073 1145.86 62.2873 1145.86 64.3073ZM1151.5 71.2873C1151.5 73.4673 1149.42 74.9673 1146.62 74.9673C1143.84 74.9673 1141.78 73.4673 1141.78 71.2873C1141.78 69.1673 1143.84 67.6073 1146.62 67.6073C1149.42 67.6073 1151.5 69.1673 1151.5 71.2873ZM1169.83 58.7073H1160.07V57.1873H1169.83V58.7073ZM1175.09 72.4273H1173.37V63.0073H1169.77V61.4473H1173.37V55.7673H1175.09V72.4273ZM1170.95 65.6673L1171.09 67.1273C1168.13 67.5873 1164.21 67.7873 1159.75 67.8273L1159.61 66.2273C1160.33 66.2473 1161.19 66.2473 1162.13 66.2273L1161.57 59.8273L1163.33 59.6473L1163.75 66.1873C1164.51 66.1673 1165.29 66.1473 1166.07 66.1073L1166.59 59.6473L1168.29 59.7673L1167.69 66.0073C1168.91 65.9273 1170.05 65.8073 1170.95 65.6673ZM1191.92 74.7073H1180.14V70.0673H1189.72V68.5473H1180.14V67.0673H1191.38V71.5873H1181.84V73.2073H1191.92V74.7073ZM1191.36 62.4873H1180.24V55.9473H1181.96V57.7873H1189.64V55.9473H1191.36V62.4873ZM1189.64 61.0073V59.2673H1181.96V61.0073H1189.64ZM1194.22 65.5473H1177.38V64.0273H1194.22V65.5473ZM1207.28 65.8073L1207.46 67.2873C1204.64 67.9273 1200.06 68.0873 1196.58 67.9473V61.4273H1203.12V58.2673H1196.56V56.7473H1204.88V62.9073H1198.34V66.4273C1200.62 66.5273 1204.76 66.3473 1207.28 65.8073ZM1209.1 72.4273V55.7873H1210.84V72.4273H1209.1ZM1224.56 64.2673L1223.6 65.6473C1221.66 64.7873 1219.84 63.1673 1219.12 61.3873C1218.48 63.2873 1216.72 65.1073 1214.58 66.1073L1213.56 64.7873C1216.12 63.6073 1218.2 61.2673 1218.2 58.2073V56.3873H1220V58.1673C1220 61.1873 1222.24 63.3273 1224.56 64.2673ZM1226.94 70.5273C1226.94 68.9873 1225.66 67.8673 1223.84 67.8673C1222.02 67.8673 1220.74 68.9873 1220.74 70.5273C1220.74 72.1073 1222.02 73.2273 1223.84 73.2273C1225.66 73.2273 1226.94 72.1073 1226.94 70.5273ZM1228.76 70.5273C1228.76 72.9873 1226.68 74.7273 1223.84 74.7273C1221 74.7273 1218.94 72.9873 1218.94 70.5273C1218.94 68.1673 1221 66.3673 1223.84 66.3673C1226.68 66.3673 1228.76 68.1673 1228.76 70.5273ZM1229.08 66.1273H1227.36V55.7273H1229.08V66.1273Z" fill="white"/>
</svg>
