<svg width="308" height="53" viewBox="0 0 308 53" fill="none" xmlns="http://www.w3.org/2000/svg">
<path d="M301.562 41.2666L300.602 42.6466C298.662 41.7866 296.842 40.1666 296.122 38.3866C295.482 40.2866 293.722 42.1066 291.582 43.1066L290.562 41.7866C293.122 40.6066 295.202 38.2666 295.202 35.2066V33.3866H297.002V35.1666C297.002 38.1866 299.242 40.3266 301.562 41.2666ZM303.942 47.5266C303.942 45.9866 302.662 44.8666 300.842 44.8666C299.022 44.8666 297.742 45.9866 297.742 47.5266C297.742 49.1066 299.022 50.2266 300.842 50.2266C302.662 50.2266 303.942 49.1066 303.942 47.5266ZM305.762 47.5266C305.762 49.9866 303.682 51.7266 300.842 51.7266C298.002 51.7266 295.942 49.9866 295.942 47.5266C295.942 45.1666 298.002 43.3666 300.842 43.3666C303.682 43.3666 305.762 45.1666 305.762 47.5266ZM306.082 43.1266H304.362V32.7266H306.082V43.1266Z" fill="white"/>
<path d="M284.283 42.8071L284.463 44.2871C281.643 44.9271 277.063 45.0871 273.583 44.9471V38.4271H280.123V35.2671H273.563V33.7471H281.883V39.9071H275.343V43.4271C277.623 43.5271 281.763 43.3471 284.283 42.8071ZM286.103 49.4271V32.7871H287.843V49.4271H286.103Z" fill="white"/>
<path d="M268.925 51.7073H257.145V47.0673H266.725V45.5473H257.145V44.0673H268.385V48.5873H258.845V50.2073H268.925V51.7073ZM268.365 39.4873H257.245V32.9473H258.965V34.7873H266.645V32.9473H268.365V39.4873ZM266.645 38.0073V36.2673H258.965V38.0073H266.645ZM271.225 42.5473H254.385V41.0273H271.225V42.5473Z" fill="white"/>
<path d="M246.826 35.7076H237.066V34.1876H246.826V35.7076ZM252.086 49.4276H250.366V40.0076H246.766V38.4476H250.366V32.7676H252.086V49.4276ZM247.946 42.6676L248.086 44.1276C245.126 44.5876 241.206 44.7876 236.746 44.8276L236.606 43.2276C237.326 43.2476 238.186 43.2476 239.126 43.2276L238.566 36.8276L240.326 36.6476L240.746 43.1876C241.506 43.1676 242.286 43.1476 243.066 43.1076L243.586 36.6476L245.286 36.7676L244.686 43.0076C245.906 42.9276 247.046 42.8076 247.946 42.6676Z" fill="white"/>
<path d="M221.162 34.1865H216.142V32.6465H221.162V34.1865ZM223.662 37.0065H213.342V35.5065H223.662V37.0065ZM221.142 41.3265C221.142 40.2265 220.122 39.4065 218.762 39.4065C217.422 39.4065 216.422 40.2265 216.422 41.3265C216.422 42.3665 217.422 43.2065 218.762 43.2065C220.122 43.2065 221.142 42.3665 221.142 41.3265ZM226.762 48.2865C226.762 47.0065 225.442 46.0865 223.622 46.0865C221.802 46.0865 220.502 47.0065 220.502 48.2865C220.502 49.5665 221.802 50.4665 223.622 50.4665C225.442 50.4665 226.762 49.5665 226.762 48.2865ZM227.162 44.6065V42.4065H223.982V40.8865H227.162V39.0865H224.002V37.5665H227.162V32.7265H228.882V44.6065H227.162ZM222.862 41.3065C222.862 43.3265 220.982 44.6265 218.762 44.6265C216.522 44.6265 214.662 43.3265 214.662 41.3065C214.662 39.2865 216.522 38.0065 218.762 38.0065C220.982 38.0065 222.862 39.2865 222.862 41.3065ZM228.502 48.2865C228.502 50.4665 226.422 51.9665 223.622 51.9665C220.842 51.9665 218.782 50.4665 218.782 48.2865C218.782 46.1665 220.842 44.6065 223.622 44.6065C226.422 44.6065 228.502 46.1665 228.502 48.2865Z" fill="white"/>
<path d="M206.904 36.7466C206.904 35.3266 205.584 34.2666 203.604 34.2666C201.624 34.2666 200.304 35.3266 200.304 36.7466C200.304 38.1866 201.604 39.2666 203.604 39.2666C205.584 39.2666 206.904 38.1866 206.904 36.7466ZM208.704 36.7466C208.704 39.1466 206.564 40.6666 203.604 40.6666C200.624 40.6666 198.484 39.1466 198.484 36.7466C198.484 34.4066 200.584 32.8066 203.604 32.8066C206.644 32.8066 208.704 34.4066 208.704 36.7466ZM207.044 48.4266C207.044 47.0266 205.644 45.9266 203.604 45.9266C201.544 45.9266 200.164 47.0266 200.164 48.4266C200.164 49.8266 201.544 50.8666 203.604 50.8666C205.644 50.8666 207.044 49.8266 207.044 48.4266ZM208.784 48.4266C208.784 50.7466 206.664 52.3466 203.604 52.3466C200.544 52.3466 198.424 50.7466 198.424 48.4266C198.424 46.1666 200.504 44.4866 203.604 44.4866C206.744 44.4866 208.784 46.1666 208.784 48.4266ZM212.024 43.3066H195.184V41.8066H212.024V43.3066Z" fill="white"/>
<path d="M192.165 51.068H181.185V44.628H182.945V49.508H192.165V51.068ZM186.105 42.668H177.625V33.628H179.345V36.628H184.385V33.628H186.105V42.668ZM184.385 41.168V38.148H179.345V41.168H184.385ZM194.705 39.108H191.585V45.768H189.865V32.748H191.585V37.588H194.705V39.108Z" fill="white"/>
<path d="M149.456 38.208C149.456 35.728 151.516 33.828 154.236 33.828C157.016 33.828 159.076 35.708 159.076 38.208C159.076 40.688 157.016 42.628 154.236 42.628C151.516 42.628 149.456 40.688 149.456 38.208ZM151.176 38.208C151.176 39.788 152.476 41.128 154.236 41.128C156.076 41.128 157.316 39.788 157.316 38.208C157.316 36.628 156.076 35.328 154.236 35.328C152.476 35.328 151.176 36.628 151.176 38.208ZM164.756 50.988H153.596V44.628H155.376V49.428H164.756V50.988ZM164.376 45.808H162.616V32.748H164.376V45.808Z" fill="white"/>
<path d="M148.318 40.0076H145.198V49.4276H143.458V32.7676H145.198V38.4876H148.318V40.0076ZM141.278 43.8276L140.298 45.1476C138.438 44.2476 136.498 42.3276 135.918 40.5076C135.458 42.3676 133.698 44.4876 131.678 45.4876L130.578 44.1876C133.258 42.8276 134.998 40.4476 134.998 36.9476V35.6476H131.078V34.1076H140.698V35.6476H136.798V36.8276C136.798 40.3876 138.698 42.5276 141.278 43.8276Z" fill="white"/>
<path d="M114.119 44.3071V33.9271H122.559V35.4471H115.879V42.7471C119.099 42.8271 122.199 42.5871 124.319 42.1071L124.559 43.6071C121.839 44.1871 118.079 44.3871 114.119 44.3071ZM126.499 49.4271V32.7871H128.219V49.4271H126.499Z" fill="white"/>
<path d="M103.81 48.2276V33.7676H105.61V48.2276H103.81Z" fill="white"/>
<path d="M96.1478 48.3876C92.9278 48.3876 90.8078 46.3476 90.8078 42.4076V33.7676H92.5878V42.1876C92.5878 45.3676 93.9678 46.7676 96.1878 46.7676C98.4278 46.7676 99.6078 45.4076 99.6078 42.1876V33.7676H101.408V42.3676C101.408 46.4076 99.4278 48.3876 96.1478 48.3876Z" fill="white"/>
<path d="M83.077 51.9066L88.137 32.8066H89.677L84.597 51.9066H83.077Z" fill="white"/>
<path d="M70.5715 48.2076L75.5915 40.6076L71.0115 33.7676H73.2115L76.7115 39.1676L80.1315 33.7676H82.3715L77.7715 40.6676L82.7915 48.2076H80.6115L76.6515 42.1076L72.7715 48.2076H70.5715Z" fill="white"/>
<path d="M63.9689 48.3876C60.7489 48.3876 58.6289 46.3476 58.6289 42.4076V33.7676H60.4089V42.1876C60.4089 45.3676 61.7889 46.7676 64.0089 46.7676C66.2489 46.7676 67.4289 45.4076 67.4289 42.1876V33.7676H69.2289V42.3676C69.2289 46.4076 67.2489 48.3876 63.9689 48.3876Z" fill="white"/>
<path d="M301.622 2.30711H295.942V0.787109H301.622V2.30711ZM304.722 5.08711H299.822C300.042 6.72711 302.522 7.90711 305.542 8.16711L304.842 9.60711C302.042 9.30711 299.862 8.28711 298.822 6.80711C297.762 8.28711 295.562 9.30711 292.782 9.60711L292.082 8.16711C295.102 7.88711 297.582 6.72711 297.802 5.08711H292.862V3.60711H304.722V5.08711ZM307.222 12.2271H299.682V14.0671H304.342V19.7071H302.622V15.5671H292.982V14.0671H297.962V12.2271H290.382V10.7271H307.222V12.2271Z" fill="white"/>
<path d="M281.663 18.6869H279.943V11.3469H272.383V9.80688H283.903C284.423 7.78688 284.723 5.02688 284.663 3.08687H274.923V1.54688H286.443C286.523 4.70687 286.223 7.68688 285.703 9.80688H289.223V11.3469H281.663V18.6869Z" fill="white"/>
<path d="M262.939 17.4276V0.767578H264.699V17.4276H262.939ZM260.479 11.7476L259.499 13.0876C257.639 12.1876 255.659 10.2476 255.099 8.44758C254.639 10.3076 252.839 12.4076 250.799 13.4276L249.719 12.1276C252.419 10.7876 254.159 8.38758 254.159 4.88758V3.64758H250.219V2.10758H259.959V3.64758H255.959V4.76758C255.959 8.32758 257.879 10.4676 260.479 11.7476Z" fill="white"/>
<path d="M231.681 6.96711C231.681 3.98711 233.821 1.90711 236.661 1.90711C239.501 1.90711 241.621 3.98711 241.621 6.96711C241.621 9.90711 239.501 12.0071 236.661 12.0071C233.821 12.0071 231.681 9.90711 231.681 6.96711ZM233.501 6.94711C233.501 9.06711 234.841 10.4271 236.661 10.4271C238.461 10.4271 239.821 9.06711 239.821 6.94711C239.821 4.84711 238.461 3.52711 236.661 3.52711C234.841 3.52711 233.501 4.84711 233.501 6.94711ZM244.921 17.4271V0.787109H246.661V17.4271H244.921Z" fill="white"/>
<path d="M221.682 3.68758H213.122V2.14758H221.682V3.68758ZM227.382 17.4276V0.767578H229.122V17.4276H227.382ZM225.602 16.9076H223.902V7.84758H221.422V6.30758H223.902V1.00758H225.602V16.9076ZM220.322 4.68758L219.762 10.8876C220.822 10.8076 221.782 10.7276 222.542 10.6276L222.622 12.1076C220.042 12.4276 216.162 12.6476 213.062 12.6676L212.882 11.0876H214.802L214.342 4.72758L216.082 4.56758L216.442 11.0476C217.022 11.0276 217.602 11.0076 218.162 10.9676L218.602 4.54758L220.322 4.68758Z" fill="white"/>
<path d="M206.524 2.22711H200.684V0.787109H206.524V2.22711ZM206.284 7.10711C206.284 6.16711 205.284 5.28711 203.584 5.28711C201.884 5.28711 200.824 6.16711 200.824 7.10711C200.824 8.14711 201.884 8.96711 203.584 8.96711C205.284 8.96711 206.284 8.14711 206.284 7.10711ZM207.344 18.2071V15.7071H199.844V18.2071H207.344ZM209.064 19.7071H198.144V14.2271H209.064V19.7071ZM212.024 12.9871H195.184V11.4871H202.764V10.3671C200.604 10.1071 199.104 8.82711 199.104 7.14711C199.104 6.32711 199.504 5.60711 200.204 5.04711H197.184V3.60711H210.044V5.04711H206.964C207.624 5.58711 208.024 6.32711 208.024 7.14711C208.024 8.80711 206.564 10.0671 204.484 10.3471V11.4871H212.024V12.9871Z" fill="white"/>
<path d="M184.74 12.2666H179.22V10.7466H184.74V12.2666ZM187.68 10.7266H185.92V0.726562H187.68V10.7266ZM179.94 7.96656V3.10656H174.56V7.96656H179.94ZM187.76 14.9666H182.96C183.14 16.9666 185.86 18.0866 188.28 18.3666L187.64 19.7866C185.28 19.4866 182.98 18.4466 182 16.8866C181.04 18.4666 178.76 19.5066 176.28 19.7866L175.66 18.3066C178.3 18.0466 180.86 16.9466 181.02 14.9666H176.18V13.4666H187.76V14.9666ZM181.66 9.50656H172.84V1.58656H181.66V9.50656Z" fill="white"/>
<path d="M162.296 15.5066C162.296 13.9666 161.016 12.8466 159.196 12.8466C157.356 12.8466 156.116 13.9666 156.116 15.5066C156.116 17.0866 157.356 18.1866 159.196 18.1866C161.016 18.1866 162.296 17.0866 162.296 15.5066ZM164.076 15.5066C164.076 17.9666 162.016 19.6866 159.196 19.6866C156.356 19.6866 154.296 17.9666 154.296 15.5066C154.296 13.1266 156.356 11.3066 159.196 11.3066C162.016 11.3066 164.076 13.1266 164.076 15.5066ZM160.276 7.88656L160.476 9.38656C157.796 9.94656 153.956 10.2066 149.836 10.1466V1.72656H158.196V3.24656H151.636V8.56656C154.716 8.62656 158.156 8.32656 160.276 7.88656ZM164.496 11.1266H162.716V0.726562H164.496V11.1266Z" fill="white"/>
<path d="M146.978 19.068H135.698V12.888H137.438V17.508H146.978V19.068ZM139.738 9.30805L139.938 10.748C137.718 11.268 134.538 11.448 131.258 11.328V5.74805H136.598V3.30805H131.258V1.78805H138.318V7.24805H132.978V9.80805C134.998 9.90805 137.838 9.72805 139.738 9.30805ZM146.638 14.108H144.958V7.22805H142.498V13.748H140.818V0.988048H142.498V5.70805H144.958V0.748047H146.638V14.108Z" fill="white"/>
<path d="M126.859 10.5283H115.499V1.48828H117.219V4.46828H125.139V1.48828H126.859V10.5283ZM125.139 8.98828V6.00828H117.219V8.98828H125.139ZM129.619 15.2683H112.779V13.7283H129.619V15.2683Z" fill="white"/>
<path d="M97.0553 1.60742H98.9153V2.56742C98.9153 5.70742 101.675 8.18742 105.115 9.12742L104.275 10.6274C101.155 9.74742 98.8753 7.82742 97.9953 5.76742C97.1153 7.82742 94.8153 9.80742 91.7353 10.6674L90.8753 9.16742C94.3153 8.22742 97.0553 5.70742 97.0553 2.56742V1.60742ZM106.415 15.2674H89.5753V13.7274H106.415V15.2674Z" fill="white"/>
<path d="M87.2969 17.4276H85.5369V7.66758H80.8769V12.2276H72.4169V1.84758H80.8769V6.14758H85.5369V0.767578H87.2969V17.4276ZM79.1569 10.7076V3.38758H74.1769V10.7076H79.1569Z" fill="white"/>
<path d="M69.2784 17.4276H67.5584V7.84758H63.8384V6.30758H67.5584V0.767578H69.2784V17.4276ZM54.6384 7.72758L54.3384 6.18758L61.0184 5.90758C61.2784 5.12758 61.4384 4.26758 61.5384 3.34758H55.1584V1.82758H63.3184V1.88758C63.3184 8.18758 60.1184 11.6876 54.8384 13.6876L53.8984 12.2476C57.2384 11.0676 59.2384 9.48758 60.3784 7.40758L54.6384 7.72758Z" fill="white"/>
<path d="M49.66 10.5283H38.3V1.48828H40.02V4.46828H47.94V1.48828H49.66V10.5283ZM47.94 8.98828V6.00828H40.02V8.98828H47.94ZM52.42 15.2683H35.58V13.7283H52.42V15.2683Z" fill="white"/>
<path d="M18.0815 6.96711C18.0815 3.98711 20.2215 1.90711 23.0615 1.90711C25.9015 1.90711 28.0215 3.98711 28.0215 6.96711C28.0215 9.90711 25.9015 12.0071 23.0615 12.0071C20.2215 12.0071 18.0815 9.90711 18.0815 6.96711ZM19.9015 6.94711C19.9015 9.06711 21.2415 10.4271 23.0615 10.4271C24.8615 10.4271 26.2215 9.06711 26.2215 6.94711C26.2215 4.84711 24.8615 3.52711 23.0615 3.52711C21.2415 3.52711 19.9015 4.84711 19.9015 6.94711ZM31.3215 17.4271V0.787109H33.0615V17.4271H31.3215Z" fill="white"/>
<path d="M13.9831 0.767578V6.56758H17.1031V8.10758H13.9831V17.4276H12.2631V0.767578H13.9831ZM10.7831 10.8476L10.9631 12.3276C8.20315 12.9676 3.68314 13.1076 0.243145 13.0076V6.44758H6.70315V3.24758H0.223145V1.72758H8.46314V7.94758H1.96314V11.4676C4.70314 11.5476 8.18314 11.3676 10.7831 10.8476Z" fill="white"/>
</svg>
