<svg width="1184" height="284" viewBox="0 0 1184 284" fill="none" xmlns="http://www.w3.org/2000/svg">
<path d="M972.433 142.952L971.587 144.194C969.823 143.456 968.041 141.782 967.429 140.18C966.871 141.854 965.269 143.708 963.343 144.59L962.389 143.474C964.801 142.394 966.601 139.964 966.601 137.228V135.518H968.221V137.192C968.221 139.874 970.327 142.124 972.433 142.952ZM976.591 151.232H966.529V145.436H968.077V149.828H976.591V151.232ZM976.231 146.552H974.683V134.798H976.231V146.552ZM983.754 150.764H982.206V144.122H978.3V142.736H988.722C989.172 140.936 989.424 138.578 989.37 136.904H980.568V135.518H990.972C991.062 138.236 990.792 140.846 990.324 142.736H993.456V144.122H989.532V150.764H987.984V144.122H983.754V150.764ZM1009.03 144.59L1008.02 145.76C1006.44 144.824 1004.8 143.06 1004.26 141.278C1003.68 143.186 1002.3 144.932 1000.34 146.102L999.345 144.968C1001.72 143.564 1003.41 141.17 1003.41 137.642V135.5H1005.05V137.588C1005.05 141.062 1006.89 143.348 1009.03 144.59ZM1013.31 149.81H1011.77V140.666H1008.09V139.244H1011.77V134.816H1013.31V149.81ZM1024.27 145.274H1016.39V135.644H1017.97V139.19H1022.71V135.644H1024.27V145.274ZM1022.71 143.942V140.504H1017.97V143.942H1022.71ZM1027.75 149.81V134.834H1029.33V149.81H1027.75ZM1038.31 135.572H1039.99V136.436C1039.99 139.262 1042.47 141.494 1045.57 142.34L1044.81 143.69C1042 142.898 1039.95 141.17 1039.16 139.316C1038.37 141.17 1036.3 142.952 1033.52 143.726L1032.75 142.376C1035.85 141.53 1038.31 139.262 1038.31 136.436V135.572ZM1046.74 147.866H1031.58V146.48H1046.74V147.866ZM1052.91 140.396C1052.91 137.714 1054.84 135.842 1057.4 135.842C1059.95 135.842 1061.86 137.714 1061.86 140.396C1061.86 143.042 1059.95 144.932 1057.4 144.932C1054.84 144.932 1052.91 143.042 1052.91 140.396ZM1054.55 140.378C1054.55 142.286 1055.76 143.51 1057.4 143.51C1059.02 143.51 1060.24 142.286 1060.24 140.378C1060.24 138.488 1059.02 137.3 1057.4 137.3C1055.76 137.3 1054.55 138.488 1054.55 140.378ZM1064.83 149.81V134.834H1066.4V149.81H1064.83ZM1074.76 136.652H1070.62V135.284H1074.76V136.652ZM1076.67 139.37H1068.54V138.002H1076.67V139.37ZM1074.8 143.636C1074.8 142.52 1073.95 141.782 1072.87 141.782C1071.76 141.782 1070.97 142.52 1070.97 143.636C1070.97 144.734 1071.74 145.544 1072.87 145.544C1073.95 145.544 1074.8 144.734 1074.8 143.636ZM1076.29 143.636C1076.29 145.58 1074.69 146.876 1072.87 146.876C1071.02 146.876 1069.45 145.58 1069.45 143.636C1069.45 141.692 1071.02 140.45 1072.87 140.45C1074.67 140.45 1076.29 141.692 1076.29 143.636ZM1082.99 149.81H1081.44V141.674H1079.48V149.324H1077.93V135.032H1079.48V140.288H1081.44V134.816H1082.99V149.81ZM1096.84 136.346H1092.35V134.96H1096.84V136.346ZM1094.62 139.064C1093.29 139.064 1092.53 139.802 1092.53 140.63C1092.53 141.44 1093.29 142.106 1094.62 142.106C1095.95 142.106 1096.71 141.44 1096.71 140.63C1096.71 139.802 1095.95 139.064 1094.62 139.064ZM1102.61 151.898H1101.03V148.406H1092.7V147.02H1102.61V151.898ZM1105.24 141.242H1102.61V146.12H1101.03V134.78H1102.61V139.874H1105.24V141.242ZM1098.26 140.648C1098.26 141.962 1097.34 143.078 1095.43 143.33V144.392C1097.14 144.284 1098.76 144.194 1100.04 144.032L1100.15 145.31C1098.67 145.49 1096.67 145.634 1094.78 145.742C1093.07 145.85 1091.11 145.886 1089.47 145.886L1089.31 144.518C1090.64 144.536 1092.28 144.536 1093.88 144.482V143.33C1092.05 143.096 1091 141.962 1091 140.63C1091 139.91 1091.36 139.244 1091.98 138.74H1089.47V137.444H1099.54V138.74H1097.3C1097.92 139.244 1098.26 139.91 1098.26 140.648ZM1116.33 141.764L1116.53 143.06C1114.02 143.636 1110.01 143.798 1106.75 143.726V138.974H1112.31V136.904H1106.75V135.536H1113.86V140.324H1108.34V142.322C1110.57 142.412 1113.93 142.25 1116.33 141.764ZM1118.29 144.104V134.78H1119.87V144.104H1118.29ZM1118.29 150.278V148.262H1111.81V150.278H1118.29ZM1119.87 151.682H1110.24V145.13H1111.81V146.894H1118.29V145.13H1119.87V151.682Z" fill="#28BBF4"/>
<path d="M735.348 135.968H730.092V134.672H735.348V135.968ZM735.114 140.234C735.114 139.478 734.196 138.794 732.702 138.794C731.226 138.794 730.218 139.514 730.218 140.234C730.218 141.08 731.226 141.764 732.702 141.764C734.196 141.764 735.114 141.08 735.114 140.234ZM735.636 149.036C735.636 148.01 734.484 147.2 732.72 147.2C730.938 147.2 729.804 148.01 729.804 149.036C729.804 150.116 730.938 150.89 732.72 150.89C734.484 150.89 735.636 150.116 735.636 149.036ZM737.256 149.036C737.256 150.872 735.402 152.186 732.72 152.186C730.038 152.186 728.166 150.89 728.166 149.036C728.166 147.254 730.002 145.922 732.72 145.922C735.474 145.922 737.256 147.254 737.256 149.036ZM740.298 145.184H725.142V143.906H731.964V142.952C730.02 142.736 728.67 141.692 728.67 140.27C728.67 139.568 729.066 138.956 729.714 138.506H726.942V137.21H738.516V138.506H735.69C736.338 138.956 736.716 139.55 736.716 140.27C736.716 141.674 735.402 142.718 733.512 142.934V143.906H740.298V145.184ZM752.465 142.214V139.532H745.337V142.214H752.465ZM754.013 143.582H749.711V146.624H756.497V148.028H741.341V146.624H748.163V143.582H743.789V135.482H745.337V138.146H752.465V135.482H754.013V143.582ZM770.643 151.934H760.005V147.848H768.645V146.48H760.005V145.148H770.175V149.18H761.535V150.584H770.643V151.934ZM772.695 144.014H757.539V142.682H772.695V144.014ZM770.427 141.404H760.113V137.426H768.519V136.166H760.113V134.816H770.067V138.74H761.643V140.072H770.427V141.404ZM781.051 138.668C781.051 139.928 782.149 140.936 783.787 140.936C785.389 140.936 786.505 139.928 786.505 138.668C786.505 137.408 785.389 136.4 783.787 136.4C782.149 136.4 781.051 137.408 781.051 138.668ZM784.453 149.72H782.851V145.04C781.483 145.094 779.845 145.13 778.603 145.112L778.441 143.708C779.683 143.726 782.113 143.69 783.625 143.636C785.371 143.564 787.945 143.42 789.457 143.186L789.583 144.5C788.143 144.716 786.145 144.878 784.453 144.968V149.72ZM790.789 149.81V134.816H792.337V149.81H790.789ZM779.575 138.668C779.575 136.616 781.303 135.086 783.787 135.086C786.325 135.086 787.999 136.634 787.999 138.704C787.999 140.756 786.325 142.268 783.787 142.268C781.303 142.268 779.575 140.756 779.575 138.668ZM808.067 151.502H798.257V146.93H799.823V150.098H808.067V151.502ZM804.197 139.136H794.621V137.768H804.197V139.136ZM801.803 136.544H797.213V135.158H801.803V136.544ZM801.659 143.042C801.659 142.07 800.705 141.35 799.535 141.35C798.329 141.35 797.393 142.07 797.393 143.042C797.393 143.978 798.311 144.734 799.535 144.734C800.705 144.734 801.659 143.978 801.659 143.042ZM803.207 143.042C803.207 144.896 801.515 146.03 799.535 146.03C797.519 146.03 795.809 144.896 795.809 143.042C795.809 141.206 797.519 140.072 799.535 140.072C801.533 140.072 803.207 141.206 803.207 143.042ZM810.389 141.404H807.599V147.326H806.033V134.798H807.599V140.018H810.389V141.404ZM822.687 136.472H817.521V135.068H822.687V136.472ZM826.809 148.568C826.809 147.326 825.639 146.426 824.001 146.426C822.381 146.426 821.211 147.326 821.211 148.568C821.211 149.846 822.381 150.71 824.001 150.71C825.639 150.71 826.809 149.846 826.809 148.568ZM831.291 140.162H828.483V144.698H826.917V134.78H828.483V138.776H831.291V140.162ZM824.523 139.154H821.013C821.103 141.512 822.867 142.538 824.955 143.096L824.253 144.32C822.471 143.888 820.779 142.79 820.149 141.458C819.555 142.826 817.953 144.122 816.081 144.734L815.325 143.492C817.467 142.844 819.231 141.566 819.321 139.154H815.667V137.786H824.523V139.154ZM828.411 148.568C828.411 150.602 826.575 152.042 824.001 152.042C821.445 152.042 819.627 150.602 819.627 148.568C819.627 146.606 821.445 145.076 824.001 145.076C826.575 145.076 828.411 146.606 828.411 148.568ZM840.055 150.944H838.507V144.338H831.703V142.952H842.071C842.539 141.134 842.809 138.65 842.755 136.904H833.989V135.518H844.357C844.429 138.362 844.159 141.044 843.691 142.952H846.859V144.338H840.055V150.944Z" fill="#28BBF4"/>
<line y1="141.5" x2="643" y2="141.5" stroke="#28BBF4"/>
<path d="M928.5 142C928.5 220.145 864.704 283.5 786 283.5C707.296 283.5 643.5 220.145 643.5 142C643.5 63.855 707.296 0.5 786 0.5C864.704 0.5 928.5 63.855 928.5 142Z" stroke="#28BBF4"/>
<path d="M1183.5 142C1183.5 220.145 1119.7 283.5 1041 283.5C962.296 283.5 898.5 220.145 898.5 142C898.5 63.855 962.296 0.5 1041 0.5C1119.7 0.5 1183.5 63.855 1183.5 142Z" stroke="#28BBF4"/>
</svg>
