<svg width="129" height="30" viewBox="0 0 129 30" fill="none" xmlns="http://www.w3.org/2000/svg">
<path d="M0 0H129V30H0V0Z" fill="#28BBF4"/>
<path d="M111.172 11.4922V12.7227H99.2773V6.86328H100.801V11.4922H111.172ZM97.1094 16.3359V15.0859H113.008V16.3359H97.1094ZM99.1797 23.1523V18.1133H100.703V21.8828H111.27V23.1523H99.1797Z" fill="white"/>
<path d="M96.1422 19.9883V21.2773H80.2438V19.9883H96.1422ZM82.1188 16.5117V7.46875H83.6617V10.7109H92.6852V7.46875H94.1891V16.5117H82.1188ZM83.6617 15.2812H92.6852V11.9414H83.6617V15.2812Z" fill="white"/>
<path d="M77.6751 6.21875V23.6211H76.1321V6.21875H77.6751ZM64.0032 13.6211C64.0129 9.92969 65.8489 7.57617 68.4368 7.56641C71.0149 7.57617 72.8801 9.92969 72.8704 13.6211C72.8801 17.3223 71.0149 19.666 68.4368 19.6562C65.8489 19.666 64.0129 17.3223 64.0032 13.6211ZM65.4875 13.6211C65.4875 16.4434 66.6985 18.2988 68.4368 18.2891C70.1848 18.2988 71.386 16.4434 71.386 13.6211C71.386 10.7988 70.1848 8.94336 68.4368 8.93359C66.6985 8.94336 65.4875 10.7988 65.4875 13.6211Z" fill="white"/>
<path d="M59.9109 6.21875V13.1328H62.821V14.4219H59.9109V23.6211H58.3875V6.21875H59.9109ZM47.157 9.10938V7.83984H55.0476V14.0508H48.7195V18.1133C51.9421 18.123 54.198 17.9961 56.825 17.5078L56.9812 18.7773C54.2468 19.2754 51.9324 19.4023 48.5828 19.4219H47.196V12.7812H53.5242V9.10938H47.157Z" fill="white"/>
<path d="M43.9047 6.21875V15.3008H42.4008V6.21875H43.9047ZM30.5062 14.5195V6.92188H32.0297V9.48047H37.1469V6.92188H38.6703V14.5195H30.5062ZM32.0297 13.2891H37.1469V10.6719H32.0297V13.2891ZM32.6351 17.4102V16.1992H43.9242V20.2812H34.1781V22.1562H44.5492V23.3867H32.6742V19.1484H42.4008V17.4102H32.6351Z" fill="white"/>
<path d="M28.6016 20.0664V21.3555H12.7031V20.0664H19.8516V15.8281H14.5781V7.68359H26.6289V15.8281H21.3555V20.0664H28.6016ZM16.082 14.5977H25.1445V8.91406H16.082V14.5977Z" fill="white"/>
</svg>
