<svg width="519" height="30" viewBox="0 0 519 30" fill="none" xmlns="http://www.w3.org/2000/svg">
<path d="M0 0H519V30H0V0Z" fill="#28BBF4"/>
<path d="M473.624 23.1172C472.941 23.1074 472.355 22.541 472.374 21.8477C472.355 21.1641 472.941 20.5977 473.624 20.5977C474.318 20.5977 474.884 21.1641 474.874 21.8477C474.884 22.541 474.318 23.1074 473.624 23.1172Z" fill="white"/>
<path d="M468.341 7.21875V14.0938H471.251V15.3828H468.341V24.6211H466.817V7.21875H468.341ZM455.665 20.2656V8.91797H463.77V10.1875H457.188V18.9766C460.333 18.9668 462.55 18.8301 465.137 18.3516L465.333 19.6797C462.608 20.168 460.333 20.2656 457.032 20.2656H455.665Z" fill="white"/>
<path d="M451.592 7.23828V12.9609H454.209V14.25H451.592V20.2461H450.069V7.23828H451.592ZM438.057 10.6172V9.36719H442.471V7.23828H443.995V9.36719H448.409V10.6172H438.057ZM439.053 14.8164C439.043 12.8438 440.723 11.5742 443.233 11.5742C445.713 11.5742 447.393 12.8438 447.412 14.8164C447.393 16.7695 445.713 18.0293 443.233 18.0195C440.723 18.0293 439.043 16.7695 439.053 14.8164ZM440.518 14.8164C440.508 16.0371 441.592 16.8281 443.233 16.8086C444.854 16.8281 445.948 16.0371 445.967 14.8164C445.948 13.5762 444.854 12.7754 443.233 12.7852C441.592 12.7754 440.508 13.5762 440.518 14.8164ZM440.733 24.2109V19.2109H442.237V22.9219H452.393V24.2109H440.733Z" fill="white"/>
<path d="M421.162 8.56641C423.72 8.57617 425.537 10.9297 425.556 14.6211C425.537 18.3223 423.72 20.666 421.162 20.6562C418.584 20.666 416.777 18.3223 416.787 14.6211C416.777 10.9297 418.584 8.57617 421.162 8.56641ZM418.232 14.6211C418.242 17.4434 419.443 19.2988 421.162 19.2891C422.9 19.2988 424.072 17.4434 424.072 14.6211C424.072 11.7988 422.9 9.94336 421.162 9.93359C419.443 9.94336 418.242 11.7988 418.232 14.6211ZM428.427 24.582V7.21875H429.951V11.5938H432.763V12.9023H429.951V16.7695H432.763V18.0586H429.951V24.582H428.427Z" fill="white"/>
<path d="M408.3 10.2266V11.4766H399.589V10.2266H403.202V7.74609H404.726V10.2266H408.3ZM400.214 16.5938C400.214 14.2891 401.786 12.6582 403.945 12.6484C406.132 12.6582 407.695 14.2891 407.714 16.5938C407.695 18.9277 406.132 20.5684 403.945 20.5781C401.786 20.5684 400.214 18.9277 400.214 16.5938ZM401.581 16.5938C401.581 18.1367 402.568 19.2402 403.945 19.2305C405.331 19.2402 406.347 18.1367 406.347 16.5938C406.347 15.0703 405.331 13.957 403.945 13.9375C402.568 13.957 401.581 15.0703 401.581 16.5938ZM409.198 23.7227V7.64844H410.644V14.543H412.948V7.21875H414.413V24.582H412.948V15.8125H410.644V23.7227H409.198Z" fill="white"/>
<path d="M398.622 17.1211V18.3906H394.423V24.582H392.88V18.3906H388.427V24.582H386.844V18.3906H382.723V17.1211H398.622ZM384.52 11.7109C384.53 9.39648 386.981 7.93164 390.634 7.92188C394.276 7.93164 396.747 9.39648 396.747 11.7109C396.747 14.0254 394.276 15.4707 390.634 15.4609C386.981 15.4707 384.53 14.0254 384.52 11.7109ZM386.102 11.7109C386.083 13.2441 387.928 14.2305 390.634 14.2305C393.339 14.2305 395.175 13.2441 395.184 11.7109C395.175 10.168 393.339 9.17188 390.634 9.17188C387.928 9.17188 386.083 10.168 386.102 11.7109Z" fill="white"/>
<path d="M373.709 18.1953C377.43 18.1953 379.793 19.3672 379.803 21.3789C379.793 23.3711 377.43 24.543 373.709 24.543C369.989 24.543 367.625 23.3711 367.635 21.3789C367.625 19.3672 369.989 18.1953 373.709 18.1953ZM365.877 16.5742V15.3242H372.42V11.9648H373.924V15.3242H381.678V16.5742H365.877ZM367.752 9.36719V8.11719H379.666V9.58203C379.657 10.9883 379.657 12.3945 379.178 14.1914L377.674 14.0156C378.143 12.2285 378.143 10.9395 378.143 9.58203V9.36719H367.752ZM369.159 21.3789C369.149 22.5898 370.946 23.332 373.709 23.332C376.483 23.332 378.26 22.5898 378.28 21.3789C378.26 20.1387 376.483 19.377 373.709 19.3672C370.946 19.377 369.149 20.1387 369.159 21.3789Z" fill="white"/>
<path d="M349.021 8.56641C350.613 8.57617 351.912 9.50391 352.664 11.1055H357.224V7.21875H358.748V24.6211H357.224V17.8828H352.771C352.048 19.6406 350.701 20.666 349.021 20.6562C346.453 20.666 344.656 18.3223 344.666 14.6211C344.656 10.9297 346.453 8.57617 349.021 8.56641ZM346.13 14.6211C346.14 17.4434 347.312 19.2988 349.021 19.2891C350.72 19.2988 351.912 17.4434 351.912 14.6211C351.912 11.7988 350.72 9.94336 349.021 9.93359C347.312 9.94336 346.14 11.7988 346.13 14.6211ZM353.103 12.3945C353.269 13.0684 353.357 13.8105 353.357 14.6211C353.357 15.334 353.289 16.0078 353.162 16.6133H357.224V12.3945H353.103Z" fill="white"/>
<path d="M340.906 7.21875V14.3867H343.816V15.6562H340.906V24.582H339.382V7.21875H340.906ZM327.37 11.2812V10.0117H331.843V7.43359H333.366V10.0117H337.702V11.2812H327.37ZM328.366 16.7109C328.357 14.3672 330.154 12.7266 332.624 12.7266C335.075 12.7266 336.863 14.3672 336.882 16.7109C336.863 19.0645 335.075 20.6953 332.624 20.6953C330.154 20.6953 328.357 19.0645 328.366 16.7109ZM329.831 16.7109C329.822 18.293 331.003 19.4062 332.624 19.3867C334.226 19.4062 335.398 18.293 335.417 16.7109C335.398 15.1387 334.226 14.0059 332.624 14.0156C331.003 14.0059 329.822 15.1387 329.831 16.7109Z" fill="white"/>
<path d="M315.466 8.27344C318.112 8.26367 320.016 9.94336 320.036 12.3555C320.016 14.7969 318.112 16.4668 315.466 16.4766C312.839 16.4668 310.905 14.7969 310.915 12.3555C310.905 9.94336 312.839 8.26367 315.466 8.27344ZM312.419 12.3555C312.409 14.0254 313.708 15.168 315.466 15.1484C317.243 15.168 318.522 14.0254 318.532 12.3555C318.522 10.7246 317.243 9.5918 315.466 9.58203C313.708 9.5918 312.409 10.7246 312.419 12.3555ZM312.79 19.6016V18.3516H324.157V24.6211H322.634V19.6016H312.79ZM322.634 17.4531V7.21875H324.157V11.7109H326.774V13H324.157V17.4531H322.634Z" fill="white"/>
<path d="M303.678 9.11328V10.3828H301.745V18.7422C302.682 18.6836 303.61 18.5957 304.498 18.4883L304.577 19.6211C300.905 20.207 296.754 20.2656 293.678 20.2852L293.483 18.9766C294.215 18.9766 294.996 18.9668 295.827 18.957V10.3828H293.912V9.11328H303.678ZM297.311 18.9375C298.278 18.918 299.284 18.8789 300.28 18.8301V10.3828H297.311V18.9375ZM305.612 24.582V7.21875H307.135V14.1914H310.045V15.4805H307.135V24.582H305.612Z" fill="white"/>
<path d="M286.588 7.21875V24.6211H285.045V14.8164H281.236V13.5469H285.045V7.21875H286.588ZM272.037 19.9531C274.556 18.7324 276.656 15.4609 276.666 12.375V10.2852H272.701V9.01562H282.193V10.2852H278.209V12.375C278.218 15.2656 280.289 18.4102 282.818 19.5625L281.9 20.793C279.918 19.8164 278.248 17.7168 277.457 15.2949C276.675 17.873 274.957 20.1094 272.974 21.1445L272.037 19.9531Z" fill="white"/>
<path d="M264.097 8.74219V12.082H268.159V7.23828H269.702V19.9141H268.159V13.332H264.097V16.7891H256.128V8.74219H264.097ZM257.652 15.5586H262.593V10.0117H257.652V15.5586ZM258.55 24.2109V18.7422H260.093V22.9219H270.191V24.2109H258.55Z" fill="white"/>
<path d="M241.713 7.53125C245.571 7.53125 247.836 8.5957 247.846 10.5195C247.836 12.4922 245.571 13.5566 241.713 13.5664C237.836 13.5566 235.561 12.4922 235.561 10.5195C235.561 8.5957 237.836 7.53125 241.713 7.53125ZM233.803 15.9883V14.7383H249.623V15.9883H233.803ZM235.717 18.6641V17.4922H247.592V21.3789H237.28V23.1758H248.12V24.3867H235.756V20.2461H246.088V18.6641H235.717ZM237.162 10.5195C237.143 11.7305 238.832 12.3945 241.713 12.3945C244.594 12.3945 246.274 11.7305 246.284 10.5195C246.274 9.37695 244.594 8.69336 241.713 8.68359C238.832 8.69336 237.143 9.37695 237.162 10.5195Z" fill="white"/>
<path d="M232.738 15.8125V17.082H216.918V15.8125H220.844V13.3613C219.457 12.8242 218.676 11.9453 218.676 10.7734C218.676 8.73242 221.02 7.56055 224.828 7.55078C228.607 7.56055 230.951 8.73242 230.961 10.7734C230.951 11.9355 230.18 12.8145 228.812 13.3613V15.8125H232.738ZM218.832 21.4766C218.822 19.4941 221.059 18.4004 224.828 18.4102C228.549 18.4004 230.785 19.4941 230.805 21.4766C230.785 23.459 228.549 24.543 224.828 24.543C221.059 24.543 218.822 23.459 218.832 21.4766ZM220.258 10.7734C220.248 12.043 221.986 12.7754 224.828 12.7852C227.641 12.7754 229.389 12.043 229.398 10.7734C229.389 9.52344 227.641 8.76172 224.828 8.76172C221.986 8.76172 220.248 9.52344 220.258 10.7734ZM220.395 21.4766C220.375 22.6582 222.045 23.3613 224.828 23.3516C227.582 23.3613 229.252 22.6582 229.262 21.4766C229.252 20.2949 227.582 19.6016 224.828 19.582C222.045 19.6016 220.375 20.2949 220.395 21.4766ZM222.367 15.8125H227.289V13.7715C226.557 13.9082 225.736 13.9766 224.828 13.9766C223.92 13.9766 223.1 13.9082 222.367 13.7812V15.8125Z" fill="white"/>
<path d="M214.857 7.21875V24.582H213.353V15.5977H210.853V23.6836H209.408V7.60938H210.853V14.2891H213.353V7.21875H214.857ZM200.912 20.0898V9.34766H202.435V18.7227C204.154 18.7129 206.009 18.5859 208.119 18.1562L208.314 19.5234C205.892 19.9629 203.9 20.0898 201.986 20.0898H200.912Z" fill="white"/>
<path d="M192.571 12.4922V13.7227H180.677V7.86328H182.2V12.4922H192.571ZM178.509 17.3359V16.0859H194.407V17.3359H178.509ZM180.579 24.1523V19.1133H182.102V22.8828H192.669V24.1523H180.579Z" fill="white"/>
<path d="M167.522 18.8789C167.512 20.4121 168.342 22.043 169.993 22.9805C171.653 21.9551 172.532 20.2168 172.522 18.8789V17.9219H174.026V18.8789C174.016 20.666 175.334 22.4434 177.561 23.2148L176.799 24.3477C175.061 23.7324 173.85 22.5215 173.245 21.0664C172.707 22.4727 171.643 23.8105 170.041 24.4844C168.352 23.8398 167.278 22.5703 166.76 21.1152C166.135 22.5117 164.944 23.7227 163.284 24.3477L162.502 23.2148C164.7 22.3945 166.018 20.5391 166.038 18.8789V17.9219H167.522V18.8789ZM162.053 12.3164C162.043 9.89453 163.967 8.24414 166.604 8.25391C169.241 8.24414 171.145 9.89453 171.155 12.3164C171.145 14.6992 169.241 16.3398 166.604 16.3398C163.967 16.3398 162.043 14.6992 162.053 12.3164ZM163.557 12.3164C163.538 13.9277 164.817 15.0605 166.604 15.0703C168.371 15.0605 169.651 13.9277 169.651 12.3164C169.651 10.6953 168.371 9.54297 166.604 9.5625C164.817 9.54297 163.538 10.6953 163.557 12.3164ZM174.455 17.1602V7.23828H175.979V17.1602H174.455Z" fill="white"/>
<path d="M148.849 8.83984C148.859 11.291 152.043 13.4004 155.177 13.8398L154.552 15.0898C151.857 14.6406 149.181 13.1465 148.068 11.0176C146.955 13.166 144.289 14.6406 141.584 15.0898L140.959 13.8398C144.093 13.4004 147.267 11.3301 147.267 8.83984V7.84375H148.849V8.83984ZM140.138 18.293V17.0039H155.959V18.293H148.771V24.582H147.267V18.293H140.138Z" fill="white"/>
<path d="M132.208 7.16016V11.3789H134.844V12.6484H132.208V16.7695H130.684V7.16016H132.208ZM118.673 10.0312V8.80078H123.087V7.04297H124.61V8.80078H129.024V10.0312H118.673ZM119.669 13.6641C119.659 11.9062 121.319 10.8223 123.848 10.8125C126.368 10.8223 128.009 11.9062 128.028 13.6641C128.009 15.4316 126.368 16.5059 123.848 16.5156C121.319 16.5059 119.659 15.4316 119.669 13.6641ZM121.134 18.8203V17.668H132.208V21.5156H122.677V23.2148H132.852V24.3867H121.173V20.3828H130.684V18.8203H121.134ZM121.134 13.6641C121.124 14.709 122.198 15.3633 123.848 15.3633C125.489 15.3633 126.563 14.709 126.583 13.6641C126.563 12.6289 125.489 11.9551 123.848 11.9453C122.198 11.9551 121.124 12.6289 121.134 13.6641Z" fill="white"/>
<path d="M110.42 10.2266V11.4766H101.709V10.2266H105.323V7.74609H106.846V10.2266H110.42ZM102.334 16.5938C102.334 14.2891 103.907 12.6582 106.065 12.6484C108.252 12.6582 109.815 14.2891 109.834 16.5938C109.815 18.9277 108.252 20.5684 106.065 20.5781C103.907 20.5684 102.334 18.9277 102.334 16.5938ZM103.702 16.5938C103.702 18.1367 104.688 19.2402 106.065 19.2305C107.452 19.2402 108.467 18.1367 108.467 16.5938C108.467 15.0703 107.452 13.957 106.065 13.9375C104.688 13.957 103.702 15.0703 103.702 16.5938ZM111.319 23.7227V7.64844H112.764V14.543H115.069V7.21875H116.534V24.582H115.069V15.8125H112.764V23.7227H111.319Z" fill="white"/>
<path d="M98.6719 8.15625V9.44531C98.6719 10.793 98.6719 12.375 98.2129 14.543H100.762V15.8125H84.8633V14.543H96.6699C97.1582 12.3555 97.1582 10.793 97.1484 9.44531V9.42578H86.875V8.15625H98.6719ZM86.8164 24.3477V18.2148H98.75V24.3477H86.8164ZM88.3398 23.0977H97.2266V19.4258H88.3398V23.0977Z" fill="white"/>
<path d="M81.7867 7.98047V9.21094C81.7867 10.5195 81.7867 12.1211 81.3473 14.1914H83.8766V15.4414H76.6305V18.1758C79.9508 18.3125 81.9332 19.4453 81.943 21.3398C81.9332 23.4004 79.6481 24.543 75.8883 24.543C72.0797 24.543 69.8043 23.4004 69.7946 21.3398C69.8043 19.4453 71.777 18.3223 75.1266 18.1758V15.4414H67.9781V14.1914H79.8043C80.2731 12.082 80.2731 10.5586 80.2633 9.23047H69.9899V7.98047H81.7867ZM71.3571 21.3398C71.3375 22.5898 73.0465 23.3027 75.8883 23.3125C78.6715 23.3027 80.3805 22.5898 80.4 21.3398C80.3805 20.1094 78.6715 19.4062 75.8883 19.3867C73.0465 19.4062 71.3375 20.1094 71.3571 21.3398Z" fill="white"/>
<path d="M60.7898 7.21875V24.6211H59.2468V7.21875H60.7898ZM47.1179 14.6211C47.1277 10.9297 48.9636 8.57617 51.5515 8.56641C54.1296 8.57617 55.9949 10.9297 55.9851 14.6211C55.9949 18.3223 54.1296 20.666 51.5515 20.6562C48.9636 20.666 47.1277 18.3223 47.1179 14.6211ZM48.6023 14.6211C48.6023 17.4434 49.8132 19.2988 51.5515 19.2891C53.2996 19.2988 54.5007 17.4434 54.5007 14.6211C54.5007 11.7988 53.2996 9.94336 51.5515 9.93359C49.8132 9.94336 48.6023 11.7988 48.6023 14.6211Z" fill="white"/>
<path d="M44.3343 7.23828V17.4727H42.8695V12.8828H40.5062V17.3555H39.0414V7.57031H40.5062V11.6133H42.8695V7.23828H44.3343ZM29.6859 16.5156C33.2894 15.0508 35.3304 12.6973 35.6234 9.77734H30.389V8.50781H37.2054C37.1957 12.6582 34.8519 15.793 30.4476 17.668L29.6859 16.5156ZM32.6156 19.5234V18.2734H44.3343V24.582H42.8304V19.5234H32.6156Z" fill="white"/>
<path d="M26.6289 8.97656V10.7148C26.6094 12.8438 26.6094 15.2266 25.9844 18.7227L24.4219 18.5469C25.0762 15.2266 25.0762 12.7949 25.0859 10.7148V10.2461H14.3828V8.97656H26.6289ZM12.7031 22.1211V20.8516H18.9141V14.6406H20.418V20.8516H28.5234V22.1211H12.7031Z" fill="white"/>
</svg>
