<svg width="148" height="38" viewBox="0 0 148 38" fill="none" xmlns="http://www.w3.org/2000/svg">
<rect width="148" height="38" rx="12" fill="#ED0080"/>
<path d="M17.4023 26.68V12.2H20.5223L24.1423 24.02L27.9023 12.2H30.9423V26.68H28.9023V14.94L25.2023 26.7H23.0223L19.3823 14.92V26.68H17.4023ZM39.1937 25.14C41.7737 25.14 43.4737 23.06 43.4737 19.7V19.1C43.4737 15.8 41.5937 13.86 39.1537 13.86C36.7937 13.86 34.8737 15.82 34.8737 19.08V19.66C34.8737 23.1 36.5737 25.14 39.1937 25.14ZM39.1537 26.98C35.6137 26.98 32.7537 24.38 32.7537 19.58V19.34C32.7537 14.6 35.6737 12 39.1937 12C42.6537 12 45.6137 14.5 45.6137 19.32V19.58C45.6137 24.34 42.7337 26.98 39.1537 26.98ZM49.423 18.3H52.243C53.763 18.3 55.143 17.74 55.143 16.02C55.143 14.5 54.083 13.98 52.343 13.98H49.423V18.3ZM49.423 24.92H52.723C54.483 24.92 55.663 24.1 55.663 22.38C55.663 20.76 54.263 20 52.443 20H49.423V24.92ZM47.403 26.68V12.2H52.543C55.743 12.2 57.183 13.44 57.183 15.74C57.183 17.14 56.403 18.56 54.743 19C56.503 19.38 57.803 20.48 57.803 22.52C57.803 24.98 56.063 26.68 52.963 26.68H47.403ZM59.8579 26.7V12.2H61.9379V26.7H59.8579ZM64.357 26.68V12.2H66.397V24.86H73.677V26.68H64.357ZM75.4999 26.68V12.2H84.2999V14.02H77.5399V18.18H83.6599V19.98H77.5399V24.86H84.4199V26.68H75.4999ZM94.2735 26.7L90.5735 12.2H92.6735L95.6135 23.92L98.2935 12.2H100.734L103.394 23.92L106.294 12.2H108.354L104.674 26.7H102.194L99.4735 14.82L96.7335 26.7H94.2735ZM109.515 26.68V12.2H118.315V14.02H111.555V18.18H117.675V19.98H111.555V24.86H118.435V26.68H109.515ZM122.463 18.3H125.283C126.803 18.3 128.183 17.74 128.183 16.02C128.183 14.5 127.123 13.98 125.383 13.98H122.463V18.3ZM122.463 24.92H125.763C127.523 24.92 128.703 24.1 128.703 22.38C128.703 20.76 127.303 20 125.483 20H122.463V24.92ZM120.443 26.68V12.2H125.583C128.783 12.2 130.223 13.44 130.223 15.74C130.223 17.14 129.443 18.56 127.783 19C129.543 19.38 130.843 20.48 130.843 22.52C130.843 24.98 129.103 26.68 126.003 26.68H120.443Z" fill="white"/>
</svg>
