<svg width="142" height="56" viewBox="0 0 142 56" fill="none" xmlns="http://www.w3.org/2000/svg">
<rect width="142" height="38" rx="12" fill="#ED0080"/>
<path d="M17.6445 26.68V12.2H19.6845V18.08H26.3245V12.2H28.3845V26.68H26.3245V19.94H19.6845V26.68H17.6445ZM34.6043 26.7V21.18L29.4843 12.2H31.8043L35.7243 19.3L39.4643 12.2H41.6843L36.6843 21.2V26.7H34.6043ZM44.802 18.3H47.622C49.142 18.3 50.522 17.74 50.522 16.02C50.522 14.5 49.462 13.98 47.722 13.98H44.802V18.3ZM44.802 24.92H48.102C49.862 24.92 51.042 24.1 51.042 22.38C51.042 20.76 49.642 20 47.822 20H44.802V24.92ZM42.782 26.68V12.2H47.922C51.122 12.2 52.562 13.44 52.562 15.74C52.562 17.14 51.782 18.56 50.122 19C51.882 19.38 53.182 20.48 53.182 22.52C53.182 24.98 51.442 26.68 48.342 26.68H42.782ZM57.1368 19.24H59.7368C61.7968 19.24 62.9368 18.18 62.9368 16.5C62.9368 14.9 61.8568 13.96 59.7768 13.96H57.1368V19.24ZM55.1168 26.68V12.2H59.8968C63.2968 12.2 65.0168 13.78 65.0168 16.46C65.0168 18.46 63.7168 20.04 61.9968 20.58L65.9968 26.68H63.5568L60.0368 20.98H57.1368V26.68H55.1168ZM67.3759 26.7V12.2H69.4559V26.7H67.3759ZM73.9149 24.94H76.3349C78.9949 24.94 80.8349 23.02 80.8349 19.4V19.04C80.8349 15.2 78.7949 13.94 76.1749 13.94H73.9149V24.94ZM71.8749 26.68V12.2H76.3149C80.3349 12.2 82.9149 14.18 82.9149 19.04V19.38C82.9149 24.02 80.3749 26.68 76.2749 26.68H71.8749ZM95.2426 14.72L93.0026 21.18H97.4826L95.2426 14.72ZM88.8426 26.68L94.3026 12.18H96.3826L101.763 26.68H99.4426L98.0826 22.92H92.3826L91.0626 26.68H88.8426ZM104.882 19.48H107.502C109.582 19.48 110.782 18.48 110.782 16.72C110.782 14.8 109.682 13.96 107.502 13.96H104.882V19.48ZM102.862 26.68V12.2H107.802C111.022 12.2 112.862 13.58 112.862 16.6C112.862 19.66 110.742 21.26 107.962 21.26H104.882V26.68H102.862ZM116.709 19.48H119.329C121.409 19.48 122.609 18.48 122.609 16.72C122.609 14.8 121.509 13.96 119.329 13.96H116.709V19.48ZM114.689 26.68V12.2H119.629C122.849 12.2 124.689 13.58 124.689 16.6C124.689 19.66 122.569 21.26 119.789 21.26H116.709V26.68H114.689Z" fill="white"/>
<path d="M0 23L20 36C9.47657 37.1693 1.16927 45.4766 0 56V23Z" fill="#ED0080"/>
</svg>
