<svg width="143" height="38" viewBox="0 0 143 38" fill="none" xmlns="http://www.w3.org/2000/svg">
<rect width="143" height="38" rx="12" fill="#ED0080"/>
<path d="M19.6762 18.48H22.2962C24.3762 18.48 25.5762 17.48 25.5762 15.72C25.5762 13.8 24.4762 12.96 22.2962 12.96H19.6762V18.48ZM17.6562 25.68V11.2H22.5962C25.8162 11.2 27.6562 12.58 27.6562 15.6C27.6562 18.66 25.5362 20.26 22.7562 20.26H19.6762V25.68H17.6562ZM35.6027 25.88C32.0027 25.88 29.0427 23.1 29.0427 18.6V18.18C29.0427 13.42 32.4227 11 35.8627 11C37.6227 11 39.2027 11.54 40.0627 12.18L39.4027 13.94C38.5227 13.28 37.3227 12.88 35.9627 12.88C33.5427 12.88 31.1627 14.72 31.1627 18.12V18.52C31.1627 21.58 33.1427 23.94 35.8027 23.94C37.2227 23.94 38.8627 23.46 39.8027 22.7L40.4427 24.42C39.5027 25.26 37.5627 25.88 35.6027 25.88ZM49.9555 25.7L46.2555 11.2H48.3555L51.2955 22.92L53.9755 11.2H56.4155L59.0755 22.92L61.9755 11.2H64.0355L60.3555 25.7H57.8755L55.1555 13.82L52.4155 25.7H49.9555ZM65.1968 25.68V11.2H73.9968V13.02H67.2368V17.18H73.3568V18.98H67.2368V23.86H74.1168V25.68H65.1968ZM78.1449 17.3H80.9649C82.4849 17.3 83.8649 16.74 83.8649 15.02C83.8649 13.5 82.8049 12.98 81.0649 12.98H78.1449V17.3ZM78.1449 23.92H81.4449C83.2049 23.92 84.3849 23.1 84.3849 21.38C84.3849 19.76 82.9849 19 81.1649 19H78.1449V23.92ZM76.1249 25.68V11.2H81.2649C84.4649 11.2 85.9049 12.44 85.9049 14.74C85.9049 16.14 85.1249 17.56 83.4649 18C85.2249 18.38 86.5249 19.48 86.5249 21.52C86.5249 23.98 84.7849 25.68 81.6849 25.68H76.1249ZM92.7398 25.96C90.9198 25.96 88.9598 25.28 87.9398 24.68L88.5598 22.76C89.5598 23.42 91.2798 24.02 92.6398 24.02C94.6198 24.02 95.8598 23.02 95.8598 21.64C95.8598 20.38 95.1198 19.74 93.3598 19.36L91.7798 18.98C89.8598 18.54 88.1798 17.3 88.1798 15C88.1798 12.76 89.9998 11.04 93.0798 11.04C94.9998 11.04 96.7598 11.66 97.6398 12.32L96.9598 14.06C96.0798 13.46 94.6998 12.88 93.0998 12.88C91.3998 12.88 90.3198 13.66 90.3198 14.86C90.3198 16.08 91.1998 16.84 92.6798 17.16L94.1598 17.48C96.5998 18.04 97.9998 19.12 97.9998 21.5C97.9998 24.1 95.7798 25.96 92.7398 25.96ZM99.8985 25.7V11.2H101.979V25.7H99.8985ZM110.398 13.06V25.7H108.318V13.06H103.798V11.2H114.958V13.06H110.398ZM116.576 25.68V11.2H125.376V13.02H118.616V17.18H124.736V18.98H118.616V23.86H125.496V25.68H116.576Z" fill="white"/>
</svg>
