<svg width="1011" height="999" viewBox="0 0 1011 999" fill="none" xmlns="http://www.w3.org/2000/svg">
<g opacity="0.4">
<path d="M673.324 333.052C673.324 329.47 673.324 325.889 673.324 318.727V304.402V179.06C673.324 78.7864 593.683 0 492.323 0C390.962 0 311.322 78.7864 311.322 179.06V307.983H181.001C79.6404 307.983 0 386.77 0 487.043C0 587.317 79.6404 666.103 181.001 666.103H311.322H325.802C329.422 666.103 333.042 666.103 340.282 666.103C336.662 479.881 488.703 333.052 673.324 333.052Z" fill="#ED0080" fill-opacity="0.5"/>
<path d="M826.268 331.914H695.947H672.582C660.206 514.006 527.835 656.254 337.565 665.321V690.389V819.306C337.565 919.575 417.205 998.358 518.566 998.358C619.926 998.358 699.567 919.575 699.567 819.306V690.389H829.887C931.248 690.389 1010.89 611.606 1010.89 511.337C1007.27 414.648 927.628 331.914 826.268 331.914Z" fill="#ED0080" fill-opacity="0.5"/>
<path d="M673.048 331.914C487.226 331.914 337.841 480.713 337.841 665.804C520.019 658.545 665.761 513.376 673.048 331.914Z" fill="#ED0080"/>
</g>
</svg>
