<svg width="1286" height="488" viewBox="0 0 1286 488" fill="none" xmlns="http://www.w3.org/2000/svg">
<path d="M926 45H1264.3C1276.17 45 1285.8 54.6259 1285.8 66.5C1285.8 78.3741 1276.17 88 1264.3 88H926V45Z" fill="#E4E4E4"/>
<path d="M964 218H1264.5C1276.37 218 1286 227.626 1286 239.5C1286 251.374 1276.37 261 1264.5 261H964V218Z" fill="#E4E4E4"/>
<path d="M1116.26 244.712V243.632L1119.29 240.59C1120.93 238.916 1122.29 237.278 1122.29 235.496C1122.29 233.804 1121.3 233.03 1119.74 233.03C1118.78 233.03 1117.6 233.516 1116.91 234.038L1116.41 232.652C1117.16 232.094 1118.62 231.536 1120.01 231.536C1122.47 231.536 1124.08 232.886 1124.08 235.28C1124.08 237.548 1122.67 239.42 1120.57 241.436L1118.71 243.218H1124.13V244.712H1116.26ZM1129.35 244.838C1127.85 244.838 1126.58 244.316 1125.8 243.74L1126.34 242.354C1126.99 242.84 1128.16 243.308 1129.15 243.308C1130.9 243.308 1132.05 242.282 1132.05 240.554C1132.05 238.7 1130.77 237.98 1129.06 237.98C1128.34 237.98 1127.1 238.304 1126.41 238.7L1126.85 231.716H1133.25V233.21H1128.25L1128 236.846C1128.5 236.666 1129.2 236.558 1129.73 236.558C1131.99 236.558 1133.76 237.818 1133.76 240.572C1133.76 242.912 1131.98 244.838 1129.35 244.838Z" fill="#878787"/>
<path d="M1096.96 71.712V70.632L1099.99 67.59C1101.63 65.916 1102.99 64.278 1102.99 62.496C1102.99 60.804 1102 60.03 1100.44 60.03C1099.48 60.03 1098.3 60.516 1097.61 61.038L1097.11 59.652C1097.86 59.094 1099.32 58.536 1100.71 58.536C1103.17 58.536 1104.78 59.886 1104.78 62.28C1104.78 64.548 1103.37 66.42 1101.27 68.436L1099.41 70.218H1104.83V71.712H1096.96ZM1110.83 64.188C1111.92 63.756 1112.95 62.964 1112.95 61.794C1112.95 60.624 1112.09 59.904 1110.63 59.904C1109.28 59.904 1108.32 60.588 1108.32 61.776C1108.32 63.054 1109.3 63.774 1110.83 64.188ZM1110.65 70.506C1112.12 70.506 1113.27 69.642 1113.27 68.418C1113.27 66.87 1112.21 66.186 1110.34 65.61C1109.17 66.042 1107.93 66.888 1107.93 68.346C1107.93 69.66 1109.08 70.506 1110.65 70.506ZM1110.65 71.91C1107.98 71.91 1106.29 70.524 1106.29 68.436C1106.29 66.654 1107.6 65.556 1108.94 64.98C1107.68 64.44 1106.6 63.486 1106.6 61.848C1106.6 59.922 1108.29 58.554 1110.61 58.554C1112.95 58.554 1114.57 59.742 1114.57 61.758C1114.57 63.27 1113.44 64.278 1112.18 64.836C1113.62 65.358 1115.02 66.42 1115.02 68.238C1115.02 70.344 1113.31 71.91 1110.65 71.91Z" fill="#878787"/>
<path d="M1.936 16.712V15.38L4.744 12.464C6.346 10.79 7.642 9.206 7.642 7.514C7.642 5.93 6.724 5.282 5.32 5.282C4.492 5.282 3.268 5.75 2.566 6.236L2.008 4.508C2.836 3.968 4.24 3.428 5.662 3.428C8.254 3.428 9.856 4.76 9.856 7.208C9.856 9.566 8.272 11.582 6.454 13.382L4.924 14.894H9.874V16.712H1.936ZM16.0474 15.146C17.6494 15.146 18.6394 13.796 18.6394 10.718V9.71C18.6394 6.596 17.6494 5.228 16.0654 5.228C14.4454 5.228 13.4374 6.578 13.4374 9.62V10.646C13.4374 13.706 14.4094 15.146 16.0474 15.146ZM16.0294 16.91C13.4554 16.91 11.3134 15.11 11.3134 10.628V9.818C11.3134 5.12 13.6354 3.446 16.0654 3.446C18.5134 3.446 20.7454 5.156 20.7454 9.746V10.574C20.7454 15.182 18.4954 16.91 16.0294 16.91ZM21.8527 16.712V15.38L24.6607 12.464C26.2627 10.79 27.5587 9.206 27.5587 7.514C27.5587 5.93 26.6407 5.282 25.2367 5.282C24.4087 5.282 23.1847 5.75 22.4827 6.236L21.9247 4.508C22.7527 3.968 24.1567 3.428 25.5787 3.428C28.1707 3.428 29.7727 4.76 29.7727 7.208C29.7727 9.566 28.1887 11.582 26.3707 13.382L24.8407 14.894H29.7907V16.712H21.8527ZM35.9642 15.146C37.5662 15.146 38.5562 13.796 38.5562 10.718V9.71C38.5562 6.596 37.5662 5.228 35.9822 5.228C34.3622 5.228 33.3542 6.578 33.3542 9.62V10.646C33.3542 13.706 34.3262 15.146 35.9642 15.146ZM35.9462 16.91C33.3722 16.91 31.2302 15.11 31.2302 10.628V9.818C31.2302 5.12 33.5522 3.446 35.9822 3.446C38.4302 3.446 40.6622 5.156 40.6622 9.746V10.574C40.6622 15.182 38.4122 16.91 35.9462 16.91ZM53.5199 11.582C53.5199 10.556 52.6379 9.872 51.5759 9.872C50.5139 9.872 49.6679 10.556 49.6679 11.582C49.6679 12.59 50.5139 13.292 51.5759 13.292C52.6379 13.292 53.5199 12.59 53.5199 11.582ZM55.4279 11.582C55.4279 13.67 53.6459 14.948 51.5759 14.948C49.5779 14.948 47.7059 13.67 47.7059 11.582C47.7059 9.584 49.5779 8.27 51.5759 8.27C53.6459 8.27 55.4279 9.584 55.4279 11.582ZM62.3399 10.25H59.6219V17.81H57.6419V2.816H59.6219V8.54H62.3399V10.25ZM56.1479 7.496H46.5719V5.822H56.1479V7.496ZM53.7539 4.814H49.1639V3.104H53.7539V4.814Z" fill="white"/>
<path d="M1.936 191.712V190.38L4.744 187.464C6.346 185.79 7.642 184.206 7.642 182.514C7.642 180.93 6.724 180.282 5.32 180.282C4.492 180.282 3.268 180.75 2.566 181.236L2.008 179.508C2.836 178.968 4.24 178.428 5.662 178.428C8.254 178.428 9.856 179.76 9.856 182.208C9.856 184.566 8.272 186.582 6.454 188.382L4.924 189.894H9.874V191.712H1.936ZM16.0474 190.146C17.6494 190.146 18.6394 188.796 18.6394 185.718V184.71C18.6394 181.596 17.6494 180.228 16.0654 180.228C14.4454 180.228 13.4374 181.578 13.4374 184.62V185.646C13.4374 188.706 14.4094 190.146 16.0474 190.146ZM16.0294 191.91C13.4554 191.91 11.3134 190.11 11.3134 185.628V184.818C11.3134 180.12 13.6354 178.446 16.0654 178.446C18.5134 178.446 20.7454 180.156 20.7454 184.746V185.574C20.7454 190.182 18.4954 191.91 16.0294 191.91ZM21.8527 191.712V190.38L24.6607 187.464C26.2627 185.79 27.5587 184.206 27.5587 182.514C27.5587 180.93 26.6407 180.282 25.2367 180.282C24.4087 180.282 23.1847 180.75 22.4827 181.236L21.9247 179.508C22.7527 178.968 24.1567 178.428 25.5787 178.428C28.1707 178.428 29.7727 179.76 29.7727 182.208C29.7727 184.566 28.1887 186.582 26.3707 188.382L24.8407 189.894H29.7907V191.712H21.8527ZM34.45 191.784V180.948L32.38 181.398V180.03L35.44 178.518H36.502V191.784H34.45ZM51.0941 186.582C51.0941 185.556 50.2121 184.872 49.1501 184.872C48.0881 184.872 47.2421 185.556 47.2421 186.582C47.2421 187.59 48.0881 188.292 49.1501 188.292C50.2121 188.292 51.0941 187.59 51.0941 186.582ZM53.0021 186.582C53.0021 188.67 51.2201 189.948 49.1501 189.948C47.1521 189.948 45.2801 188.67 45.2801 186.582C45.2801 184.584 47.1521 183.27 49.1501 183.27C51.2201 183.27 53.0021 184.584 53.0021 186.582ZM59.9141 185.25H57.1961V192.81H55.2161V177.816H57.1961V183.54H59.9141V185.25ZM53.7221 182.496H44.1461V180.822H53.7221V182.496ZM51.3281 179.814H46.7381V178.104H51.3281V179.814Z" fill="white"/>
<path d="M73.886 195.024H72.554C70.808 193.116 69.242 190.272 69.242 186.618V186.276C69.242 182.622 70.808 179.796 72.554 177.87H73.886C72.212 179.886 70.862 182.802 70.862 186.114V186.636C70.862 189.894 72.212 192.99 73.886 195.024ZM74.9041 191.712V190.632L77.9281 187.59C79.5661 185.916 80.9341 184.278 80.9341 182.496C80.9341 180.804 79.9441 180.03 78.3781 180.03C77.4241 180.03 76.2361 180.516 75.5521 181.038L75.0481 179.652C75.8041 179.094 77.2621 178.536 78.6481 178.536C81.1141 178.536 82.7161 179.886 82.7161 182.28C82.7161 184.548 81.3121 186.42 79.2061 188.436L77.3521 190.218H82.7701V191.712H74.9041ZM84.5867 192.468V190.596H86.5127V192.288C86.5127 193.44 85.7747 194.538 84.5327 194.862L84.3167 194.106C85.0907 193.908 85.5407 193.242 85.5407 192.468H84.5867ZM92.5884 184.188C93.6864 183.756 94.7124 182.964 94.7124 181.794C94.7124 180.624 93.8484 179.904 92.3904 179.904C91.0404 179.904 90.0864 180.588 90.0864 181.776C90.0864 183.054 91.0584 183.774 92.5884 184.188ZM92.4084 190.506C93.8844 190.506 95.0364 189.642 95.0364 188.418C95.0364 186.87 93.9744 186.186 92.1024 185.61C90.9324 186.042 89.6904 186.888 89.6904 188.346C89.6904 189.66 90.8424 190.506 92.4084 190.506ZM92.4084 191.91C89.7444 191.91 88.0524 190.524 88.0524 188.436C88.0524 186.654 89.3664 185.556 90.6984 184.98C89.4384 184.44 88.3584 183.486 88.3584 181.848C88.3584 179.922 90.0504 178.554 92.3724 178.554C94.7124 178.554 96.3324 179.742 96.3324 181.758C96.3324 183.27 95.1984 184.278 93.9384 184.836C95.3784 185.358 96.7824 186.42 96.7824 188.238C96.7824 190.344 95.0724 191.91 92.4084 191.91ZM102.324 179.85C100.848 179.85 99.8945 181.092 99.8945 182.784C99.8945 184.584 100.992 185.61 102.342 185.61C103.35 185.61 104.448 184.836 104.898 184.026V183.684C104.898 181.614 104.16 179.85 102.324 179.85ZM102.306 178.464C105.024 178.464 106.572 180.426 106.572 184.278V185.214C106.572 189.75 104.394 191.802 101.694 191.802C100.398 191.802 99.2825 191.424 98.5805 190.956L99.0845 189.588C99.5885 189.966 100.668 190.38 101.532 190.38C103.332 190.38 104.754 189.372 104.916 185.718C104.304 186.384 103.188 186.996 101.91 186.996C99.9485 186.996 98.2205 185.43 98.2205 182.892C98.2205 180.408 99.8045 178.464 102.306 178.464ZM112.681 184.188C113.779 183.756 114.805 182.964 114.805 181.794C114.805 180.624 113.941 179.904 112.483 179.904C111.133 179.904 110.179 180.588 110.179 181.776C110.179 183.054 111.151 183.774 112.681 184.188ZM112.501 190.506C113.977 190.506 115.129 189.642 115.129 188.418C115.129 186.87 114.067 186.186 112.195 185.61C111.025 186.042 109.783 186.888 109.783 188.346C109.783 189.66 110.935 190.506 112.501 190.506ZM112.501 191.91C109.837 191.91 108.145 190.524 108.145 188.436C108.145 186.654 109.459 185.556 110.791 184.98C109.531 184.44 108.451 183.486 108.451 181.848C108.451 179.922 110.143 178.554 112.465 178.554C114.805 178.554 116.425 179.742 116.425 181.758C116.425 183.27 115.291 184.278 114.031 184.836C115.471 185.358 116.875 186.42 116.875 188.238C116.875 190.344 115.165 191.91 112.501 191.91ZM119.249 195.024H117.899C119.573 192.99 120.905 190.074 120.905 186.762V186.24C120.905 183 119.573 179.904 117.899 177.87H119.249C120.995 179.778 122.543 182.622 122.543 186.258V186.618C122.543 190.29 120.995 193.098 119.249 195.024Z" fill="#9E9E9E"/>
<rect x="592" y="45" width="334.1" height="43" fill="#C2C2C2"/>
<rect x="694" y="218" width="270" height="43" fill="#C2C2C2"/>
<rect x="283" y="45" width="309" height="43" fill="#C98AAC"/>
<rect x="386" y="218" width="308.4" height="43" fill="#C98AAC"/>
<rect x="52" y="45" width="231.3" height="43" fill="#975177"/>
<rect x="65" y="218" width="321.25" height="43" fill="#975177"/>
<path d="M1 66.5C1 54.6259 10.6259 45 22.5 45H52.4V88H22.5C10.6259 88 1 78.3741 1 66.5Z" fill="#73244F"/>
<path d="M1 239.5C1 227.626 10.6259 218 22.5 218H65.25V261H22.5C10.6259 261 1 251.374 1 239.5Z" fill="#73244F"/>
<path d="M73.886 20.024H72.554C70.808 18.116 69.242 15.272 69.242 11.618V11.276C69.242 7.622 70.808 4.796 72.554 2.87H73.886C72.212 4.886 70.862 7.802 70.862 11.114V11.636C70.862 14.894 72.212 17.99 73.886 20.024ZM74.9041 16.712V15.632L77.9281 12.59C79.5661 10.916 80.9341 9.278 80.9341 7.496C80.9341 5.804 79.9441 5.03 78.3781 5.03C77.4241 5.03 76.2361 5.516 75.5521 6.038L75.0481 4.652C75.8041 4.094 77.2621 3.536 78.6481 3.536C81.1141 3.536 82.7161 4.886 82.7161 7.28C82.7161 9.548 81.3121 11.42 79.2061 13.436L77.3521 15.218H82.7701V16.712H74.9041ZM84.5867 17.468V15.596H86.5127V17.288C86.5127 18.44 85.7747 19.538 84.5327 19.862L84.3167 19.106C85.0907 18.908 85.5407 18.242 85.5407 17.468H84.5867ZM90.4487 16.766V5.624L88.3247 6.146V5.066L91.2227 3.608H92.0687V16.766H90.4487ZM95.4101 16.712V15.632L98.4341 12.59C100.072 10.916 101.44 9.278 101.44 7.496C101.44 5.804 100.45 5.03 98.8841 5.03C97.9301 5.03 96.7421 5.516 96.0581 6.038L95.5541 4.652C96.3101 4.094 97.7681 3.536 99.1541 3.536C101.62 3.536 103.222 4.886 103.222 7.28C103.222 9.548 101.818 11.42 99.7121 13.436L97.8581 15.218H103.276V16.712H95.4101ZM105.943 16.694L110.713 5.21H104.593V3.716H112.567V4.85L107.779 16.694H105.943ZM115.065 20.024H113.715C115.389 17.99 116.721 15.074 116.721 11.762V11.24C116.721 8 115.389 4.904 113.715 2.87H115.065C116.811 4.778 118.359 7.622 118.359 11.258V11.618C118.359 15.29 116.811 18.098 115.065 20.024Z" fill="#9E9E9E"/>
<path d="M24.61 67.626H28.588V61.578L24.61 67.626ZM28.588 71.73V69.066H22.792V67.86L28.822 58.662H30.118V67.626H32.062V69.066H30.118V71.73H28.588Z" fill="#E9E9E9"/>
<path d="M32.572 244.838C31.078 244.838 29.8 244.316 29.026 243.74L29.566 242.354C30.214 242.84 31.384 243.308 32.374 243.308C34.12 243.308 35.272 242.282 35.272 240.554C35.272 238.7 33.994 237.98 32.284 237.98C31.564 237.98 30.322 238.304 29.638 238.7L30.07 231.716H36.478V233.21H31.474L31.222 236.846C31.726 236.666 32.428 236.558 32.95 236.558C35.218 236.558 36.982 237.818 36.982 240.572C36.982 242.912 35.2 244.838 32.572 244.838Z" fill="#E9E9E9"/>
<path d="M162.266 71.766V60.624L160.142 61.146V60.066L163.04 58.608H163.886V71.766H162.266ZM171.728 64.188C172.826 63.756 173.852 62.964 173.852 61.794C173.852 60.624 172.988 59.904 171.53 59.904C170.18 59.904 169.226 60.588 169.226 61.776C169.226 63.054 170.198 63.774 171.728 64.188ZM171.548 70.506C173.024 70.506 174.176 69.642 174.176 68.418C174.176 66.87 173.114 66.186 171.242 65.61C170.072 66.042 168.83 66.888 168.83 68.346C168.83 69.66 169.982 70.506 171.548 70.506ZM171.548 71.91C168.884 71.91 167.192 70.524 167.192 68.436C167.192 66.654 168.506 65.556 169.838 64.98C168.578 64.44 167.498 63.486 167.498 61.848C167.498 59.922 169.19 58.554 171.512 58.554C173.852 58.554 175.472 59.742 175.472 61.758C175.472 63.27 174.338 64.278 173.078 64.836C174.518 65.358 175.922 66.42 175.922 68.238C175.922 70.344 174.212 71.91 171.548 71.91Z" fill="#E9E9E9"/>
<path d="M218.75 141.68V127.3H221.07L225.25 139.74L229.55 127.3H231.75V141.68H230.23V129.42L226.05 141.7H224.39L220.25 129.36V141.68H218.75ZM233.712 141.68V140.48L242.072 128.64H234.192V127.3H243.992V128.5L235.612 140.3H243.992V141.68H233.712ZM250.817 145.4H249.597C247.677 143.24 246.037 140.1 246.037 136.06V135.66C246.037 131.62 247.677 128.5 249.597 126.32H250.817C249.017 128.58 247.577 131.82 247.577 135.5V136.08C247.577 139.7 249.017 143.12 250.817 145.4ZM255.715 141.72V129.14L253.315 129.76V128.78L256.415 127.18H257.235V141.72H255.715ZM265.97 140.48C267.97 140.48 269.21 138.96 269.21 135.3V133.74C269.21 130.12 267.99 128.52 265.99 128.52C263.99 128.52 262.67 130.06 262.67 133.64V135.22C262.67 138.78 263.97 140.48 265.97 140.48ZM265.97 141.88C263.29 141.88 261.05 139.88 261.05 135.04V133.84C261.05 128.82 263.45 127.1 265.99 127.1C268.53 127.1 270.81 128.82 270.81 133.76V135.04C270.81 139.88 268.61 141.88 265.97 141.88ZM281.185 135.82L281.385 137.1C278.925 137.64 275.865 137.8 272.825 137.76V127.52H279.705V128.84H274.325V136.36C276.685 136.38 279.245 136.22 281.185 135.82ZM288.125 142.9H286.645V133.1H283.965V142.44H282.465V126.48H283.965V131.74H286.645V126.24H288.125V142.9ZM295.643 133.1C296.323 133.84 296.963 134.38 297.783 134.38C298.663 134.38 299.263 133.52 299.403 132.34L300.503 132.72C300.203 134.74 298.883 135.68 297.743 135.68C296.823 135.68 296.063 135.34 295.303 134.54C294.523 133.7 294.063 133.3 293.243 133.32C292.423 133.32 291.963 134.1 291.623 135.4L290.563 134.98C291.063 132.74 292.143 132 293.443 131.98C294.223 131.96 295.063 132.5 295.643 133.1ZM305.995 141.82C304.455 141.82 302.995 141.34 302.255 140.78L302.695 139.44C303.415 139.94 304.895 140.38 305.835 140.38C307.955 140.38 309.235 139.3 309.235 137.5C309.235 135.74 307.655 134.86 305.875 134.84H304.375V133.36H305.735C307.395 133.38 308.755 132.38 308.755 130.76C308.755 129.02 307.515 128.52 305.995 128.52C304.915 128.52 303.875 128.9 303.035 129.54L302.475 128.28C303.395 127.6 304.955 127.06 306.315 127.06C308.635 127.06 310.415 128.28 310.415 130.52C310.415 132.32 309.355 133.46 307.815 133.98C309.495 134.34 310.895 135.36 310.895 137.52C310.895 140.04 308.855 141.82 305.995 141.82ZM317.612 140.48C319.612 140.48 320.852 138.96 320.852 135.3V133.74C320.852 130.12 319.632 128.52 317.632 128.52C315.632 128.52 314.312 130.06 314.312 133.64V135.22C314.312 138.78 315.612 140.48 317.612 140.48ZM317.612 141.88C314.932 141.88 312.692 139.88 312.692 135.04V133.84C312.692 128.82 315.092 127.1 317.632 127.1C320.172 127.1 322.452 128.82 322.452 133.76V135.04C322.452 139.88 320.252 141.88 317.612 141.88ZM332.827 135.82L333.027 137.1C330.567 137.64 327.507 137.8 324.467 137.76V127.52H331.347V128.84H325.967V136.36C328.327 136.38 330.887 136.22 332.827 135.82ZM339.767 142.9H338.287V133.1H335.607V142.44H334.107V126.48H335.607V131.74H338.287V126.24H339.767V142.9ZM342.905 145.4H341.625C343.465 143.14 344.865 139.9 344.865 136.2V135.62C344.865 132.02 343.465 128.58 341.625 126.32H342.905C344.785 128.48 346.445 131.62 346.445 135.64V136.06C346.445 140.12 344.785 143.24 342.905 145.4ZM356.071 136.98H359.711V131.36L356.071 136.98ZM359.671 141.72V138.94H353.471V137.38L360.111 127.08H361.851V136.98H363.891V138.94H361.851V141.72H359.671ZM369.809 139.96C371.229 139.96 372.249 138.92 372.249 137.08C372.249 135.18 371.149 134.36 369.769 134.36C368.809 134.36 367.689 135.14 367.229 135.94V136.06C367.229 138.36 368.049 139.96 369.809 139.96ZM369.889 141.9C366.609 141.9 364.929 139.54 364.929 135.38V134.42C364.929 129.18 367.469 126.98 370.649 126.98C371.969 126.98 373.329 127.42 374.029 127.88L373.389 129.68C372.849 129.3 371.669 128.92 370.769 128.92C368.869 128.92 367.389 130.2 367.209 133.76C367.869 133.08 369.089 132.5 370.449 132.5C372.729 132.5 374.549 134.14 374.549 136.9C374.549 139.72 372.849 141.9 369.889 141.9Z" fill="white"/>
<path d="M269.552 314.68V300.3H271.872L276.052 312.74L280.352 300.3H282.552V314.68H281.032V302.42L276.852 314.7H275.192L271.052 302.36V314.68H269.552ZM284.515 314.68V313.48L292.875 301.64H284.995V300.3H294.795V301.5L286.415 313.3H294.795V314.68H284.515ZM301.62 318.4H300.4C298.48 316.24 296.84 313.1 296.84 309.06V308.66C296.84 304.62 298.48 301.5 300.4 299.32H301.62C299.82 301.58 298.38 304.82 298.38 308.5V309.08C298.38 312.7 299.82 316.12 301.62 318.4ZM306.517 314.72V302.14L304.117 302.76V301.78L307.217 300.18H308.037V314.72H306.517ZM316.773 313.48C318.773 313.48 320.013 311.96 320.013 308.3V306.74C320.013 303.12 318.793 301.52 316.793 301.52C314.793 301.52 313.473 303.06 313.473 306.64V308.22C313.473 311.78 314.773 313.48 316.773 313.48ZM316.773 314.88C314.093 314.88 311.853 312.88 311.853 308.04V306.84C311.853 301.82 314.253 300.1 316.793 300.1C319.333 300.1 321.613 301.82 321.613 306.76V308.04C321.613 312.88 319.413 314.88 316.773 314.88ZM331.987 308.82L332.187 310.1C329.727 310.64 326.667 310.8 323.627 310.76V300.52H330.507V301.84H325.127V309.36C327.487 309.38 330.047 309.22 331.987 308.82ZM338.927 315.9H337.447V306.1H334.767V315.44H333.267V299.48H334.767V304.74H337.447V299.24H338.927V315.9ZM346.446 306.1C347.126 306.84 347.766 307.38 348.586 307.38C349.466 307.38 350.066 306.52 350.206 305.34L351.306 305.72C351.006 307.74 349.686 308.68 348.546 308.68C347.626 308.68 346.866 308.34 346.106 307.54C345.326 306.7 344.866 306.3 344.046 306.32C343.226 306.32 342.766 307.1 342.426 308.4L341.366 307.98C341.866 305.74 342.946 305 344.246 304.98C345.026 304.96 345.866 305.5 346.446 306.1ZM356.798 314.82C355.258 314.82 353.798 314.34 353.058 313.78L353.498 312.44C354.218 312.94 355.698 313.38 356.638 313.38C358.758 313.38 360.038 312.3 360.038 310.5C360.038 308.74 358.458 307.86 356.678 307.84H355.178V306.36H356.538C358.198 306.38 359.558 305.38 359.558 303.76C359.558 302.02 358.318 301.52 356.798 301.52C355.718 301.52 354.678 301.9 353.838 302.54L353.278 301.28C354.198 300.6 355.758 300.06 357.118 300.06C359.438 300.06 361.218 301.28 361.218 303.52C361.218 305.32 360.158 306.46 358.618 306.98C360.298 307.34 361.698 308.36 361.698 310.52C361.698 313.04 359.658 314.82 356.798 314.82ZM368.415 313.48C370.415 313.48 371.655 311.96 371.655 308.3V306.74C371.655 303.12 370.435 301.52 368.435 301.52C366.435 301.52 365.115 303.06 365.115 306.64V308.22C365.115 311.78 366.415 313.48 368.415 313.48ZM368.415 314.88C365.735 314.88 363.495 312.88 363.495 308.04V306.84C363.495 301.82 365.895 300.1 368.435 300.1C370.975 300.1 373.255 301.82 373.255 306.76V308.04C373.255 312.88 371.055 314.88 368.415 314.88ZM383.63 308.82L383.83 310.1C381.37 310.64 378.31 310.8 375.27 310.76V300.52H382.15V301.84H376.77V309.36C379.13 309.38 381.69 309.22 383.63 308.82ZM390.57 315.9H389.09V306.1H386.41V315.44H384.91V299.48H386.41V304.74H389.09V299.24H390.57V315.9ZM393.708 318.4H392.428C394.268 316.14 395.668 312.9 395.668 309.2V308.62C395.668 305.02 394.268 301.58 392.428 299.32H393.708C395.588 301.48 397.248 304.62 397.248 308.64V309.06C397.248 313.12 395.588 316.24 393.708 318.4Z" fill="white"/>
<path d="M408.453 314.86C406.833 314.86 405.333 314.32 404.473 313.7L405.133 311.78C405.833 312.26 407.093 312.76 408.093 312.76C409.893 312.76 411.053 311.8 411.053 310.04C411.053 308.14 409.753 307.44 407.973 307.44C407.193 307.44 405.733 307.82 405.053 308.22L405.553 300.16H412.853V302.18H407.453L407.253 305.76C407.693 305.6 408.473 305.5 408.993 305.5C411.533 305.5 413.433 306.96 413.433 310.06C413.433 312.76 411.413 314.86 408.453 314.86ZM417.489 309.98H421.129V304.36L417.489 309.98ZM421.089 314.72V311.94H414.889V310.38L421.529 300.08H423.269V309.98H425.309V311.94H423.269V314.72H421.089Z" fill="#ED0080"/>
<path d="M217.263 244.712V243.632L220.287 240.59C221.925 238.916 223.293 237.278 223.293 235.496C223.293 233.804 222.303 233.03 220.737 233.03C219.783 233.03 218.595 233.516 217.911 234.038L217.407 232.652C218.163 232.094 219.621 231.536 221.007 231.536C223.473 231.536 225.075 232.886 225.075 235.28C225.075 237.548 223.671 239.42 221.565 241.436L219.711 243.218H225.129V244.712H217.263ZM230.348 244.838C228.854 244.838 227.576 244.316 226.802 243.74L227.342 242.354C227.99 242.84 229.16 243.308 230.15 243.308C231.896 243.308 233.048 242.282 233.048 240.554C233.048 238.7 231.77 237.98 230.06 237.98C229.34 237.98 228.098 238.304 227.414 238.7L227.846 231.716H234.254V233.21H229.25L228.998 236.846C229.502 236.666 230.204 236.558 230.726 236.558C232.994 236.558 234.758 237.818 234.758 240.572C234.758 242.912 232.976 244.838 230.348 244.838Z" fill="#E9E9E9"/>
<path d="M531.211 244.712V243.632L534.235 240.59C535.873 238.916 537.241 237.278 537.241 235.496C537.241 233.804 536.251 233.03 534.685 233.03C533.731 233.03 532.543 233.516 531.859 234.038L531.355 232.652C532.111 232.094 533.569 231.536 534.955 231.536C537.421 231.536 539.023 232.886 539.023 235.28C539.023 237.548 537.619 239.42 535.513 241.436L533.659 243.218H539.077V244.712H531.211ZM541.982 240.626H545.96V234.578L541.982 240.626ZM545.96 244.73V242.066H540.164V240.86L546.194 231.662H547.49V240.626H549.434V242.066H547.49V244.73H545.96Z" fill="#E9E9E9"/>
<path d="M820.949 244.712V243.632L823.973 240.59C825.611 238.916 826.979 237.278 826.979 235.496C826.979 233.804 825.989 233.03 824.423 233.03C823.469 233.03 822.281 233.516 821.597 234.038L821.093 232.652C821.849 232.094 823.307 231.536 824.693 231.536C827.159 231.536 828.761 232.886 828.761 235.28C828.761 237.548 827.357 239.42 825.251 241.436L823.397 243.218H828.815V244.712H820.949ZM833.602 244.766V233.624L831.478 234.146V233.066L834.376 231.608H835.222V244.766H833.602Z" fill="#878787"/>
<path d="M428.211 71.712V70.632L431.235 67.59C432.873 65.916 434.241 64.278 434.241 62.496C434.241 60.804 433.251 60.03 431.685 60.03C430.731 60.03 429.543 60.516 428.859 61.038L428.355 59.652C429.111 59.094 430.569 58.536 431.955 58.536C434.421 58.536 436.023 59.886 436.023 62.28C436.023 64.548 434.619 66.42 432.513 68.436L430.659 70.218H436.077V71.712H428.211ZM438.982 67.626H442.96V61.578L438.982 67.626ZM442.96 71.73V69.066H437.164V67.86L443.194 58.662H444.49V67.626H446.434V69.066H444.49V71.73H442.96Z" fill="#E9E9E9"/>
<path d="M750.184 71.712V70.632L753.208 67.59C754.846 65.916 756.214 64.278 756.214 62.496C756.214 60.804 755.224 60.03 753.658 60.03C752.704 60.03 751.516 60.516 750.832 61.038L750.328 59.652C751.084 59.094 752.542 58.536 753.928 58.536C756.394 58.536 757.996 59.886 757.996 62.28C757.996 64.548 756.592 66.42 754.486 68.436L752.632 70.218H758.05V71.712H750.184ZM763.705 70.488C765.145 70.488 766.135 69.336 766.135 67.59C766.135 65.79 765.037 64.926 763.705 64.926C762.679 64.926 761.599 65.718 761.131 66.528V66.654C761.131 68.724 761.887 70.488 763.705 70.488ZM763.741 71.874C760.915 71.874 759.457 69.804 759.457 66.024V65.142C759.457 60.606 761.599 58.554 764.335 58.554C765.631 58.554 766.729 58.95 767.449 59.418L766.909 60.714C766.387 60.336 765.361 59.976 764.479 59.976C762.679 59.976 761.275 61.164 761.113 64.836C761.725 64.152 762.841 63.558 764.119 63.558C766.099 63.558 767.827 64.998 767.827 67.482C767.827 69.984 766.261 71.874 763.741 71.874Z" fill="#878787"/>
<path d="M1 99V111H592V99" stroke="#9E9E9E"/>
<path d="M1 272V284H694V272" stroke="#9E9E9E"/>
<path d="M945.14 382.766V371.624L943.016 372.146V371.066L945.914 369.608H946.76V382.766H945.14ZM954.637 381.452C956.365 381.452 957.427 380.084 957.427 376.88V375.62C957.427 372.416 956.383 370.994 954.655 370.994C952.927 370.994 951.811 372.38 951.811 375.53V376.808C951.811 379.958 952.891 381.452 954.637 381.452ZM954.637 382.892C952.171 382.892 950.101 381.092 950.101 376.7V375.71C950.101 371.12 952.315 369.536 954.655 369.536C956.995 369.536 959.137 371.138 959.137 375.638V376.682C959.137 381.128 957.049 382.892 954.637 382.892ZM968.326 377.348L968.506 378.698C966.31 379.148 963.664 379.292 960.892 379.256V369.95H967.12V371.318H962.44V377.852C964.402 377.87 966.706 377.708 968.326 377.348ZM974.716 383.81H973.186V375.08H970.972V383.324H969.388V369.032H970.972V373.712H973.186V368.816H974.716V383.81Z" fill="#9E9E9E"/>
<path d="M1017.94 382.712V381.632L1020.96 378.59C1022.6 376.916 1023.97 375.278 1023.97 373.496C1023.97 371.804 1022.98 371.03 1021.41 371.03C1020.46 371.03 1019.27 371.516 1018.58 372.038L1018.08 370.652C1018.84 370.094 1020.29 369.536 1021.68 369.536C1024.15 369.536 1025.75 370.886 1025.75 373.28C1025.75 375.548 1024.34 377.42 1022.24 379.436L1020.38 381.218H1025.8V382.712H1017.94ZM1031.83 381.452C1033.56 381.452 1034.62 380.084 1034.62 376.88V375.62C1034.62 372.416 1033.58 370.994 1031.85 370.994C1030.12 370.994 1029.01 372.38 1029.01 375.53V376.808C1029.01 379.958 1030.09 381.452 1031.83 381.452ZM1031.83 382.892C1029.37 382.892 1027.3 381.092 1027.3 376.7V375.71C1027.3 371.12 1029.51 369.536 1031.85 369.536C1034.19 369.536 1036.33 371.138 1036.33 375.638V376.682C1036.33 381.128 1034.24 382.892 1031.83 382.892ZM1045.52 377.348L1045.7 378.698C1043.51 379.148 1040.86 379.292 1038.09 379.256V369.95H1044.32V371.318H1039.64V377.852C1041.6 377.87 1043.9 377.708 1045.52 377.348ZM1051.91 383.81H1050.38V375.08H1048.17V383.324H1046.58V369.032H1048.17V373.712H1050.38V368.816H1051.91V383.81Z" fill="#9E9E9E"/>
<path d="M1098.48 382.856C1097.08 382.856 1095.67 382.424 1095.01 381.938L1095.42 380.516C1096.05 380.966 1097.42 381.362 1098.27 381.362C1100.05 381.362 1101.15 380.462 1101.15 378.914C1101.15 377.384 1099.81 376.682 1098.3 376.646H1096.9V375.152H1098.16C1099.6 375.17 1100.77 374.324 1100.77 372.938C1100.77 371.462 1099.71 371.012 1098.39 371.012C1097.46 371.012 1096.48 371.372 1095.75 371.894L1095.24 370.544C1096.05 369.968 1097.53 369.518 1098.77 369.518C1100.88 369.518 1102.5 370.616 1102.5 372.668C1102.5 374.27 1101.6 375.296 1100.23 375.764C1101.72 376.106 1102.93 377.06 1102.93 378.968C1102.93 381.29 1101.07 382.856 1098.48 382.856ZM1109.03 381.452C1110.75 381.452 1111.82 380.084 1111.82 376.88V375.62C1111.82 372.416 1110.77 370.994 1109.04 370.994C1107.32 370.994 1106.2 372.38 1106.2 375.53V376.808C1106.2 379.958 1107.28 381.452 1109.03 381.452ZM1109.03 382.892C1106.56 382.892 1104.49 381.092 1104.49 376.7V375.71C1104.49 371.12 1106.7 369.536 1109.04 369.536C1111.38 369.536 1113.53 371.138 1113.53 375.638V376.682C1113.53 381.128 1111.44 382.892 1109.03 382.892ZM1122.71 377.348L1122.89 378.698C1120.7 379.148 1118.05 379.292 1115.28 379.256V369.95H1121.51V371.318H1116.83V377.852C1118.79 377.87 1121.09 377.708 1122.71 377.348ZM1129.1 383.81H1127.57V375.08H1125.36V383.324H1123.78V369.032H1125.36V373.712H1127.57V368.816H1129.1V383.81Z" fill="#9E9E9E"/>
<path d="M1173.61 378.626H1177.59V372.578L1173.61 378.626ZM1177.59 382.73V380.066H1171.79V378.86L1177.82 369.662H1179.12V378.626H1181.06V380.066H1179.12V382.73H1177.59ZM1186.47 381.452C1188.19 381.452 1189.26 380.084 1189.26 376.88V375.62C1189.26 372.416 1188.21 370.994 1186.48 370.994C1184.76 370.994 1183.64 372.38 1183.64 375.53V376.808C1183.64 379.958 1184.72 381.452 1186.47 381.452ZM1186.47 382.892C1184 382.892 1181.93 381.092 1181.93 376.7V375.71C1181.93 371.12 1184.14 369.536 1186.48 369.536C1188.82 369.536 1190.97 371.138 1190.97 375.638V376.682C1190.97 381.128 1188.88 382.892 1186.47 382.892ZM1200.15 377.348L1200.33 378.698C1198.14 379.148 1195.49 379.292 1192.72 379.256V369.95H1198.95V371.318H1194.27V377.852C1196.23 377.87 1198.53 377.708 1200.15 377.348ZM1206.54 383.81H1205.01V375.08H1202.8V383.324H1201.22V369.032H1202.8V373.712H1205.01V368.816H1206.54V383.81Z" fill="#9E9E9E"/>
<path d="M1253.57 382.838C1252.08 382.838 1250.8 382.316 1250.03 381.74L1250.57 380.354C1251.21 380.84 1252.38 381.308 1253.37 381.308C1255.12 381.308 1256.27 380.282 1256.27 378.554C1256.27 376.7 1254.99 375.98 1253.28 375.98C1252.56 375.98 1251.32 376.304 1250.64 376.7L1251.07 369.716H1257.48V371.21H1252.47L1252.22 374.846C1252.73 374.666 1253.43 374.558 1253.95 374.558C1256.22 374.558 1257.98 375.818 1257.98 378.572C1257.98 380.912 1256.2 382.838 1253.57 382.838ZM1264.01 381.452C1265.74 381.452 1266.8 380.084 1266.8 376.88V375.62C1266.8 372.416 1265.75 370.994 1264.03 370.994C1262.3 370.994 1261.18 372.38 1261.18 375.53V376.808C1261.18 379.958 1262.26 381.452 1264.01 381.452ZM1264.01 382.892C1261.54 382.892 1259.47 381.092 1259.47 376.7V375.71C1259.47 371.12 1261.69 369.536 1264.03 369.536C1266.37 369.536 1268.51 371.138 1268.51 375.638V376.682C1268.51 381.128 1266.42 382.892 1264.01 382.892ZM1277.7 377.348L1277.88 378.698C1275.68 379.148 1273.03 379.292 1270.26 379.256V369.95H1276.49V371.318H1271.81V377.852C1273.77 377.87 1276.08 377.708 1277.7 377.348ZM1284.09 383.81H1282.56V375.08H1280.34V383.324H1278.76V369.032H1280.34V373.712H1282.56V368.816H1284.09V383.81Z" fill="#9E9E9E"/>
<rect x="920" y="369" width="12" height="18" rx="6" fill="#73244F"/>
<rect x="996" y="369" width="12" height="18" rx="6" fill="#975177"/>
<rect x="1073" y="369" width="12" height="18" rx="6" fill="#C98AAC"/>
<rect x="1150" y="369" width="12" height="18" rx="6" fill="#D5CFCF"/>
<rect x="1228" y="369" width="12" height="18" rx="6" fill="#F0F0F0"/>
<circle cx="644" cy="485" r="3" fill="#555555"/>
<circle cx="644" cy="463" r="3" fill="#555555"/>
<circle cx="644" cy="441" r="3" fill="#555555"/>
</svg>
