<svg width="325" height="94" viewBox="0 0 325 94" fill="none" xmlns="http://www.w3.org/2000/svg">
<g clip-path="url(#clip0_91_127)">
<g filter="url(#filter0_d_91_127)">
<rect x="4" y="3" width="81.0607" height="81.0607" rx="20" fill="white"/>
</g>
<path d="M54.2597 33.686C54.2597 33.4694 54.4788 33.2529 54.4788 32.8198V31.9537V24.3752C54.4788 18.3125 49.6599 13.5488 43.5269 13.5488C37.3938 13.5488 32.5749 18.3125 32.5749 24.3752V32.1703H24.6895C18.5564 32.1703 13.7375 36.9339 13.7375 42.9967C13.7375 49.0595 18.5564 53.8231 24.6895 53.8231H32.5749H33.451C33.6701 53.8231 33.8891 53.8231 34.3272 53.8231C34.1082 42.5636 43.0888 33.686 54.2597 33.686Z" fill="#764CCB"/>
<path d="M63.678 33.6855H55.7926H54.2594C53.8213 44.512 45.0597 53.3896 34.1078 53.6061V55.1218V62.9169C34.1078 68.9797 38.9266 73.7433 45.0597 73.7433C51.1928 73.7433 56.0117 68.9797 56.0117 62.9169V55.1218H63.8971C70.0301 55.1218 74.849 50.3582 74.849 44.2954C74.63 38.4492 69.8111 33.6855 63.678 33.6855Z" fill="#ED0080"/>
<path d="M54.2594 33.6855C43.0884 33.6855 34.1078 42.5632 34.1078 53.6061C45.0597 53.1731 53.8213 44.512 54.2594 33.6855Z" fill="#6E0066"/>
<path d="M113 31.7266H118.412V41.842L127.956 31.7266H135.04L124.118 43.0092L135.925 56.0425H128.349L118.412 44.4681V56.0425H113V31.7266Z" fill="white"/>
<path d="M158.162 54.2914C155.013 55.9449 151.471 56.6257 147.831 56.6257C140.156 56.6257 134.548 51.6653 134.548 43.8841C134.548 36.103 140.255 31.1426 147.929 31.1426C151.766 31.1426 155.21 32.018 157.67 34.255L153.833 38.3401C152.357 36.7839 150.586 36.0058 147.831 36.0058C143.206 36.0058 140.255 39.3127 140.255 43.7869C140.255 48.261 143.305 51.568 147.831 51.568C150.192 51.568 151.963 50.8872 152.947 50.4008V46.413H148.519V41.4526H158.26L158.162 54.2914Z" fill="white"/>
<path d="M208.342 60.3217H170.461V55.8475H186.499V47.2883H180.398C177.643 47.2883 175.872 45.4403 175.872 42.8142V26.7656H202.832V47.2883H192.796V55.8475H208.342V60.3217V60.3217ZM196.731 42.8142V31.2398H181.874V41.4525C181.874 42.2306 182.366 42.8142 183.252 42.8142H196.731Z" fill="white"/>
<path d="M229.889 27.0582V54.5838H215.032C212.277 54.5838 210.506 52.7358 210.506 50.1097V27.0582H216.508V36.7846H223.887V27.0582H229.889V27.0582ZM223.887 50.1097V41.2587H216.508V48.748C216.508 49.5261 217 50.1097 217.885 50.1097H223.887V50.1097ZM241.991 38.7298H247.501V43.4958H241.991V65.2829H235.99V25.0156H241.991V38.7298Z" fill="white"/>
<path d="M272.099 34.9354C272.099 29.4886 267.475 25.209 260.784 25.209C254.094 25.209 249.568 29.3913 249.568 34.9354C249.568 40.4794 254.094 44.6618 260.784 44.6618C267.475 44.6618 272.099 40.4794 272.099 34.9354ZM255.668 34.9354C255.668 32.0175 257.636 29.5859 260.883 29.5859C264.129 29.5859 266.196 32.0175 266.196 34.9354C266.196 37.8533 264.129 40.2849 260.883 40.2849C257.537 40.2849 255.668 37.8533 255.668 34.9354Z" fill="white"/>
<path d="M263.736 61.3927C263.244 61.3927 263.047 61.1982 263.047 60.7119V58.5721H283.513V47.3867H257.045V51.7636H277.511V54.1952H257.045V62.0736C257.045 64.2134 258.521 65.6723 260.686 65.6723H284.3V61.2955H263.736V61.3927Z" fill="white"/>
<path d="M283.611 27.9331C283.611 26.2797 282.234 24.918 280.561 24.918C278.888 24.918 277.511 26.2797 277.511 27.9331C277.511 28.0304 277.511 28.1277 277.511 28.2249V45.927H283.513V27.9331H283.611Z" fill="white"/>
<path d="M311.751 31.0455C311.751 30.9483 311.85 30.851 311.85 30.6565V30.2674V26.8632C311.85 24.1398 309.685 22 306.93 22C304.175 22 302.011 24.1398 302.011 26.8632V30.3647H298.468C295.713 30.3647 293.549 32.5045 293.549 35.2279C293.549 37.9513 295.713 40.0911 298.468 40.0911H302.011H302.404C302.502 40.0911 302.601 40.0911 302.798 40.0911C302.699 35.0334 306.733 31.0455 311.751 31.0455Z" fill="white" fill-opacity="0.5"/>
<path d="M315.982 31.0449H312.44H311.751C311.554 35.9081 307.619 39.8959 302.699 39.9932V40.674V44.1755C302.699 46.8989 304.864 49.0387 307.619 49.0387C310.374 49.0387 312.538 46.8989 312.538 44.1755V40.674H316.08C318.835 40.674 321 38.5342 321 35.8109C320.902 33.1847 318.737 31.0449 315.982 31.0449Z" fill="white" fill-opacity="0.5"/>
<path d="M311.751 31.0449C306.733 31.0449 302.699 35.0327 302.699 39.9932C307.619 39.7987 311.554 35.9081 311.751 31.0449Z" fill="white"/>
</g>
<defs>
<filter id="filter0_d_91_127" x="-4" y="-5" width="101.061" height="101.061" filterUnits="userSpaceOnUse" color-interpolation-filters="sRGB">
<feFlood flood-opacity="0" result="BackgroundImageFix"/>
<feColorMatrix in="SourceAlpha" type="matrix" values="0 0 0 0 0 0 0 0 0 0 0 0 0 0 0 0 0 0 127 0" result="hardAlpha"/>
<feOffset dx="2" dy="2"/>
<feGaussianBlur stdDeviation="5"/>
<feComposite in2="hardAlpha" operator="out"/>
<feColorMatrix type="matrix" values="0 0 0 0 0 0 0 0 0 0 0 0 0 0 0 0 0 0 0.2 0"/>
<feBlend mode="normal" in2="BackgroundImageFix" result="effect1_dropShadow_91_127"/>
<feBlend mode="normal" in="SourceGraphic" in2="effect1_dropShadow_91_127" result="shape"/>
</filter>
<clipPath id="clip0_91_127">
<rect width="325" height="94" fill="white"/>
</clipPath>
</defs>
</svg>
