<svg width="27" height="1154" viewBox="0 0 27 1154" fill="none" xmlns="http://www.w3.org/2000/svg">
<path fill-rule="evenodd" clip-rule="evenodd" d="M14 11.9795C17.0798 11.7254 19.5 9.14533 19.5 6C19.5 2.68629 16.8137 0 13.5 0C10.1863 0 7.5 2.68629 7.5 6C7.5 9.14533 9.92024 11.7254 13 11.9795L13 995.021C9.92026 995.275 7.5 997.855 7.5 1001C7.5 1004.31 10.1863 1007 13.5 1007C16.8137 1007 19.5 1004.31 19.5 1001C19.5 997.855 17.0798 995.275 14 995.021L14 11.9795Z" fill="#ED0080"/>
<path d="M16.822 1149.81L16.822 1147.88C16.822 1145.72 15.094 1144.25 12.052 1144.25L11.728 1144.25C8.668 1144.25 7.516 1145.83 7.516 1148.04L7.516 1149.81L16.822 1149.81ZM18.73 1152.08L5.59 1152.08L5.59 1147.92C5.59 1144.19 7.408 1141.98 11.728 1141.98L12.07 1141.98C16.174 1141.98 18.73 1144.19 18.73 1147.94L18.73 1152.08ZM18.73 1140.38L5.59 1140.38L5.59 1132.42L7.624 1132.42L7.624 1138.13L10.864 1138.13L10.864 1133.03L12.826 1133.03L12.826 1138.13L16.714 1138.13L16.714 1132.31L18.73 1132.31L18.73 1140.38ZM7.678 1124.77L18.748 1124.77L18.748 1127.07L7.678 1127.07L7.678 1130.92L5.608 1130.92L5.608 1120.9L7.678 1120.9L7.678 1124.77ZM8.56 1115.95L13.564 1117.62L13.564 1114.28L8.56 1115.95ZM18.73 1121.84L5.59 1116.98L5.59 1114.71L18.73 1109.92L18.73 1112.49L15.508 1113.61L15.508 1118.29L18.73 1119.35L18.73 1121.84ZM18.73 1108.88L5.59 1108.88L5.59 1106.58L18.73 1106.58L18.73 1108.88ZM18.73 1104.45L5.59 1104.45L5.59 1102.18L16.714 1102.18L16.714 1096.04L18.73 1096.04L18.73 1104.45ZM16.822 1087.43L16.822 1085.5C16.822 1083.34 15.094 1081.87 12.052 1081.87L11.728 1081.87C8.668 1081.87 7.516 1083.45 7.516 1085.66L7.516 1087.43L16.822 1087.43ZM18.73 1089.7L5.59 1089.7L5.59 1085.54C5.59 1081.81 7.408 1079.6 11.728 1079.6L12.07 1079.6C16.174 1079.6 18.73 1081.81 18.73 1085.56L18.73 1089.7ZM18.73 1078L5.59 1078L5.59 1070.04L7.624 1070.04L7.624 1075.75L10.864 1075.75L10.864 1070.65L12.826 1070.65L12.826 1075.75L16.714 1075.75L16.714 1069.93L18.73 1069.93L18.73 1078ZM18.964 1064.15C18.964 1065.86 18.334 1067.66 17.812 1068.58L15.688 1067.95C16.246 1067.08 16.84 1065.54 16.84 1064.29C16.84 1062.62 16.084 1061.68 15.04 1061.68C13.996 1061.68 13.528 1062.28 13.186 1063.75L12.808 1065.21C12.412 1066.94 11.314 1068.38 9.136 1068.38C7.084 1068.38 5.446 1066.72 5.446 1063.81C5.446 1062.06 6.00399 1060.5 6.508 1059.78L8.48799 1060.46C8.002 1061.2 7.48 1062.37 7.48 1063.77C7.48 1065.14 8.074 1066.04 8.992 1066.04C9.928 1066.04 10.504 1065.52 10.81 1064.22L11.116 1062.84C11.638 1060.75 12.574 1059.36 14.806 1059.36C17.218 1059.36 18.964 1061.23 18.964 1064.15ZM18.73 1057.8L5.58999 1057.8L5.58999 1055.49L18.73 1055.49L18.73 1057.8ZM18.928 1047.67C18.928 1051.09 16.462 1053.72 12.268 1053.72L11.872 1053.72C7.444 1053.72 5.39199 1050.73 5.39199 1047.49C5.39199 1046.04 5.82399 1044.49 6.41799 1043.66L8.36199 1044.42C7.78599 1045.17 7.46199 1046.25 7.46199 1047.4C7.46199 1049.33 8.88399 1051.36 11.764 1051.36L12.232 1051.36C14.68 1051.36 16.768 1049.85 16.768 1047.44C16.768 1046.56 16.498 1045.71 16.192 1045.32L13.33 1045.32L13.33 1047.53L11.548 1047.53L11.548 1043.14L17.362 1043.14C18.28 1043.91 18.928 1045.69 18.928 1047.67ZM18.73 1041.21L5.58999 1041.21L5.58999 1038.45L15.058 1033.45L5.58999 1033.45L5.58999 1031.22L18.73 1031.22L18.73 1033.86L9.04599 1038.99L18.73 1038.99L18.73 1041.21Z" fill="#CCCCCC"/>
</svg>
