<svg width="360" height="650" viewBox="0 0 360 650" fill="none" xmlns="http://www.w3.org/2000/svg">
<path d="M58.9007 114.093H48.5537V113.012H53.0744V111.426H54.3941V113.012H58.9007V114.093ZM48.0062 121.324H53.0744V119.66C52.3396 119.613 51.7055 119.489 51.172 119.288C50.6432 119.082 50.2384 118.806 49.9576 118.459C49.6768 118.113 49.5365 117.711 49.5365 117.252C49.5365 116.751 49.7049 116.321 50.0419 115.96C50.3788 115.6 50.8632 115.326 51.4949 115.139C52.1267 114.947 52.8731 114.851 53.7342 114.851C54.5859 114.851 55.3253 114.947 55.9524 115.139C56.5842 115.326 57.0686 115.6 57.4055 115.96C57.7471 116.321 57.9179 116.751 57.9179 117.252C57.9179 117.711 57.7752 118.113 57.4897 118.459C57.209 118.806 56.8042 119.082 56.2753 119.288C55.7465 119.489 55.1194 119.613 54.3941 119.66V121.324H59.5184V122.405H48.0062V121.324ZM50.8983 117.252C50.8936 117.687 51.1369 118.022 51.6283 118.256C52.1244 118.49 52.8263 118.609 53.7342 118.614C54.6281 118.609 55.323 118.49 55.8191 118.256C56.3151 118.022 56.5608 117.687 56.5561 117.252C56.5608 116.822 56.3151 116.489 55.8191 116.255C55.323 116.021 54.6281 115.904 53.7342 115.904C52.831 115.904 52.1314 116.021 51.6353 116.255C51.1393 116.489 50.8936 116.822 50.8983 117.252Z" fill="#555555"/>
<path d="M46.6078 120.552H45.2741V115.807H42.5224V118.46H36.7241V112.086H38.0579V114.22H41.2027V112.086H42.5224V114.726H45.2741V111.258H46.6078V120.552ZM41.2027 117.379V115.245H38.0579V117.379H41.2027ZM38.3948 119.639H39.7426V122.475H46.8886V123.556H38.3948V119.639Z" fill="#555555"/>
<path d="M34.6239 112.872H32.7987V115.512H34.5677V116.565H30.6226V117.983H35.7049V119.05H24.2347V117.983H29.3029V116.565H25.3438V115.512H27.1268V112.872H25.2877V111.777H34.6239V112.872ZM25.6808 120.061H27.0286V122.475H34.4133V123.556H25.6808V120.061ZM31.465 115.512V112.872H28.4465V115.512H31.465Z" fill="#555555"/>
<path d="M23.1453 123.822H21.8677V117.322H20.2391V123.177H19.0177V111.496H20.2391V116.227H21.8677V111.243H23.1453V123.822ZM12.7702 112.759H17.4874V113.84H14.1039V119.667C14.9229 119.662 15.6413 119.636 16.259 119.59C16.8814 119.543 17.5155 119.456 18.1613 119.33L18.2596 120.425C17.5576 120.57 16.865 120.668 16.1818 120.72C15.5032 120.767 14.6468 120.795 13.6126 120.804H12.7702V112.759Z" fill="#555555"/>
<path d="M11.2877 113.658H1.05297V112.591H5.53152V111.188H6.85122V112.591H11.2877V113.658ZM0.463318 119.288H11.9756V120.369H9.06944V123.837H7.72166V120.369H4.68916V123.837H3.35542V120.369H0.463318V119.288ZM2.00765 116.41C2.00765 115.961 2.17144 115.579 2.49902 115.266C2.83129 114.952 3.31097 114.714 3.93806 114.55C4.56983 114.386 5.32093 114.304 6.19137 114.304C7.06181 114.304 7.81058 114.386 8.43767 114.55C9.06476 114.714 9.54444 114.952 9.8767 115.266C10.209 115.579 10.3751 115.961 10.3751 116.41C10.3751 116.855 10.209 117.236 9.8767 117.554C9.54444 117.868 9.06476 118.107 8.43767 118.27C7.81058 118.434 7.06181 118.516 6.19137 118.516C5.32093 118.516 4.57217 118.434 3.94508 118.27C3.31799 118.107 2.83831 117.868 2.50604 117.554C2.17378 117.236 2.00765 116.855 2.00765 116.41ZM3.3835 116.41C3.3835 116.756 3.61983 117.023 4.09249 117.21C4.56983 117.398 5.25308 117.491 6.14224 117.491C7.06415 117.491 7.76846 117.4 8.25516 117.217C8.74654 117.03 8.99456 116.761 8.99924 116.41C8.99456 116.059 8.75122 115.79 8.2692 115.603C7.78718 115.416 7.09457 115.32 6.19137 115.315C5.2835 115.32 4.58855 115.416 4.10653 115.603C3.62451 115.79 3.3835 116.059 3.3835 116.41Z" fill="#555555"/>
<path d="M0 142.397C0 138.427 3.21824 135.209 7.18815 135.209H352.219C356.189 135.209 359.407 138.427 359.407 142.397V177.439C359.407 181.409 356.189 184.628 352.219 184.628H7.18814C3.21824 184.628 0 181.409 0 177.439V142.397Z" fill="white"/>
<path fill-rule="evenodd" clip-rule="evenodd" d="M352.219 136.108H7.18815C3.71448 136.108 0.898519 138.923 0.898519 142.397V177.439C0.898519 180.913 3.71448 183.729 7.18814 183.729H352.219C355.693 183.729 358.509 180.913 358.509 177.439V142.397C358.509 138.923 355.693 136.108 352.219 136.108ZM7.18815 135.209C3.21824 135.209 0 138.427 0 142.397V177.439C0 181.409 3.21824 184.628 7.18814 184.628H352.219C356.189 184.628 359.407 181.409 359.407 177.439V142.397C359.407 138.427 356.189 135.209 352.219 135.209H7.18815Z" fill="#555555"/>
<path d="M105.293 165.916C104.519 165.916 103.806 165.745 103.153 165.403C102.5 165.055 101.966 164.473 101.55 163.657C101.139 162.836 100.934 161.757 100.934 160.42C100.934 159.109 101.116 157.985 101.479 157.047C101.842 156.105 102.358 155.389 103.027 154.899C103.701 154.41 104.493 154.165 105.404 154.165C106.094 154.165 106.712 154.299 107.26 154.568C107.807 154.831 108.252 155.2 108.594 155.673C108.937 156.147 109.152 156.687 109.242 157.292H107.52C107.399 156.808 107.154 156.421 106.786 156.131C106.423 155.837 105.962 155.687 105.404 155.681C104.82 155.681 104.317 155.847 103.896 156.179C103.48 156.505 103.161 156.976 102.94 157.592C102.719 158.208 102.608 158.945 102.608 159.804H102.735C103.045 159.319 103.456 158.943 103.967 158.674C104.483 158.401 105.051 158.261 105.672 158.256C106.346 158.256 106.965 158.419 107.528 158.745C108.092 159.067 108.536 159.514 108.863 160.088C109.189 160.656 109.353 161.299 109.353 162.015C109.353 162.747 109.181 163.41 108.839 164.005C108.502 164.6 108.026 165.068 107.41 165.411C106.794 165.748 106.088 165.916 105.293 165.916ZM102.814 162.062C102.814 162.483 102.919 162.878 103.13 163.247C103.345 163.615 103.638 163.91 104.006 164.131C104.375 164.352 104.788 164.463 105.246 164.463C105.699 164.463 106.109 164.355 106.478 164.139C106.846 163.918 107.136 163.626 107.347 163.263C107.557 162.894 107.663 162.489 107.663 162.046C107.663 161.615 107.56 161.217 107.355 160.854C107.149 160.491 106.865 160.204 106.502 159.993C106.144 159.783 105.741 159.677 105.293 159.677C104.841 159.677 104.425 159.788 104.046 160.009C103.667 160.225 103.366 160.517 103.145 160.886C102.93 161.249 102.819 161.641 102.814 162.062Z" fill="#333333"/>
<path d="M95.74 165.916C95.0292 165.916 94.3843 165.782 93.8052 165.513C93.226 165.245 92.7654 164.871 92.4232 164.392C92.081 163.913 91.8967 163.373 91.8704 162.773H93.5603C93.5919 163.094 93.7078 163.384 93.9078 163.642C94.1079 163.895 94.3685 164.095 94.6896 164.242C95.0108 164.389 95.3609 164.463 95.74 164.463C96.198 164.463 96.606 164.361 96.964 164.155C97.3273 163.95 97.6116 163.668 97.8169 163.31C98.0222 162.947 98.1249 162.542 98.1249 162.094C98.1249 161.636 98.0196 161.225 97.809 160.862C97.5984 160.494 97.3062 160.207 96.9324 160.001C96.5586 159.791 96.1348 159.683 95.661 159.677C94.6923 159.677 94.0236 160.014 93.6551 160.688H92.0125L92.7548 154.323H99.2305V155.808H94.1921L93.8131 159.014H93.9236C94.1658 158.782 94.4764 158.598 94.8555 158.461C95.2398 158.319 95.6452 158.245 96.0716 158.24C96.7824 158.24 97.422 158.406 97.9906 158.738C98.5592 159.064 99.0041 159.517 99.3253 160.096C99.6517 160.67 99.8149 161.32 99.8149 162.047C99.8149 162.789 99.6411 163.455 99.2937 164.045C98.9462 164.629 98.4618 165.087 97.8406 165.419C97.2246 165.75 96.5244 165.916 95.74 165.916Z" fill="#333333"/>
<path d="M90.372 160.768H85.3021V159.314H90.372V160.768Z" fill="#333333"/>
<path d="M75.3221 162.126L80.3763 154.323H82.5243V162.062H84.088V163.531H82.5243V165.758H80.8817V163.531H75.3221V162.126ZM80.8817 162.062V156.392H80.7554L77.1543 161.968V162.062H80.8817Z" fill="#333333"/>
<path d="M70.0806 165.916C69.3014 165.916 68.6012 165.784 67.98 165.521C67.364 165.258 66.877 164.889 66.519 164.416C66.1663 163.936 65.9794 163.389 65.9583 162.773H67.7273C67.7483 163.099 67.8615 163.389 68.0668 163.642C68.2774 163.889 68.5565 164.081 68.9039 164.218C69.2514 164.35 69.6384 164.416 70.0648 164.416C70.5229 164.416 70.9309 164.339 71.2889 164.187C71.6521 164.029 71.9364 163.807 72.1418 163.523C72.3471 163.239 72.4498 162.915 72.4498 162.552C72.4498 162.173 72.3471 161.838 72.1418 161.549C71.9417 161.254 71.6469 161.025 71.2573 160.862C70.8677 160.693 70.407 160.609 69.8753 160.609H68.896V159.188H69.8753C70.307 159.188 70.6887 159.114 71.0204 158.966C71.3573 158.814 71.6179 158.601 71.8022 158.327C71.9917 158.053 72.0865 157.735 72.0865 157.371C72.0865 157.024 72.0049 156.718 71.8417 156.455C71.6785 156.192 71.4468 155.987 71.1467 155.839C70.8466 155.692 70.4965 155.618 70.0964 155.618C69.7121 155.618 69.3514 155.687 69.0145 155.823C68.6828 155.96 68.4143 156.158 68.209 156.416C68.0037 156.668 67.8957 156.961 67.8852 157.292H66.211C66.2268 156.687 66.4084 156.147 66.7559 155.673C67.1087 155.194 67.5799 154.823 68.1695 154.56C68.7592 154.297 69.4067 154.165 70.1122 154.165C70.844 154.165 71.4863 154.305 72.0391 154.584C72.5919 154.863 73.0184 155.242 73.3184 155.721C73.6185 156.195 73.7659 156.713 73.7607 157.277C73.7659 157.919 73.5869 158.464 73.2237 158.911C72.8604 159.359 72.3655 159.661 71.739 159.819V159.898C72.255 159.972 72.6972 160.133 73.0657 160.38C73.4395 160.622 73.7212 160.936 73.9107 161.32C74.1055 161.704 74.2029 162.136 74.2029 162.615C74.2029 163.241 74.0239 163.807 73.6659 164.313C73.3132 164.813 72.8209 165.205 72.1892 165.49C71.5626 165.774 70.8598 165.916 70.0806 165.916Z" fill="#333333"/>
<path d="M56.9419 164.494L60.9063 160.499C61.3854 160.004 61.7513 159.604 62.004 159.298C62.2567 158.988 62.4488 158.687 62.5805 158.398C62.7173 158.103 62.7858 157.792 62.7858 157.466C62.7858 157.098 62.6936 156.774 62.5094 156.495C62.3251 156.216 62.0724 156 61.7513 155.847C61.4301 155.694 61.0695 155.618 60.6693 155.618C60.2482 155.618 59.8796 155.702 59.5637 155.871C59.2531 156.039 59.0109 156.276 58.8372 156.582C58.6687 156.882 58.5845 157.234 58.5845 157.64H56.9419C56.9366 156.955 57.0946 156.35 57.4157 155.823C57.7369 155.297 58.1844 154.889 58.7582 154.599C59.3321 154.31 59.9797 154.165 60.7009 154.165C61.4222 154.165 62.0645 154.307 62.6278 154.591C63.1964 154.871 63.6387 155.257 63.9546 155.752C64.2757 156.247 64.4389 156.803 64.4442 157.419C64.4389 157.856 64.3547 158.277 64.1915 158.682C64.0283 159.082 63.7492 159.53 63.3544 160.025C62.9595 160.514 62.4015 161.115 61.6802 161.825L59.3584 164.179V164.273H64.6337V165.758H56.9419V164.494Z" fill="#333333"/>
<path d="M54.5748 165.758H52.8216V156.061H52.7585L50.0261 157.845V156.187L52.869 154.323H54.5748V165.758Z" fill="#333333"/>
<path d="M48.7489 160.768H43.6789V159.314H48.7489V160.768Z" fill="#333333"/>
<path d="M38.2162 165.916C37.337 165.916 36.5815 165.687 35.9497 165.229C35.3232 164.766 34.8441 164.094 34.5124 163.215C34.1807 162.336 34.0149 161.278 34.0149 160.041C34.0149 158.809 34.1807 157.753 34.5124 156.874C34.8494 155.995 35.3311 155.323 35.9576 154.86C36.5894 154.397 37.3422 154.165 38.2162 154.165C39.0849 154.165 39.8324 154.397 40.459 154.86C41.0907 155.323 41.5751 155.995 41.912 156.874C42.249 157.753 42.4174 158.809 42.4174 160.041C42.4174 161.278 42.249 162.339 41.912 163.223C41.5803 164.102 41.1013 164.771 40.4747 165.229C39.8482 165.687 39.0954 165.916 38.2162 165.916ZM35.7523 160.08C35.7523 161.012 35.8497 161.802 36.0445 162.449C36.2393 163.097 36.5209 163.586 36.8894 163.918C37.258 164.25 37.7002 164.416 38.2162 164.416C38.7321 164.416 39.1744 164.25 39.5429 163.918C39.9114 163.581 40.1931 163.086 40.3879 162.433C40.5827 161.781 40.6801 160.983 40.6801 160.041C40.6801 159.103 40.58 158.306 40.38 157.648C40.1852 156.99 39.9035 156.492 39.535 156.155C39.1665 155.813 38.7268 155.639 38.2162 155.634C37.7002 155.634 37.258 155.808 36.8894 156.155C36.5209 156.497 36.2393 157.003 36.0445 157.671C35.8497 158.335 35.7523 159.138 35.7523 160.08Z" fill="#333333"/>
<path d="M31.869 165.758H30.1158V156.061H30.0527L27.3203 157.845V156.187L30.1632 154.323H31.869V165.758Z" fill="#333333"/>
<path d="M22.0628 165.916C21.1836 165.916 20.4281 165.687 19.7964 165.229C19.1699 164.766 18.6908 164.094 18.3591 163.215C18.0274 162.336 17.8616 161.278 17.8616 160.041C17.8616 158.809 18.0274 157.753 18.3591 156.874C18.696 155.995 19.1778 155.323 19.8043 154.86C20.436 154.397 21.1889 154.165 22.0628 154.165C22.9315 154.165 23.6791 154.397 24.3056 154.86C24.9374 155.323 25.4218 155.995 25.7587 156.874C26.0957 157.753 26.2641 158.809 26.2641 160.041C26.2641 161.278 26.0957 162.339 25.7587 163.223C25.427 164.102 24.9479 164.771 24.3214 165.229C23.6949 165.687 22.9421 165.916 22.0628 165.916ZM19.5989 160.08C19.5989 161.012 19.6963 161.802 19.8911 162.449C20.0859 163.097 20.3676 163.586 20.7361 163.918C21.1047 164.25 21.5469 164.416 22.0628 164.416C22.5788 164.416 23.021 164.25 23.3896 163.918C23.7581 163.581 24.0398 163.086 24.2346 162.433C24.4294 161.781 24.5268 160.983 24.5268 160.041C24.5268 159.103 24.4267 158.306 24.2267 157.648C24.0319 156.99 23.7502 156.492 23.3817 156.155C23.0131 155.813 22.5735 155.639 22.0628 155.634C21.5469 155.634 21.1047 155.808 20.7361 156.155C20.3676 156.497 20.0859 157.003 19.8911 157.671C19.6963 158.335 19.5989 159.138 19.5989 160.08Z" fill="#333333"/>
<path fill-rule="evenodd" clip-rule="evenodd" d="M109.619 168.454V152.28H110.518V168.454H109.619Z" fill="black"/>
<path d="M340.539 160.367C340.539 165.329 336.516 169.352 331.553 169.352C326.591 169.352 322.568 165.329 322.568 160.367C322.568 155.405 326.591 151.382 331.553 151.382C336.516 151.382 340.539 155.405 340.539 160.367Z" fill="#DADADA"/>
<g clip-path="url(#clip0_142_438)">
<path d="M334.815 158.193C334.977 158.031 335.058 157.834 335.058 157.609C335.058 157.384 334.977 157.187 334.815 157.025C334.644 156.854 334.447 156.773 334.222 156.773C333.997 156.773 333.8 156.854 333.647 157.007L330.601 160.053L328.202 162.452C328.031 162.614 327.959 162.811 327.959 163.036C327.959 163.261 328.04 163.458 328.202 163.62C328.364 163.782 328.561 163.872 328.795 163.872C329.02 163.872 329.217 163.791 329.37 163.638L332.416 160.592L334.815 158.193Z" fill="white"/>
<path d="M329.379 157.016C329.208 156.845 329.011 156.773 328.795 156.773C328.57 156.773 328.373 156.854 328.211 157.016C328.04 157.178 327.959 157.375 327.959 157.609C327.959 157.834 328.04 158.031 328.193 158.184L331.239 161.23L333.638 163.629C333.8 163.791 333.997 163.872 334.222 163.872C334.447 163.872 334.644 163.791 334.806 163.629C334.968 163.467 335.058 163.27 335.058 163.036C335.058 162.811 334.977 162.614 334.824 162.461L331.778 159.415L329.379 157.016Z" fill="white"/>
</g>
<path d="M23.8473 6.8664H12.335V7.93339H23.8473V6.8664ZM13.7811 1.75608H21.0675V2.82307H13.8092V5.91172H22.6539V4.88685H15.1289V3.80582H22.4012V0.703125H13.7811V1.75608ZM13.8653 12.8472H22.4153V8.95826H13.8653V12.8472ZM15.185 11.7661V10.0253H21.0956V11.7661H15.185Z" fill="#555555"/>
<path d="M10.8805 0.421875H9.5468V13.0292H10.8805V0.421875ZM0.89856 5.77087C0.89856 8.48748 2.25336 10.2003 4.15569 10.1933C6.02292 10.2003 7.39878 8.48748 7.39878 5.77087C7.39878 3.08233 6.02292 1.36953 4.15569 1.36251C2.25336 1.36953 0.89856 3.08233 0.89856 5.77087ZM2.19018 5.77087C2.18316 3.79834 2.9834 2.56288 4.15569 2.55586C5.30692 2.56288 6.10716 3.79834 6.10716 5.77087C6.10716 7.77148 5.30692 8.99992 4.15569 8.99992C2.9834 8.99992 2.18316 7.77148 2.19018 5.77087Z" fill="#555555"/>
<path d="M0 31.5749C0 27.605 3.21824 24.3867 7.18815 24.3867H352.219C356.189 24.3867 359.407 27.605 359.407 31.5749V66.6171C359.407 70.587 356.189 73.8052 352.219 73.8052H7.18814C3.21824 73.8052 0 70.587 0 66.6171V31.5749Z" fill="white"/>
<path fill-rule="evenodd" clip-rule="evenodd" d="M352.219 25.2852H7.18815C3.71448 25.2852 0.898519 28.1012 0.898519 31.5749V66.6171C0.898519 70.0908 3.71448 72.9067 7.18814 72.9067H352.219C355.693 72.9067 358.509 70.0908 358.509 66.6171V31.5749C358.509 28.1012 355.693 25.2852 352.219 25.2852ZM7.18815 24.3867C3.21824 24.3867 0 27.605 0 31.5749V66.6171C0 70.587 3.21824 73.8052 7.18814 73.8052H352.219C356.189 73.8052 359.407 70.587 359.407 66.6171V31.5749C359.407 27.605 356.189 24.3867 352.219 24.3867H7.18815Z" fill="#DADADA"/>
<path d="M30.7286 7.14252L30.8339 4.52769L28.6227 5.93163L27.9559 4.77338L30.2899 3.58003L27.9559 2.36914L28.6227 1.21089L30.8339 2.61483L30.7286 0H32.0624L31.9395 2.61483L34.1507 1.21089L34.8352 2.36914L32.5011 3.58003L34.8352 4.77338L34.1507 5.93163L31.9395 4.52769L32.0624 7.14252H30.7286Z" fill="#F85757"/>
<path d="M128.026 54.5096H115.074V53.2619H118.17V49.566C117.575 49.2396 117.114 48.8263 116.788 48.3262C116.462 47.826 116.301 47.2653 116.306 46.6441C116.306 45.9123 116.527 45.2674 116.97 44.7093C117.412 44.1512 118.028 43.7195 118.817 43.4142C119.612 43.1036 120.513 42.9482 121.518 42.9482C122.524 42.9482 123.424 43.1036 124.219 43.4142C125.014 43.7195 125.633 44.1512 126.075 44.7093C126.522 45.2674 126.746 45.9123 126.746 46.6441C126.746 47.2601 126.588 47.8155 126.272 48.3104C125.957 48.8 125.509 49.208 124.93 49.5345V53.2619H128.026V54.5096ZM117.759 46.6441C117.759 47.1443 117.917 47.5839 118.233 47.9629C118.549 48.342 118.991 48.6368 119.56 48.8474C120.128 49.0527 120.781 49.1554 121.518 49.1554C122.25 49.1554 122.9 49.0501 123.469 48.8395C124.043 48.6289 124.49 48.3367 124.811 47.9629C125.133 47.5839 125.293 47.1443 125.293 46.6441C125.293 46.1439 125.133 45.707 124.811 45.3332C124.49 44.9541 124.043 44.6619 123.469 44.4566C122.9 44.2513 122.25 44.1486 121.518 44.1486C120.781 44.1486 120.128 44.2513 119.56 44.4566C118.991 44.6619 118.549 44.9541 118.233 45.3332C117.917 45.707 117.759 46.1439 117.759 46.6441ZM123.414 53.2619V50.1188C122.824 50.2557 122.192 50.3242 121.518 50.3242C120.855 50.3242 120.234 50.2557 119.655 50.1188V53.2619H123.414Z" fill="#AAAAAA"/>
<path d="M105.947 45.9965C105.947 46.7652 106.055 47.526 106.271 48.2788C106.487 49.0264 106.808 49.7108 107.234 50.3321C107.661 50.9533 108.18 51.4508 108.79 51.8246L107.953 52.9776C107.311 52.5933 106.761 52.0694 106.303 51.4061C105.85 50.7375 105.497 49.9793 105.244 49.1317C104.981 50.053 104.605 50.8743 104.115 51.5956C103.631 52.3169 103.052 52.8829 102.378 53.2935L101.446 52.1721C102.093 51.7825 102.646 51.2639 103.104 50.6164C103.568 49.9688 103.915 49.2528 104.147 48.4684C104.384 47.6786 104.499 46.8758 104.494 46.0597V43.4221H105.947V45.9965ZM107.258 47.1021H109.454V42.3955H110.875V55.5837H109.454V48.3499H107.258V47.1021ZM112.376 42.127H113.813V56.2786H112.376V42.127Z" fill="#AAAAAA"/>
<path d="M99.221 47.8603H101.495V49.108H99.221V56.2786H97.7364V42.127H99.221V47.8603ZM88.1176 44.3382H91.6082V42.3165H93.1086V44.3382H96.5044V45.5701H88.1176V44.3382ZM88.8442 49.8977C88.8442 49.266 88.9942 48.7 89.2943 48.1999C89.5997 47.6997 90.0182 47.3101 90.55 47.0311C91.087 46.752 91.6924 46.6125 92.3663 46.6125C93.0349 46.6125 93.6351 46.752 94.1669 47.0311C94.7039 47.3101 95.125 47.6997 95.4304 48.1999C95.7357 48.7 95.8884 49.266 95.8884 49.8977C95.8884 50.5348 95.7357 51.1034 95.4304 51.6035C95.125 52.1037 94.7039 52.4959 94.1669 52.7802C93.6351 53.0592 93.0349 53.1987 92.3663 53.1987C91.6924 53.1987 91.087 53.0592 90.55 52.7802C90.0182 52.4959 89.5997 52.1037 89.2943 51.6035C88.9942 51.1034 88.8442 50.5348 88.8442 49.8977ZM90.2815 49.8977C90.2815 50.3031 90.3683 50.6611 90.5421 50.9717C90.7211 51.2824 90.9685 51.5219 91.2844 51.6904C91.6055 51.8589 91.9662 51.9405 92.3663 51.9352C92.7612 51.9405 93.1165 51.8589 93.4324 51.6904C93.7483 51.5219 93.9957 51.2824 94.1747 50.9717C94.359 50.6611 94.4511 50.3031 94.4511 49.8977C94.4511 49.5029 94.359 49.1501 94.1747 48.8395C93.9957 48.5289 93.7483 48.2867 93.4324 48.113C93.1165 47.934 92.7612 47.8445 92.3663 47.8445C91.9662 47.8445 91.6055 47.934 91.2844 48.113C90.9685 48.2867 90.7211 48.5289 90.5421 48.8395C90.3683 49.1501 90.2815 49.5029 90.2815 49.8977Z" fill="#AAAAAA"/>
<path d="M81.502 47.102H76.8269V49.0605C78.1273 49.0605 79.1618 49.0394 79.9304 48.9973C80.6991 48.9499 81.4651 48.8551 82.2285 48.713L82.3707 49.9292C81.5494 50.066 80.7202 50.1582 79.8831 50.2056C79.046 50.2477 77.8746 50.2714 76.3688 50.2766H75.3422V45.9648H80.0015V44.18H75.3264V42.9797H81.502V47.102ZM76.9532 51.556H86.5561V56.2942H85.0557V52.7721H76.9532V51.556ZM82.4022 47.1494H85.0557V45.3962H82.4022V44.1958H85.0557V42.1426H86.5561V50.8452H85.0557V48.3497H82.4022V47.1494Z" fill="#AAAAAA"/>
<path d="M73.0541 49.724H71.5537V42.127H73.0541V49.724ZM61.6033 46.0597C61.6033 45.4227 61.7665 44.8541 62.0929 44.3539C62.4193 43.8538 62.8694 43.4668 63.4433 43.1931C64.0172 42.914 64.6621 42.7745 65.3781 42.7745C66.0941 42.7745 66.7364 42.914 67.305 43.1931C67.8789 43.4668 68.3264 43.8538 68.6475 44.3539C68.9739 44.8541 69.1371 45.4227 69.1371 46.0597C69.1371 46.6968 68.9739 47.2654 68.6475 47.7655C68.3264 48.2604 67.8789 48.6474 67.305 48.9264C66.7364 49.2002 66.0941 49.3344 65.3781 49.3291C64.6621 49.3344 64.0172 49.2002 63.4433 48.9264C62.8694 48.6474 62.4193 48.2604 62.0929 47.7655C61.7665 47.2654 61.6033 46.6968 61.6033 46.0597ZM63.0721 46.0597C63.0721 46.4598 63.1695 46.8152 63.3643 47.1258C63.5591 47.4312 63.8329 47.6707 64.1856 47.8445C64.5384 48.013 64.9359 48.0972 65.3781 48.0972C65.8151 48.0972 66.2073 48.013 66.5548 47.8445C66.9022 47.6707 67.1734 47.4312 67.3682 47.1258C67.5682 46.8152 67.6683 46.4598 67.6683 46.0597C67.6683 45.6649 67.5682 45.3148 67.3682 45.0094C67.1734 44.6988 66.9022 44.4592 66.5548 44.2908C66.2073 44.1223 65.8151 44.0381 65.3781 44.0381C64.9359 44.0381 64.5384 44.1223 64.1856 44.2908C63.8329 44.4592 63.5591 44.6988 63.3643 45.0094C63.1695 45.3148 63.0721 45.6649 63.0721 46.0597ZM63.7987 50.4032H65.2675V51.9984H71.5695V50.4032H73.0541V56.1049H63.7987V50.4032ZM71.5695 54.8729V53.1829H65.2675V54.8729H71.5695Z" fill="#AAAAAA"/>
<path d="M50.9148 42.3643C51.9782 42.3643 52.8864 42.4564 53.6393 42.6407C54.3921 42.8249 54.9686 43.1013 55.3687 43.4699C55.7689 43.8331 55.9689 44.2754 55.9689 44.7966C55.9689 45.3231 55.7689 45.7706 55.3687 46.1391C54.9686 46.5024 54.3921 46.7788 53.6393 46.9683C52.8864 47.1526 51.9782 47.2447 50.9148 47.2447C49.8513 47.2447 48.9405 47.1526 48.1824 46.9683C47.4295 46.7788 46.853 46.5024 46.4529 46.1391C46.058 45.7706 45.8606 45.3231 45.8606 44.7966C45.8606 44.2754 46.058 43.8331 46.4529 43.4699C46.853 43.1013 47.4295 42.8249 48.1824 42.6407C48.9405 42.4564 49.8513 42.3643 50.9148 42.3643ZM44.4707 48.1134H57.3746V49.3137H44.4707V48.1134ZM46.0185 50.4035H55.7478V53.7203H47.5032V54.9839H56.1427V56.1369H46.0343V52.6305H54.2632V51.5249H46.0185V50.4035ZM47.4242 44.7966C47.419 45.2336 47.7164 45.5652 48.3166 45.7916C48.9168 46.0127 49.7828 46.1233 50.9148 46.1233C52.0572 46.1233 52.9285 46.0127 53.5287 45.7916C54.1289 45.5652 54.4264 45.2336 54.4211 44.7966C54.4264 44.3754 54.1236 44.049 53.5129 43.8173C52.9075 43.5857 52.0414 43.4699 50.9148 43.4699C49.7934 43.4699 48.93 43.5857 48.3245 43.8173C47.7191 44.049 47.419 44.3754 47.4242 44.7966Z" fill="#AAAAAA"/>
<path d="M43.9674 50.5764H31.0161V49.3761H43.9674V50.5764ZM32.6429 42.4424H42.3406V45.9329H34.1592V47.1491H42.6249V48.3021H32.6745V44.8273H40.8402V43.627H32.6429V42.4424ZM32.7377 51.7294H42.3564V56.1044H32.7377V51.7294ZM40.8717 54.8883V52.9298H34.2224V54.8883H40.8717Z" fill="#AAAAAA"/>
<path d="M29.3124 56.3102H27.812V42.127H29.3124V56.3102ZM18.0827 48.1446C18.0827 47.1548 18.238 46.2861 18.5486 45.5385C18.8593 44.7857 19.291 44.2065 19.8438 43.8011C20.4018 43.3905 21.0362 43.1852 21.747 43.1852C22.4472 43.1852 23.0737 43.3905 23.6265 43.8011C24.1793 44.2065 24.611 44.7857 24.9216 45.5385C25.2375 46.2861 25.3955 47.1548 25.3955 48.1446C25.3955 49.1449 25.2375 50.0215 24.9216 50.7743C24.611 51.5272 24.1793 52.1063 23.6265 52.5117C23.0737 52.9171 22.4472 53.1198 21.747 53.1198C21.0362 53.1198 20.4018 52.9171 19.8438 52.5117C19.291 52.1063 18.8593 51.5272 18.5486 50.7743C18.238 50.0215 18.0827 49.1449 18.0827 48.1446ZM19.5358 48.1446C19.5358 48.8816 19.6279 49.5239 19.8122 50.0715C19.9964 50.619 20.2544 51.0402 20.5861 51.335C20.923 51.6298 21.31 51.7773 21.747 51.7773C22.1787 51.7773 22.5604 51.6298 22.8921 51.335C23.2237 51.0402 23.4817 50.619 23.666 50.0715C23.8502 49.5239 23.9424 48.8816 23.9424 48.1446C23.9424 47.418 23.8502 46.7836 23.666 46.2414C23.4817 45.6938 23.2237 45.2726 22.8921 44.9778C22.5604 44.6777 22.1787 44.5277 21.747 44.5277C21.31 44.5277 20.923 44.6777 20.5861 44.9778C20.2544 45.2726 19.9964 45.6938 19.8122 46.2414C19.6279 46.7836 19.5358 47.418 19.5358 48.1446Z" fill="#AAAAAA"/>
<path d="M23.8473 229.577H12.335V228.51H23.8473V229.577ZM13.7811 222.347H22.4012V225.449H15.1289V226.53H22.6539V227.555H13.8092V224.467H21.0675V223.4H13.7811V222.347ZM13.8653 230.602H22.4153V234.491H13.8653V230.602ZM21.0956 233.41V231.669H15.185V233.41H21.0956Z" fill="#F85757"/>
<path d="M10.8805 234.673H9.54674V222.065H10.8805V234.673ZM0.898499 227.414C0.898499 226.535 1.03655 225.762 1.31266 225.098C1.58877 224.429 1.97251 223.914 2.46389 223.554C2.95994 223.189 3.52386 223.006 4.15563 223.006C4.77804 223.006 5.33493 223.189 5.82631 223.554C6.31769 223.914 6.70143 224.429 6.97754 225.098C7.25833 225.762 7.39872 226.535 7.39872 227.414C7.39872 228.304 7.25833 229.083 6.97754 229.752C6.70143 230.421 6.31769 230.936 5.82631 231.296C5.33493 231.657 4.77804 231.837 4.15563 231.837C3.52386 231.837 2.95994 231.657 2.46389 231.296C1.97251 230.936 1.58877 230.421 1.31266 229.752C1.03655 229.083 0.898499 228.304 0.898499 227.414ZM2.19012 227.414C2.19012 228.07 2.27202 228.641 2.43581 229.127C2.5996 229.614 2.82891 229.988 3.12374 230.25C3.42324 230.512 3.76721 230.643 4.15563 230.643C4.53937 230.643 4.87865 230.512 5.17348 230.25C5.46831 229.988 5.69762 229.614 5.86141 229.127C6.0252 228.641 6.1071 228.07 6.1071 227.414C6.1071 226.769 6.0252 226.205 5.86141 225.723C5.69762 225.236 5.46831 224.862 5.17348 224.6C4.87865 224.333 4.53937 224.199 4.15563 224.199C3.76721 224.199 3.42324 224.333 3.12374 224.6C2.82891 224.862 2.5996 225.236 2.43581 225.723C2.27202 226.205 2.19012 226.769 2.19012 227.414Z" fill="#F85757"/>
<path d="M130.714 317.101C130.558 317.101 130.413 317.062 130.278 316.984C130.147 316.906 130.04 316.802 129.958 316.671C129.88 316.54 129.842 316.397 129.842 316.241C129.842 316.081 129.88 315.934 129.958 315.799C130.036 315.664 130.14 315.557 130.272 315.479C130.407 315.397 130.554 315.356 130.714 315.356C130.869 315.356 131.013 315.395 131.144 315.473C131.279 315.551 131.385 315.657 131.463 315.793C131.545 315.928 131.586 316.073 131.586 316.229C131.586 316.384 131.545 316.53 131.463 316.665C131.385 316.796 131.279 316.902 131.144 316.984C131.013 317.062 130.869 317.101 130.714 317.101Z" fill="#F85757"/>
<path d="M127.703 311.314H129.472V312.273H127.703V318.083H126.536V307.052H127.703V311.314ZM119.595 308.108H124.742V309.054H120.762V314.373C121.736 314.369 122.592 314.341 123.329 314.287C124.066 314.234 124.812 314.14 125.565 314.005L125.713 314.988C124.935 315.127 124.171 315.221 123.422 315.27C122.676 315.319 121.79 315.344 120.762 315.344H120.479H119.595V308.108Z" fill="#F85757"/>
<path d="M117.935 318.059H116.768V307.052H117.935V318.059ZM109.471 308.121H110.626V314.25C112.37 314.242 114.057 314.074 115.687 313.747L115.847 314.73C114.913 314.922 114 315.059 113.107 315.141C112.215 315.223 111.31 315.262 110.392 315.258H109.471V308.121Z" fill="#F85757"/>
<path d="M107.59 312.961H106.423V307.052H107.59V312.961ZM98.684 310.111C98.684 309.615 98.8109 309.173 99.0648 308.784C99.3187 308.395 99.6688 308.094 100.115 307.881C100.561 307.664 101.063 307.555 101.62 307.555C102.177 307.555 102.676 307.664 103.119 307.881C103.565 308.094 103.913 308.395 104.163 308.784C104.417 309.173 104.544 309.615 104.544 310.111C104.544 310.606 104.417 311.048 104.163 311.437C103.913 311.822 103.565 312.123 103.119 312.34C102.676 312.553 102.177 312.658 101.62 312.653C101.063 312.658 100.561 312.553 100.115 312.34C99.6688 312.123 99.3187 311.822 99.0648 311.437C98.8109 311.048 98.684 310.606 98.684 310.111ZM99.8264 310.111C99.8264 310.422 99.9022 310.698 100.054 310.94C100.205 311.177 100.418 311.364 100.692 311.499C100.967 311.63 101.276 311.695 101.62 311.695C101.96 311.695 102.265 311.63 102.535 311.499C102.805 311.364 103.016 311.177 103.168 310.94C103.323 310.698 103.401 310.422 103.401 310.111C103.401 309.803 103.323 309.531 103.168 309.294C103.016 309.052 102.805 308.866 102.535 308.735C102.265 308.604 101.96 308.538 101.62 308.538C101.276 308.538 100.967 308.604 100.692 308.735C100.418 308.866 100.205 309.052 100.054 309.294C99.9022 309.531 99.8264 309.803 99.8264 310.111ZM100.392 313.489H101.534V314.73H106.435V313.489H107.59V317.923H100.392V313.489ZM106.435 316.965V315.651H101.534V316.965H106.435Z" fill="#F85757"/>
<path d="M96.7785 310.037H98.3755V311.02H96.7785V314.115H95.6115V307.052H96.7785V310.037ZM88.1425 308.231H90.8451V306.966H92.0121V308.231H94.7024V309.152H88.1425V308.231ZM88.7445 311.622C88.7445 311.233 88.855 310.891 89.0762 310.596C89.2973 310.297 89.6105 310.066 90.0159 309.902C90.4213 309.738 90.8902 309.656 91.4225 309.656C91.9466 309.656 92.4093 309.738 92.8106 309.902C93.216 310.066 93.5293 310.297 93.7504 310.596C93.9756 310.891 94.0882 311.233 94.0882 311.622C94.0882 312.011 93.9756 312.353 93.7504 312.647C93.5293 312.938 93.216 313.163 92.8106 313.323C92.4093 313.483 91.9466 313.563 91.4225 313.563C90.8943 313.563 90.4254 313.483 90.0159 313.323C89.6105 313.163 89.2973 312.938 89.0762 312.647C88.855 312.353 88.7445 312.011 88.7445 311.622ZM89.6167 316.13C89.6126 315.729 89.7559 315.385 90.0466 315.098C90.3374 314.807 90.7571 314.586 91.3058 314.435C91.8586 314.279 92.5117 314.201 93.2652 314.201C94.0104 314.201 94.6553 314.279 95.2 314.435C95.7487 314.586 96.1684 314.807 96.4591 315.098C96.7539 315.385 96.9013 315.729 96.9013 316.13C96.9013 316.527 96.7539 316.869 96.4591 317.156C96.1684 317.442 95.7487 317.659 95.2 317.807C94.6553 317.958 94.0104 318.034 93.2652 318.034C92.5117 318.034 91.8606 317.958 91.3119 317.807C90.7632 317.659 90.3415 317.442 90.0466 317.156C89.7559 316.869 89.6126 316.527 89.6167 316.13ZM89.8747 311.622C89.8706 311.835 89.932 312.021 90.0589 312.181C90.1859 312.34 90.366 312.463 90.5994 312.549C90.8369 312.635 91.1113 312.678 91.4225 312.678C91.8934 312.678 92.2722 312.584 92.5588 312.396C92.8454 312.203 92.9908 311.945 92.9949 311.622C92.9908 311.401 92.9232 311.208 92.7922 311.044C92.6612 310.88 92.4769 310.754 92.2394 310.663C92.006 310.573 91.7337 310.528 91.4225 310.528C91.1113 310.528 90.839 310.573 90.6056 310.663C90.3722 310.754 90.19 310.88 90.0589 311.044C89.932 311.208 89.8706 311.401 89.8747 311.622ZM90.7714 316.13C90.7673 316.453 90.9843 316.705 91.4225 316.885C91.8606 317.062 92.4749 317.15 93.2652 317.15C94.0473 317.15 94.6553 317.062 95.0894 316.885C95.5234 316.705 95.7425 316.453 95.7466 316.13C95.7425 315.798 95.5234 315.544 95.0894 315.368C94.6594 315.192 94.0514 315.102 93.2652 315.098C92.4667 315.102 91.8504 315.192 91.4163 315.368C90.9823 315.544 90.7673 315.798 90.7714 316.13Z" fill="#F85757"/>
<path d="M81.6181 309.853C81.614 310.495 81.7287 311.132 81.9621 311.763C82.1955 312.393 82.5231 312.959 82.9448 313.458C83.3666 313.954 83.8457 314.332 84.3821 314.594L83.6573 315.528C83.0677 315.217 82.5456 314.773 82.0911 314.195C81.6406 313.614 81.2926 312.95 81.0469 312.205C80.7971 312.999 80.4368 313.708 79.9659 314.33C79.4991 314.949 78.9565 315.417 78.3382 315.737L77.6134 314.791C78.1662 314.525 78.6576 314.132 79.0875 313.612C79.5175 313.092 79.8512 312.502 80.0887 311.843C80.3303 311.183 80.4511 310.52 80.4511 309.853V307.973H81.6181V309.853ZM85.2052 307.052H86.3722V311.437H88.1412V312.432H86.3722V318.059H85.2052V307.052Z" fill="#F85757"/>
<path d="M72.7105 310.922H69.0743V312.445C70.0857 312.445 70.8904 312.429 71.4882 312.396C72.086 312.359 72.6818 312.285 73.2756 312.175L73.3861 313.121C72.7474 313.227 72.1024 313.299 71.4513 313.336C70.8003 313.368 69.8892 313.387 68.7181 313.391H67.9196V310.037H71.5435V308.649H67.9073V307.716H72.7105V310.922ZM69.1726 314.386H76.6415V318.071H75.4745V315.332H69.1726V314.386ZM73.4107 310.959H75.4745V309.595H73.4107V308.661H75.4745V307.064H76.6415V313.833H75.4745V311.892H73.4107V310.959Z" fill="#F85757"/>
<path d="M66.2597 312.961H65.0927V307.052H66.2597V312.961ZM57.3535 310.111C57.3535 309.615 57.4805 309.173 57.7343 308.784C57.9882 308.395 58.3383 308.094 58.7847 307.881C59.231 307.664 59.7326 307.555 60.2895 307.555C60.8464 307.555 61.346 307.664 61.7882 307.881C62.2345 308.094 62.5826 308.395 62.8324 308.784C63.0863 309.173 63.2132 309.615 63.2132 310.111C63.2132 310.606 63.0863 311.048 62.8324 311.437C62.5826 311.822 62.2345 312.123 61.7882 312.34C61.346 312.553 60.8464 312.658 60.2895 312.653C59.7326 312.658 59.231 312.553 58.7847 312.34C58.3383 312.123 57.9882 311.822 57.7343 311.437C57.4805 311.048 57.3535 310.606 57.3535 310.111ZM58.496 310.111C58.496 310.422 58.5717 310.698 58.7232 310.94C58.8747 311.177 59.0877 311.364 59.362 311.499C59.6364 311.63 59.9455 311.695 60.2895 311.695C60.6294 311.695 60.9344 311.63 61.2047 311.499C61.4749 311.364 61.6858 311.177 61.8373 310.94C61.9929 310.698 62.0707 310.422 62.0707 310.111C62.0707 309.803 61.9929 309.531 61.8373 309.294C61.6858 309.052 61.4749 308.866 61.2047 308.735C60.9344 308.604 60.6294 308.538 60.2895 308.538C59.9455 308.538 59.6364 308.604 59.362 308.735C59.0877 308.866 58.8747 309.052 58.7232 309.294C58.5717 309.531 58.496 309.803 58.496 310.111ZM59.0611 313.489H60.2035V314.73H65.105V313.489H66.2597V317.923H59.0611V313.489ZM65.105 316.965V315.651H60.2035V316.965H65.105Z" fill="#F85757"/>
<path d="M49.9064 308.022C49.9064 308.501 50.0825 308.962 50.4346 309.404C50.7909 309.846 51.2699 310.223 51.8719 310.534C52.4779 310.845 53.1372 311.048 53.8497 311.142L53.3952 312.1C52.7973 312.006 52.2302 311.842 51.6938 311.609C51.1573 311.376 50.6823 311.087 50.2688 310.743C49.8593 310.395 49.5358 310.008 49.2983 309.582C49.0608 310.008 48.7353 310.395 48.3217 310.743C47.9122 311.087 47.4413 311.376 46.909 311.609C46.3766 311.838 45.8116 312.002 45.2137 312.1L44.7469 311.142C45.4594 311.048 46.1166 310.847 46.7186 310.54C47.3205 310.233 47.7996 309.858 48.1558 309.416C48.5121 308.97 48.6902 308.505 48.6902 308.022V307.42H49.9064V308.022ZM44.2678 313.181H54.3042V314.14H49.8327V318.058H48.6902V314.14H44.2678V313.181Z" fill="#F85757"/>
<path d="M43.0871 312.739H41.9078V307.052H43.0871V312.739ZM34.1194 311.474C34.3897 311.474 34.836 311.47 35.4584 311.462V308.698H34.4143V307.777H40.3968V308.698H39.3403V311.302C39.8931 311.265 40.4132 311.216 40.9005 311.155L40.9496 312.002C39.9709 312.15 38.9206 312.254 37.7986 312.316C36.6767 312.377 35.5629 312.408 34.4573 312.408H34.2546L34.1194 311.474ZM35.7778 313.243H43.0871V315.97H36.9571V317.014H43.4679V317.948H35.8147V315.123H41.9323V314.164H35.7778V313.243ZM36.5763 311.437C37.3175 311.413 37.8662 311.39 38.2224 311.37V308.698H36.5763V311.437Z" fill="#F85757"/>
<path d="M31.107 313.734H21.0706V312.801H31.107V313.734ZM22.1516 309.619C22.1516 309.164 22.3113 308.771 22.6307 308.44C22.9501 308.108 23.4067 307.856 24.0005 307.684C24.5942 307.508 25.2883 307.42 26.0827 307.42C26.873 307.42 27.5629 307.508 28.1526 307.684C28.7463 307.856 29.205 308.108 29.5284 308.44C29.8519 308.771 30.0137 309.164 30.0137 309.619C30.0137 310.077 29.8519 310.475 29.5284 310.81C29.205 311.146 28.7463 311.404 28.1526 311.584C27.5629 311.765 26.873 311.855 26.0827 311.855C25.2883 311.855 24.5942 311.765 24.0005 311.584C23.4067 311.404 22.9501 311.146 22.6307 310.81C22.3113 310.475 22.1516 310.077 22.1516 309.619ZM22.3359 314.631H23.5152V316.879H29.9768V317.825H22.3359V314.631ZM23.3555 309.619C23.3555 309.889 23.464 310.12 23.6811 310.313C23.8981 310.501 24.2113 310.647 24.6208 310.749C25.0344 310.847 25.5217 310.896 26.0827 310.896C26.6437 310.896 27.1289 310.847 27.5384 310.749C27.9479 310.647 28.2611 310.501 28.4781 310.313C28.6993 310.12 28.8098 309.889 28.8098 309.619C28.8098 309.361 28.6993 309.138 28.4781 308.949C28.2611 308.757 27.9458 308.609 27.5322 308.507C27.1227 308.405 26.6396 308.354 26.0827 308.354C25.5217 308.354 25.0364 308.405 24.627 308.507C24.2175 308.609 23.9022 308.757 23.6811 308.949C23.464 309.138 23.3555 309.361 23.3555 309.619Z" fill="#F85757"/>
<path d="M20.7989 313.624H10.7257V312.691H20.7989V313.624ZM11.991 307.298H19.5336V310.013H13.1703V310.959H19.7548V311.855H12.0156V309.153H18.3666V308.219H11.991V307.298ZM12.0647 314.521H19.5459V317.924H12.0647V314.521ZM18.3912 316.978V315.455H13.2194V316.978H18.3912Z" fill="#F85757"/>
<path d="M9.52043 318.083H8.3534V307.052H9.52043V318.083ZM0.786194 311.732C0.786194 310.962 0.906991 310.287 1.14858 309.705C1.39018 309.12 1.72595 308.669 2.15591 308.354C2.58996 308.035 3.08338 307.875 3.63618 307.875C4.18079 307.875 4.66807 308.035 5.09803 308.354C5.52799 308.669 5.86376 309.12 6.10535 309.705C6.35104 310.287 6.47389 310.962 6.47389 311.732C6.47389 312.51 6.35104 313.192 6.10535 313.777C5.86376 314.363 5.52799 314.813 5.09803 315.129C4.66807 315.444 4.18079 315.602 3.63618 315.602C3.08338 315.602 2.58996 315.444 2.15591 315.129C1.72595 314.813 1.39018 314.363 1.14858 313.777C0.906991 313.192 0.786194 312.51 0.786194 311.732ZM1.91636 311.732C1.91636 312.305 1.98802 312.805 2.13134 313.231C2.27466 313.657 2.4753 313.984 2.73328 314.214C2.99534 314.443 3.29631 314.558 3.63618 314.558C3.97196 314.558 4.26883 314.443 4.5268 314.214C4.78478 313.984 4.98542 313.657 5.12874 313.231C5.27206 312.805 5.34372 312.305 5.34372 311.732C5.34372 311.167 5.27206 310.674 5.12874 310.252C4.98542 309.826 4.78478 309.498 4.5268 309.269C4.26883 309.036 3.97196 308.919 3.63618 308.919C3.29631 308.919 2.99534 309.036 2.73328 309.269C2.4753 309.498 2.27466 309.826 2.13134 310.252C1.98802 310.674 1.91636 311.167 1.91636 311.732Z" fill="#F85757"/>
<path d="M0 253.219C0 249.249 3.21824 246.031 7.18815 246.031H352.219C356.189 246.031 359.407 249.249 359.407 253.219V288.262C359.407 292.232 356.189 295.45 352.219 295.45H7.18814C3.21824 295.45 0 292.232 0 288.262V253.219Z" fill="white"/>
<path fill-rule="evenodd" clip-rule="evenodd" d="M352.219 246.93H7.18815C3.71448 246.93 0.898519 249.746 0.898519 253.219V288.262C0.898519 291.735 3.71448 294.551 7.18814 294.551H352.219C355.693 294.551 358.509 291.735 358.509 288.262V253.219C358.509 249.746 355.693 246.93 352.219 246.93ZM7.18815 246.031C3.21824 246.031 0 249.249 0 253.219V288.262C0 292.232 3.21824 295.45 7.18814 295.45H352.219C356.189 295.45 359.407 292.232 359.407 288.262V253.219C359.407 249.249 356.189 246.031 352.219 246.031H7.18815Z" fill="#F85757"/>
<path d="M128.026 276.154H115.074V274.906H118.17V271.211C117.575 270.884 117.114 270.471 116.788 269.971C116.462 269.471 116.301 268.91 116.306 268.289C116.306 267.557 116.527 266.912 116.97 266.354C117.412 265.796 118.028 265.364 118.817 265.059C119.612 264.748 120.513 264.593 121.518 264.593C122.524 264.593 123.424 264.748 124.219 265.059C125.014 265.364 125.633 265.796 126.075 266.354C126.522 266.912 126.746 267.557 126.746 268.289C126.746 268.905 126.588 269.46 126.272 269.955C125.957 270.445 125.509 270.853 124.93 271.179V274.906H128.026V276.154ZM117.759 268.289C117.759 268.789 117.917 269.228 118.233 269.607C118.549 269.987 118.991 270.281 119.56 270.492C120.128 270.697 120.781 270.8 121.518 270.8C122.25 270.8 122.9 270.695 123.469 270.484C124.043 270.273 124.49 269.981 124.811 269.607C125.133 269.228 125.293 268.789 125.293 268.289C125.293 267.788 125.133 267.352 124.811 266.978C124.49 266.599 124.043 266.306 123.469 266.101C122.9 265.896 122.25 265.793 121.518 265.793C120.781 265.793 120.128 265.896 119.56 266.101C118.991 266.306 118.549 266.599 118.233 266.978C117.917 267.352 117.759 267.788 117.759 268.289ZM123.414 274.906V271.763C122.824 271.9 122.192 271.969 121.518 271.969C120.855 271.969 120.234 271.9 119.655 271.763V274.906H123.414Z" fill="#AAAAAA"/>
<path d="M105.947 267.641C105.947 268.41 106.055 269.17 106.271 269.923C106.487 270.671 106.808 271.355 107.234 271.977C107.661 272.598 108.18 273.095 108.79 273.469L107.953 274.622C107.311 274.238 106.761 273.714 106.303 273.051C105.85 272.382 105.497 271.624 105.244 270.776C104.981 271.698 104.605 272.519 104.115 273.24C103.631 273.961 103.052 274.527 102.378 274.938L101.446 273.817C102.093 273.427 102.646 272.908 103.104 272.261C103.568 271.613 103.915 270.897 104.147 270.113C104.384 269.323 104.499 268.52 104.494 267.704V265.067H105.947V267.641ZM107.258 268.747H109.454V264.04H110.875V277.228H109.454V269.994H107.258V268.747ZM112.376 263.771H113.813V277.923H112.376V263.771Z" fill="#AAAAAA"/>
<path d="M99.221 269.505H101.495V270.753H99.221V277.923H97.7364V263.771H99.221V269.505ZM88.1176 265.983H91.6082V263.961H93.1086V265.983H96.5044V267.215H88.1176V265.983ZM88.8442 271.542C88.8442 270.91 88.9942 270.345 89.2943 269.844C89.5997 269.344 90.0182 268.955 90.55 268.676C91.087 268.397 91.6924 268.257 92.3663 268.257C93.0349 268.257 93.6351 268.397 94.1669 268.676C94.7039 268.955 95.125 269.344 95.4304 269.844C95.7357 270.345 95.8884 270.91 95.8884 271.542C95.8884 272.179 95.7357 272.748 95.4304 273.248C95.125 273.748 94.7039 274.14 94.1669 274.425C93.6351 274.704 93.0349 274.843 92.3663 274.843C91.6924 274.843 91.087 274.704 90.55 274.425C90.0182 274.14 89.5997 273.748 89.2943 273.248C88.9942 272.748 88.8442 272.179 88.8442 271.542ZM90.2815 271.542C90.2815 271.948 90.3683 272.306 90.5421 272.616C90.7211 272.927 90.9685 273.166 91.2844 273.335C91.6055 273.503 91.9662 273.585 92.3663 273.58C92.7612 273.585 93.1165 273.503 93.4324 273.335C93.7483 273.166 93.9957 272.927 94.1747 272.616C94.359 272.306 94.4511 271.948 94.4511 271.542C94.4511 271.147 94.359 270.795 94.1747 270.484C93.9957 270.173 93.7483 269.931 93.4324 269.758C93.1165 269.579 92.7612 269.489 92.3663 269.489C91.9662 269.489 91.6055 269.579 91.2844 269.758C90.9685 269.931 90.7211 270.173 90.5421 270.484C90.3683 270.795 90.2815 271.147 90.2815 271.542Z" fill="#AAAAAA"/>
<path d="M81.502 268.747H76.8269V270.705C78.1273 270.705 79.1618 270.684 79.9304 270.642C80.6991 270.594 81.4651 270.5 82.2285 270.358L82.3707 271.574C81.5494 271.711 80.7202 271.803 79.8831 271.85C79.046 271.892 77.8746 271.916 76.3688 271.921H75.3422V267.609H80.0015V265.825H75.3264V264.624H81.502V268.747ZM76.9532 273.2H86.5561V277.939H85.0557V274.417H76.9532V273.2ZM82.4022 268.794H85.0557V267.041H82.4022V265.84H85.0557V263.787H86.5561V272.49H85.0557V269.994H82.4022V268.794Z" fill="#AAAAAA"/>
<path d="M73.0541 271.369H71.5537V263.771H73.0541V271.369ZM61.6033 267.704C61.6033 267.067 61.7665 266.499 62.0929 265.998C62.4193 265.498 62.8694 265.111 63.4433 264.838C64.0172 264.559 64.6621 264.419 65.3781 264.419C66.0941 264.419 66.7364 264.559 67.305 264.838C67.8789 265.111 68.3264 265.498 68.6475 265.998C68.9739 266.499 69.1371 267.067 69.1371 267.704C69.1371 268.341 68.9739 268.91 68.6475 269.41C68.3264 269.905 67.8789 270.292 67.305 270.571C66.7364 270.845 66.0941 270.979 65.3781 270.974C64.6621 270.979 64.0172 270.845 63.4433 270.571C62.8694 270.292 62.4193 269.905 62.0929 269.41C61.7665 268.91 61.6033 268.341 61.6033 267.704ZM63.0721 267.704C63.0721 268.104 63.1695 268.46 63.3643 268.77C63.5591 269.076 63.8329 269.315 64.1856 269.489C64.5384 269.657 64.9359 269.742 65.3781 269.742C65.8151 269.742 66.2073 269.657 66.5548 269.489C66.9022 269.315 67.1734 269.076 67.3682 268.77C67.5682 268.46 67.6683 268.104 67.6683 267.704C67.6683 267.309 67.5682 266.959 67.3682 266.654C67.1734 266.343 66.9022 266.104 66.5548 265.935C66.2073 265.767 65.8151 265.683 65.3781 265.683C64.9359 265.683 64.5384 265.767 64.1856 265.935C63.8329 266.104 63.5591 266.343 63.3643 266.654C63.1695 266.959 63.0721 267.309 63.0721 267.704ZM63.7987 272.048H65.2675V273.643H71.5695V272.048H73.0541V277.749H63.7987V272.048ZM71.5695 276.517V274.827H65.2675V276.517H71.5695Z" fill="#AAAAAA"/>
<path d="M50.9148 264.008C51.9782 264.008 52.8864 264.1 53.6393 264.284C54.3921 264.468 54.9686 264.745 55.3687 265.113C55.7689 265.477 55.9689 265.919 55.9689 266.44C55.9689 266.967 55.7689 267.414 55.3687 267.783C54.9686 268.146 54.3921 268.422 53.6393 268.612C52.8864 268.796 51.9782 268.888 50.9148 268.888C49.8513 268.888 48.9405 268.796 48.1824 268.612C47.4295 268.422 46.853 268.146 46.4529 267.783C46.058 267.414 45.8606 266.967 45.8606 266.44C45.8606 265.919 46.058 265.477 46.4529 265.113C46.853 264.745 47.4295 264.468 48.1824 264.284C48.9405 264.1 49.8513 264.008 50.9148 264.008ZM44.4707 269.757H57.3746V270.957H44.4707V269.757ZM46.0185 272.047H55.7478V275.364H47.5032V276.627H56.1427V277.78H46.0343V274.274H54.2632V273.168H46.0185V272.047ZM47.4242 266.44C47.419 266.877 47.7164 267.209 48.3166 267.435C48.9168 267.656 49.7828 267.767 50.9148 267.767C52.0572 267.767 52.9285 267.656 53.5287 267.435C54.1289 267.209 54.4264 266.877 54.4211 266.44C54.4264 266.019 54.1236 265.693 53.5129 265.461C52.9075 265.229 52.0414 265.113 50.9148 265.113C49.7934 265.113 48.93 265.229 48.3245 265.461C47.7191 265.693 47.419 266.019 47.4242 266.44Z" fill="#AAAAAA"/>
<path d="M43.9674 272.221H31.0161V271.021H43.9674V272.221ZM32.6429 264.087H42.3406V267.577H34.1592V268.794H42.6249V269.947H32.6745V266.472H40.8402V265.271H32.6429V264.087ZM32.7377 273.374H42.3564V277.749H32.7377V273.374ZM40.8717 276.533V274.574H34.2224V276.533H40.8717Z" fill="#AAAAAA"/>
<path d="M29.3124 277.955H27.812V263.771H29.3124V277.955ZM18.0827 269.789C18.0827 268.799 18.238 267.931 18.5486 267.183C18.8593 266.43 19.291 265.851 19.8438 265.446C20.4018 265.035 21.0362 264.83 21.747 264.83C22.4472 264.83 23.0737 265.035 23.6265 265.446C24.1793 265.851 24.611 266.43 24.9216 267.183C25.2375 267.931 25.3955 268.799 25.3955 269.789C25.3955 270.789 25.2375 271.666 24.9216 272.419C24.611 273.172 24.1793 273.751 23.6265 274.156C23.0737 274.562 22.4472 274.764 21.747 274.764C21.0362 274.764 20.4018 274.562 19.8438 274.156C19.291 273.751 18.8593 273.172 18.5486 272.419C18.238 271.666 18.0827 270.789 18.0827 269.789ZM19.5358 269.789C19.5358 270.526 19.6279 271.168 19.8122 271.716C19.9964 272.264 20.2544 272.685 20.5861 272.98C20.923 273.274 21.31 273.422 21.747 273.422C22.1787 273.422 22.5604 273.274 22.8921 272.98C23.2237 272.685 23.4817 272.264 23.666 271.716C23.8502 271.168 23.9424 270.526 23.9424 269.789C23.9424 269.063 23.8502 268.428 23.666 267.886C23.4817 267.338 23.2237 266.917 22.8921 266.622C22.5604 266.322 22.1787 266.172 21.747 266.172C21.31 266.172 20.923 266.322 20.5861 266.622C20.2544 266.917 19.9964 267.338 19.8122 267.886C19.6279 268.428 19.5358 269.063 19.5358 269.789Z" fill="#AAAAAA"/>
<path d="M58.9007 357.896H48.5537V356.815H53.0744V355.229H54.3941V356.815H58.9007V357.896ZM48.0062 365.126H53.0744V363.463C52.3396 363.416 51.7055 363.292 51.172 363.091C50.6432 362.885 50.2384 362.609 49.9576 362.262C49.6768 361.916 49.5365 361.513 49.5365 361.055C49.5365 360.554 49.7049 360.124 50.0419 359.763C50.3788 359.403 50.8632 359.129 51.4949 358.942C52.1267 358.75 52.8731 358.654 53.7342 358.654C54.5859 358.654 55.3253 358.75 55.9524 358.942C56.5842 359.129 57.0686 359.403 57.4055 359.763C57.7471 360.124 57.9179 360.554 57.9179 361.055C57.9179 361.513 57.7752 361.916 57.4897 362.262C57.209 362.609 56.8042 362.885 56.2753 363.091C55.7465 363.292 55.1194 363.416 54.3941 363.463V365.126H59.5184V366.207H48.0062V365.126ZM50.8983 361.055C50.8936 361.49 51.1369 361.825 51.6283 362.059C52.1244 362.293 52.8263 362.412 53.7342 362.417C54.6281 362.412 55.323 362.293 55.8191 362.059C56.3151 361.825 56.5608 361.49 56.5561 361.055C56.5608 360.624 56.3151 360.292 55.8191 360.058C55.323 359.824 54.6281 359.707 53.7342 359.707C52.831 359.707 52.1314 359.824 51.6353 360.058C51.1393 360.292 50.8936 360.624 50.8983 361.055Z" fill="#555555"/>
<path d="M46.6078 364.355H45.2741V359.609H42.5224V362.263H36.7241V355.889H38.0579V358.023H41.2027V355.889H42.5224V358.528H45.2741V355.061H46.6078V364.355ZM41.2027 361.182V359.048H38.0579V361.182H41.2027ZM38.3948 363.442H39.7426V366.278H46.8886V367.359H38.3948V363.442Z" fill="#555555"/>
<path d="M34.6239 356.675H32.7987V359.315H34.5677V360.367H30.6226V361.785H35.7049V362.852H24.2347V361.785H29.3029V360.367H25.3438V359.315H27.1268V356.675H25.2877V355.58H34.6239V356.675ZM25.6808 363.863H27.0286V366.278H34.4133V367.359H25.6808V363.863ZM31.465 359.315V356.675H28.4465V359.315H31.465Z" fill="#555555"/>
<path d="M23.1453 367.626H21.8677V361.126H20.2391V366.98H19.0177V355.3H20.2391V360.031H21.8677V355.047H23.1453V367.626ZM12.7702 356.563H17.4874V357.644H14.1039V363.47C14.9229 363.466 15.6413 363.44 16.259 363.393C16.8814 363.346 17.5155 363.26 18.1613 363.134L18.2596 364.229C17.5576 364.374 16.865 364.472 16.1818 364.523C15.5032 364.57 14.6468 364.598 13.6126 364.608H12.7702V356.563Z" fill="#555555"/>
<path d="M11.2877 357.461H1.05297V356.394H5.53152V354.99H6.85122V356.394H11.2877V357.461ZM0.463318 363.091H11.9756V364.172H9.06944V367.64H7.72166V364.172H4.68916V367.64H3.35542V364.172H0.463318V363.091ZM2.00765 360.213C2.00765 359.764 2.17144 359.382 2.49902 359.069C2.83129 358.755 3.31097 358.516 3.93806 358.353C4.56983 358.189 5.32093 358.107 6.19137 358.107C7.06181 358.107 7.81058 358.189 8.43767 358.353C9.06476 358.516 9.54444 358.755 9.8767 359.069C10.209 359.382 10.3751 359.764 10.3751 360.213C10.3751 360.657 10.209 361.039 9.8767 361.357C9.54444 361.671 9.06476 361.909 8.43767 362.073C7.81058 362.237 7.06181 362.319 6.19137 362.319C5.32093 362.319 4.57217 362.237 3.94508 362.073C3.31799 361.909 2.83831 361.671 2.50604 361.357C2.17378 361.039 2.00765 360.657 2.00765 360.213ZM3.3835 360.213C3.3835 360.559 3.61983 360.826 4.09249 361.013C4.56983 361.2 5.25308 361.294 6.14224 361.294C7.06415 361.294 7.76846 361.203 8.25516 361.02C8.74654 360.833 8.99456 360.564 8.99924 360.213C8.99456 359.862 8.75122 359.593 8.2692 359.406C7.78718 359.218 7.09457 359.122 6.19137 359.118C5.2835 359.122 4.58855 359.218 4.10653 359.406C3.62451 359.593 3.3835 359.862 3.3835 360.213Z" fill="#555555"/>
<path d="M0 386.2C0 382.23 3.21824 379.012 7.18815 379.012H352.219C356.189 379.012 359.407 382.23 359.407 386.2V421.242C359.407 425.212 356.189 428.43 352.219 428.43H7.18814C3.21824 428.43 0 425.212 0 421.242V386.2Z" fill="white"/>
<path fill-rule="evenodd" clip-rule="evenodd" d="M352.219 379.91H7.18815C3.71448 379.91 0.898519 382.726 0.898519 386.2V421.242C0.898519 424.716 3.71448 427.532 7.18814 427.532H352.219C355.693 427.532 358.509 424.716 358.509 421.242V386.2C358.509 382.726 355.693 379.91 352.219 379.91ZM7.18815 379.012C3.21824 379.012 0 382.23 0 386.2V421.242C0 425.212 3.21824 428.43 7.18814 428.43H352.219C356.189 428.43 359.407 425.212 359.407 421.242V386.2C359.407 382.23 356.189 379.012 352.219 379.012H7.18815Z" fill="#DADADA"/>
<path d="M122.947 409.72C122.131 409.72 121.402 409.583 120.76 409.309C120.123 409.035 119.625 408.656 119.267 408.172C118.914 407.682 118.741 407.129 118.746 406.513C118.741 406.034 118.841 405.589 119.046 405.179C119.257 404.763 119.544 404.421 119.907 404.152C120.275 403.878 120.683 403.707 121.131 403.639V403.576C120.741 403.486 120.399 403.32 120.104 403.078C119.809 402.831 119.58 402.528 119.417 402.17C119.254 401.812 119.172 401.428 119.172 401.017C119.172 400.438 119.333 399.917 119.654 399.453C119.981 398.99 120.431 398.627 121.005 398.364C121.578 398.1 122.226 397.969 122.947 397.969C123.658 397.969 124.298 398.1 124.866 398.364C125.44 398.627 125.89 398.99 126.217 399.453C126.543 399.917 126.706 400.438 126.706 401.017C126.706 401.428 126.622 401.812 126.454 402.17C126.29 402.528 126.059 402.831 125.759 403.078C125.464 403.32 125.127 403.486 124.748 403.576V403.639C125.19 403.707 125.593 403.878 125.956 404.152C126.325 404.421 126.614 404.763 126.825 405.179C127.041 405.589 127.148 406.034 127.148 406.513C127.148 407.129 126.967 407.682 126.604 408.172C126.246 408.656 125.748 409.035 125.111 409.309C124.474 409.583 123.753 409.72 122.947 409.72ZM120.515 406.387C120.51 406.761 120.604 407.09 120.799 407.374C120.994 407.659 121.276 407.882 121.644 408.045C122.018 408.203 122.452 408.282 122.947 408.282C123.437 408.282 123.863 408.203 124.227 408.045C124.595 407.888 124.879 407.666 125.079 407.382C125.279 407.093 125.38 406.761 125.38 406.387C125.38 405.998 125.274 405.65 125.064 405.345C124.853 405.034 124.563 404.792 124.195 404.618C123.826 404.439 123.41 404.35 122.947 404.35C122.479 404.35 122.057 404.439 121.684 404.618C121.31 404.792 121.02 405.034 120.815 405.345C120.61 405.655 120.51 406.003 120.515 406.387ZM120.862 401.175C120.862 401.528 120.952 401.841 121.131 402.115C121.31 402.389 121.555 402.602 121.865 402.754C122.181 402.902 122.542 402.976 122.947 402.976C123.342 402.976 123.695 402.902 124.005 402.754C124.321 402.602 124.566 402.389 124.74 402.115C124.914 401.841 125 401.528 125 401.175C125 400.822 124.914 400.512 124.74 400.243C124.571 399.969 124.332 399.759 124.021 399.611C123.711 399.464 123.353 399.39 122.947 399.39C122.537 399.39 122.173 399.464 121.857 399.611C121.542 399.759 121.297 399.969 121.123 400.243C120.949 400.512 120.862 400.822 120.862 401.175Z" fill="#333333"/>
<path d="M116.158 399.706V399.612H110.266V398.127H117.958V399.675L112.873 409.562H111.056L116.158 399.706Z" fill="#333333"/>
<path d="M105.293 409.72C104.519 409.72 103.806 409.549 103.153 409.206C102.5 408.859 101.966 408.277 101.55 407.461C101.139 406.64 100.934 405.561 100.934 404.223C100.934 402.912 101.116 401.788 101.479 400.851C101.842 399.909 102.358 399.193 103.027 398.703C103.701 398.214 104.493 397.969 105.404 397.969C106.094 397.969 106.712 398.103 107.26 398.372C107.807 398.635 108.252 399.003 108.594 399.477C108.937 399.951 109.152 400.491 109.242 401.096H107.52C107.399 400.612 107.154 400.225 106.786 399.935C106.423 399.64 105.962 399.49 105.404 399.485C104.82 399.485 104.317 399.651 103.896 399.983C103.48 400.309 103.161 400.78 102.94 401.396C102.719 402.012 102.608 402.749 102.608 403.607H102.735C103.045 403.123 103.456 402.747 103.967 402.478C104.483 402.204 105.051 402.065 105.672 402.059C106.346 402.059 106.965 402.223 107.528 402.549C108.092 402.87 108.536 403.318 108.863 403.892C109.189 404.46 109.353 405.102 109.353 405.819C109.353 406.55 109.181 407.214 108.839 407.809C108.502 408.403 108.026 408.872 107.41 409.214C106.794 409.551 106.088 409.72 105.293 409.72ZM102.814 405.866C102.814 406.287 102.919 406.682 103.13 407.05C103.345 407.419 103.638 407.714 104.006 407.935C104.375 408.156 104.788 408.267 105.246 408.267C105.699 408.267 106.109 408.159 106.478 407.943C106.846 407.722 107.136 407.43 107.347 407.066C107.557 406.698 107.663 406.292 107.663 405.85C107.663 405.418 107.56 405.021 107.355 404.658C107.149 404.294 106.865 404.007 106.502 403.797C106.144 403.586 105.741 403.481 105.293 403.481C104.841 403.481 104.425 403.592 104.046 403.813C103.667 404.028 103.366 404.321 103.145 404.689C102.93 405.052 102.819 405.445 102.814 405.866Z" fill="#333333"/>
<path d="M95.74 409.72C95.0292 409.72 94.3843 409.586 93.8052 409.317C93.226 409.049 92.7654 408.675 92.4232 408.196C92.081 407.717 91.8967 407.177 91.8704 406.577H93.5603C93.5919 406.898 93.7078 407.188 93.9078 407.446C94.1079 407.698 94.3685 407.898 94.6896 408.046C95.0108 408.193 95.3609 408.267 95.74 408.267C96.198 408.267 96.606 408.164 96.964 407.959C97.3273 407.754 97.6116 407.472 97.8169 407.114C98.0222 406.751 98.1249 406.345 98.1249 405.898C98.1249 405.44 98.0196 405.029 97.809 404.666C97.5984 404.297 97.3062 404.01 96.9324 403.805C96.5586 403.594 96.1348 403.486 95.661 403.481C94.6923 403.481 94.0236 403.818 93.6551 404.492H92.0125L92.7548 398.127H99.2305V399.612H94.1921L93.8131 402.818H93.9236C94.1658 402.586 94.4764 402.402 94.8555 402.265C95.2398 402.123 95.6452 402.049 96.0716 402.044C96.7824 402.044 97.422 402.21 97.9906 402.541C98.5592 402.868 99.0041 403.321 99.3253 403.9C99.6517 404.474 99.8149 405.124 99.8149 405.85C99.8149 406.593 99.6411 407.259 99.2937 407.848C98.9462 408.433 98.4618 408.891 97.8406 409.222C97.2246 409.554 96.5244 409.72 95.74 409.72Z" fill="#333333"/>
<path d="M90.372 404.571H85.3021V403.118H90.372V404.571Z" fill="#333333"/>
<path d="M75.3221 405.929L80.3763 398.127H82.5243V405.866H84.088V407.335H82.5243V409.562H80.8817V407.335H75.3221V405.929ZM80.8817 405.866V400.196H80.7554L77.1543 405.771V405.866H80.8817Z" fill="#333333"/>
<path d="M70.0806 409.72C69.3014 409.72 68.6012 409.588 67.98 409.325C67.364 409.062 66.877 408.693 66.519 408.219C66.1663 407.74 65.9794 407.193 65.9583 406.577H67.7273C67.7483 406.903 67.8615 407.193 68.0668 407.445C68.2774 407.693 68.5565 407.885 68.9039 408.022C69.2514 408.153 69.6384 408.219 70.0648 408.219C70.5229 408.219 70.9309 408.143 71.2889 407.99C71.6521 407.832 71.9364 407.611 72.1418 407.327C72.3471 407.043 72.4498 406.719 72.4498 406.356C72.4498 405.976 72.3471 405.642 72.1418 405.353C71.9417 405.058 71.6469 404.829 71.2573 404.666C70.8677 404.497 70.407 404.413 69.8753 404.413H68.896V402.991H69.8753C70.307 402.991 70.6887 402.918 71.0204 402.77C71.3573 402.618 71.6179 402.404 71.8022 402.131C71.9917 401.857 72.0865 401.538 72.0865 401.175C72.0865 400.828 72.0049 400.522 71.8417 400.259C71.6785 399.996 71.4468 399.79 71.1467 399.643C70.8466 399.496 70.4965 399.422 70.0964 399.422C69.7121 399.422 69.3514 399.49 69.0145 399.627C68.6828 399.764 68.4143 399.961 68.209 400.219C68.0037 400.472 67.8957 400.764 67.8852 401.096H66.211C66.2268 400.491 66.4084 399.951 66.7559 399.477C67.1087 398.998 67.5799 398.627 68.1695 398.364C68.7592 398.1 69.4067 397.969 70.1122 397.969C70.844 397.969 71.4863 398.108 72.0391 398.387C72.5919 398.666 73.0184 399.045 73.3184 399.524C73.6185 399.998 73.7659 400.517 73.7607 401.08C73.7659 401.723 73.5869 402.267 73.2237 402.715C72.8604 403.162 72.3655 403.465 71.739 403.623V403.702C72.255 403.776 72.6972 403.936 73.0657 404.184C73.4395 404.426 73.7212 404.739 73.9107 405.124C74.1055 405.508 74.2029 405.94 74.2029 406.419C74.2029 407.045 74.0239 407.611 73.6659 408.117C73.3132 408.617 72.8209 409.009 72.1892 409.293C71.5626 409.578 70.8598 409.72 70.0806 409.72Z" fill="#333333"/>
<path d="M56.9419 408.298L60.9063 404.302C61.3854 403.807 61.7513 403.407 62.004 403.102C62.2567 402.791 62.4488 402.491 62.5805 402.202C62.7173 401.907 62.7858 401.596 62.7858 401.27C62.7858 400.901 62.6936 400.577 62.5094 400.298C62.3251 400.019 62.0724 399.804 61.7513 399.651C61.4301 399.498 61.0695 399.422 60.6693 399.422C60.2482 399.422 59.8796 399.506 59.5637 399.675C59.2531 399.843 59.0109 400.08 58.8372 400.385C58.6687 400.685 58.5845 401.038 58.5845 401.443H56.9419C56.9366 400.759 57.0946 400.154 57.4157 399.627C57.7369 399.101 58.1844 398.693 58.7582 398.403C59.3321 398.114 59.9797 397.969 60.7009 397.969C61.4222 397.969 62.0645 398.111 62.6278 398.395C63.1964 398.674 63.6387 399.061 63.9546 399.556C64.2757 400.051 64.4389 400.606 64.4442 401.222C64.4389 401.659 64.3547 402.081 64.1915 402.486C64.0283 402.886 63.7492 403.334 63.3544 403.828C62.9595 404.318 62.4015 404.918 61.6802 405.629L59.3584 407.982V408.077H64.6337V409.562H56.9419V408.298Z" fill="#333333"/>
<path d="M54.5748 409.562H52.8216V399.864H52.7585L50.0261 401.649V399.991L52.869 398.127H54.5748V409.562Z" fill="#333333"/>
<path d="M48.7489 404.571H43.6789V403.118H48.7489V404.571Z" fill="#333333"/>
<path d="M38.2162 409.72C37.337 409.72 36.5815 409.491 35.9497 409.033C35.3232 408.569 34.8441 407.898 34.5124 407.019C34.1807 406.14 34.0149 405.081 34.0149 403.844C34.0149 402.612 34.1807 401.557 34.5124 400.677C34.8494 399.798 35.3311 399.127 35.9576 398.664C36.5894 398.2 37.3422 397.969 38.2162 397.969C39.0849 397.969 39.8324 398.2 40.459 398.664C41.0907 399.127 41.5751 399.798 41.912 400.677C42.249 401.557 42.4174 402.612 42.4174 403.844C42.4174 405.081 42.249 406.142 41.912 407.027C41.5803 407.906 41.1013 408.575 40.4747 409.033C39.8482 409.491 39.0954 409.72 38.2162 409.72ZM35.7523 403.884C35.7523 404.816 35.8497 405.605 36.0445 406.253C36.2393 406.9 36.5209 407.39 36.8894 407.722C37.258 408.053 37.7002 408.219 38.2162 408.219C38.7321 408.219 39.1744 408.053 39.5429 407.722C39.9114 407.385 40.1931 406.89 40.3879 406.237C40.5827 405.584 40.6801 404.787 40.6801 403.844C40.6801 402.907 40.58 402.109 40.38 401.451C40.1852 400.793 39.9035 400.296 39.535 399.959C39.1665 399.617 38.7268 399.443 38.2162 399.438C37.7002 399.438 37.258 399.611 36.8894 399.959C36.5209 400.301 36.2393 400.806 36.0445 401.475C35.8497 402.138 35.7523 402.941 35.7523 403.884Z" fill="#333333"/>
<path d="M31.869 409.562H30.1158V399.864H30.0527L27.3203 401.649V399.991L30.1632 398.127H31.869V409.562Z" fill="#333333"/>
<path d="M22.0628 409.72C21.1836 409.72 20.4281 409.491 19.7964 409.033C19.1699 408.569 18.6908 407.898 18.3591 407.019C18.0274 406.14 17.8616 405.081 17.8616 403.844C17.8616 402.612 18.0274 401.557 18.3591 400.677C18.696 399.798 19.1778 399.127 19.8043 398.664C20.436 398.2 21.1889 397.969 22.0628 397.969C22.9315 397.969 23.6791 398.2 24.3056 398.664C24.9374 399.127 25.4218 399.798 25.7587 400.677C26.0957 401.557 26.2641 402.612 26.2641 403.844C26.2641 405.081 26.0957 406.142 25.7587 407.027C25.427 407.906 24.9479 408.575 24.3214 409.033C23.6949 409.491 22.9421 409.72 22.0628 409.72ZM19.5989 403.884C19.5989 404.816 19.6963 405.605 19.8911 406.253C20.0859 406.9 20.3676 407.39 20.7361 407.722C21.1047 408.053 21.5469 408.219 22.0628 408.219C22.5788 408.219 23.021 408.053 23.3896 407.722C23.7581 407.385 24.0398 406.89 24.2346 406.237C24.4294 405.584 24.5268 404.787 24.5268 403.844C24.5268 402.907 24.4267 402.109 24.2267 401.451C24.0319 400.793 23.7502 400.296 23.3817 399.959C23.0131 399.617 22.5735 399.443 22.0628 399.438C21.5469 399.438 21.1047 399.611 20.7361 399.959C20.3676 400.301 20.0859 400.806 19.8911 401.475C19.6963 402.138 19.5989 402.941 19.5989 403.884Z" fill="#333333"/>
<path d="M47.015 579.307H36.668V578.226H41.1886V576.64H42.5083V578.226H47.015V579.307ZM36.1204 586.537H41.1886V584.874C40.4539 584.827 39.8198 584.703 39.2863 584.502C38.7575 584.296 38.3527 584.02 38.0719 583.673C37.7911 583.327 37.6507 582.925 37.6507 582.466C37.6507 581.965 37.8192 581.535 38.1561 581.174C38.4931 580.814 38.9774 580.54 39.6092 580.353C40.241 580.161 40.9874 580.065 41.8485 580.065C42.7002 580.065 43.4396 580.161 44.0667 580.353C44.6985 580.54 45.1828 580.814 45.5198 581.174C45.8614 581.535 46.0322 581.965 46.0322 582.466C46.0322 582.925 45.8895 583.327 45.604 583.673C45.3232 584.02 44.9184 584.296 44.3896 584.502C43.8608 584.703 43.2337 584.827 42.5083 584.874V586.537H47.6327V587.618H36.1204V586.537ZM39.0125 582.466C39.0078 582.901 39.2512 583.236 39.7426 583.47C40.2386 583.704 40.9406 583.823 41.8485 583.828C42.7423 583.823 43.4373 583.704 43.9333 583.47C44.4294 583.236 44.6751 582.901 44.6704 582.466C44.6751 582.035 44.4294 581.703 43.9333 581.469C43.4373 581.235 42.7423 581.118 41.8485 581.118C40.9453 581.118 40.2457 581.235 39.7496 581.469C39.2535 581.703 39.0078 582.035 39.0125 582.466Z" fill="#555555"/>
<path d="M34.7221 585.765H33.3883V581.019H30.6366V583.673H24.8384V577.299H26.1721V579.433H29.3169V577.299H30.6366V579.938H33.3883V576.471H34.7221V585.765ZM29.3169 582.592V580.458H26.1721V582.592H29.3169ZM26.5091 584.852H27.8568V587.688H35.0029V588.769H26.5091V584.852Z" fill="#555555"/>
<path d="M22.8364 585.793H21.5027V582.325H19.5371V581.202H21.5027V579.883H19.5371V578.788H21.5027V576.457H22.8364V585.793ZM13.8933 582.88V578.521H12.714V577.44H19.3968V578.521H18.1894V582.733C18.8539 582.681 19.3687 582.634 19.7337 582.592L19.7899 583.575C18.7182 583.743 17.574 583.858 16.3572 583.919C15.1405 583.975 13.8652 584.006 12.5315 584.01L12.363 582.887L13.8933 582.88ZM14.6374 585.035H15.9852V587.689H23.1593V588.77H14.6374V585.035ZM15.1849 582.859C15.55 582.85 16.1256 582.831 16.9118 582.803V578.521H15.1849V582.859Z" fill="#555555"/>
<path d="M11.9615 584.712H6.82308V589.036H5.51742V584.712H0.449219V583.603H11.9615V584.712ZM1.69872 579.728C1.69872 579.167 1.88591 578.675 2.2603 578.254C2.63936 577.828 3.16583 577.503 3.83972 577.279C4.51361 577.049 5.2928 576.935 6.17727 576.935C7.06175 576.935 7.84094 577.049 8.51483 577.279C9.19339 577.503 9.71987 577.828 10.0943 578.254C10.4686 578.675 10.6558 579.167 10.6558 579.728C10.6558 580.285 10.4686 580.772 10.0943 581.188C9.71987 581.605 9.19339 581.928 8.51483 582.157C7.84094 582.382 7.06175 582.494 6.17727 582.494C5.29747 582.494 4.51829 582.382 3.83972 582.157C3.16583 581.928 2.63936 581.605 2.2603 581.188C1.88591 580.772 1.69872 580.285 1.69872 579.728ZM3.07458 579.728C3.07458 580.075 3.20093 580.377 3.45364 580.634C3.71103 580.887 4.07371 581.083 4.54169 581.224C5.01435 581.359 5.55954 581.427 6.17727 581.427C6.79969 581.427 7.34488 581.359 7.81286 581.224C8.28084 581.083 8.64352 580.887 8.90091 580.634C9.16298 580.377 9.29401 580.075 9.29401 579.728C9.29401 579.377 9.16298 579.073 8.90091 578.816C8.64352 578.558 8.28084 578.36 7.81286 578.219C7.34488 578.074 6.79969 578.002 6.17727 578.002C5.55954 578.002 5.01435 578.074 4.54169 578.219C4.07371 578.36 3.71103 578.558 3.45364 578.816C3.20093 579.073 3.07458 579.377 3.07458 579.728Z" fill="#555555"/>
<path d="M0 607.61C0 603.64 3.21824 600.422 7.18815 600.422H206.659C210.629 600.422 213.847 603.64 213.847 607.61V642.652C213.847 646.622 210.629 649.84 206.659 649.84H7.18815C3.21824 649.84 0 646.622 0 642.652V607.61Z" fill="white"/>
<path fill-rule="evenodd" clip-rule="evenodd" d="M206.659 601.32H7.18815C3.71448 601.32 0.898519 604.136 0.898519 607.61V642.652C0.898519 646.126 3.71448 648.942 7.18815 648.942H206.659C210.133 648.942 212.949 646.126 212.949 642.652V607.61C212.949 604.136 210.133 601.32 206.659 601.32ZM7.18815 600.422C3.21824 600.422 0 603.64 0 607.61V642.652C0 646.622 3.21824 649.84 7.18815 649.84H206.659C210.629 649.84 213.847 646.622 213.847 642.652V607.61C213.847 603.64 210.629 600.422 206.659 600.422H7.18815Z" fill="#DADADA"/>
<path d="M222.833 607.61C222.833 603.64 226.051 600.422 230.021 600.422H349.524C353.494 600.422 356.712 603.64 356.712 607.61V642.652C356.712 646.622 353.494 649.84 349.524 649.84H230.021C226.051 649.84 222.833 646.622 222.833 642.652V607.61Z" fill="white"/>
<path fill-rule="evenodd" clip-rule="evenodd" d="M349.524 601.32H230.021C226.547 601.32 223.731 604.136 223.731 607.61V642.652C223.731 646.126 226.547 648.942 230.021 648.942H349.524C352.997 648.942 355.813 646.126 355.813 642.652V607.61C355.813 604.136 352.997 601.32 349.524 601.32ZM230.021 600.422C226.051 600.422 222.833 603.64 222.833 607.61V642.652C222.833 646.622 226.051 649.84 230.021 649.84H349.524C353.494 649.84 356.712 646.622 356.712 642.652V607.61C356.712 603.64 353.494 600.422 349.524 600.422H230.021Z" fill="#555555"/>
<path d="M326.131 618.687H324.784V631.266H326.131V618.687ZM315.798 627.896L316.5 628.977C320.817 626.907 322.383 623.72 322.383 620.034H316.402V621.101H321.035C320.775 624.036 319.14 626.303 315.798 627.896Z" fill="#555555"/>
<path d="M308.195 621.284V621.144H310.932V620.077H308.209V618.631H306.875V620.077H304.137V621.144H306.875V621.284C306.875 622.85 305.682 624.261 303.758 624.808L304.404 625.861C305.892 625.405 306.994 624.443 307.549 623.194C308.11 624.324 309.184 625.208 310.652 625.622L311.255 624.598C309.332 624.064 308.195 622.716 308.195 621.284ZM305.008 630.185L305.499 631.21C307.401 630.908 308.96 630.052 309.683 628.859C310.413 630.052 311.978 630.929 313.895 631.224L314.386 630.199C312.28 629.883 310.659 628.823 310.427 627.644H313.867V626.577H305.513V627.644H308.96C308.721 628.852 307.121 629.883 305.008 630.185ZM312.336 625.945H313.67V622.815H315.495V621.705H313.67V618.687H312.336V625.945Z" fill="#555555"/>
<path d="M299.824 620.456H295.318V618.869H293.998V620.456H289.477V621.537H299.824V620.456ZM288.93 629.848H300.442V628.767H295.318V627.103C297.494 626.963 298.849 626.092 298.842 624.695C298.849 623.179 297.22 622.288 294.658 622.295C292.061 622.288 290.453 623.179 290.46 624.695C290.453 626.092 291.794 626.963 293.998 627.103V628.767H288.93V629.848ZM291.822 624.695C291.808 623.825 292.861 623.348 294.658 623.348C296.427 623.348 297.487 623.825 297.48 624.695C297.487 625.573 296.427 626.05 294.658 626.057C292.861 626.05 291.808 625.573 291.822 624.695Z" fill="#555555"/>
<path d="M287.532 618.701H286.198V622.169H283.446V619.529H282.126V621.663H278.982V619.529H277.648V625.903H283.446V623.25H286.198V627.995H287.532V618.701ZM278.982 624.822V622.688H282.126V624.822H278.982ZM279.319 631H287.812V629.919H280.666V627.083H279.319V631Z" fill="#555555"/>
<path d="M275.646 618.687H274.312V621.017H272.347V622.112H274.312V623.432H272.347V624.555H274.312V628.023H275.646V618.687ZM265.172 625.117L265.341 626.24C267.356 626.233 270.192 626.184 272.599 625.804L272.543 624.822C272.045 624.878 271.532 624.92 270.999 624.962V620.75H272.206V619.669H265.523V620.75H266.703V625.11C266.162 625.11 265.643 625.117 265.172 625.117ZM267.447 630.999H275.969V629.918H268.795V627.265H267.447V630.999ZM267.994 625.088V620.75H269.721V625.032C269.139 625.053 268.563 625.074 267.994 625.088Z" fill="#555555"/>
<path d="M264.771 625.833H253.259V626.942H258.327V631.266H259.633V626.942H264.771V625.833ZM254.508 621.958C254.515 623.65 256.326 624.724 258.987 624.724C261.647 624.724 263.472 623.65 263.465 621.958C263.472 620.245 261.647 619.164 258.987 619.164C256.326 619.164 254.515 620.245 254.508 621.958ZM255.884 621.958C255.877 620.898 257.119 620.238 258.987 620.231C260.861 620.238 262.096 620.898 262.103 621.958C262.096 623.004 260.861 623.657 258.987 623.657C257.119 623.657 255.877 623.004 255.884 621.958Z" fill="#555555"/>
<path d="M34.7221 473.061H33.3883V471.193H30.6507V472.218H24.8103V466.574H30.6507V467.613H33.3883V465.634H34.7221V473.061ZM29.345 471.151V467.641H26.13V471.151H29.345ZM26.2564 475.812C26.2564 475.307 26.4248 474.874 26.7618 474.514C27.1034 474.153 27.5924 473.88 28.2289 473.692C28.87 473.505 29.6305 473.412 30.5103 473.412C31.3854 473.412 32.1412 473.505 32.7776 473.692C33.4141 473.88 33.9031 474.153 34.2447 474.514C34.5911 474.874 34.7642 475.307 34.7642 475.812C34.7642 476.313 34.5911 476.741 34.2447 477.097C33.9031 477.453 33.4141 477.722 32.7776 477.904C32.1412 478.091 31.3854 478.185 30.5103 478.185C29.6305 478.185 28.87 478.091 28.2289 477.904C27.5924 477.722 27.1034 477.453 26.7618 477.097C26.4248 476.741 26.2564 476.313 26.2564 475.812ZM27.5761 475.812C27.5761 476.093 27.6907 476.334 27.92 476.535C28.154 476.737 28.491 476.891 28.9309 476.999C29.3708 477.106 29.8972 477.16 30.5103 477.16C31.1187 477.16 31.6428 477.106 32.0827 476.999C32.5226 476.891 32.8595 476.737 33.0935 476.535C33.3275 476.334 33.4445 476.093 33.4445 475.812C33.4398 475.372 33.1801 475.035 32.6653 474.801C32.1505 474.563 31.4322 474.441 30.5103 474.436C29.579 474.441 28.856 474.563 28.3412 474.801C27.8264 475.035 27.5714 475.372 27.5761 475.812ZM33.3883 470.112V468.68H30.6507V470.112H33.3883Z" fill="#555555"/>
<path d="M23.1172 472.302H21.8536V465.647H23.1172V472.302ZM12.9387 466.321H17.7822V467.388H14.2724V470.688H14.504C15.2715 470.688 15.9454 470.667 16.5257 470.624C17.106 470.578 17.7027 470.5 18.3157 470.393L18.4 471.46C17.7074 471.586 17.0241 471.67 16.3502 471.712C15.681 471.75 14.8153 471.769 13.7529 471.769H12.9387V466.321ZM14.6374 472.808H23.1172V475.868H15.9852V476.991H23.5664V478.058H14.6655V474.857H21.8256V473.86H14.6374V472.808ZM17.0101 468.371H19.3968V465.886H20.6603V472.204H19.3968V469.396H17.0101V468.371Z" fill="#555555"/>
<path d="M11.9755 476.641H0.463257V475.531H5.53146V472.625H1.78296V466.645H10.5997V472.625H6.85116V475.531H11.9755V476.641ZM9.29401 471.572V467.712H3.07458V471.572H9.29401Z" fill="#555555"/>
<path d="M0 496.788C0 492.818 3.21824 489.6 7.18815 489.6H352.219C356.189 489.6 359.407 492.818 359.407 496.788V531.83C359.407 535.8 356.189 539.018 352.219 539.018H7.18814C3.21824 539.018 0 535.8 0 531.83V496.788Z" fill="white"/>
<path fill-rule="evenodd" clip-rule="evenodd" d="M352.219 490.498H7.18815C3.71448 490.498 0.898519 493.314 0.898519 496.788V531.83C0.898519 535.304 3.71448 538.12 7.18814 538.12H352.219C355.693 538.12 358.509 535.304 358.509 531.83V496.788C358.509 493.314 355.693 490.498 352.219 490.498ZM7.18815 489.6C3.21824 489.6 0 492.818 0 496.788V531.83C0 535.8 3.21824 539.018 7.18814 539.018H352.219C356.189 539.018 359.407 535.8 359.407 531.83V496.788C359.407 492.818 356.189 489.6 352.219 489.6H7.18815Z" fill="#DADADA"/>
<path d="M128.924 519.723H115.973V518.475H119.068V514.779C118.474 514.453 118.013 514.039 117.686 513.539C117.36 513.039 117.199 512.478 117.205 511.857C117.205 511.125 117.426 510.48 117.868 509.922C118.31 509.364 118.926 508.932 119.716 508.627C120.511 508.316 121.411 508.161 122.417 508.161C123.422 508.161 124.323 508.316 125.118 508.627C125.913 508.932 126.531 509.364 126.973 509.922C127.421 510.48 127.645 511.125 127.645 511.857C127.645 512.473 127.487 513.028 127.171 513.523C126.855 514.013 126.408 514.421 125.828 514.747V518.475H128.924V519.723ZM118.658 511.857C118.658 512.357 118.816 512.797 119.132 513.176C119.448 513.555 119.89 513.85 120.458 514.06C121.027 514.266 121.68 514.368 122.417 514.368C123.149 514.368 123.799 514.263 124.367 514.052C124.941 513.842 125.389 513.55 125.71 513.176C126.031 512.797 126.192 512.357 126.192 511.857C126.192 511.357 126.031 510.92 125.71 510.546C125.389 510.167 124.941 509.875 124.367 509.669C123.799 509.464 123.149 509.361 122.417 509.361C121.68 509.361 121.027 509.464 120.458 509.669C119.89 509.875 119.448 510.167 119.132 510.546C118.816 510.92 118.658 511.357 118.658 511.857ZM124.312 518.475V515.332C123.723 515.469 123.091 515.537 122.417 515.537C121.753 515.537 121.132 515.469 120.553 515.332V518.475H124.312Z" fill="#AAAAAA"/>
<path d="M106.846 511.209C106.846 511.978 106.954 512.739 107.17 513.492C107.385 514.239 107.707 514.924 108.133 515.545C108.559 516.166 109.078 516.664 109.689 517.038L108.852 518.191C108.209 517.806 107.659 517.282 107.201 516.619C106.748 515.95 106.396 515.192 106.143 514.345C105.88 515.266 105.503 516.087 105.014 516.809C104.529 517.53 103.95 518.096 103.276 518.506L102.344 517.385C102.992 516.995 103.545 516.477 104.003 515.829C104.466 515.182 104.814 514.466 105.045 513.681C105.282 512.892 105.398 512.089 105.393 511.273V508.635H106.846V511.209ZM108.157 512.315H110.352V507.608H111.774V520.797H110.352V513.563H108.157V512.315ZM113.274 507.34H114.711V521.492H113.274V507.34Z" fill="#AAAAAA"/>
<path d="M100.12 513.073H102.394V514.321H100.12V521.492H98.6349V507.34H100.12V513.073ZM89.0161 509.551H92.5067V507.529H94.0071V509.551H97.4029V510.783H89.0161V509.551ZM89.7427 515.111C89.7427 514.479 89.8927 513.913 90.1928 513.413C90.4982 512.913 90.9167 512.523 91.4485 512.244C91.9855 511.965 92.5909 511.825 93.2648 511.825C93.9334 511.825 94.5336 511.965 95.0653 512.244C95.6024 512.523 96.0235 512.913 96.3289 513.413C96.6342 513.913 96.7869 514.479 96.7869 515.111C96.7869 515.748 96.6342 516.316 96.3289 516.816C96.0235 517.317 95.6024 517.709 95.0653 517.993C94.5336 518.272 93.9334 518.412 93.2648 518.412C92.5909 518.412 91.9855 518.272 91.4485 517.993C90.9167 517.709 90.4982 517.317 90.1928 516.816C89.8927 516.316 89.7427 515.748 89.7427 515.111ZM91.18 515.111C91.18 515.516 91.2668 515.874 91.4406 516.185C91.6196 516.495 91.867 516.735 92.1829 516.903C92.504 517.072 92.8647 517.153 93.2648 517.148C93.6597 517.153 94.015 517.072 94.3309 516.903C94.6468 516.735 94.8942 516.495 95.0732 516.185C95.2575 515.874 95.3496 515.516 95.3496 515.111C95.3496 514.716 95.2575 514.363 95.0732 514.052C94.8942 513.742 94.6468 513.5 94.3309 513.326C94.015 513.147 93.6597 513.057 93.2648 513.057C92.8647 513.057 92.504 513.147 92.1829 513.326C91.867 513.5 91.6196 513.742 91.4406 514.052C91.2668 514.363 91.18 514.716 91.18 515.111Z" fill="#AAAAAA"/>
<path d="M81.7687 509.567H77.678V511.146H81.6108V512.299H77.678V514.021C78.6783 514.01 79.518 513.981 80.1972 513.934C80.8816 513.881 81.5739 513.789 82.2741 513.657L82.4163 514.889C81.6582 515.031 80.9158 515.129 80.1893 515.182C79.468 515.229 78.573 515.253 77.5043 515.253H77.1568H76.2407V508.351H81.7687V509.567ZM78.1044 516.627H87.7232V521.491H86.2385V517.843H78.1044V516.627ZM83.1586 507.608H84.5643V510.957H86.3017V507.355H87.7232V515.948H86.3017V512.173H84.5643V515.837H83.1586V507.608Z" fill="#AAAAAA"/>
<path d="M67.2084 509.93C67.2137 510.572 67.3532 511.193 67.627 511.794C67.9008 512.389 68.293 512.918 68.8037 513.381C69.3196 513.844 69.9251 514.2 70.62 514.447L69.7987 515.616C69.0353 515.321 68.3693 514.895 67.8007 514.337C67.2321 513.778 66.7952 513.131 66.4898 512.394C66.1792 513.22 65.7264 513.942 65.1315 514.558C64.5366 515.168 63.8285 515.632 63.0072 515.948L62.2017 514.763C62.9229 514.505 63.5468 514.131 64.0733 513.642C64.605 513.147 65.0104 512.575 65.2894 511.928C65.5737 511.275 65.7185 510.593 65.7238 509.883V508.208H67.2084V509.93ZM64.7761 516.721H66.2924V519.975H74.3317V521.191H64.7761V516.721ZM69.5302 510.577H72.5153V507.355H74.0158V517.906H72.5153V511.809H69.5302V510.577Z" fill="#AAAAAA"/>
<path d="M51.8133 507.577C52.8767 507.577 53.7849 507.669 54.5378 507.854C55.2906 508.038 55.8671 508.314 56.2672 508.683C56.6674 509.046 56.8674 509.488 56.8674 510.009C56.8674 510.536 56.6674 510.983 56.2672 511.352C55.8671 511.715 55.2906 511.992 54.5378 512.181C53.7849 512.365 52.8767 512.458 51.8133 512.458C50.7498 512.458 49.839 512.365 49.0809 512.181C48.328 511.992 47.7515 511.715 47.3514 511.352C46.9565 510.983 46.7591 510.536 46.7591 510.009C46.7591 509.488 46.9565 509.046 47.3514 508.683C47.7515 508.314 48.328 508.038 49.0809 507.854C49.839 507.669 50.7498 507.577 51.8133 507.577ZM45.3692 513.326H58.2731V514.527H45.3692V513.326ZM46.917 515.616H56.6463V518.933H48.4017V520.197H57.0412V521.35H46.9328V517.843H55.1616V516.738H46.917V515.616ZM48.3227 510.009C48.3175 510.446 48.6149 510.778 49.2151 511.005C49.8153 511.226 50.6813 511.336 51.8133 511.336C52.9557 511.336 53.827 511.226 54.4272 511.005C55.0274 510.778 55.3249 510.446 55.3196 510.009C55.3249 509.588 55.0221 509.262 54.4114 509.03C53.806 508.799 52.9399 508.683 51.8133 508.683C50.6919 508.683 49.8285 508.799 49.223 509.03C48.6176 509.262 48.3175 509.588 48.3227 510.009Z" fill="#AAAAAA"/>
<path d="M44.0447 514.842H42.6232V507.355H44.0447V514.842ZM32.5938 508.114H38.0428V509.314H34.0943V513.026H34.3549C35.2183 513.026 35.9764 513.002 36.6292 512.955C37.2821 512.902 37.9533 512.815 38.643 512.694L38.7378 513.894C37.9586 514.036 37.1899 514.131 36.4318 514.179C35.679 514.221 34.705 514.242 33.5099 514.242H32.5938V508.114ZM34.5049 515.411H44.0447V518.854H36.0212V520.117H44.5501V521.318H34.5365V517.717H42.5916V516.595H34.5049V515.411ZM37.1741 510.42H39.8592V507.624H41.2807V514.731H39.8592V511.573H37.1741V510.42Z" fill="#AAAAAA"/>
<path d="M31.4429 519.723H18.4916V518.475H24.1933V515.206H19.9762V508.478H29.895V515.206H25.678V518.475H31.4429V519.723ZM28.4262 514.021V509.678H21.4293V514.021H28.4262Z" fill="#AAAAAA"/>
<path d="M329.026 511.413C329.191 511.257 329.386 511.177 329.61 511.172C329.833 511.167 330.028 511.248 330.193 511.413L334.615 515.834L339.036 511.413C339.191 511.257 339.384 511.175 339.612 511.165C339.841 511.155 340.038 511.233 340.203 511.398C340.368 511.554 340.454 511.749 340.458 511.982C340.463 512.215 340.383 512.41 340.218 512.566L335.096 517.702C335.028 517.77 334.953 517.821 334.87 517.855C334.787 517.889 334.702 517.906 334.615 517.906C334.527 517.906 334.442 517.889 334.359 517.855C334.277 517.821 334.201 517.77 334.133 517.702L329.011 512.58C328.856 512.425 328.778 512.232 328.778 512.004C328.778 511.775 328.861 511.578 329.026 511.413Z" fill="#999999"/>
<defs>
<clipPath id="clip0_142_438">
<rect width="7.08931" height="7.08931" fill="white" transform="translate(327.959 156.773)"/>
</clipPath>
</defs>
</svg>
