<svg width="737" height="740" viewBox="0 0 737 740" fill="none" xmlns="http://www.w3.org/2000/svg">
<path d="M191.149 490.898V473.746H194.573V475.954C195.981 474.354 198.061 473.458 200.109 473.458C203.085 473.458 205.645 475.41 205.645 479.122V490.898H202.157V479.826C202.157 477.906 200.909 476.626 198.733 476.626C197.389 476.626 195.693 477.586 194.637 479.026V490.898H191.149Z" fill="#333333"/>
<path d="M180.307 488.402C182.675 488.402 184.723 486.418 184.723 482.642V481.97C184.723 477.906 182.483 476.274 180.211 476.274C177.811 476.274 175.731 478.194 175.731 481.938V482.61C175.731 486.738 178.067 488.402 180.307 488.402ZM180.243 491.41C175.507 491.41 172.083 487.986 172.083 482.61V482.258C172.083 476.626 175.923 473.234 180.275 473.234C184.883 473.234 188.435 476.562 188.435 482.066V482.418C188.435 487.922 184.563 491.41 180.243 491.41Z" fill="#333333"/>
<path d="M166.739 491.154C164.019 491.154 161.875 489.682 161.875 485.874V476.722H159.155V473.746H161.875V469.394H165.363V473.746H170.291V476.722H165.363V485.33C165.363 486.994 166.099 487.986 167.699 487.986C168.499 487.986 169.939 487.602 170.771 487.058L171.379 490.034C170.483 490.642 168.563 491.154 166.739 491.154Z" fill="#333333"/>
<path d="M153.847 491.154C151.127 491.154 148.983 489.682 148.983 485.874V476.722H146.263V473.746H148.983V469.394H152.471V473.746H157.399V476.722H152.471V485.33C152.471 486.994 153.207 487.986 154.807 487.986C155.607 487.986 157.047 487.602 157.879 487.058L158.487 490.034C157.591 490.642 155.671 491.154 153.847 491.154Z" fill="#333333"/>
<path d="M143.512 473.746V490.898H140.089V488.786C138.841 490.322 136.728 491.186 134.712 491.186C131.736 491.186 129.208 489.266 129.208 485.522V473.746H132.697V484.85C132.697 486.866 133.881 488.018 136.057 488.018C137.401 488.018 139.097 487.026 140.057 485.618V473.746H143.512Z" fill="#333333"/>
<path d="M112.932 477.362H117.22C119.524 477.362 121.636 476.53 121.636 473.906C121.636 471.57 120.004 470.77 117.38 470.77H112.932V477.362ZM112.932 487.858H117.956C120.644 487.858 122.404 486.578 122.404 483.954C122.404 481.49 120.356 480.306 117.572 480.306H112.932V487.858ZM109.412 490.93V467.666H117.764C122.884 467.666 125.188 469.682 125.188 473.362C125.188 475.602 123.972 477.874 121.348 478.578C124.1 479.186 126.148 480.978 126.148 484.21C126.148 488.178 123.428 490.93 118.404 490.93H109.412Z" fill="#333333"/>
<path d="M95.737 479.73V476.722H105.977V479.73H95.737Z" fill="#333333"/>
<path d="M77.6918 490.898V473.746H81.1158V475.954C82.5238 474.354 84.6038 473.458 86.6518 473.458C89.6278 473.458 92.1878 475.41 92.1878 479.122V490.898H88.6998V479.826C88.6998 477.906 87.4518 476.626 85.2758 476.626C83.9318 476.626 82.2358 477.586 81.1798 479.026V490.898H77.6918Z" fill="#333333"/>
<path d="M66.8495 488.402C69.2175 488.402 71.2655 486.418 71.2655 482.642V481.97C71.2655 477.906 69.0255 476.274 66.7535 476.274C64.3535 476.274 62.2735 478.194 62.2735 481.938V482.61C62.2735 486.738 64.6095 488.402 66.8495 488.402ZM66.7855 491.41C62.0495 491.41 58.6255 487.986 58.6255 482.61V482.258C58.6255 476.626 62.4655 473.234 66.8175 473.234C71.4255 473.234 74.9775 476.562 74.9775 482.066V482.418C74.9775 487.922 71.1055 491.41 66.7855 491.41Z" fill="#333333"/>
<path d="M52.2233 470.642V466.962H55.8073V470.642H52.2233ZM52.2873 490.93V473.714H55.7753V490.93H52.2873Z" fill="#333333"/>
<path d="M45.4835 491.154C42.7635 491.154 40.6195 489.682 40.6195 485.874V476.722H37.8995V473.746H40.6195V469.394H44.1075V473.746H49.0355V476.722H44.1075V485.33C44.1075 486.994 44.8435 487.986 46.4435 487.986C47.2435 487.986 48.6835 487.602 49.5155 487.058L50.1235 490.034C49.2275 490.642 47.3075 491.154 45.4835 491.154Z" fill="#333333"/>
<path d="M30.5233 491.346C25.8193 491.346 22.2353 488.082 22.2353 482.418V481.842C22.2353 476.114 26.2673 473.298 30.5553 473.298C33.0193 473.298 34.9713 474.002 36.0913 474.898L34.9713 477.81C34.0113 477.074 32.5393 476.434 30.8433 476.434C28.3473 476.434 25.9793 478.514 25.9793 481.714V482.45C25.9793 485.906 28.1233 488.146 30.9713 488.146C32.6353 488.146 34.3633 487.442 35.2273 486.834L36.1873 489.81C35.1633 490.61 32.7313 491.346 30.5233 491.346Z" fill="#333333"/>
<path d="M10.624 472.178L7.29601 481.97H13.984L10.624 472.178ZM0.320007 490.93L8.99201 467.666H12.608L21.184 490.93H17.12L15.04 485.01H6.20801L4.19201 490.93H0.320007Z" fill="#333333"/>
<path d="M53.0708 446.122V433.126H55.5368L59.0288 444.052L62.6648 433.126H65.0228V446.122H63.4208V435.322L59.8748 446.14H58.1468L54.6548 435.286V446.122H53.0708Z" fill="#ED0080"/>
<path d="M43.2706 446.122V433.126H51.1906V434.548H44.8726V438.562H50.6146V440.02H44.8726V444.682H51.2806V446.122H43.2706Z" fill="#ED0080"/>
<path d="M37.6019 434.584V446.14H35.9639V434.584H31.7879V433.144H41.8319V434.584H37.6019Z" fill="#ED0080"/>
<path d="M25.9922 446.374C24.4082 446.374 22.6622 445.78 21.7262 445.222L22.2482 443.71C23.1662 444.304 24.7142 444.844 25.9382 444.844C27.7922 444.844 28.9982 443.854 28.9982 442.504C28.9982 441.334 28.2782 440.686 26.6582 440.344L25.2362 440.02C23.5262 439.642 21.9602 438.508 21.9602 436.474C21.9602 434.494 23.5802 433 26.2982 433C28.0082 433 29.6102 433.558 30.4382 434.188L29.8442 435.538C29.0342 434.98 27.7562 434.458 26.2802 434.458C24.6602 434.458 23.6702 435.214 23.6702 436.366C23.6702 437.572 24.5882 438.292 25.9382 438.58L27.2702 438.85C29.5022 439.354 30.7262 440.344 30.7262 442.414C30.7262 444.754 28.6562 446.374 25.9922 446.374Z" fill="#ED0080"/>
<path d="M14.9937 446.14V441.172L10.3317 433.126H12.1857L15.8757 439.696L19.3677 433.126H21.1497L16.6137 441.19V446.14H14.9937Z" fill="#ED0080"/>
<path d="M4.96803 446.374C3.38403 446.374 1.63803 445.78 0.702026 445.222L1.22403 443.71C2.14203 444.304 3.69003 444.844 4.91403 444.844C6.76803 444.844 7.97403 443.854 7.97403 442.504C7.97403 441.334 7.25403 440.686 5.63403 440.344L4.21203 440.02C2.50203 439.642 0.936026 438.508 0.936026 436.474C0.936026 434.494 2.55603 433 5.27403 433C6.98403 433 8.58603 433.558 9.41403 434.188L8.82003 435.538C8.01003 434.98 6.73203 434.458 5.25603 434.458C3.63603 434.458 2.64603 435.214 2.64603 436.366C2.64603 437.572 3.56403 438.292 4.91403 438.58L6.24603 438.85C8.47803 439.354 9.70203 440.344 9.70203 442.414C9.70203 444.754 7.63203 446.374 4.96803 446.374Z" fill="#ED0080"/>
<path d="M84.1238 100.55C84.1191 101.083 84.2361 101.593 84.4748 102.08C84.7181 102.562 85.0668 102.99 85.5207 103.365C85.9747 103.734 86.5152 104.018 87.1423 104.214L86.5105 105.253C85.8038 105.028 85.1908 104.692 84.6713 104.242C84.1566 103.793 83.7588 103.264 83.478 102.656C83.2019 103.353 82.7924 103.961 82.2495 104.481C81.7067 104.996 81.0632 105.384 80.3191 105.646L79.6312 104.579C80.2723 104.369 80.8316 104.06 81.3089 103.653C81.7862 103.245 82.1513 102.775 82.404 102.242C82.6567 101.708 82.7854 101.149 82.7901 100.564V100.213H80.0243V99.1319H86.8334V100.213H84.1238V100.55ZM81.33 108.426C81.33 107.939 81.4984 107.52 81.8354 107.169C82.177 106.818 82.6637 106.552 83.2955 106.369C83.9319 106.187 84.6854 106.095 85.5558 106.095C86.4169 106.095 87.1586 106.187 87.7811 106.369C88.4081 106.552 88.8878 106.818 89.2201 107.169C89.557 107.52 89.7255 107.939 89.7255 108.426C89.7255 108.922 89.557 109.346 89.2201 109.697C88.8878 110.052 88.4081 110.321 87.7811 110.504C87.1586 110.691 86.4169 110.785 85.5558 110.785C84.6854 110.785 83.9319 110.691 83.2955 110.504C82.6637 110.321 82.177 110.052 81.8354 109.697C81.4984 109.346 81.33 108.922 81.33 108.426ZM82.6637 108.426C82.659 108.842 82.9071 109.165 83.4078 109.395C83.9132 109.619 84.6152 109.732 85.5137 109.732C86.4356 109.732 87.1516 109.619 87.6617 109.395C88.1718 109.17 88.4245 108.847 88.4198 108.426C88.4245 108.019 88.1788 107.705 87.6828 107.485C87.1867 107.261 86.4918 107.148 85.5979 107.148C84.6667 107.148 83.9436 107.258 83.4289 107.478C82.9141 107.698 82.659 108.014 82.6637 108.426ZM88.2794 98.2334H89.6132V101.35H91.4383V102.445H89.6132V105.787H88.2794V98.2334Z" fill="#333333"/>
<path d="M78.3452 110.841H77.0115V103.849H74.4142V102.754H77.0115V98.2334H78.3452V110.841ZM67.7034 107.331C68.3351 107.031 68.8991 106.589 69.3951 106.004C69.8958 105.415 70.2866 104.75 70.5674 104.011C70.8482 103.267 70.9886 102.52 70.9886 101.771V100.592H68.2088V99.4969H75.1302V100.592H72.3364V101.771C72.3364 102.478 72.4744 103.185 72.7505 103.891C73.0313 104.598 73.4197 105.232 73.9158 105.794C74.4118 106.35 74.9758 106.769 75.6075 107.05L74.8073 108.117C74.096 107.771 73.4665 107.256 72.919 106.573C72.3761 105.89 71.962 105.11 71.6765 104.235C71.391 105.162 70.9722 105.992 70.42 106.727C69.8678 107.457 69.2337 108.005 68.5177 108.37L67.7034 107.331Z" fill="#333333"/>
<path d="M63.4045 110.841H62.0708V98.2334H63.4045V110.841ZM53.7876 99.3987H59.8104V100.508H55.1353V106.615C56.4036 106.61 57.4565 106.582 58.2942 106.531C59.1319 106.474 59.9742 106.372 60.8213 106.222L60.9617 107.331C60.0678 107.495 59.1717 107.605 58.2731 107.661C57.3746 107.717 56.2257 107.747 54.8265 107.752H53.7876V99.3987Z" fill="#333333"/>
<path d="M51.5188 110.841H50.1851V98.2334H51.5188V110.841ZM41.5368 103.582C41.5368 102.703 41.6749 101.93 41.951 101.266C42.2271 100.597 42.6108 100.082 43.1022 99.7216C43.5983 99.3565 44.1622 99.174 44.794 99.174C45.4164 99.174 45.9733 99.3565 46.4646 99.7216C46.956 100.082 47.3398 100.597 47.6159 101.266C47.8967 101.93 48.037 102.703 48.037 103.582C48.037 104.472 47.8967 105.251 47.6159 105.92C47.3398 106.589 46.956 107.104 46.4646 107.464C45.9733 107.825 45.4164 108.005 44.794 108.005C44.1622 108.005 43.5983 107.825 43.1022 107.464C42.6108 107.104 42.2271 106.589 41.951 105.92C41.6749 105.251 41.5368 104.472 41.5368 103.582ZM42.8284 103.582C42.8284 104.238 42.9103 104.808 43.0741 105.295C43.2379 105.782 43.4672 106.156 43.7621 106.418C44.0616 106.68 44.4055 106.811 44.794 106.811C45.1777 106.811 45.517 106.68 45.8118 106.418C46.1066 106.156 46.3359 105.782 46.4997 105.295C46.6635 104.808 46.7454 104.238 46.7454 103.582C46.7454 102.937 46.6635 102.373 46.4997 101.891C46.3359 101.404 46.1066 101.03 45.8118 100.768C45.517 100.501 45.1777 100.367 44.794 100.367C44.4055 100.367 44.0616 100.501 43.7621 100.768C43.4672 101.03 43.2379 101.404 43.0741 101.891C42.9103 102.373 42.8284 102.937 42.8284 103.582Z" fill="#333333"/>
<path d="M32.5853 99.174C33.2077 99.174 33.7623 99.3565 34.249 99.7216C34.7404 100.082 35.1241 100.597 35.4002 101.266C35.6763 101.93 35.8144 102.703 35.8144 103.582C35.8144 104.472 35.6763 105.251 35.4002 105.92C35.1241 106.589 34.7427 107.104 34.256 107.464C33.7693 107.825 33.2124 108.005 32.5853 108.005C31.9582 108.005 31.4013 107.825 30.9147 107.464C30.428 107.104 30.0489 106.589 29.7775 105.92C29.506 105.251 29.3703 104.472 29.3703 103.582C29.3703 102.703 29.506 101.93 29.7775 101.266C30.0489 100.597 30.428 100.082 30.9147 99.7216C31.4013 99.3565 31.9582 99.174 32.5853 99.174ZM30.6479 103.582C30.6479 104.238 30.7275 104.808 30.8866 105.295C31.0504 105.782 31.2797 106.156 31.5745 106.418C31.8693 106.68 32.2063 106.811 32.5853 106.811C32.9738 106.811 33.3154 106.683 33.6102 106.425C33.905 106.163 34.132 105.789 34.2911 105.302C34.4549 104.811 34.5368 104.238 34.5368 103.582C34.5368 102.932 34.4549 102.366 34.2911 101.884C34.132 101.397 33.905 101.023 33.6102 100.76C33.3154 100.498 32.9738 100.367 32.5853 100.367C32.2063 100.367 31.8693 100.501 31.5745 100.768C31.2797 101.03 31.0504 101.404 30.8866 101.891C30.7275 102.373 30.6479 102.937 30.6479 103.582ZM37.6816 98.2334H39.0154V103.161H41.037V104.284H39.0154V110.813H37.6816V98.2334Z" fill="#333333"/>
<path d="M0 98.8372C0 96.8523 1.60912 95.2432 3.59407 95.2432H16.1733C18.1583 95.2432 19.7674 96.8523 19.7674 98.8372V111.416C19.7674 113.401 18.1583 115.011 16.1733 115.011H3.59407C1.60912 115.011 0 113.401 0 111.416V98.8372Z" fill="#EAEAEA"/>
<path d="M198.236 100.55C198.231 101.083 198.348 101.593 198.587 102.08C198.83 102.562 199.179 102.99 199.633 103.365C200.087 103.734 200.627 104.018 201.254 104.214L200.622 105.253C199.916 105.028 199.303 104.692 198.783 104.242C198.268 103.793 197.871 103.264 197.59 102.656C197.314 103.353 196.904 103.961 196.361 104.481C195.819 104.996 195.175 105.384 194.431 105.646L193.743 104.579C194.384 104.369 194.943 104.06 195.421 103.653C195.898 103.245 196.263 102.775 196.516 102.242C196.769 101.708 196.897 101.149 196.902 100.564V100.213H194.136V99.1319H200.945V100.213H198.236V100.55ZM195.442 108.426C195.442 107.939 195.61 107.52 195.947 107.169C196.289 106.818 196.776 106.552 197.407 106.369C198.044 106.187 198.797 106.095 199.668 106.095C200.529 106.095 201.27 106.187 201.893 106.369C202.52 106.552 203 106.818 203.332 107.169C203.669 107.52 203.837 107.939 203.837 108.426C203.837 108.922 203.669 109.346 203.332 109.697C203 110.052 202.52 110.321 201.893 110.504C201.27 110.691 200.529 110.785 199.668 110.785C198.797 110.785 198.044 110.691 197.407 110.504C196.776 110.321 196.289 110.052 195.947 109.697C195.61 109.346 195.442 108.922 195.442 108.426ZM196.776 108.426C196.771 108.842 197.019 109.165 197.52 109.395C198.025 109.619 198.727 109.732 199.626 109.732C200.547 109.732 201.263 109.619 201.774 109.395C202.284 109.17 202.536 108.847 202.532 108.426C202.536 108.019 202.291 107.705 201.795 107.485C201.299 107.261 200.604 107.148 199.71 107.148C198.779 107.148 198.055 107.258 197.541 107.478C197.026 107.698 196.771 108.014 196.776 108.426ZM202.391 98.2334H203.725V101.35H205.55V102.445H203.725V105.787H202.391V98.2334Z" fill="#333333"/>
<path d="M192.457 110.841H191.123V103.849H188.526V102.754H191.123V98.2334H192.457V110.841ZM181.815 107.331C182.447 107.031 183.011 106.589 183.507 106.004C184.008 105.415 184.398 104.75 184.679 104.011C184.96 103.267 185.1 102.52 185.1 101.771V100.592H182.321V99.4969H189.242V100.592H186.448V101.771C186.448 102.478 186.586 103.185 186.862 103.891C187.143 104.598 187.532 105.232 188.028 105.794C188.524 106.35 189.088 106.769 189.719 107.05L188.919 108.117C188.208 107.771 187.578 107.256 187.031 106.573C186.488 105.89 186.074 105.11 185.788 104.235C185.503 105.162 185.084 105.992 184.532 106.727C183.98 107.457 183.346 108.005 182.63 108.37L181.815 107.331Z" fill="#333333"/>
<path d="M177.516 110.841H176.183V98.2334H177.516V110.841ZM167.899 99.3987H173.922V100.508H169.247V106.615C170.515 106.61 171.568 106.582 172.406 106.531C173.244 106.474 174.086 106.372 174.933 106.222L175.074 107.331C174.18 107.495 173.284 107.605 172.385 107.661C171.486 107.717 170.338 107.747 168.938 107.752H167.899V99.3987Z" fill="#333333"/>
<path d="M165.631 110.841H164.297V98.2334H165.631V110.841ZM155.649 103.582C155.649 102.703 155.787 101.93 156.063 101.266C156.339 100.597 156.723 100.082 157.214 99.7216C157.71 99.3565 158.274 99.174 158.906 99.174C159.528 99.174 160.085 99.3565 160.576 99.7216C161.068 100.082 161.452 100.597 161.728 101.266C162.009 101.93 162.149 102.703 162.149 103.582C162.149 104.472 162.009 105.251 161.728 105.92C161.452 106.589 161.068 107.104 160.576 107.464C160.085 107.825 159.528 108.005 158.906 108.005C158.274 108.005 157.71 107.825 157.214 107.464C156.723 107.104 156.339 106.589 156.063 105.92C155.787 105.251 155.649 104.472 155.649 103.582ZM156.94 103.582C156.94 104.238 157.022 104.808 157.186 105.295C157.35 105.782 157.579 106.156 157.874 106.418C158.173 106.68 158.517 106.811 158.906 106.811C159.29 106.811 159.629 106.68 159.924 106.418C160.218 106.156 160.448 105.782 160.612 105.295C160.775 104.808 160.857 104.238 160.857 103.582C160.857 102.937 160.775 102.373 160.612 101.891C160.448 101.404 160.218 101.03 159.924 100.768C159.629 100.501 159.29 100.367 158.906 100.367C158.517 100.367 158.173 100.501 157.874 100.768C157.579 101.03 157.35 101.404 157.186 101.891C157.022 102.373 156.94 102.937 156.94 103.582Z" fill="#333333"/>
<path d="M146.697 99.174C147.32 99.174 147.874 99.3565 148.361 99.7216C148.852 100.082 149.236 100.597 149.512 101.266C149.788 101.93 149.926 102.703 149.926 103.582C149.926 104.472 149.788 105.251 149.512 105.92C149.236 106.589 148.855 107.104 148.368 107.464C147.881 107.825 147.324 108.005 146.697 108.005C146.07 108.005 145.513 107.825 145.027 107.464C144.54 107.104 144.161 106.589 143.889 105.92C143.618 105.251 143.482 104.472 143.482 103.582C143.482 102.703 143.618 101.93 143.889 101.266C144.161 100.597 144.54 100.082 145.027 99.7216C145.513 99.3565 146.07 99.174 146.697 99.174ZM144.76 103.582C144.76 104.238 144.839 104.808 144.998 105.295C145.162 105.782 145.392 106.156 145.686 106.418C145.981 106.68 146.318 106.811 146.697 106.811C147.086 106.811 147.427 106.683 147.722 106.425C148.017 106.163 148.244 105.789 148.403 105.302C148.567 104.811 148.649 104.238 148.649 103.582C148.649 102.932 148.567 102.366 148.403 101.884C148.244 101.397 148.017 101.023 147.722 100.76C147.427 100.498 147.086 100.367 146.697 100.367C146.318 100.367 145.981 100.501 145.686 100.768C145.392 101.03 145.162 101.404 144.998 101.891C144.839 102.373 144.76 102.937 144.76 103.582ZM151.793 98.2334H153.127V103.161H155.149V104.284H153.127V110.813H151.793V98.2334Z" fill="#333333"/>
<path d="M114.112 98.8372C114.112 96.8523 115.721 95.2432 117.706 95.2432H130.285C132.27 95.2432 133.879 96.8523 133.879 98.8372V111.416C133.879 113.401 132.27 115.011 130.285 115.011H117.706C115.721 115.011 114.112 113.401 114.112 111.416V98.8372Z" fill="#764CCB"/>
<path d="M122.335 109.394C122.237 109.394 122.141 109.375 122.049 109.337C121.956 109.299 121.871 109.241 121.795 109.165L118.834 106.204C118.681 106.051 118.604 105.866 118.604 105.647C118.604 105.429 118.681 105.244 118.834 105.091C118.986 104.938 119.169 104.862 119.382 104.862C119.594 104.862 119.782 104.938 119.946 105.091L122.335 107.48L128.061 101.77C128.214 101.617 128.397 101.538 128.609 101.532C128.822 101.527 129.005 101.606 129.158 101.77C129.31 101.922 129.387 102.108 129.387 102.326C129.387 102.544 129.31 102.73 129.158 102.882L122.875 109.165C122.798 109.241 122.714 109.299 122.621 109.337C122.528 109.375 122.433 109.394 122.335 109.394Z" fill="white"/>
<path d="M315.043 100.55C315.038 101.083 315.155 101.593 315.394 102.08C315.637 102.562 315.986 102.99 316.44 103.365C316.894 103.734 317.434 104.018 318.062 104.214L317.43 105.253C316.723 105.028 316.11 104.692 315.591 104.242C315.076 103.793 314.678 103.264 314.397 102.656C314.121 103.353 313.712 103.961 313.169 104.481C312.626 104.996 311.982 105.384 311.238 105.646L310.55 104.579C311.192 104.369 311.751 104.06 312.228 103.653C312.706 103.245 313.071 102.775 313.323 102.242C313.576 101.708 313.705 101.149 313.709 100.564V100.213H310.944V99.1319H317.753V100.213H315.043V100.55ZM312.249 108.426C312.249 107.939 312.418 107.52 312.755 107.169C313.096 106.818 313.583 106.552 314.215 106.369C314.851 106.187 315.605 106.095 316.475 106.095C317.336 106.095 318.078 106.187 318.7 106.369C319.327 106.552 319.807 106.818 320.139 107.169C320.476 107.52 320.645 107.939 320.645 108.426C320.645 108.922 320.476 109.346 320.139 109.697C319.807 110.052 319.327 110.321 318.7 110.504C318.078 110.691 317.336 110.785 316.475 110.785C315.605 110.785 314.851 110.691 314.215 110.504C313.583 110.321 313.096 110.052 312.755 109.697C312.418 109.346 312.249 108.922 312.249 108.426ZM313.583 108.426C313.578 108.842 313.826 109.165 314.327 109.395C314.832 109.619 315.534 109.732 316.433 109.732C317.355 109.732 318.071 109.619 318.581 109.395C319.091 109.17 319.344 108.847 319.339 108.426C319.344 108.019 319.098 107.705 318.602 107.485C318.106 107.261 317.411 107.148 316.517 107.148C315.586 107.148 314.863 107.258 314.348 107.478C313.833 107.698 313.578 108.014 313.583 108.426ZM319.199 98.2334H320.532V101.35H322.358V102.445H320.532V105.787H319.199V98.2334Z" fill="#333333"/>
<path d="M309.264 110.841H307.931V103.849H305.333V102.754H307.931V98.2334H309.264V110.841ZM298.623 107.331C299.254 107.031 299.818 106.589 300.314 106.004C300.815 105.415 301.206 104.75 301.487 104.011C301.767 103.267 301.908 102.52 301.908 101.771V100.592H299.128V99.4969H306.049V100.592H303.256V101.771C303.256 102.478 303.394 103.185 303.67 103.891C303.951 104.598 304.339 105.232 304.835 105.794C305.331 106.35 305.895 106.769 306.527 107.05L305.727 108.117C305.015 107.771 304.386 107.256 303.838 106.573C303.295 105.89 302.881 105.11 302.596 104.235C302.31 105.162 301.891 105.992 301.339 106.727C300.787 107.457 300.153 108.005 299.437 108.37L298.623 107.331Z" fill="#333333"/>
<path d="M294.324 110.841H292.99V98.2334H294.324V110.841ZM284.707 99.3987H290.73V100.508H286.055V106.615C287.323 106.61 288.376 106.582 289.213 106.531C290.051 106.474 290.894 106.372 291.741 106.222L291.881 107.331C290.987 107.495 290.091 107.605 289.192 107.661C288.294 107.717 287.145 107.747 285.746 107.752H284.707V99.3987Z" fill="#333333"/>
<path d="M282.438 110.841H281.104V98.2334H282.438V110.841ZM272.456 103.582C272.456 102.703 272.594 101.93 272.87 101.266C273.146 100.597 273.53 100.082 274.021 99.7216C274.518 99.3565 275.081 99.174 275.713 99.174C276.336 99.174 276.893 99.3565 277.384 99.7216C277.875 100.082 278.259 100.597 278.535 101.266C278.816 101.93 278.956 102.703 278.956 103.582C278.956 104.472 278.816 105.251 278.535 105.92C278.259 106.589 277.875 107.104 277.384 107.464C276.893 107.825 276.336 108.005 275.713 108.005C275.081 108.005 274.518 107.825 274.021 107.464C273.53 107.104 273.146 106.589 272.87 105.92C272.594 105.251 272.456 104.472 272.456 103.582ZM273.748 103.582C273.748 104.238 273.83 104.808 273.993 105.295C274.157 105.782 274.386 106.156 274.681 106.418C274.981 106.68 275.325 106.811 275.713 106.811C276.097 106.811 276.436 106.68 276.731 106.418C277.026 106.156 277.255 105.782 277.419 105.295C277.583 104.808 277.665 104.238 277.665 103.582C277.665 102.937 277.583 102.373 277.419 101.891C277.255 101.404 277.026 101.03 276.731 100.768C276.436 100.501 276.097 100.367 275.713 100.367C275.325 100.367 274.981 100.501 274.681 100.768C274.386 101.03 274.157 101.404 273.993 101.891C273.83 102.373 273.748 102.937 273.748 103.582Z" fill="#333333"/>
<path d="M263.505 99.174C264.127 99.174 264.682 99.3565 265.168 99.7216C265.66 100.082 266.043 100.597 266.319 101.266C266.596 101.93 266.734 102.703 266.734 103.582C266.734 104.472 266.596 105.251 266.319 105.92C266.043 106.589 265.662 107.104 265.175 107.464C264.689 107.825 264.132 108.005 263.505 108.005C262.878 108.005 262.321 107.825 261.834 107.464C261.347 107.104 260.968 106.589 260.697 105.92C260.425 105.251 260.29 104.472 260.29 103.582C260.29 102.703 260.425 101.93 260.697 101.266C260.968 100.597 261.347 100.082 261.834 99.7216C262.321 99.3565 262.878 99.174 263.505 99.174ZM261.567 103.582C261.567 104.238 261.647 104.808 261.806 105.295C261.97 105.782 262.199 106.156 262.494 106.418C262.789 106.68 263.126 106.811 263.505 106.811C263.893 106.811 264.235 106.683 264.529 106.425C264.824 106.163 265.051 105.789 265.21 105.302C265.374 104.811 265.456 104.238 265.456 103.582C265.456 102.932 265.374 102.366 265.21 101.884C265.051 101.397 264.824 101.023 264.529 100.76C264.235 100.498 263.893 100.367 263.505 100.367C263.126 100.367 262.789 100.501 262.494 100.768C262.199 101.03 261.97 101.404 261.806 101.891C261.647 102.373 261.567 102.937 261.567 103.582ZM268.601 98.2334H269.935V103.161H271.956V104.284H269.935V110.813H268.601V98.2334Z" fill="#333333"/>
<path d="M230.919 98.8372C230.919 96.8523 232.528 95.2432 234.513 95.2432H247.093C249.078 95.2432 250.687 96.8523 250.687 98.8372V111.416C250.687 113.401 249.078 115.011 247.093 115.011H234.513C232.528 115.011 230.919 113.401 230.919 111.416V98.8372Z" fill="#333333"/>
<path d="M239.142 109.394C239.044 109.394 238.949 109.375 238.856 109.337C238.763 109.299 238.679 109.241 238.602 109.165L235.641 106.204C235.488 106.051 235.412 105.866 235.412 105.647C235.412 105.429 235.488 105.244 235.641 105.091C235.794 104.938 235.976 104.862 236.189 104.862C236.402 104.862 236.59 104.938 236.753 105.091L239.142 107.48L244.869 101.77C245.021 101.617 245.204 101.538 245.417 101.532C245.63 101.527 245.812 101.606 245.965 101.77C246.118 101.922 246.194 102.108 246.194 102.326C246.194 102.544 246.118 102.73 245.965 102.882L239.682 109.165C239.606 109.241 239.521 109.299 239.429 109.337C239.336 109.375 239.24 109.394 239.142 109.394Z" fill="white"/>
<path d="M3.59407 273.15C3.59407 269.18 6.81232 265.962 10.7822 265.962H584.037C588.007 265.962 591.225 269.18 591.225 273.15V349.524C591.225 353.494 588.007 356.712 584.037 356.712H10.7822C6.81232 356.712 3.59407 353.494 3.59407 349.524V273.15Z" fill="#F5F5F5"/>
<path fill-rule="evenodd" clip-rule="evenodd" d="M584.037 266.86H10.7822C7.30856 266.86 4.49259 269.676 4.49259 273.15V349.524C4.49259 352.998 7.30856 355.814 10.7822 355.814H584.037C587.511 355.814 590.327 352.998 590.327 349.524V273.15C590.327 269.676 587.511 266.86 584.037 266.86ZM10.7822 265.962C6.81232 265.962 3.59407 269.18 3.59407 273.15V349.524C3.59407 353.494 6.81232 356.712 10.7822 356.712H584.037C588.007 356.712 591.225 353.494 591.225 349.524V273.15C591.225 269.18 588.007 265.962 584.037 265.962H10.7822Z" fill="#DFE0E4"/>
<path d="M214.582 297.389H210.247V298.916H216.424V300.724H201.859V298.916H208.001V297.389H203.666V291.773H214.582V297.389ZM203.473 301.899H214.652V307.111H212.423V303.654H203.473V301.899ZM212.388 295.634V293.511H205.86V295.634H212.388Z" fill="#555555"/>
<path d="M200.678 307.111H198.554V291.142H200.678V307.111ZM186.533 302.443C187.639 301.765 188.452 300.797 188.972 299.539C189.499 298.275 189.762 296.904 189.762 295.424V294.564H187.147V292.774H194.343V294.564H191.921V295.424C191.915 296.868 192.164 298.185 192.667 299.372C193.176 300.56 193.98 301.466 195.08 302.092L193.763 303.742C192.418 302.946 191.45 301.618 190.859 299.758C190.578 300.729 190.189 301.586 189.692 302.329C189.195 303.072 188.592 303.66 187.884 304.093L186.533 302.443ZM193.202 296.617H195.308V291.405H197.414V306.374H195.308V298.425H193.202V296.617Z" fill="#555555"/>
<path d="M182.838 301.531H168.237V299.776H182.838V301.531ZM170.027 302.338H172.238V305.04H181.364V306.83H170.027V302.338ZM170.062 291.668H181.136V293.37H172.308V294.388H180.767V296.038H172.308V297.091H181.276V298.775H170.062V291.668Z" fill="#555555"/>
<path d="M166.758 307.146H164.547V298.582H161.581V303.356H153.877V292.37H156.106V296.248H159.387V292.37H161.581V296.775H164.547V291.142H166.758V307.146ZM159.387 301.566V298.003H156.106V301.566H159.387Z" fill="#555555"/>
<path d="M147.584 293.265C147.584 294.312 147.558 295.216 147.506 295.976C147.459 296.737 147.333 297.588 147.128 298.53L144.917 298.354C145.057 297.711 145.163 297.056 145.233 296.389L136.195 296.775L135.914 294.932L145.347 294.739C145.359 294.377 145.365 294.107 145.365 293.932L145.373 293.528H136.353V291.756H147.584V293.265ZM134.721 299.337H140.144V297.337H142.39V299.337H149.217V301.11H134.721V299.337ZM136.406 302.092H138.652V305.076H147.848V306.866H136.406V302.092Z" fill="#555555"/>
<path d="M133.066 307.146H130.803V291.142H133.066V307.146ZM120.168 297.951C120.168 296.81 120.346 295.81 120.703 294.95C121.066 294.09 121.566 293.429 122.203 292.967C122.847 292.499 123.578 292.265 124.397 292.265C125.198 292.265 125.915 292.499 126.547 292.967C127.184 293.429 127.685 294.09 128.047 294.95C128.41 295.81 128.591 296.81 128.591 297.951C128.591 299.097 128.41 300.103 128.047 300.969C127.685 301.829 127.184 302.493 126.547 302.961C125.915 303.423 125.198 303.654 124.397 303.654C123.578 303.654 122.847 303.423 122.203 302.961C121.566 302.493 121.066 301.829 120.703 300.969C120.346 300.103 120.168 299.097 120.168 297.951ZM122.326 297.951C122.326 298.729 122.411 299.396 122.581 299.951C122.75 300.501 122.99 300.919 123.3 301.206C123.616 301.487 123.982 301.624 124.397 301.618C124.801 301.624 125.155 301.487 125.459 301.206C125.769 300.919 126.009 300.501 126.178 299.951C126.348 299.396 126.433 298.729 126.433 297.951C126.433 297.173 126.348 296.509 126.178 295.959C126.009 295.409 125.769 294.994 125.459 294.713C125.155 294.426 124.801 294.283 124.397 294.283C123.982 294.283 123.616 294.426 123.3 294.713C122.99 294.994 122.75 295.409 122.581 295.959C122.411 296.509 122.326 297.173 122.326 297.951Z" fill="#555555"/>
<path d="M109.002 292.265C109.815 292.265 110.537 292.499 111.169 292.967C111.806 293.429 112.307 294.09 112.669 294.95C113.032 295.81 113.213 296.81 113.213 297.951C113.213 299.097 113.032 300.103 112.669 300.969C112.307 301.829 111.806 302.493 111.169 302.961C110.537 303.423 109.815 303.654 109.002 303.654C108.188 303.654 107.46 303.423 106.817 302.961C106.179 302.493 105.682 301.829 105.325 300.969C104.968 300.103 104.79 299.097 104.79 297.951C104.79 296.81 104.968 295.81 105.325 294.95C105.682 294.09 106.179 293.429 106.817 292.967C107.46 292.499 108.188 292.265 109.002 292.265ZM106.948 297.951C106.948 298.729 107.033 299.396 107.203 299.951C107.372 300.501 107.612 300.919 107.922 301.206C108.232 301.487 108.592 301.624 109.002 301.618C109.417 301.624 109.78 301.487 110.09 301.206C110.4 300.919 110.639 300.501 110.809 299.951C110.985 299.396 111.072 298.729 111.072 297.951C111.072 297.173 110.985 296.509 110.809 295.959C110.639 295.409 110.4 294.994 110.09 294.713C109.78 294.426 109.417 294.283 109.002 294.283C108.592 294.283 108.232 294.426 107.922 294.713C107.612 294.994 107.372 295.412 107.203 295.968C107.033 296.518 106.948 297.179 106.948 297.951ZM115.056 291.142H117.302V297.161H119.654V299.021H117.302V307.111H115.056V291.142Z" fill="#555555"/>
<path d="M266.032 323.243H268.053V324.338H266.032V330.978H264.698V318.371H266.032V323.243ZM256.766 319.578H262.648V320.66H258.099V326.739C259.213 326.734 260.191 326.701 261.034 326.64C261.876 326.579 262.728 326.472 263.589 326.317L263.757 327.441C262.868 327.6 261.995 327.707 261.139 327.763C260.287 327.82 259.274 327.848 258.099 327.848H257.777H256.766V319.578Z" fill="#555555"/>
<path d="M254.792 330.95H253.458V318.371H254.792V330.95ZM245.119 319.593H246.438V326.598C248.432 326.589 250.36 326.397 252.223 326.023L252.405 327.146C251.338 327.366 250.294 327.522 249.274 327.616C248.254 327.71 247.22 327.754 246.172 327.749H245.119V319.593Z" fill="#555555"/>
<path d="M242.344 321.277H244.17V322.372H242.344V325.18H240.997V318.371H242.344V321.277ZM232.461 324.254C233.467 324.024 234.328 323.711 235.044 323.313C235.76 322.91 236.317 322.445 236.715 321.916C237.117 321.387 237.353 320.809 237.424 320.182H233.05V319.115H238.891C238.891 320.168 238.659 321.109 238.196 321.937C237.733 322.765 237.056 323.465 236.167 324.036C235.283 324.602 234.211 325.035 232.952 325.335L232.461 324.254ZM234.258 325.728H235.592V327.202H241.011V325.728H242.344V330.796H234.258V325.728ZM241.011 329.701V328.255H235.592V329.701H241.011Z" fill="#555555"/>
<path d="M223.987 319.312C224.553 319.312 225.063 319.466 225.517 319.775C225.971 320.084 226.338 320.521 226.619 321.088C226.904 321.654 227.08 322.321 227.145 323.088H229.743V318.371H231.062V330.978H229.743V324.169H227.16C227.113 324.979 226.949 325.683 226.668 326.282C226.387 326.881 226.015 327.342 225.552 327.665C225.089 327.983 224.567 328.142 223.987 328.142C223.364 328.142 222.81 327.962 222.323 327.602C221.841 327.242 221.464 326.727 221.193 326.058C220.926 325.388 220.795 324.609 220.8 323.72C220.795 322.84 220.926 322.068 221.193 321.404C221.464 320.734 221.841 320.22 222.323 319.859C222.81 319.494 223.364 319.312 223.987 319.312ZM222.063 323.72C222.063 324.375 222.143 324.946 222.302 325.433C222.466 325.92 222.693 326.294 222.983 326.556C223.273 326.818 223.608 326.949 223.987 326.949C224.366 326.949 224.7 326.818 224.99 326.556C225.281 326.294 225.505 325.92 225.664 325.433C225.828 324.946 225.91 324.375 225.91 323.72C225.91 323.074 225.828 322.51 225.664 322.028C225.501 321.542 225.274 321.167 224.983 320.905C224.698 320.638 224.366 320.505 223.987 320.505C223.608 320.505 223.273 320.638 222.983 320.905C222.697 321.167 222.473 321.542 222.309 322.028C222.145 322.51 222.063 323.074 222.063 323.72Z" fill="#555555"/>
<path d="M220.174 324.591H208.689V323.524H220.174V324.591ZM210.065 325.588H218.713V328.634H211.385V329.757H219.064V330.81H210.079V327.651H217.394V326.612H210.065V325.588ZM210.192 318.736H218.685V319.817H211.525V321.544H218.812V322.611H210.192V318.736Z" fill="#555555"/>
<path d="M204.25 330.978H202.916V318.371H204.25V330.978ZM194.268 323.72C194.268 322.84 194.406 322.068 194.682 321.404C194.958 320.734 195.342 320.22 195.834 319.859C196.33 319.494 196.893 319.312 197.525 319.312C198.148 319.312 198.705 319.494 199.196 319.859C199.687 320.22 200.071 320.734 200.347 321.404C200.628 322.068 200.768 322.84 200.768 323.72C200.768 324.609 200.628 325.388 200.347 326.058C200.071 326.727 199.687 327.242 199.196 327.602C198.705 327.962 198.148 328.142 197.525 328.142C196.893 328.142 196.33 327.962 195.834 327.602C195.342 327.242 194.958 326.727 194.682 326.058C194.406 325.388 194.268 324.609 194.268 323.72ZM195.56 323.72C195.56 324.375 195.642 324.946 195.805 325.433C195.969 325.92 196.199 326.294 196.493 326.556C196.793 326.818 197.137 326.949 197.525 326.949C197.909 326.949 198.248 326.818 198.543 326.556C198.838 326.294 199.067 325.92 199.231 325.433C199.395 324.946 199.477 324.375 199.477 323.72C199.477 323.074 199.395 322.51 199.231 322.028C199.067 321.542 198.838 321.167 198.543 320.905C198.248 320.638 197.909 320.505 197.525 320.505C197.137 320.505 196.793 320.638 196.493 320.905C196.199 321.167 195.969 321.542 195.805 322.028C195.642 322.51 195.56 323.074 195.56 323.72Z" fill="#555555"/>
<path d="M192.435 325.798H191.101V323.931H188.363V324.956H182.523V319.312H188.363V320.351H191.101V318.371H192.435V325.798ZM187.058 323.889V320.379H183.842V323.889H187.058ZM183.969 328.55C183.969 328.044 184.137 327.611 184.474 327.251C184.816 326.891 185.305 326.617 185.941 326.43C186.583 326.242 187.343 326.149 188.223 326.149C189.098 326.149 189.854 326.242 190.49 326.43C191.127 326.617 191.616 326.891 191.957 327.251C192.304 327.611 192.477 328.044 192.477 328.55C192.477 329.05 192.304 329.479 191.957 329.834C191.616 330.19 191.127 330.459 190.49 330.641C189.854 330.829 189.098 330.922 188.223 330.922C187.343 330.922 186.583 330.829 185.941 330.641C185.305 330.459 184.816 330.19 184.474 329.834C184.137 329.479 183.969 329.05 183.969 328.55ZM185.289 328.55C185.289 328.83 185.403 329.071 185.633 329.273C185.867 329.474 186.203 329.628 186.643 329.736C187.083 329.844 187.61 329.897 188.223 329.897C188.831 329.897 189.355 329.844 189.795 329.736C190.235 329.628 190.572 329.474 190.806 329.273C191.04 329.071 191.157 328.83 191.157 328.55C191.152 328.11 190.893 327.773 190.378 327.539C189.863 327.3 189.145 327.178 188.223 327.174C187.291 327.178 186.568 327.3 186.054 327.539C185.539 327.773 185.284 328.11 185.289 328.55ZM191.101 322.85V321.418H188.363V322.85H191.101Z" fill="#555555"/>
<path d="M180.549 324.843H179.215V321.614H176.562V320.533H179.215V318.371H180.549V324.843ZM170.019 323.832C170.665 323.626 171.224 323.327 171.697 322.934C172.17 322.536 172.532 322.075 172.785 321.551C173.038 321.022 173.164 320.463 173.164 319.873V318.778H174.484V319.873C174.484 320.407 174.606 320.919 174.849 321.411C175.097 321.897 175.45 322.33 175.909 322.709C176.367 323.084 176.908 323.369 177.53 323.566L176.828 324.605C176.145 324.366 175.546 324.02 175.031 323.566C174.521 323.112 174.126 322.583 173.845 321.979C173.569 322.667 173.164 323.264 172.631 323.769C172.102 324.27 171.47 324.647 170.735 324.899L170.019 323.832ZM172.322 325.433H180.549V328.564H173.656V329.729H180.984V330.796H172.35V327.553H179.229V326.486H172.322V325.433Z" fill="#555555"/>
<path d="M165.089 322.428H166.914V323.538H165.089V327.791H163.755V318.385H165.089V322.428ZM155.219 319.845H158.308V318.371H159.641V319.845H162.716V320.926H155.219V319.845ZM155.907 323.903C155.907 323.43 156.033 323.013 156.286 322.653C156.543 322.293 156.904 322.017 157.367 321.825C157.83 321.628 158.364 321.53 158.968 321.53C159.567 321.53 160.095 321.628 160.554 321.825C161.017 322.017 161.375 322.293 161.628 322.653C161.885 323.013 162.014 323.43 162.014 323.903C162.014 324.371 161.885 324.782 161.628 325.138C161.375 325.494 161.017 325.77 160.554 325.966C160.095 326.163 159.567 326.261 158.968 326.261C158.364 326.261 157.83 326.163 157.367 325.966C156.904 325.77 156.543 325.494 156.286 325.138C156.033 324.782 155.907 324.371 155.907 323.903ZM157.114 327.047H158.448V329.603H165.622V330.684H157.114V327.047ZM157.199 323.903C157.194 324.169 157.264 324.403 157.409 324.605C157.554 324.801 157.758 324.953 158.02 325.061C158.287 325.168 158.596 325.222 158.947 325.222C159.489 325.222 159.927 325.105 160.259 324.871C160.591 324.637 160.76 324.314 160.765 323.903C160.76 323.491 160.594 323.166 160.266 322.927C159.939 322.684 159.506 322.56 158.968 322.555C158.612 322.555 158.298 322.611 158.027 322.723C157.76 322.831 157.554 322.988 157.409 323.194C157.264 323.395 157.194 323.631 157.199 323.903Z" fill="#555555"/>
<path d="M154.116 330.95H152.838V324.45H151.209V330.305H149.988V318.624H151.209V323.355H152.838V318.371H154.116V330.95ZM143.74 319.887H148.458V320.968H145.074V326.795C145.893 326.79 146.612 326.764 147.229 326.717C147.852 326.671 148.486 326.584 149.132 326.458L149.23 327.553C148.528 327.698 147.835 327.796 147.152 327.848C146.473 327.894 145.617 327.923 144.583 327.932H143.74V319.887Z" fill="#555555"/>
<path d="M139.287 330.95H138.01V318.371H139.287V330.95ZM128.603 323.804C128.603 322.906 128.713 322.124 128.933 321.46C129.158 320.791 129.474 320.278 129.881 319.922C130.293 319.562 130.77 319.382 131.313 319.382C131.818 319.382 132.265 319.534 132.654 319.838C133.047 320.142 133.36 320.582 133.594 321.158C133.833 321.729 133.978 322.405 134.029 323.187H135.454V318.61H136.732V330.333H135.454V324.268H134.037C133.999 325.082 133.863 325.789 133.629 326.388C133.395 326.982 133.079 327.441 132.682 327.763C132.284 328.082 131.828 328.241 131.313 328.241C130.77 328.241 130.293 328.063 129.881 327.707C129.474 327.347 129.158 326.832 128.933 326.163C128.713 325.489 128.603 324.703 128.603 323.804ZM129.839 323.804C129.839 324.464 129.897 325.033 130.014 325.51C130.136 325.987 130.307 326.352 130.527 326.605C130.751 326.853 131.013 326.977 131.313 326.977C131.622 326.977 131.888 326.853 132.113 326.605C132.338 326.352 132.511 325.987 132.633 325.51C132.754 325.033 132.815 324.464 132.815 323.804C132.815 323.14 132.754 322.571 132.633 322.099C132.511 321.621 132.338 321.259 132.113 321.01C131.888 320.758 131.622 320.631 131.313 320.631C131.013 320.631 130.751 320.758 130.527 321.01C130.307 321.259 130.136 321.621 130.014 322.099C129.897 322.576 129.839 323.144 129.839 323.804Z" fill="#555555"/>
<path d="M128.047 326.345H116.549V325.278H128.047V326.345ZM118.023 327.174H119.343V329.603H126.854V330.684H118.023V327.174ZM118.051 318.82H126.643V319.859H119.399V321.01H126.32V322.021H119.399V323.201H126.728V324.225H118.051V318.82Z" fill="#555555"/>
<path d="M115.179 330.978H113.859V324.057H111.079V327.862H105.183V319.34H106.531V322.555H109.774V319.34H111.079V322.962H113.859V318.371H115.179V330.978ZM109.774 326.767V323.608H106.531V326.767H109.774Z" fill="#555555"/>
<path d="M563.371 311.785C563.371 319.229 557.337 325.263 549.893 325.263C542.45 325.263 536.416 319.229 536.416 311.785C536.416 304.342 542.45 298.308 549.893 298.308C557.337 298.308 563.371 304.342 563.371 311.785Z" fill="#D0D0D0"/>
<path d="M548.267 317.12C548.144 317.12 548.025 317.097 547.909 317.049C547.793 317.001 547.687 316.93 547.592 316.834L543.89 313.132C543.699 312.941 543.604 312.71 543.604 312.437C543.604 312.164 543.699 311.932 543.89 311.742C544.081 311.551 544.309 311.455 544.575 311.455C544.841 311.455 545.076 311.551 545.281 311.742L548.267 314.728L555.425 307.59C555.616 307.399 555.844 307.3 556.11 307.293C556.376 307.286 556.604 307.385 556.795 307.59C556.986 307.781 557.081 308.013 557.081 308.285C557.081 308.558 556.986 308.79 556.795 308.981L548.942 316.834C548.846 316.93 548.741 317.001 548.625 317.049C548.509 317.097 548.389 317.12 548.267 317.12Z" fill="white"/>
<path d="M31.4481 297.41C31.4481 289.967 37.4824 283.933 44.9259 283.933H72.78C80.2236 283.933 86.2578 289.967 86.2578 297.41V325.264C86.2578 332.708 80.2236 338.742 72.78 338.742H44.9259C37.4824 338.742 31.4481 332.708 31.4481 325.264V297.41Z" fill="#D9D9D9"/>
<path d="M75.3176 315.38H73.7206L69.8142 309.729H69.7405V315.38H67.8978V306.486H69.5194L73.4012 312.137H73.4872V306.486H75.3176V315.38Z" fill="#ACACAC"/>
<path d="M65.6726 310.933C65.6726 311.879 65.4924 312.696 65.1321 313.384C64.7717 314.072 64.2762 314.598 63.6456 314.962C63.0191 315.323 62.3107 315.503 61.5204 315.503C60.726 315.503 60.0136 315.323 59.383 314.962C58.7523 314.598 58.2569 314.072 57.8965 313.384C57.5362 312.692 57.356 311.875 57.356 310.933C57.356 309.987 57.5362 309.17 57.8965 308.482C58.2569 307.794 58.7523 307.27 59.383 306.91C60.0136 306.546 60.726 306.363 61.5204 306.363C62.3107 306.363 63.0191 306.546 63.6456 306.91C64.2762 307.27 64.7717 307.794 65.1321 308.482C65.4924 309.17 65.6726 309.987 65.6726 310.933ZM59.2355 310.933C59.2355 311.556 59.3277 312.088 59.5119 312.53C59.7003 312.968 59.9665 313.3 60.3104 313.525C60.6544 313.75 61.0577 313.865 61.5204 313.869C61.9791 313.865 62.3783 313.75 62.7182 313.525C63.0621 313.296 63.3263 312.962 63.5105 312.524C63.6989 312.086 63.7931 311.556 63.7931 310.933C63.7931 310.311 63.6989 309.78 63.5105 309.342C63.3263 308.9 63.0621 308.566 62.7182 308.341C62.3783 308.116 61.9791 308.001 61.5204 307.997C61.0577 308.001 60.6544 308.116 60.3104 308.341C59.9665 308.566 59.7003 308.9 59.5119 309.342C59.3277 309.78 59.2355 310.311 59.2355 310.933Z" fill="#ACACAC"/>
<path d="M53.4724 309.582C53.3987 309.095 53.1878 308.71 52.8397 308.427C52.4917 308.145 52.0556 308.001 51.5314 307.997C51.0687 308.001 50.6633 308.118 50.3153 308.347C49.9713 308.577 49.7052 308.912 49.5168 309.355C49.3284 309.793 49.2343 310.319 49.2343 310.933C49.2343 311.56 49.3284 312.092 49.5168 312.53C49.7093 312.968 49.9754 313.3 50.3153 313.525C50.6592 313.75 51.0605 313.865 51.5192 313.869C52.031 313.865 52.463 313.73 52.8152 313.464C53.1673 313.193 53.3864 312.821 53.4724 312.346L55.3396 312.358C55.27 312.919 55.0714 313.439 54.7438 313.918C54.4162 314.397 53.974 314.782 53.4171 315.073C52.8602 315.36 52.2194 315.503 51.4946 315.503C50.6961 315.503 49.9836 315.323 49.3571 314.962C48.7347 314.598 48.2454 314.072 47.8891 313.384C47.5329 312.692 47.3547 311.875 47.3547 310.933C47.3547 309.987 47.5329 309.17 47.8891 308.482C48.2495 307.794 48.7429 307.27 49.3694 306.91C49.9959 306.546 50.7043 306.363 51.4946 306.363C52.1784 306.363 52.7967 306.49 53.3495 306.744C53.9023 306.998 54.3507 307.367 54.6947 307.85C55.0427 308.333 55.2577 308.91 55.3396 309.582H53.4724Z" fill="#ACACAC"/>
<path d="M45.1295 315.38H43.2868V306.486H45.1295V315.38Z" fill="#ACACAC"/>
<path d="M3.8147e-06 163.531C3.8147e-06 158.569 4.02281 154.546 8.98519 154.546H584.936C589.898 154.546 593.921 158.569 593.921 163.531V241.702C593.921 246.665 589.898 250.687 584.936 250.687H8.9852C4.02282 250.687 3.8147e-06 246.665 3.8147e-06 241.702V163.531Z" fill="#764CCB" fill-opacity="0.15"/>
<path d="M3.59408 164.429C3.59408 160.459 6.81232 157.241 10.7822 157.241H584.037C588.007 157.241 591.225 160.459 591.225 164.429V240.803C591.225 244.773 588.007 247.992 584.037 247.992H10.7822C6.81233 247.992 3.59408 244.773 3.59408 240.803V164.429Z" fill="white"/>
<path fill-rule="evenodd" clip-rule="evenodd" d="M584.037 158.14H10.7822C7.30856 158.14 4.4926 160.956 4.4926 164.429V240.803C4.4926 244.277 7.30856 247.093 10.7822 247.093H584.037C587.511 247.093 590.327 244.277 590.327 240.803V164.429C590.327 160.956 587.511 158.14 584.037 158.14ZM10.7822 157.241C6.81232 157.241 3.59408 160.459 3.59408 164.429V240.803C3.59408 244.773 6.81233 247.992 10.7822 247.992H584.037C588.007 247.992 591.225 244.773 591.225 240.803V164.429C591.225 160.459 588.007 157.241 584.037 157.241H10.7822Z" fill="#764CCB"/>
<path d="M214.582 188.669H210.247V190.196H216.424V192.004H201.859V190.196H208.001V188.669H203.666V183.054H214.582V188.669ZM203.473 193.18H214.652V198.392H212.423V194.935H203.473V193.18ZM212.388 186.915V184.791H205.86V186.915H212.388Z" fill="#764CCB"/>
<path d="M200.678 198.392H198.554V182.422H200.678V198.392ZM186.533 193.724C187.639 193.045 188.452 192.077 188.972 190.819C189.499 189.556 189.762 188.184 189.762 186.704V185.844H187.147V184.054H194.343V185.844H191.921V186.704C191.915 188.149 192.164 189.465 192.667 190.652C193.176 191.84 193.98 192.747 195.08 193.373L193.763 195.022C192.418 194.227 191.45 192.899 190.859 191.039C190.578 192.01 190.189 192.867 189.692 193.609C189.195 194.352 188.592 194.94 187.884 195.373L186.533 193.724ZM193.202 187.897H195.308V182.685H197.414V197.655H195.308V189.705H193.202V187.897Z" fill="#764CCB"/>
<path d="M182.838 192.811H168.237V191.056H182.838V192.811ZM170.027 193.618H172.238V196.321H181.364V198.111H170.027V193.618ZM170.062 182.948H181.136V184.651H172.308V185.668H180.767V187.318H172.308V188.371H181.276V190.056H170.062V182.948Z" fill="#764CCB"/>
<path d="M166.758 198.427H164.547V189.863H161.581V194.636H153.877V183.65H156.106V187.529H159.387V183.65H161.581V188.055H164.547V182.422H166.758V198.427ZM159.387 192.846V189.284H156.106V192.846H159.387Z" fill="#764CCB"/>
<path d="M147.584 184.545C147.584 185.592 147.558 186.496 147.506 187.257C147.459 188.017 147.333 188.868 147.128 189.81L144.917 189.635C145.057 188.991 145.163 188.336 145.233 187.669L136.195 188.055L135.914 186.213L145.347 186.019C145.359 185.657 145.365 185.388 145.365 185.212L145.373 184.809H136.353V183.036H147.584V184.545ZM134.721 190.617H140.144V188.617H142.39V190.617H149.217V192.39H134.721V190.617ZM136.406 193.373H138.652V196.356H147.848V198.146H136.406V193.373Z" fill="#764CCB"/>
<path d="M133.066 198.427H130.803V182.422H133.066V198.427ZM120.168 189.231C120.168 188.09 120.346 187.09 120.703 186.23C121.066 185.37 121.566 184.709 122.203 184.247C122.847 183.779 123.578 183.545 124.397 183.545C125.198 183.545 125.915 183.779 126.547 184.247C127.184 184.709 127.685 185.37 128.047 186.23C128.41 187.09 128.591 188.09 128.591 189.231C128.591 190.378 128.41 191.384 128.047 192.249C127.685 193.109 127.184 193.773 126.547 194.241C125.915 194.703 125.198 194.934 124.397 194.934C123.578 194.934 122.847 194.703 122.203 194.241C121.566 193.773 121.066 193.109 120.703 192.249C120.346 191.384 120.168 190.378 120.168 189.231ZM122.326 189.231C122.326 190.009 122.411 190.676 122.581 191.232C122.75 191.781 122.99 192.2 123.3 192.486C123.616 192.767 123.982 192.905 124.397 192.899C124.801 192.905 125.155 192.767 125.459 192.486C125.769 192.2 126.009 191.781 126.178 191.232C126.348 190.676 126.433 190.009 126.433 189.231C126.433 188.453 126.348 187.789 126.178 187.239C126.009 186.689 125.769 186.274 125.459 185.993C125.155 185.706 124.801 185.563 124.397 185.563C123.982 185.563 123.616 185.706 123.3 185.993C122.99 186.274 122.75 186.689 122.581 187.239C122.411 187.789 122.326 188.453 122.326 189.231Z" fill="#764CCB"/>
<path d="M109.002 183.545C109.815 183.545 110.537 183.779 111.169 184.247C111.806 184.709 112.307 185.37 112.669 186.23C113.032 187.09 113.213 188.09 113.213 189.231C113.213 190.378 113.032 191.384 112.669 192.249C112.307 193.109 111.806 193.773 111.169 194.241C110.537 194.703 109.815 194.934 109.002 194.934C108.188 194.934 107.46 194.703 106.817 194.241C106.179 193.773 105.682 193.109 105.325 192.249C104.968 191.384 104.79 190.378 104.79 189.231C104.79 188.09 104.968 187.09 105.325 186.23C105.682 185.37 106.179 184.709 106.817 184.247C107.46 183.779 108.188 183.545 109.002 183.545ZM106.948 189.231C106.948 190.009 107.033 190.676 107.203 191.232C107.372 191.781 107.612 192.2 107.922 192.486C108.232 192.767 108.592 192.905 109.002 192.899C109.417 192.905 109.78 192.767 110.09 192.486C110.4 192.2 110.639 191.781 110.809 191.232C110.985 190.676 111.072 190.009 111.072 189.231C111.072 188.453 110.985 187.789 110.809 187.239C110.639 186.689 110.4 186.274 110.09 185.993C109.78 185.706 109.417 185.563 109.002 185.563C108.592 185.563 108.232 185.706 107.922 185.993C107.612 186.274 107.372 186.692 107.203 187.248C107.033 187.798 106.948 188.459 106.948 189.231ZM115.056 182.422H117.302V188.441H119.654V190.301H117.302V198.392H115.056V182.422Z" fill="#764CCB"/>
<path d="M266.032 214.522H268.053V215.617H266.032V222.258H264.698V209.65H266.032V214.522ZM256.766 210.858H262.648V211.939H258.099V218.018C259.213 218.013 260.191 217.98 261.034 217.92C261.876 217.859 262.728 217.751 263.589 217.597L263.757 218.72C262.868 218.879 261.995 218.987 261.139 219.043C260.287 219.099 259.274 219.127 258.099 219.127H257.777H256.766V210.858Z" fill="#555555"/>
<path d="M254.792 222.23H253.458V209.65H254.792V222.23ZM245.119 210.872H246.438V217.877C248.432 217.868 250.36 217.676 252.223 217.302L252.405 218.425C251.338 218.645 250.295 218.802 249.274 218.895C248.254 218.989 247.22 219.033 246.172 219.029H245.119V210.872Z" fill="#555555"/>
<path d="M242.345 212.557H244.17V213.652H242.345V216.459H240.997V209.65H242.345V212.557ZM232.461 215.533C233.467 215.304 234.328 214.99 235.044 214.592C235.76 214.19 236.317 213.724 236.715 213.195C237.117 212.667 237.354 212.089 237.424 211.461H233.05V210.394H238.891C238.891 211.447 238.659 212.388 238.196 213.216C237.733 214.045 237.056 214.744 236.167 215.315C235.283 215.882 234.211 216.314 232.952 216.614L232.461 215.533ZM234.258 217.007H235.592V218.481H241.011V217.007H242.345V222.075H234.258V217.007ZM241.011 220.98V219.534H235.592V220.98H241.011Z" fill="#555555"/>
<path d="M223.987 210.591C224.553 210.591 225.063 210.745 225.517 211.054C225.971 211.363 226.338 211.801 226.619 212.367C226.904 212.933 227.08 213.6 227.145 214.368H229.743V209.65H231.062V222.258H229.743V215.449H227.16C227.113 216.258 226.949 216.963 226.668 217.562C226.387 218.161 226.015 218.622 225.552 218.944C225.089 219.263 224.567 219.422 223.987 219.422C223.364 219.422 222.81 219.242 222.323 218.881C221.841 218.521 221.464 218.006 221.193 217.337C220.926 216.668 220.795 215.889 220.8 214.999C220.795 214.12 220.926 213.347 221.193 212.683C221.464 212.014 221.841 211.499 222.323 211.139C222.81 210.774 223.364 210.591 223.987 210.591ZM222.063 214.999C222.063 215.655 222.143 216.225 222.302 216.712C222.466 217.199 222.693 217.573 222.983 217.835C223.273 218.097 223.608 218.228 223.987 218.228C224.366 218.228 224.7 218.097 224.99 217.835C225.281 217.573 225.505 217.199 225.664 216.712C225.828 216.225 225.91 215.655 225.91 214.999C225.91 214.354 225.828 213.79 225.664 213.308C225.501 212.821 225.274 212.447 224.983 212.184C224.698 211.918 224.366 211.784 223.987 211.784C223.608 211.784 223.273 211.918 222.983 212.184C222.697 212.447 222.473 212.821 222.309 213.308C222.145 213.79 222.063 214.354 222.063 214.999Z" fill="#555555"/>
<path d="M220.174 215.87H208.689V214.803H220.174V215.87ZM210.065 216.867H218.713V219.913H211.385V221.037H219.064V222.089H210.079V218.931H217.394V217.892H210.065V216.867ZM210.192 210.016H218.685V211.097H211.525V212.823H218.812V213.89H210.192V210.016Z" fill="#555555"/>
<path d="M204.25 222.258H202.916V209.65H204.25V222.258ZM194.268 214.999C194.268 214.12 194.406 213.347 194.682 212.683C194.958 212.014 195.342 211.499 195.834 211.139C196.33 210.774 196.894 210.591 197.525 210.591C198.148 210.591 198.705 210.774 199.196 211.139C199.687 211.499 200.071 212.014 200.347 212.683C200.628 213.347 200.768 214.12 200.768 214.999C200.768 215.889 200.628 216.668 200.347 217.337C200.071 218.006 199.687 218.521 199.196 218.881C198.705 219.242 198.148 219.422 197.525 219.422C196.894 219.422 196.33 219.242 195.834 218.881C195.342 218.521 194.958 218.006 194.682 217.337C194.406 216.668 194.268 215.889 194.268 214.999ZM195.56 214.999C195.56 215.655 195.642 216.225 195.805 216.712C195.969 217.199 196.199 217.573 196.493 217.835C196.793 218.097 197.137 218.228 197.525 218.228C197.909 218.228 198.248 218.097 198.543 217.835C198.838 217.573 199.067 217.199 199.231 216.712C199.395 216.225 199.477 215.655 199.477 214.999C199.477 214.354 199.395 213.79 199.231 213.308C199.067 212.821 198.838 212.447 198.543 212.184C198.248 211.918 197.909 211.784 197.525 211.784C197.137 211.784 196.793 211.918 196.493 212.184C196.199 212.447 195.969 212.821 195.805 213.308C195.642 213.79 195.56 214.354 195.56 214.999Z" fill="#555555"/>
<path d="M192.435 217.077H191.101V215.21H188.363V216.235H182.523V210.591H188.363V211.63H191.101V209.65H192.435V217.077ZM187.058 215.168V211.658H183.843V215.168H187.058ZM183.969 219.829C183.969 219.324 184.137 218.891 184.474 218.53C184.816 218.17 185.305 217.896 185.941 217.709C186.583 217.522 187.343 217.428 188.223 217.428C189.098 217.428 189.854 217.522 190.49 217.709C191.127 217.896 191.616 218.17 191.957 218.53C192.304 218.891 192.477 219.324 192.477 219.829C192.477 220.33 192.304 220.758 191.957 221.114C191.616 221.469 191.127 221.738 190.49 221.921C189.854 222.108 189.098 222.202 188.223 222.202C187.343 222.202 186.583 222.108 185.941 221.921C185.305 221.738 184.816 221.469 184.474 221.114C184.137 220.758 183.969 220.33 183.969 219.829ZM185.289 219.829C185.289 220.11 185.403 220.351 185.633 220.552C185.867 220.753 186.203 220.908 186.643 221.015C187.083 221.123 187.61 221.177 188.223 221.177C188.831 221.177 189.355 221.123 189.795 221.015C190.235 220.908 190.572 220.753 190.806 220.552C191.04 220.351 191.157 220.11 191.157 219.829C191.152 219.389 190.893 219.052 190.378 218.818C189.863 218.579 189.145 218.458 188.223 218.453C187.292 218.458 186.568 218.579 186.054 218.818C185.539 219.052 185.284 219.389 185.289 219.829ZM191.101 214.129V212.697H188.363V214.129H191.101Z" fill="#555555"/>
<path d="M180.549 216.123H179.215V212.893H176.562V211.812H179.215V209.65H180.549V216.123ZM170.019 215.112C170.665 214.906 171.224 214.606 171.697 214.213C172.17 213.815 172.532 213.354 172.785 212.83C173.038 212.301 173.164 211.742 173.164 211.153V210.058H174.484V211.153C174.484 211.686 174.606 212.199 174.849 212.69C175.097 213.177 175.45 213.609 175.909 213.989C176.367 214.363 176.908 214.648 177.53 214.845L176.828 215.884C176.145 215.645 175.546 215.299 175.031 214.845C174.521 214.391 174.126 213.862 173.845 213.259C173.569 213.946 173.164 214.543 172.631 215.049C172.102 215.549 171.47 215.926 170.735 216.179L170.019 215.112ZM172.322 216.712H180.549V219.843H173.656V221.008H180.984V222.075H172.35V218.832H179.229V217.765H172.322V216.712Z" fill="#555555"/>
<path d="M165.089 213.708H166.914V214.817H165.089V219.071H163.755V209.664H165.089V213.708ZM155.219 211.125H158.308V209.65H159.641V211.125H162.716V212.206H155.219V211.125ZM155.907 215.182C155.907 214.709 156.033 214.293 156.286 213.932C156.543 213.572 156.904 213.296 157.367 213.104C157.83 212.908 158.364 212.809 158.968 212.809C159.567 212.809 160.095 212.908 160.554 213.104C161.017 213.296 161.375 213.572 161.628 213.932C161.885 214.293 162.014 214.709 162.014 215.182C162.014 215.65 161.885 216.062 161.628 216.417C161.375 216.773 161.017 217.049 160.554 217.246C160.095 217.442 159.567 217.541 158.968 217.541C158.364 217.541 157.83 217.442 157.367 217.246C156.904 217.049 156.543 216.773 156.286 216.417C156.033 216.062 155.907 215.65 155.907 215.182ZM157.114 218.327H158.448V220.882H165.622V221.963H157.114V218.327ZM157.199 215.182C157.194 215.449 157.264 215.683 157.409 215.884C157.554 216.08 157.758 216.233 158.02 216.34C158.287 216.448 158.596 216.502 158.947 216.502C159.489 216.502 159.927 216.385 160.259 216.151C160.591 215.917 160.76 215.594 160.765 215.182C160.76 214.77 160.594 214.445 160.266 214.206C159.939 213.963 159.506 213.839 158.968 213.834C158.612 213.834 158.298 213.89 158.027 214.003C157.76 214.11 157.554 214.267 157.409 214.473C157.264 214.674 157.194 214.91 157.199 215.182Z" fill="#555555"/>
<path d="M154.116 222.23H152.838V215.729H151.209V221.584H149.988V209.903H151.209V214.634H152.838V209.65H154.116V222.23ZM143.741 211.167H148.458V212.248H145.074V218.074C145.893 218.069 146.612 218.044 147.229 217.997C147.852 217.95 148.486 217.863 149.132 217.737L149.23 218.832C148.528 218.977 147.835 219.075 147.152 219.127C146.474 219.174 145.617 219.202 144.583 219.211H143.741V211.167Z" fill="#555555"/>
<path d="M139.287 222.23H138.01V209.65H139.287V222.23ZM128.603 215.084C128.603 214.185 128.713 213.404 128.933 212.739C129.158 212.07 129.474 211.557 129.881 211.202C130.293 210.841 130.77 210.661 131.313 210.661C131.818 210.661 132.265 210.813 132.654 211.118C133.047 211.422 133.36 211.862 133.594 212.437C133.833 213.008 133.978 213.684 134.029 214.466H135.454V209.889H136.732V221.612H135.454V215.547H134.037C133.999 216.361 133.863 217.068 133.629 217.667C133.395 218.261 133.079 218.72 132.682 219.043C132.284 219.361 131.828 219.52 131.313 219.52C130.77 219.52 130.293 219.342 129.881 218.987C129.474 218.626 129.158 218.111 128.933 217.442C128.713 216.768 128.603 215.982 128.603 215.084ZM129.839 215.084C129.839 215.743 129.897 216.312 130.014 216.789C130.136 217.267 130.307 217.632 130.527 217.884C130.751 218.132 131.013 218.257 131.313 218.257C131.622 218.257 131.888 218.132 132.113 217.884C132.338 217.632 132.511 217.267 132.633 216.789C132.754 216.312 132.815 215.743 132.815 215.084C132.815 214.419 132.754 213.85 132.633 213.378C132.511 212.901 132.338 212.538 132.113 212.29C131.888 212.037 131.622 211.911 131.313 211.911C131.013 211.911 130.751 212.037 130.527 212.29C130.307 212.538 130.136 212.901 130.014 213.378C129.897 213.855 129.839 214.424 129.839 215.084Z" fill="#555555"/>
<path d="M128.047 217.625H116.549V216.558H128.047V217.625ZM118.023 218.453H119.343V220.882H126.854V221.963H118.023V218.453ZM118.051 210.1H126.643V211.139H119.399V212.29H126.32V213.301H119.399V214.48H126.728V215.505H118.051V210.1Z" fill="#555555"/>
<path d="M115.179 222.258H113.859V215.336H111.079V219.141H105.183V210.619H106.531V213.834H109.774V210.619H111.079V214.241H113.859V209.65H115.179V222.258ZM109.774 218.046V214.887H106.531V218.046H109.774Z" fill="#555555"/>
<path d="M563.371 203.066C563.371 210.509 557.337 216.543 549.893 216.543C542.45 216.543 536.416 210.509 536.416 203.066C536.416 195.622 542.45 189.588 549.893 189.588C557.337 189.588 563.371 195.622 563.371 203.066Z" fill="#764CCB"/>
<path d="M548.267 208.401C548.144 208.401 548.025 208.377 547.909 208.329C547.793 208.281 547.687 208.21 547.592 208.114L543.89 204.413C543.699 204.222 543.604 203.99 543.604 203.717C543.604 203.445 543.699 203.213 543.89 203.022C544.081 202.831 544.309 202.736 544.575 202.736C544.841 202.736 545.076 202.831 545.281 203.022L548.267 206.008L555.425 198.87C555.616 198.679 555.844 198.58 556.11 198.574C556.376 198.567 556.604 198.666 556.795 198.87C556.986 199.061 557.081 199.293 557.081 199.565C557.081 199.838 556.986 200.07 556.795 200.261L548.942 208.114C548.846 208.21 548.74 208.281 548.625 208.329C548.509 208.377 548.389 208.401 548.267 208.401Z" fill="white"/>
<path d="M31.4482 188.69C31.4482 181.246 37.4824 175.212 44.9259 175.212H72.78C80.2236 175.212 86.2578 181.246 86.2578 188.69V216.544C86.2578 223.987 80.2236 230.022 72.78 230.022H44.9259C37.4824 230.022 31.4482 223.987 31.4482 216.544V188.69Z" fill="#E6DDF9"/>
<path d="M75.3176 206.661H73.7206L69.8142 201.01H69.7405V206.661H67.8978V197.767H69.5194L73.4012 203.417H73.4872V197.767H75.3176V206.661Z" fill="#764CCB"/>
<path d="M65.6726 202.213C65.6726 203.159 65.4924 203.976 65.1321 204.664C64.7717 205.352 64.2763 205.878 63.6457 206.243C63.0191 206.603 62.3107 206.783 61.5204 206.783C60.7261 206.783 60.0136 206.603 59.383 206.243C58.7524 205.878 58.2569 205.352 57.8965 204.664C57.5362 203.972 57.356 203.155 57.356 202.213C57.356 201.267 57.5362 200.451 57.8965 199.763C58.2569 199.075 58.7524 198.551 59.383 198.19C60.0136 197.826 60.7261 197.644 61.5204 197.644C62.3107 197.644 63.0191 197.826 63.6457 198.19C64.2763 198.551 64.7717 199.075 65.1321 199.763C65.4924 200.451 65.6726 201.267 65.6726 202.213ZM59.2355 202.213C59.2355 202.836 59.3277 203.368 59.5119 203.81C59.7003 204.248 59.9665 204.58 60.3104 204.805C60.6544 205.031 61.0577 205.145 61.5204 205.149C61.9791 205.145 62.3783 205.031 62.7182 204.805C63.0621 204.576 63.3263 204.242 63.5105 203.804C63.6989 203.366 63.7931 202.836 63.7931 202.213C63.7931 201.591 63.6989 201.061 63.5105 200.623C63.3263 200.18 63.0621 199.847 62.7182 199.621C62.3783 199.396 61.9791 199.281 61.5204 199.277C61.0577 199.281 60.6544 199.396 60.3104 199.621C59.9665 199.847 59.7003 200.18 59.5119 200.623C59.3277 201.061 59.2355 201.591 59.2355 202.213Z" fill="#764CCB"/>
<path d="M53.4724 200.862C53.3987 200.375 53.1878 199.99 52.8397 199.707C52.4917 199.425 52.0556 199.281 51.5314 199.277C51.0687 199.281 50.6633 199.398 50.3153 199.627C49.9713 199.857 49.7052 200.193 49.5168 200.635C49.3284 201.073 49.2343 201.599 49.2343 202.213C49.2343 202.84 49.3284 203.372 49.5168 203.81C49.7093 204.248 49.9754 204.58 50.3153 204.805C50.6593 205.031 51.0605 205.145 51.5192 205.149C52.031 205.145 52.463 205.01 52.8152 204.744C53.1673 204.474 53.3864 204.101 53.4724 203.626L55.3396 203.638C55.27 204.199 55.0714 204.719 54.7438 205.198C54.4162 205.678 53.974 206.062 53.4171 206.353C52.8602 206.64 52.2194 206.783 51.4946 206.783C50.6961 206.783 49.9836 206.603 49.3571 206.243C48.7347 205.878 48.2454 205.352 47.8891 204.664C47.5329 203.972 47.3547 203.155 47.3547 202.213C47.3547 201.267 47.5329 200.451 47.8891 199.763C48.2495 199.075 48.7429 198.551 49.3694 198.19C49.9959 197.826 50.7043 197.644 51.4946 197.644C52.1784 197.644 52.7967 197.77 53.3495 198.024C53.9023 198.278 54.3507 198.647 54.6947 199.13C55.0427 199.613 55.2577 200.191 55.3396 200.862H53.4724Z" fill="#764CCB"/>
<path d="M45.1295 206.661H43.2868V197.767H45.1295V206.661Z" fill="#764CCB"/>
<path d="M0 7.18815C0 3.21824 3.21824 0 7.18815 0H212.05C216.02 0 219.239 3.21824 219.239 7.18815V42.2304C219.239 46.2003 216.02 49.4185 212.05 49.4185H7.18815C3.21825 49.4185 0 46.2003 0 42.2304V7.18815Z" fill="white"/>
<path fill-rule="evenodd" clip-rule="evenodd" d="M212.05 1.79704H7.18815C4.21072 1.79704 1.79704 4.21072 1.79704 7.18815V42.2304C1.79704 45.2078 4.21072 47.6215 7.18815 47.6215H212.05C215.028 47.6215 217.441 45.2078 217.441 42.2304V7.18815C217.441 4.21072 215.028 1.79704 212.05 1.79704ZM7.18815 0C3.21824 0 0 3.21824 0 7.18815V42.2304C0 46.2003 3.21825 49.4185 7.18815 49.4185H212.05C216.02 49.4185 219.239 46.2003 219.239 42.2304V7.18815C219.239 3.21824 216.02 0 212.05 0H7.18815Z" fill="#333333"/>
<path d="M134.314 24.4988H132.981V17.3809H134.314V24.4988ZM123.939 23.1651C124.581 22.9498 125.14 22.6339 125.617 22.2174C126.094 21.7962 126.459 21.3142 126.712 20.7714C126.965 20.2285 127.094 19.6646 127.098 19.0796V17.8582H128.46V19.0796C128.46 19.6412 128.586 20.1794 128.839 20.6941C129.092 21.2042 129.452 21.6558 129.92 22.0489C130.393 22.442 130.945 22.7439 131.577 22.9545L130.917 23.9794C130.192 23.7407 129.56 23.3827 129.022 22.9053C128.483 22.428 128.072 21.8641 127.786 21.2136C127.501 21.9156 127.084 22.5263 126.537 23.0457C125.989 23.5652 125.343 23.956 124.599 24.218L123.939 23.1651ZM126.045 25.1727H134.314V29.7916H126.045V25.1727ZM133.009 28.7106V26.2397H127.365V28.7106H133.009Z" fill="#333333"/>
<path d="M123.496 25.5654H120.576V29.9457H119.228V25.5654H116.223V29.9457H114.848V25.5654H111.983V24.4703H123.496V25.5654ZM113.233 20.6235C113.233 20.0666 113.42 19.5776 113.795 19.1564C114.174 18.7352 114.7 18.4123 115.374 18.1877C116.053 17.9584 116.832 17.8438 117.712 17.8438C118.591 17.8438 119.371 17.9584 120.049 18.1877C120.728 18.4123 121.254 18.7352 121.629 19.1564C122.003 19.5776 122.19 20.0666 122.19 20.6235C122.19 21.1758 122.003 21.6578 121.629 22.0696C121.254 22.4814 120.728 22.7996 120.049 23.0243C119.371 23.2442 118.591 23.3519 117.712 23.3472C116.832 23.3519 116.053 23.2442 115.374 23.0243C114.7 22.7996 114.174 22.4814 113.795 22.0696C113.42 21.6578 113.233 21.1758 113.233 20.6235ZM114.609 20.6235C114.609 20.9652 114.735 21.2623 114.988 21.515C115.245 21.7631 115.608 21.9549 116.076 22.0907C116.549 22.2264 117.094 22.2942 117.712 22.2942C118.334 22.2942 118.879 22.2264 119.347 22.0907C119.815 21.9549 120.178 21.7631 120.435 21.515C120.697 21.2623 120.828 20.9652 120.828 20.6235C120.828 20.2726 120.697 19.9707 120.435 19.718C120.178 19.4606 119.815 19.2617 119.347 19.1213C118.879 18.9809 118.334 18.9107 117.712 18.9107C117.089 18.9107 116.544 18.9809 116.076 19.1213C115.608 19.2617 115.245 19.4606 114.988 19.718C114.735 19.9754 114.609 20.2772 114.609 20.6235Z" fill="#333333"/>
<path d="M106.912 21.9009C106.833 21.4751 106.667 21.1077 106.414 20.7989C106.166 20.49 105.857 20.256 105.487 20.0969C105.122 19.9378 104.722 19.8606 104.287 19.8652C103.697 19.8606 103.171 20.008 102.708 20.3075C102.249 20.6023 101.886 21.0375 101.62 21.6131C101.358 22.1841 101.227 22.8697 101.227 23.6699C101.227 24.4748 101.358 25.1651 101.62 25.7407C101.886 26.3116 102.249 26.7445 102.708 27.0393C103.171 27.3342 103.697 27.4792 104.287 27.4746C104.718 27.4792 105.115 27.4044 105.48 27.2499C105.845 27.0908 106.152 26.8592 106.4 26.555C106.653 26.2508 106.824 25.8881 106.912 25.4669L108.471 25.481C108.363 26.1455 108.118 26.7375 107.734 27.257C107.355 27.7717 106.866 28.1742 106.267 28.4643C105.672 28.7498 105.008 28.8925 104.273 28.8925C103.389 28.8925 102.6 28.682 101.907 28.2608C101.215 27.8396 100.672 27.2359 100.279 26.4497C99.8905 25.6588 99.6963 24.7322 99.6963 23.6699C99.6963 22.6076 99.8928 21.6833 100.286 20.8971C100.679 20.1062 101.222 19.5002 101.914 19.079C102.607 18.6579 103.393 18.4473 104.273 18.4473C104.989 18.4473 105.644 18.5853 106.239 18.8614C106.833 19.1329 107.324 19.5283 107.713 20.0478C108.106 20.5672 108.359 21.1849 108.471 21.9009H106.912Z" fill="#333333"/>
<path d="M92.5418 18.5879H98.8455V19.9216H94.0861V22.9962H98.3962V24.3159H94.0861V28.7524H92.5418V18.5879Z" fill="#333333"/>
<path d="M91.0031 28.7524H89.5851L84.4327 21.3256H84.3484V28.7524H82.8041V18.5879H84.2361L89.3886 26.0287H89.4868V18.5879H91.0031V28.7524Z" fill="#333333"/>
<path d="M228.224 7.18815C228.224 3.21824 231.442 0 235.412 0H440.274C444.244 0 447.462 3.21824 447.462 7.18815V42.2304C447.462 46.2003 444.244 49.4185 440.274 49.4185H235.412C231.442 49.4185 228.224 46.2003 228.224 42.2304V7.18815Z" fill="#E5E5E5"/>
<path d="M362.207 24.4988H360.873V17.3809H362.207V24.4988ZM351.832 23.1651C352.473 22.9498 353.032 22.6339 353.509 22.2174C353.987 21.7962 354.352 21.3142 354.605 20.7714C354.857 20.2285 354.986 19.6646 354.991 19.0796V17.8582H356.352V19.0796C356.352 19.6412 356.479 20.1794 356.732 20.6941C356.984 21.2042 357.345 21.6558 357.813 22.0489C358.285 22.442 358.837 22.7439 359.469 22.9545L358.809 23.9794C358.084 23.7407 357.452 23.3827 356.914 22.9053C356.376 22.428 355.964 21.8641 355.679 21.2136C355.393 21.9156 354.977 22.5263 354.429 23.0457C353.882 23.5652 353.236 23.956 352.492 24.218L351.832 23.1651ZM353.938 25.1727H362.207V29.7916H353.938V25.1727ZM360.901 28.7106V26.2397H355.257V28.7106H360.901Z" fill="#777777"/>
<path d="M351.388 25.5664H348.468V29.9466H347.12V25.5664H344.116V29.9466H342.74V25.5664H339.876V24.4713H351.388V25.5664ZM341.125 20.6245C341.125 20.0676 341.313 19.5786 341.687 19.1574C342.066 18.7362 342.592 18.4133 343.266 18.1887C343.945 17.9594 344.724 17.8447 345.604 17.8447C346.484 17.8447 347.263 17.9594 347.941 18.1887C348.62 18.4133 349.147 18.7362 349.521 19.1574C349.895 19.5786 350.082 20.0676 350.082 20.6245C350.082 21.1767 349.895 21.6588 349.521 22.0706C349.147 22.4824 348.62 22.8006 347.941 23.0252C347.263 23.2452 346.484 23.3528 345.604 23.3482C344.724 23.3528 343.945 23.2452 343.266 23.0252C342.592 22.8006 342.066 22.4824 341.687 22.0706C341.313 21.6588 341.125 21.1767 341.125 20.6245ZM342.501 20.6245C342.501 20.9661 342.628 21.2633 342.88 21.516C343.138 21.764 343.5 21.9559 343.968 22.0916C344.441 22.2273 344.986 22.2952 345.604 22.2952C346.226 22.2952 346.772 22.2273 347.24 22.0916C347.708 21.9559 348.07 21.764 348.328 21.516C348.59 21.2633 348.721 20.9661 348.721 20.6245C348.721 20.2735 348.59 19.9717 348.328 19.719C348.07 19.4616 347.708 19.2627 347.24 19.1223C346.772 18.9819 346.226 18.9117 345.604 18.9117C344.982 18.9117 344.436 18.9819 343.968 19.1223C343.5 19.2627 343.138 19.4616 342.88 19.719C342.628 19.9764 342.501 20.2782 342.501 20.6245Z" fill="#777777"/>
<path d="M334.917 21.0872H336.742V22.2104H334.917V26.6188H333.583V17.3809H334.917V21.0872ZM325.525 18.2794H326.831V20.287H330.13V18.2794H331.449V24.5409H325.525V18.2794ZM330.13 23.4739V21.34H326.831V23.4739H330.13ZM326.943 25.7062H328.277V28.5983H335.451V29.6793H326.943V25.7062Z" fill="#777777"/>
<path d="M316.714 17.7884C317.341 17.793 317.905 17.9171 318.405 18.1604C318.906 18.3991 319.299 18.7313 319.585 19.1572C319.87 19.5831 320.013 20.0674 320.013 20.6103C320.013 21.1531 319.87 21.6375 319.585 22.0634C319.299 22.4892 318.906 22.8215 318.405 23.0601C317.905 23.2988 317.341 23.4181 316.714 23.4181C316.082 23.4181 315.513 23.2988 315.008 23.0601C314.507 22.8215 314.114 22.4892 313.829 22.0634C313.543 21.6375 313.4 21.1531 313.4 20.6103C313.4 20.0674 313.543 19.5831 313.829 19.1572C314.114 18.7313 314.507 18.3991 315.008 18.1604C315.513 17.9171 316.082 17.793 316.714 17.7884ZM314.706 20.6103C314.706 20.9519 314.79 21.2537 314.959 21.5158C315.132 21.7732 315.371 21.9744 315.675 22.1195C315.984 22.2646 316.33 22.3371 316.714 22.3371C317.097 22.3371 317.441 22.2646 317.746 22.1195C318.05 21.9744 318.288 21.7732 318.462 21.5158C318.635 21.2537 318.721 20.9519 318.721 20.6103C318.721 20.2733 318.635 19.9762 318.462 19.7188C318.288 19.4567 318.047 19.2555 317.739 19.1151C317.434 18.9747 317.093 18.9068 316.714 18.9115C316.33 18.9068 315.984 18.9747 315.675 19.1151C315.371 19.2555 315.132 19.4567 314.959 19.7188C314.79 19.9762 314.706 20.2733 314.706 20.6103ZM315.31 24.3447H323.579V27.5176H316.644V28.725H324V29.792H315.352V26.5208H322.259V25.4117H315.31V24.3447ZM322.245 17.3672H323.579V23.7691H322.245V17.3672Z" fill="#777777"/>
<path d="M456.447 7.18815C456.447 3.21824 459.666 0 463.636 0H668.498C672.468 0 675.686 3.21824 675.686 7.18815V42.2304C675.686 46.2003 672.468 49.4185 668.498 49.4185H463.636C459.666 49.4185 456.447 46.2003 456.447 42.2304V7.18815Z" fill="#E5E5E5"/>
<path d="M572.592 18.5889L575.807 26.4649H575.934L579.149 18.5889H581.03V28.7534H579.556V21.4108H579.457L576.481 28.7393H575.26L572.269 21.3967H572.185V28.7534H570.711V18.5889H572.592Z" fill="#777777"/>
<path d="M569.186 28.7534H567.642V18.5889H569.186V28.7534Z" fill="#777777"/>
<path d="M564.882 21.2702C564.835 20.8022 564.622 20.4372 564.243 20.1751C563.864 19.913 563.38 19.782 562.79 19.782C562.383 19.782 562.025 19.8475 561.716 19.9785C561.412 20.1049 561.175 20.2827 561.007 20.512C560.838 20.7413 560.754 20.9987 560.754 21.2842C560.754 21.7147 560.932 22.047 561.288 22.281C561.643 22.515 562.083 22.6928 562.607 22.8145L563.59 23.0812C565.542 23.5539 566.52 24.5086 566.524 25.9453C566.52 26.5209 566.368 27.0333 566.068 27.4826C565.773 27.9318 565.34 28.2851 564.769 28.5425C564.203 28.7952 563.529 28.9216 562.748 28.9216C561.994 28.9216 561.337 28.8023 560.775 28.5636C560.218 28.3202 559.781 27.9739 559.463 27.5247C559.149 27.0754 558.976 26.5443 558.943 25.9312H560.487C560.53 26.4647 560.759 26.8719 561.175 27.1526C561.597 27.4287 562.121 27.5691 562.748 27.5738C563.178 27.5738 563.562 27.506 563.899 27.3703C564.241 27.2299 564.507 27.0356 564.699 26.7876C564.896 26.5349 564.994 26.2448 564.994 25.9172C564.994 25.6364 564.912 25.4001 564.748 25.2082C564.585 25.0163 564.365 24.8595 564.089 24.7379C563.817 24.6115 563.478 24.4945 563.071 24.3869L561.863 24.064C561.012 23.83 560.356 23.493 559.898 23.0531C559.444 22.6132 559.215 22.0517 559.21 21.3684C559.21 20.7928 559.367 20.2851 559.68 19.8452C559.998 19.4006 560.431 19.0566 560.979 18.8133C561.531 18.5699 562.149 18.4482 562.832 18.4482C563.511 18.4482 564.117 18.5699 564.65 18.8133C565.184 19.0519 565.602 19.3865 565.907 19.8171C566.211 20.2429 566.37 20.7273 566.384 21.2702H564.882Z" fill="#777777"/>
<path d="M554.99 28.9073C554.25 28.9073 553.607 28.7459 553.059 28.423C552.512 28.1001 552.093 27.6438 551.803 27.0541C551.513 26.4645 551.367 25.7766 551.367 24.9903C551.367 24.2135 551.513 23.5256 551.803 22.9266C552.093 22.3276 552.505 21.8619 553.038 21.5296C553.572 21.1974 554.189 21.0312 554.891 21.0312C555.504 21.0312 556.066 21.1646 556.576 21.4314C557.086 21.6981 557.496 22.1193 557.805 22.6949C558.118 23.2658 558.275 23.9889 558.275 24.864V25.3975H552.856C552.87 25.8748 552.968 26.2843 553.15 26.6259C553.333 26.9676 553.583 27.2273 553.902 27.4051C554.22 27.5829 554.587 27.6719 555.004 27.6719C555.406 27.6719 555.748 27.597 556.029 27.4472C556.314 27.2928 556.525 27.0916 556.66 26.8435H558.177C558.064 27.2554 557.863 27.618 557.573 27.9316C557.283 28.2405 556.918 28.4815 556.478 28.6546C556.038 28.8231 555.542 28.9073 554.99 28.9073ZM556.801 24.2743C556.801 23.8906 556.721 23.5466 556.562 23.2424C556.408 22.9336 556.185 22.6949 555.895 22.5264C555.61 22.3533 555.28 22.2667 554.905 22.2667C554.517 22.2667 554.171 22.358 553.866 22.5405C553.567 22.7183 553.331 22.9617 553.158 23.2705C552.984 23.5794 552.886 23.914 552.863 24.2743H556.801Z" fill="#777777"/>
<path d="M0 571.857C0 567.887 3.21824 564.669 7.18815 564.669H352.219C356.189 564.669 359.407 567.887 359.407 571.857V615.885C359.407 619.854 356.189 623.073 352.219 623.073H7.18814C3.21824 623.073 0 619.854 0 615.885V571.857Z" fill="#764CCB"/>
<path d="M193.176 599.364H180.225V598.101H183.763V595.605H181.804V591.104H190.112V589.129H181.773V587.897H191.597V592.32H183.289V594.373H191.928V595.605H189.78V598.101H193.176V599.364ZM188.312 598.101V595.605H185.216V598.101H188.312Z" fill="white"/>
<path d="M170.543 587.534C171.227 587.534 171.836 587.652 172.367 587.889C172.904 588.126 173.323 588.458 173.623 588.884C173.923 589.311 174.076 589.803 174.081 590.361C174.076 590.835 173.957 591.264 173.726 591.648C173.499 592.033 173.181 592.351 172.77 592.604C172.359 592.857 171.88 593.025 171.333 593.109V594.373C172.67 594.299 173.897 594.178 175.013 594.01L175.123 595.115C173.86 595.342 172.525 595.497 171.12 595.581C169.719 595.66 168.274 595.7 166.784 595.7H166.389L166.231 594.483H166.942C168.053 594.483 169.016 594.468 169.832 594.436V593.125C169.269 593.046 168.774 592.88 168.348 592.628C167.926 592.375 167.6 592.054 167.368 591.664C167.137 591.275 167.021 590.84 167.021 590.361C167.021 589.803 167.168 589.311 167.463 588.884C167.763 588.458 168.179 588.126 168.711 587.889C169.248 587.652 169.859 587.534 170.543 587.534ZM168.237 596.789H169.738V599.522H177.887V600.754H168.237V596.789ZM168.427 590.361C168.421 590.688 168.508 590.977 168.687 591.23C168.866 591.483 169.116 591.677 169.437 591.814C169.759 591.951 170.127 592.02 170.543 592.02C170.959 592.02 171.327 591.951 171.649 591.814C171.97 591.677 172.217 591.485 172.391 591.238C172.57 590.985 172.659 590.693 172.659 590.361C172.659 590.024 172.57 589.729 172.391 589.477C172.217 589.224 171.97 589.029 171.649 588.892C171.327 588.755 170.959 588.687 170.543 588.687C170.127 588.687 169.759 588.755 169.437 588.892C169.116 589.029 168.866 589.224 168.687 589.477C168.508 589.729 168.421 590.024 168.427 590.361ZM175.881 586.918H177.382V591.593H179.404V592.857H177.382V597.737H175.881V586.918Z" fill="white"/>
<path d="M0 688.665C0 684.695 3.21824 681.477 7.18815 681.477H352.219C356.189 681.477 359.407 684.695 359.407 688.665V732.692C359.407 736.662 356.189 739.88 352.219 739.88H7.18814C3.21824 739.88 0 736.662 0 732.692V688.665Z" fill="#F1F1F1"/>
<path d="M193.176 715.273H180.225V714.009H183.763V711.514H181.804V707.012H190.112V705.038H181.773V703.806H191.597V708.229H183.289V710.282H191.928V711.514H189.78V714.009H193.176V715.273ZM188.312 714.009V711.514H185.216V714.009H188.312Z" fill="#CBCBCB"/>
<path d="M170.543 703.443C171.227 703.443 171.836 703.561 172.367 703.798C172.904 704.035 173.323 704.367 173.623 704.793C173.923 705.219 174.076 705.712 174.081 706.27C174.076 706.744 173.957 707.173 173.726 707.557C173.499 707.941 173.181 708.26 172.77 708.513C172.359 708.765 171.88 708.934 171.333 709.018V710.282C172.67 710.208 173.897 710.087 175.013 709.918L175.123 711.024C173.86 711.25 172.525 711.406 171.12 711.49C169.719 711.569 168.274 711.608 166.784 711.608H166.389L166.231 710.392H166.942C168.053 710.392 169.016 710.376 169.832 710.345V709.034C169.269 708.955 168.774 708.789 168.348 708.536C167.926 708.284 167.6 707.962 167.368 707.573C167.137 707.183 167.021 706.749 167.021 706.27C167.021 705.712 167.168 705.219 167.463 704.793C167.763 704.367 168.179 704.035 168.711 703.798C169.248 703.561 169.859 703.443 170.543 703.443ZM168.237 712.698H169.738V715.43H177.887V716.662H168.237V712.698ZM168.427 706.27C168.421 706.596 168.508 706.886 168.687 707.138C168.866 707.391 169.116 707.586 169.437 707.723C169.759 707.86 170.127 707.928 170.543 707.928C170.959 707.928 171.327 707.86 171.649 707.723C171.97 707.586 172.217 707.394 172.391 707.146C172.57 706.894 172.659 706.601 172.659 706.27C172.659 705.933 172.57 705.638 172.391 705.385C172.217 705.133 171.97 704.938 171.649 704.801C171.327 704.664 170.959 704.596 170.543 704.596C170.127 704.596 169.759 704.664 169.437 704.801C169.116 704.938 168.866 705.133 168.687 705.385C168.508 705.638 168.421 705.933 168.427 706.27ZM175.881 702.827H177.382V707.502H179.404V708.765H177.382V713.646H175.881V702.827Z" fill="#CBCBCB"/>
<path d="M377.378 570.06C377.378 566.09 380.596 562.872 384.566 562.872H729.597C733.567 562.872 736.785 566.09 736.785 570.06V614.088C736.785 618.058 733.567 621.276 729.597 621.276H384.566C380.596 621.276 377.378 618.058 377.378 614.088V570.06Z" fill="white"/>
<path fill-rule="evenodd" clip-rule="evenodd" d="M729.597 564.669H384.566C381.588 564.669 379.175 567.083 379.175 570.06V614.088C379.175 617.065 381.588 619.479 384.566 619.479H729.597C732.574 619.479 734.988 617.065 734.988 614.088V570.06C734.988 567.083 732.574 564.669 729.597 564.669ZM384.566 562.872C380.596 562.872 377.378 566.09 377.378 570.06V614.088C377.378 618.058 380.596 621.276 384.566 621.276H729.597C733.567 621.276 736.785 618.058 736.785 614.088V570.06C736.785 566.09 733.567 562.872 729.597 562.872H384.566Z" fill="#764CCB"/>
<path d="M570.554 596.669H557.603V595.405H561.141V592.91H559.182V588.408H567.49V586.434H559.15V585.202H568.975V589.625H560.667V591.678H569.306V592.91H567.158V595.405H570.554V596.669ZM565.689 595.405V592.91H562.594V595.405H565.689Z" fill="#764CCB"/>
<path d="M547.921 584.839C548.605 584.839 549.213 584.957 549.745 585.194C550.282 585.431 550.701 585.763 551.001 586.189C551.301 586.615 551.453 587.108 551.459 587.666C551.453 588.14 551.335 588.569 551.103 588.953C550.877 589.337 550.558 589.656 550.148 589.909C549.737 590.161 549.258 590.33 548.71 590.414V591.678C550.048 591.604 551.274 591.483 552.391 591.314L552.501 592.42C551.238 592.646 549.903 592.802 548.497 592.886C547.097 592.965 545.652 593.004 544.162 593.004H543.767L543.609 591.788H544.32C545.431 591.788 546.394 591.772 547.21 591.741V590.43C546.647 590.351 546.152 590.185 545.725 589.932C545.304 589.68 544.978 589.358 544.746 588.969C544.514 588.579 544.399 588.145 544.399 587.666C544.399 587.108 544.546 586.615 544.841 586.189C545.141 585.763 545.557 585.431 546.089 585.194C546.626 584.957 547.236 584.839 547.921 584.839ZM545.615 594.094H547.115V596.826H555.265V598.058H545.615V594.094ZM545.804 587.666C545.799 587.992 545.886 588.282 546.065 588.534C546.244 588.787 546.494 588.982 546.815 589.119C547.136 589.256 547.505 589.324 547.921 589.324C548.337 589.324 548.705 589.256 549.026 589.119C549.348 588.982 549.595 588.79 549.769 588.542C549.948 588.29 550.037 587.997 550.037 587.666C550.037 587.329 549.948 587.034 549.769 586.781C549.595 586.529 549.348 586.334 549.026 586.197C548.705 586.06 548.337 585.992 547.921 585.992C547.505 585.992 547.136 586.06 546.815 586.197C546.494 586.334 546.244 586.529 546.065 586.781C545.886 587.034 545.799 587.329 545.804 587.666ZM553.259 584.223H554.76V588.898H556.781V590.161H554.76V595.042H553.259V584.223Z" fill="#764CCB"/>
<path d="M58.6441 662.781C57.9544 662.775 57.3385 662.596 56.7962 662.244C56.2539 661.886 55.8275 661.372 55.5169 660.704C55.2115 660.03 55.0588 659.243 55.0588 658.342C55.0588 657.432 55.2141 656.645 55.5248 655.981C55.8354 655.313 56.2618 654.802 56.8041 654.449C57.3516 654.096 57.9702 653.92 58.6599 653.92C59.1495 653.92 59.5576 654.002 59.884 654.165C60.2157 654.323 60.4684 654.507 60.6421 654.718C60.8211 654.923 60.9869 655.157 61.1396 655.421H61.2186V651.172H62.9086V662.607H61.266V661.264H61.1396C60.9922 661.522 60.8237 661.759 60.6342 661.975C60.4499 662.186 60.192 662.373 59.8603 662.536C59.5286 662.699 59.1232 662.781 58.6441 662.781ZM56.7804 658.311C56.7751 658.895 56.8594 659.416 57.0331 659.875C57.2069 660.327 57.4622 660.685 57.7991 660.949C58.1361 661.212 58.5441 661.343 59.0232 661.343C59.4918 661.343 59.8945 661.217 60.2315 660.964C60.5684 660.712 60.8237 660.356 60.9975 659.898C61.1765 659.44 61.266 658.911 61.266 658.311C61.266 657.711 61.1791 657.189 61.0054 656.747C60.8316 656.305 60.5763 655.963 60.2394 655.721C59.9024 655.478 59.497 655.357 59.0232 655.357C58.5388 655.357 58.1282 655.484 57.7912 655.736C57.4543 655.989 57.199 656.339 57.0252 656.787C56.8567 657.229 56.7751 657.737 56.7804 658.311Z" fill="#555555"/>
<path d="M50.0678 662.781C49.236 662.781 48.5121 662.599 47.8961 662.236C47.2802 661.872 46.809 661.359 46.4825 660.696C46.1561 660.032 45.9929 659.258 45.9929 658.374C45.9929 657.5 46.1561 656.726 46.4825 656.052C46.809 655.378 47.2723 654.854 47.8724 654.481C48.4726 654.107 49.1676 653.92 49.9573 653.92C50.647 653.92 51.2787 654.07 51.8526 654.37C52.4265 654.67 52.8871 655.144 53.2346 655.792C53.5873 656.434 53.7637 657.247 53.7637 658.232V658.832H47.6671C47.6829 659.369 47.7935 659.83 47.9988 660.214C48.2041 660.598 48.4858 660.89 48.8438 661.091C49.2018 661.291 49.6151 661.391 50.0836 661.391C50.5364 661.391 50.9207 661.306 51.2366 661.138C51.5578 660.964 51.7947 660.738 51.9474 660.459H53.6531C53.5268 660.922 53.3004 661.33 52.974 661.683C52.6476 662.03 52.2369 662.301 51.742 662.496C51.2471 662.686 50.6891 662.781 50.0678 662.781ZM52.1053 657.568C52.1053 657.137 52.0158 656.75 51.8368 656.408C51.6631 656.06 51.413 655.792 51.0866 655.602C50.7654 655.407 50.3943 655.31 49.9731 655.31C49.5361 655.31 49.1465 655.412 48.8043 655.618C48.4674 655.818 48.2015 656.092 48.0067 656.439C47.8119 656.787 47.7013 657.163 47.675 657.568H52.1053Z" fill="#555555"/>
<path d="M44.3187 662.607H42.6287V651.172H44.3187V662.607Z" fill="#555555"/>
<path d="M33.1048 651.172H34.779V655.421H34.8738C35.0264 655.152 35.1896 654.915 35.3634 654.71C35.5371 654.504 35.7872 654.323 36.1136 654.165C36.4453 654.002 36.8533 653.92 37.3377 653.92C38.0326 653.92 38.6538 654.096 39.2014 654.449C39.7489 654.802 40.178 655.313 40.4886 655.981C40.7992 656.645 40.9545 657.432 40.9545 658.342C40.9545 659.243 40.7992 660.03 40.4886 660.704C40.178 661.372 39.7515 661.886 39.2093 662.244C38.667 662.596 38.0484 662.775 37.3535 662.781C36.8744 662.781 36.469 662.699 36.1373 662.536C35.8109 662.373 35.5555 662.186 35.3713 661.975C35.187 661.759 35.0212 661.522 34.8738 661.264H34.7474V662.607H33.1048V651.172ZM34.7474 658.311C34.7474 658.911 34.8343 659.44 35.008 659.898C35.1817 660.351 35.4371 660.706 35.774 660.964C36.111 661.217 36.5111 661.343 36.9744 661.343C37.4535 661.343 37.8615 661.212 38.1984 660.949C38.5407 660.685 38.7986 660.327 38.9724 659.875C39.1461 659.416 39.233 658.895 39.233 658.311C39.233 657.737 39.1461 657.229 38.9724 656.787C38.8039 656.339 38.5512 655.989 38.2142 655.736C37.8773 655.484 37.464 655.357 36.9744 655.357C36.5006 655.357 36.0952 655.478 35.7582 655.721C35.4266 655.958 35.1738 656.3 35.0001 656.747C34.8316 657.189 34.7474 657.711 34.7474 658.311Z" fill="#555555"/>
<path d="M23.7862 660.19C23.7809 659.301 24.0784 658.666 24.6785 658.287C25.284 657.908 26.0553 657.684 26.9924 657.616C28.2086 657.547 28.9588 657.508 29.2431 657.497L29.2352 656.81C29.2405 656.321 29.093 655.944 28.793 655.681C28.4981 655.412 28.0664 655.278 27.4978 655.278C27.0187 655.278 26.6265 655.378 26.3212 655.578C26.0158 655.773 25.8184 656.036 25.7289 656.368H24.0547C24.1073 655.894 24.2837 655.473 24.5838 655.104C24.8839 654.731 25.2893 654.441 25.7999 654.236C26.3106 654.025 26.8976 653.92 27.561 653.92C28.1033 653.92 28.6245 654.004 29.1246 654.173C29.6301 654.336 30.0565 654.641 30.404 655.089C30.7514 655.531 30.9252 656.136 30.9252 656.905V662.607H29.2826V661.438H29.2194C29.0246 661.812 28.714 662.133 28.2875 662.401C27.8611 662.665 27.3241 662.796 26.6765 662.796C26.129 662.796 25.6341 662.694 25.1919 662.488C24.7549 662.283 24.41 661.986 24.1573 661.596C23.9099 661.201 23.7862 660.733 23.7862 660.19ZM25.4288 660.206C25.4288 660.606 25.5762 660.914 25.871 661.13C26.1711 661.341 26.566 661.449 27.0556 661.454C27.4978 661.454 27.8848 661.364 28.2165 661.185C28.5481 661.006 28.8035 660.769 28.9825 660.475C29.1615 660.174 29.251 659.853 29.251 659.511L29.2431 658.729L27.2293 658.864C26.6555 658.906 26.2106 659.037 25.8947 659.258C25.5841 659.48 25.4288 659.795 25.4288 660.206Z" fill="#555555"/>
<path d="M20.7537 656.368C20.6747 656.015 20.4957 655.742 20.2167 655.547C19.9429 655.347 19.5796 655.247 19.1269 655.247C18.811 655.247 18.5293 655.297 18.2819 655.397C18.0344 655.497 17.8396 655.634 17.6975 655.807C17.5553 655.981 17.4843 656.176 17.4843 656.392C17.4843 656.65 17.5896 656.871 17.8001 657.055C18.016 657.239 18.3582 657.384 18.8268 657.489L20.1851 657.805C20.9748 657.984 21.5618 658.266 21.9461 658.65C22.3357 659.029 22.5332 659.522 22.5384 660.127C22.5332 660.643 22.3884 661.104 22.1041 661.509C21.8251 661.909 21.4223 662.222 20.8958 662.449C20.3693 662.67 19.7481 662.781 19.0321 662.781C18.0107 662.781 17.2 662.565 16.5998 662.133C15.9996 661.696 15.6469 661.075 15.5416 660.269H17.2631C17.4158 661.038 17.9897 661.422 18.9847 661.422C19.5428 661.422 19.985 661.32 20.3114 661.114C20.6431 660.904 20.8116 660.617 20.8169 660.253C20.8116 659.974 20.701 659.745 20.4852 659.566C20.2746 659.382 19.9429 659.237 19.4901 659.132L18.1476 658.848C17.379 658.679 16.7946 658.395 16.3945 657.995C15.9943 657.589 15.7943 657.089 15.7943 656.494C15.7943 655.989 15.9312 655.541 16.2049 655.152C16.484 654.762 16.8735 654.46 17.3737 654.244C17.8791 654.028 18.4582 653.92 19.1111 653.92C19.7376 653.92 20.2877 654.02 20.7616 654.22C21.2354 654.42 21.6092 654.704 21.883 655.073C22.1567 655.441 22.3226 655.873 22.3805 656.368H20.7537Z" fill="#555555"/>
<path d="M12.1932 654.031H13.8832V662.607H12.1932V654.031ZM13.0303 652.704C12.8407 652.704 12.6644 652.659 12.5012 652.57C12.3432 652.48 12.2142 652.359 12.1142 652.206C12.0194 652.054 11.9721 651.888 11.9721 651.709C11.9721 651.53 12.0194 651.364 12.1142 651.211C12.2142 651.059 12.3459 650.938 12.5091 650.848C12.6775 650.759 12.8565 650.714 13.0461 650.714C13.2356 650.714 13.412 650.759 13.5752 650.848C13.7384 650.938 13.8674 651.059 13.9621 651.211C14.0569 651.364 14.1043 651.53 14.1043 651.709C14.1043 651.893 14.0543 652.062 13.9542 652.214C13.8595 652.367 13.7305 652.488 13.5673 652.578C13.4041 652.662 13.2251 652.704 13.0303 652.704Z" fill="#555555"/>
<path d="M1.16878 662.607V651.172H4.99099C6.10712 651.172 7.06794 651.401 7.87345 651.859C8.68422 652.312 9.30283 652.967 9.72927 653.825C10.161 654.678 10.3768 655.694 10.3768 656.874C10.3768 658.058 10.1584 659.082 9.72138 659.946C9.28967 660.804 8.66316 661.462 7.84186 661.92C7.02056 662.378 6.03341 662.607 4.88043 662.607H1.16878ZM4.78567 661.091C6.07027 661.085 7.03635 660.722 7.68391 660.001C8.33148 659.28 8.65526 658.237 8.65526 656.874C8.65526 655.515 8.33411 654.478 7.69181 653.762C7.05478 653.046 6.11765 652.688 4.88043 652.688H2.90615V661.091H4.78567Z" fill="#555555"/>
<path d="M105.032 543.384C105.024 545.058 106.295 545.99 107.922 545.99C109.344 545.99 110.133 545.271 110.465 544.631H110.528V545.8H112.171V540.098C112.163 537.611 110.173 537.113 108.807 537.113C106.777 537.113 105.45 538.14 105.3 539.561H106.975C107.148 538.93 107.749 538.472 108.744 538.472C109.889 538.472 110.489 539.032 110.481 540.004L110.489 540.691C110.094 540.706 108.807 540.778 108.238 540.809C106.69 540.92 105.024 541.425 105.032 543.384ZM106.675 543.399C106.675 542.554 107.369 542.136 108.475 542.057C108.878 542.033 110.102 541.946 110.489 541.923L110.497 542.704C110.497 543.723 109.675 544.639 108.301 544.647C107.354 544.639 106.675 544.221 106.675 543.399Z" fill="#555555"/>
<path d="M99.5039 549.196C101.715 549.196 103.381 548.193 103.374 545.99V537.224H101.731V538.614H101.62C101.304 538.077 100.72 537.113 99.1248 537.113C97.0637 537.113 95.5238 538.685 95.5238 541.425C95.5238 544.165 97.0874 545.674 99.109 545.674C100.688 545.674 101.304 544.789 101.605 544.236H101.715V545.926C101.707 547.261 100.862 547.845 99.5197 547.838C98.4062 547.845 97.6481 547.451 97.4822 546.637H95.7607C95.9107 548.24 97.3401 549.196 99.5039 549.196ZM97.2453 541.457C97.2374 539.814 97.9956 538.543 99.4881 538.551C100.941 538.543 101.731 539.719 101.731 541.457C101.731 543.226 100.925 544.276 99.4881 544.284C98.0113 544.276 97.2374 543.139 97.2453 541.457Z" fill="#555555"/>
<path d="M90.5328 545.974C92.4202 545.974 93.739 545.042 94.1181 543.652H92.4123C92.128 544.173 91.5041 544.584 90.5486 544.584C89.1429 544.584 88.1794 543.66 88.132 542.025H94.2286V541.425C94.2286 538.322 92.3728 537.113 90.4222 537.113C88.0294 537.113 86.4499 538.93 86.4578 541.567C86.4499 544.229 88.0057 545.974 90.5328 545.974ZM88.1399 540.762C88.211 539.553 89.0876 538.495 90.438 538.503C91.7252 538.495 92.5702 539.459 92.5702 540.762H88.1399Z" fill="#555555"/>
<path d="M73.0327 534.365V545.8H74.6911V537.524H74.7859L78.1501 545.784H79.5242L82.8725 537.54H82.9831V545.8H84.6415V534.365H82.5251L78.9082 543.226H78.766L75.1491 534.365H73.0327Z" fill="#555555"/>
<path d="M66.9045 539.356H61.8346V540.81H66.9045V539.356Z" fill="#555555"/>
<path d="M50.21 549.022C51.6236 549.014 52.4923 548.295 52.9898 546.937L56.5277 537.224H54.7114L52.5475 543.873H52.4528L50.289 537.224H48.4884L51.6315 545.91L51.4261 546.479C51.0234 547.561 50.5891 547.593 50.0678 547.6C49.8309 547.593 49.4992 547.585 49.3097 547.569V548.975C49.5229 549.006 49.8625 549.014 50.21 549.022Z" fill="#555555"/>
<path d="M43.0236 545.8H44.7136V540.572C44.7136 539.451 45.5823 538.637 46.751 538.645C47.0985 538.637 47.4934 538.708 47.6355 538.74V537.129C47.4618 537.113 47.1301 537.089 46.9248 537.097C45.9218 537.089 45.0611 537.666 44.7452 538.582H44.6504V537.224H43.0236V545.8Z" fill="#555555"/>
<path d="M33.8471 543.384C33.8392 545.058 35.1107 545.99 36.7375 545.99C38.159 545.99 38.9487 545.271 39.2804 544.631H39.3435V545.8H40.9861V540.098C40.9782 537.611 38.9882 537.113 37.622 537.113C35.5924 537.113 34.2657 538.14 34.1156 539.561H35.7898C35.9636 538.93 36.5637 538.472 37.5588 538.472C38.7039 538.472 39.304 539.032 39.2961 540.004L39.304 540.691C38.9092 540.706 37.622 540.778 37.0534 540.809C35.5055 540.92 33.8392 541.425 33.8471 543.384ZM35.4897 543.399C35.4897 542.554 36.1847 542.136 37.2903 542.057C37.693 542.033 38.9171 541.946 39.304 541.923L39.3119 542.704C39.3119 543.723 38.4906 544.639 37.1165 544.647C36.1689 544.639 35.4897 544.221 35.4897 543.399Z" fill="#555555"/>
<path d="M20.5168 545.8H22.2067V540.509C22.2067 539.356 23.0123 538.566 23.9599 538.566C24.8839 538.566 25.5235 539.174 25.5235 540.114V545.8H27.1977V540.335C27.1977 539.309 27.8216 538.566 28.9035 538.566C29.788 538.566 30.5145 539.048 30.5145 540.209V545.8H32.2045V540.051C32.1966 538.085 31.0989 537.113 29.5511 537.113C28.3112 537.113 27.3794 537.706 26.9766 538.63H26.8819C26.5186 537.674 25.721 537.113 24.5759 537.113C23.4466 537.113 22.6016 537.674 22.2383 538.63H22.1436V537.224H20.5168V545.8Z" fill="#555555"/>
<path d="M16.7735 545.8H18.4635V537.224H16.7735V545.8ZM16.5524 534.902C16.5603 535.455 17.042 535.905 17.6264 535.897C18.2029 535.905 18.6846 535.455 18.6846 534.902C18.6846 534.349 18.2029 533.907 17.6264 533.907C17.042 533.907 16.5603 534.349 16.5524 534.902Z" fill="#555555"/>
<path d="M10.898 545.8H12.588V540.572C12.588 539.451 13.4567 538.637 14.6255 538.645C14.973 538.637 15.3678 538.708 15.51 538.74V537.129C15.3362 537.113 15.0046 537.089 14.7992 537.097C13.7963 537.089 12.9355 537.666 12.6196 538.582H12.5249V537.224H10.898V545.8Z" fill="#555555"/>
<path d="M1.16878 545.8H2.90615V541.789H5.2437C7.89714 541.789 9.20806 540.185 9.20806 538.077C9.20806 535.96 7.90503 534.365 5.2437 534.365H1.16878V545.8ZM2.90615 540.304V535.85H5.06996C6.75205 535.858 7.4549 536.782 7.4549 538.077C7.4549 539.364 6.75205 540.312 5.06996 540.304H2.90615Z" fill="#555555"/>
<path d="M505.122 541.587C505.114 543.261 506.385 544.193 508.012 544.193C509.434 544.193 510.223 543.474 510.555 542.834H510.618V544.003H512.261V538.302C512.253 535.814 510.263 535.316 508.897 535.316C506.867 535.316 505.54 536.343 505.39 537.765H507.065C507.238 537.133 507.838 536.675 508.833 536.675C509.979 536.675 510.579 537.235 510.571 538.207L510.579 538.894C510.184 538.91 508.897 538.981 508.328 539.012C506.78 539.123 505.114 539.628 505.122 541.587ZM506.764 541.603C506.764 540.758 507.459 540.339 508.565 540.26C508.968 540.236 510.192 540.149 510.579 540.126L510.587 540.908C510.587 541.926 509.765 542.842 508.391 542.85C507.444 542.842 506.764 542.424 506.764 541.603Z" fill="#555555"/>
<path d="M499.594 547.399C501.805 547.399 503.471 546.396 503.463 544.193V535.427H501.821V536.817H501.71C501.394 536.28 500.81 535.316 499.215 535.316C497.154 535.316 495.614 536.888 495.614 539.628C495.614 542.369 497.177 543.877 499.199 543.877C500.778 543.877 501.394 542.992 501.695 542.44H501.805V544.13C501.797 545.464 500.952 546.049 499.61 546.041C498.496 546.049 497.738 545.654 497.572 544.84H495.851C496.001 546.443 497.43 547.399 499.594 547.399ZM497.335 539.66C497.327 538.017 498.086 536.746 499.578 536.754C501.031 536.746 501.821 537.922 501.821 539.66C501.821 541.429 501.015 542.479 499.578 542.487C498.101 542.479 497.327 541.342 497.335 539.66Z" fill="#555555"/>
<path d="M490.623 544.177C492.51 544.177 493.829 543.245 494.208 541.855H492.502C492.218 542.376 491.594 542.787 490.638 542.787C489.233 542.787 488.269 541.863 488.222 540.228H494.319V539.628C494.319 536.525 492.463 535.316 490.512 535.316C488.119 535.316 486.54 537.133 486.548 539.77C486.54 542.432 488.096 544.177 490.623 544.177ZM488.23 538.965C488.301 537.757 489.178 536.698 490.528 536.706C491.815 536.698 492.66 537.662 492.66 538.965H488.23Z" fill="#555555"/>
<path d="M473.123 532.568V544.003H474.781V535.727H474.876L478.24 543.988H479.614L482.962 535.743H483.073V544.003H484.731V532.568H482.615L478.998 541.429H478.856L475.239 532.568H473.123Z" fill="#555555"/>
<path d="M466.994 537.56H461.924V539.013H466.994V537.56Z" fill="#555555"/>
<path d="M450.3 547.225C451.714 547.217 452.582 546.499 453.08 545.14L456.618 535.427H454.801L452.637 542.076H452.543L450.379 535.427H448.578L451.721 544.114L451.516 544.682C451.113 545.764 450.679 545.796 450.158 545.804C449.921 545.796 449.589 545.788 449.4 545.772V547.178C449.613 547.209 449.952 547.217 450.3 547.225Z" fill="#555555"/>
<path d="M443.114 544.003H444.804V538.775C444.804 537.654 445.672 536.84 446.841 536.848C447.188 536.84 447.583 536.911 447.725 536.943V535.332C447.552 535.316 447.22 535.292 447.015 535.3C446.012 535.292 445.151 535.869 444.835 536.785H444.74V535.427H443.114V544.003Z" fill="#555555"/>
<path d="M433.937 541.587C433.929 543.261 435.201 544.193 436.827 544.193C438.249 544.193 439.039 543.474 439.37 542.834H439.433V544.003H441.076V538.302C441.068 535.814 439.078 535.316 437.712 535.316C435.682 535.316 434.356 536.343 434.206 537.765H435.88C436.054 537.133 436.654 536.675 437.649 536.675C438.794 536.675 439.394 537.235 439.386 538.207L439.394 538.894C438.999 538.91 437.712 538.981 437.143 539.012C435.595 539.123 433.929 539.628 433.937 541.587ZM435.58 541.603C435.58 540.758 436.275 540.339 437.38 540.26C437.783 540.236 439.007 540.149 439.394 540.126L439.402 540.908C439.402 541.926 438.581 542.842 437.206 542.85C436.259 542.842 435.58 542.424 435.58 541.603Z" fill="#555555"/>
<path d="M427.872 544.177C429.436 544.169 430.052 543.222 430.368 542.661H430.494V544.003H432.137V532.568H430.447V536.817H430.368C430.06 536.28 429.483 535.317 427.888 535.317C425.827 535.317 424.287 536.943 424.287 539.739C424.287 542.503 425.803 544.169 427.872 544.177ZM426.008 539.707C426 538.017 426.759 536.746 428.251 536.754C429.704 536.746 430.494 537.923 430.494 539.707C430.494 541.508 429.688 542.732 428.251 542.74C426.774 542.732 426 541.429 426.008 539.707Z" fill="#555555"/>
<path d="M417.132 538.917C417.132 537.551 417.961 536.769 419.122 536.769C420.259 536.769 420.93 537.512 420.938 538.76V544.003H422.613V538.554C422.62 536.43 421.452 535.316 419.691 535.316C418.411 535.316 417.566 535.909 417.164 536.833H417.069V535.427H415.442V544.003H417.132V538.917Z" fill="#555555"/>
<path d="M409.788 544.177C412.204 544.177 413.784 542.408 413.784 539.755C413.784 537.085 412.204 535.316 409.788 535.316C407.355 535.316 405.768 537.085 405.776 539.755C405.768 542.408 407.355 544.177 409.788 544.177ZM407.466 539.755C407.466 538.112 408.216 536.714 409.788 536.706C411.335 536.714 412.078 538.112 412.078 539.755C412.078 541.389 411.335 542.771 409.788 542.771C408.216 542.771 407.466 541.389 407.466 539.755Z" fill="#555555"/>
<path d="M401.038 544.177C403.059 544.177 404.378 542.953 404.56 541.287H402.917C402.704 542.211 401.993 542.748 401.038 542.74C399.624 542.748 398.716 541.587 398.716 539.707C398.716 537.883 399.648 536.73 401.038 536.722C402.104 536.73 402.743 537.401 402.917 538.207H404.56C404.378 536.469 402.964 535.316 401.006 535.316C398.589 535.316 397.018 537.141 397.026 539.755C397.018 542.337 398.534 544.177 401.038 544.177Z" fill="#555555"/>
<path d="M392.035 544.177C393.922 544.177 395.241 543.245 395.62 541.855H393.914C393.63 542.376 393.006 542.787 392.051 542.787C390.645 542.787 389.682 541.863 389.634 540.228H395.731V539.628C395.731 536.525 393.875 535.316 391.924 535.316C389.531 535.316 387.952 537.133 387.96 539.77C387.952 542.432 389.508 544.177 392.035 544.177ZM389.642 538.965C389.713 537.757 390.59 536.698 391.94 536.706C393.227 536.698 394.072 537.662 394.072 538.965H389.642Z" fill="#555555"/>
<path d="M384.77 535.585H386.459C386.404 533.737 384.785 532.41 382.464 532.41C380.15 532.41 378.397 533.721 378.389 535.695C378.397 537.291 379.534 538.222 381.374 538.728L382.732 539.091C383.94 539.415 384.888 539.818 384.896 540.813C384.888 541.934 383.83 542.669 382.369 542.676C381.034 542.669 379.929 542.076 379.826 540.829H378.089C378.199 542.913 379.81 544.193 382.369 544.193C385.07 544.193 386.61 542.779 386.617 540.844C386.61 538.775 384.777 537.978 383.316 537.622L382.211 537.322C381.303 537.109 380.126 536.683 380.126 535.601C380.134 534.629 381.018 533.911 382.416 533.911C383.727 533.911 384.659 534.519 384.77 535.585Z" fill="#555555"/>
</svg>
