<svg width="601" height="393" viewBox="0 0 601 393" fill="none" xmlns="http://www.w3.org/2000/svg">
<path d="M35.774 372.484L35.224 376.004H37.952L38.546 372.484H35.774ZM32.584 372.484V370.988H34.762L35.4 366.742H36.632L35.972 370.988H38.766L39.36 366.742H40.592L39.954 370.988H41.78V372.484H39.712L39.228 376.004H41.142V377.478H39.008L38.26 382.362H37.05L37.776 377.478H35.026L34.3 382.362H33.068L33.772 377.478H31.968V376.004H34.014L34.52 372.484H32.584ZM44.1799 366.808H53.4199C53.2439 372.814 49.0859 376.07 43.9599 377.632L43.1679 376.334C48.0519 374.86 51.0879 372.132 51.6379 368.216H44.1799V366.808ZM59.7339 385.816H47.6779V378.644H49.3279V384.298H59.7339V385.816ZM62.5279 372.572H59.0739V379.634H57.4239V365.642H59.0739V371.12H62.5279V372.572ZM74.4282 368.436H63.7582V366.962H74.4282V368.436ZM80.6102 385.728H68.7302V379.304H70.3582V384.21H80.6102V385.728ZM78.6522 372.814V371.054H74.8242V369.58H78.6522V365.642H80.2802V380.096H78.6522V374.266H74.8242V372.814H78.6522ZM74.9122 375.322L75.1102 376.774C71.9202 377.236 66.6842 377.478 63.3622 377.456L63.2082 375.894C64.0002 375.916 65.0342 375.894 66.1342 375.872L65.6282 369.756L67.3222 369.58L67.6962 375.85C68.7082 375.806 69.7642 375.784 70.7762 375.718L71.1282 369.558L72.7782 369.668L72.2722 375.63C73.0642 375.608 74.0322 375.454 74.9122 375.322ZM94.5565 370.79H82.8525V369.316H94.5565V370.79ZM91.6305 367.622H86.0205V366.148H91.6305V367.622ZM91.6525 375.696C91.6525 374.42 90.3545 373.474 88.8365 373.474C87.2965 373.474 86.0205 374.42 86.0205 375.696C86.0205 376.928 87.2745 377.984 88.8365 377.984C90.3545 377.984 91.6525 376.928 91.6525 375.696ZM93.3245 375.696C93.3245 377.918 91.1905 379.326 88.8365 379.326C86.4165 379.326 84.3265 377.918 84.3265 375.696C84.3265 373.496 86.4165 372.11 88.8365 372.11C91.1905 372.11 93.3245 373.496 93.3245 375.696ZM99.2425 386.036H87.3405V380.514H88.9905V384.54H99.2425V386.036ZM102.124 373.606H98.6705V380.954H97.0205V365.642H98.6705V372.154H102.124V373.606ZM118.019 372.484L117.469 376.004H120.197L120.791 372.484H118.019ZM114.829 372.484V370.988H117.007L117.645 366.742H118.877L118.217 370.988H121.011L121.605 366.742H122.837L122.199 370.988H124.025V372.484H121.957L121.473 376.004H123.387V377.478H121.253L120.505 382.362H119.295L120.021 377.478H117.271L116.545 382.362H115.313L116.017 377.478H114.213V376.004H116.259L116.765 372.484H114.829ZM144.795 373.562H141.979V383.99H140.329V365.664H141.979V372.088H144.795V373.562ZM136.787 377.258V372.814H134.235V377.258H136.787ZM138.305 378.688H132.717V366.808H134.235V371.384H136.787V366.808H138.305V378.688ZM129.769 377.258V372.814H127.195V377.258H129.769ZM131.265 378.688H125.721V366.808H127.195V371.384H129.769V366.808H131.265V378.688ZM161.029 375.19H148.423V369.91H158.939V367.622H148.423V366.148H160.567V371.362H150.073V373.716H161.029V375.19ZM148.445 380.712H150.095V384.672H161.117V386.168H148.445V380.712ZM163.823 378.886H145.299V377.456H163.823V378.886ZM180.465 372.484L179.915 376.004H182.643L183.237 372.484H180.465ZM177.275 372.484V370.988H179.453L180.091 366.742H181.323L180.663 370.988H183.457L184.051 366.742H185.283L184.645 370.988H186.471V372.484H184.403L183.919 376.004H185.833V377.478H183.699L182.951 382.362H181.741L182.467 377.478H179.717L178.991 382.362H177.759L178.463 377.478H176.659V376.004H178.705L179.211 372.484H177.275ZM197.891 374.75L196.901 376.004C195.031 375.058 193.447 373.364 192.919 371.648C192.347 373.584 190.939 375.278 188.805 376.466L187.705 375.3C190.389 373.826 192.039 371.604 192.039 367.974V366.478H193.755V367.886C193.755 371.362 195.251 373.386 197.891 374.75ZM205.833 386.498H193.491V381.24H203.765V378.974H193.491V377.5H205.415V382.67H195.119V385.024H205.833V386.498ZM201.389 376.114H199.783V371.186H196.131V369.69H199.783V365.906H201.389V376.114ZM203.765 376.158V365.62H205.415V376.158H203.765ZM223.673 368.348H210.297V366.852H223.673V368.348ZM226.269 381.526H207.745V380.008H226.269V381.526ZM224.113 376.598H209.901V375.102H213.245L212.717 369.602L214.389 369.426L214.807 375.102H219.229L219.757 369.426L221.429 369.602L220.791 375.102H224.113V376.598ZM228.556 367.05H236.212C235.992 373.188 233.044 377.126 228.556 379.436L227.522 378.138C231.878 375.982 234.1 372.418 234.452 368.502H228.556V367.05ZM245.012 383.99H243.362V373.21H240.568V383.484H238.918V365.928H240.568V371.714H243.362V365.664H245.012V383.99ZM260.542 383.066C260.542 381.57 258.98 380.514 256.604 380.514C254.228 380.514 252.666 381.57 252.666 383.066C252.666 384.584 254.228 385.64 256.604 385.64C258.98 385.64 260.542 384.584 260.542 383.066ZM262.214 383.066C262.214 385.288 260.124 386.982 256.604 386.982C253.084 386.982 250.994 385.288 250.994 383.066C250.994 380.844 253.084 379.128 256.604 379.128C260.124 379.128 262.214 380.844 262.214 383.066ZM262.544 371.01H252.05V373.1H262.896V374.596H257.44V376.51H265.866V377.984H247.342V376.51H255.812V374.596H250.4V366.016H262.786V367.49H252.05V369.536H262.544V371.01ZM282.508 372.484L281.958 376.004H284.686L285.28 372.484H282.508ZM279.318 372.484V370.988H281.496L282.134 366.742H283.366L282.706 370.988H285.5L286.094 366.742H287.326L286.688 370.988H288.514V372.484H286.446L285.962 376.004H287.876V377.478H285.742L284.994 382.362H283.784L284.51 377.478H281.76L281.034 382.362H279.802L280.506 377.478H278.702V376.004H280.748L281.254 372.484H279.318ZM298.9 367.358H293.422V365.884H298.9V367.358ZM296.194 370.614C294.456 370.614 293.466 371.626 293.466 372.682C293.466 373.738 294.456 374.574 296.194 374.574C297.932 374.574 298.9 373.738 298.9 372.682C298.9 371.626 297.932 370.614 296.194 370.614ZM305.918 386.52H304.268V382.12H293.884V380.646H305.918V386.52ZM305.918 365.62V371.934H309.174V373.408H305.918V379.48H304.268V365.62H305.918ZM300.572 372.682C300.572 374.31 299.45 375.652 297.074 375.916V377.39C299.23 377.258 301.298 377.126 303.036 376.906L303.168 378.336C301.232 378.556 298.812 378.732 296.436 378.842C294.236 378.974 291.926 379.018 289.902 379.018L289.704 377.566C291.486 377.566 293.422 377.544 295.424 377.478V375.916C293.114 375.674 291.816 374.31 291.816 372.682C291.816 371.78 292.278 370.922 293.092 370.306H289.902V368.854H302.2V370.306H299.34C300.132 370.922 300.572 371.758 300.572 372.682ZM322.306 374.354L321.36 375.718C319.204 374.926 317.202 373.232 316.366 371.23C315.552 373.32 313.55 375.212 311.13 376.246L310.14 374.992C313.088 373.672 315.486 371.12 315.486 367.534V366.082H317.202V367.49C317.202 371.01 319.688 373.386 322.306 374.354ZM327.344 386.498H315.2V381.108H325.386V378.732H315.2V377.258H327.014V382.582H316.828V385.046H327.344V386.498ZM327.014 376.026H325.386V365.62H327.014V376.026ZM341.291 370.79H329.587V369.316H341.291V370.79ZM338.365 367.622H332.755V366.148H338.365V367.622ZM338.387 375.696C338.387 374.42 337.089 373.474 335.571 373.474C334.031 373.474 332.755 374.42 332.755 375.696C332.755 376.928 334.009 377.984 335.571 377.984C337.089 377.984 338.387 376.928 338.387 375.696ZM340.059 375.696C340.059 377.918 337.925 379.326 335.571 379.326C333.151 379.326 331.061 377.918 331.061 375.696C331.061 373.496 333.151 372.11 335.571 372.11C337.925 372.11 340.059 373.496 340.059 375.696ZM345.977 386.036H334.075V380.514H335.725V384.54H345.977V386.036ZM348.859 373.606H345.405V380.954H343.755V365.642H345.405V372.154H348.859V373.606ZM364.753 372.484L364.203 376.004H366.931L367.525 372.484H364.753ZM361.563 372.484V370.988H363.741L364.379 366.742H365.611L364.951 370.988H367.745L368.339 366.742H369.571L368.933 370.988H370.759V372.484H368.691L368.207 376.004H370.121V377.478H367.987L367.239 382.362H366.029L366.755 377.478H364.005L363.279 382.362H362.047L362.751 377.478H360.947V376.004H362.993L363.499 372.484H361.563ZM386.051 374.794V371.384H376.899V374.794H386.051ZM387.701 376.29H375.249V366.478H376.899V369.888H386.051V366.478H387.701V376.29ZM390.759 381.526H372.235V380.008H390.759V381.526ZM409.787 385.772H397.555V379.018H399.205V384.254H409.787V385.772ZM402.043 375.124L402.263 376.532C399.821 377.126 396.433 377.346 392.605 377.236V371.252H398.633V368.282H392.605V366.808H400.283V372.66H394.233V375.762C396.499 375.85 399.821 375.63 402.043 375.124ZM407.807 380.338V372.638H404.859V379.942H403.209V365.906H404.859V371.208H407.807V365.642H409.457V380.338H407.807ZM427.364 368.238H416.65V374.398H427.474V375.894H415V366.742H427.364V368.238ZM430.356 381.526H411.832V380.008H430.356V381.526ZM443.95 375.762L443.026 377.104C440.782 376.136 438.604 374.068 437.878 372.044C437.24 374.178 435.26 376.466 432.818 377.588L431.784 376.378C434.776 375.036 436.998 372.088 436.998 368.634V366.544H438.714V368.59C438.714 371.934 441.332 374.706 443.95 375.762ZM449.318 385.706H437.086V378.71H438.714V384.188H449.318V385.706ZM448.856 380.008H447.228V365.642H448.856V380.008ZM466.652 383.99V365.664H468.28V383.99H466.652ZM451.626 380.228L451.472 378.754C453.232 378.754 455.608 378.71 457.522 378.6V375.586H453.144V370.328H461.438V367.974H453.144V366.522H463.066V371.736H454.794V374.134H463.528V375.586H459.172V378.512C461.306 378.38 463.66 378.182 465.42 377.962L465.574 379.304C463.396 379.656 460.492 379.898 458.204 380.008C456.136 380.118 453.76 380.228 451.626 380.228Z" fill="#CCCCCC"/>
<path d="M58.52 132.12H56.48V121.88H35.92V119.84H58.52V132.12ZM56.28 106.72V101.76H38.4V106.72H56.28ZM64.24 115.88H30.56V113.8H46.36V108.76H36.36V94.92H38.4V99.76H56.28V94.92H58.32V108.76H48.52V113.8H64.24V115.88ZM101.637 105.32H95.1569V114.24H93.0769V94.4H95.1569V103.28H101.637V105.32ZM93.0769 129.92V123.76H76.9569V129.92H93.0769ZM87.9569 111.52L86.8369 113.32C82.2769 111.84 78.5969 108.76 77.0369 105.32C75.7569 109.08 72.1169 112.24 67.3969 114.16L66.1969 112.2C72.3569 109.92 75.9169 105.92 75.9169 100.24V98.32H67.2369V96.32H86.3569V98.32H78.0769V100.16C78.0769 105.68 81.9169 109.36 87.9569 111.52ZM95.1569 131.96H74.9169V116.48H76.9569V121.76H93.0769V116.48H95.1569V131.96ZM132.274 131.4H110.754V121.6H112.794V129.36H132.274V131.4ZM107.474 112.32C107.474 115 110.114 117.04 113.554 117.04C116.914 117.04 119.554 115 119.554 112.32C119.554 109.6 116.914 107.48 113.554 107.48C110.114 107.48 107.474 109.6 107.474 112.32ZM105.314 112.32C105.314 108.36 108.914 105.48 113.514 105.48C118.114 105.48 121.634 108.36 121.634 112.32C121.634 116.24 118.114 119.04 113.514 119.04C108.914 119.04 105.314 116.24 105.314 112.32ZM137.594 108.6H131.114V122.32H129.074V94.44H131.114V106.6H137.594V108.6ZM123.834 103.12H102.554V101.08H123.834V103.12ZM118.514 97.16H108.314V95.12H118.514V97.16ZM181.362 132.64H159.242V123.04H178.482V118.08H159.242V116.08H180.522V125.08H161.402V130.6H181.362V132.64ZM173.082 113.4H171.002V104.12H163.682V102.12H171.002V94.92H173.082V113.4ZM178.482 113.52V94.4H180.522V113.52H178.482ZM166.882 111.48L165.682 113.08C162.322 111.64 158.842 107.8 158.002 104.72C157.002 108.16 154.642 111.44 150.162 113.84L148.722 112.12C153.802 109.52 156.962 105.68 156.962 98.48V95.76H159.122V98.48C159.122 105.56 161.762 108.84 166.882 111.48ZM213.718 98.8H189.838V96.72H213.718V98.8ZM218.638 122.92H184.958V120.84H218.638V122.92ZM214.598 114H189.038V111.92H195.398L194.438 101.72L196.638 101.48L197.398 111.92H206.238L207.358 101.56L209.358 101.8L208.158 111.92H214.598V114ZM222.875 97.08H236.595C236.395 107.96 230.715 114.84 222.395 119.4L221.035 117.64C229.475 113.36 233.675 106.72 234.275 99.08H222.875V97.08ZM252.555 127.8H250.475V107.84H244.435V126.92H242.395V94.96H244.435V105.8H250.475V94.48H252.555V127.8ZM281.472 126.04C281.472 123.12 278.472 120.64 273.752 120.64C268.992 120.64 265.992 123.12 265.992 126.04C265.992 128.96 269.032 131.36 273.752 131.36C278.472 131.36 281.472 128.96 281.472 126.04ZM283.592 126.04C283.592 129.92 279.872 133.4 273.752 133.4C267.592 133.4 263.872 129.88 263.872 126.04C263.872 122 267.752 118.64 273.752 118.64C279.592 118.64 283.592 121.96 283.592 126.04ZM290.632 116.72H256.952V114.64H272.792V109.92H262.512V95.16H285.072V97.2H264.592V101.52H284.752V103.56H264.592V107.92H285.392V109.92H274.952V114.64H290.632V116.72ZM332.12 98.8H308.24V96.72H332.12V98.8ZM337.04 122.92H303.36V120.84H337.04V122.92ZM333 114H307.44V111.92H313.8L312.84 101.72L315.04 101.48L315.8 111.92H324.64L325.76 101.56L327.76 101.8L326.56 111.92H333V114ZM373.037 123.32H339.357V121.32H355.157V114.36H345.157V104.04H365.397V97.96H345.157V95.96H367.477V106.08H347.197V112.36H368.117V114.36H357.317V121.32H373.037V123.32ZM384.394 108.12C383.394 112.52 380.674 116.36 376.634 119.24L375.194 117.6C380.234 114.28 383.314 109.28 383.314 102.12V96.2H385.434V102C385.434 109.24 388.234 113.68 393.514 116.8L392.194 118.4C388.594 116.12 385.314 112.4 384.394 108.12ZM399.634 127.04H397.514V107.32H390.354V105.32H397.514V94.96H399.634V127.04ZM406.954 127.8H404.834V94.48H406.954V127.8ZM427.071 98.84V96.04H429.311V98.84C429.311 104.84 434.391 110.2 442.151 112.32L441.111 114.08C434.431 112.32 429.591 107.56 428.191 103.68C426.751 107.52 422.071 112.28 415.311 114.04L414.231 112.28C421.951 110.12 427.071 104.84 427.071 98.84ZM445.031 123H411.351V120.96H445.031V123ZM478.948 127.8H476.828V94.48H478.948V127.8ZM462.628 106.88C462.628 102.52 459.548 99.48 456.068 99.48C452.508 99.48 449.588 102.52 449.588 106.88C449.588 111.2 452.508 114.24 456.068 114.24C459.548 114.24 462.628 111.2 462.628 106.88ZM472.028 127.04H469.908V107.72H464.668C464.308 112.72 460.628 116.24 456.068 116.24C451.228 116.24 447.468 112.28 447.468 106.84C447.468 101.52 451.228 97.48 456.068 97.48C460.548 97.48 464.148 100.96 464.628 105.68H469.908V94.96H472.028V127.04ZM505.184 116.92L503.864 118.68C500.104 116.92 495.464 111.64 494.664 107.44C493.864 111.84 489.864 117 485.424 119.48L483.944 117.76C489.104 114.96 493.464 109.2 493.464 101.24V96.04H495.744V101.04C495.744 108.92 500.144 114.28 505.184 116.92ZM514.504 127.8H512.464V106.84H503.264V104.84H512.464V94.48H514.504V127.8ZM31.76 164.84C31.76 159.2 35.84 155.04 41.4 155.04C46.88 155.04 50.96 159.04 50.96 164.84C50.96 170.4 46.88 174.72 41.4 174.72C35.84 174.72 31.76 170.4 31.76 164.84ZM34.04 164.84C34.04 169.56 37.12 172.64 41.4 172.64C45.52 172.64 48.68 169.56 48.68 164.84C48.68 160.12 45.52 157.04 41.4 157.04C37.12 157.04 34.04 160.12 34.04 164.84ZM59.12 185.8V152.52H61.24V185.8H59.12ZM83.3969 167.88C81.5569 167.88 79.9169 167.56 78.4769 167V171.72H88.2769V167.04C86.8369 167.6 85.1569 167.88 83.3969 167.88ZM90.8769 183.8C90.8769 180.6 87.9569 178.08 83.3569 178.08C78.7169 178.08 75.7969 180.6 75.7969 183.8C75.7969 187 78.7569 189.44 83.3569 189.44C87.9569 189.44 90.8769 187 90.8769 183.8ZM75.3169 160.2C75.3169 163.8 78.8769 165.96 83.3969 165.96C87.8769 165.96 91.4769 163.8 91.4769 160.2C91.4769 156.72 87.8769 154.52 83.3969 154.52C78.8769 154.52 75.3169 156.72 75.3169 160.2ZM92.9569 183.8C92.9569 187.76 89.7569 191.48 83.3569 191.48C76.9169 191.48 73.7169 187.72 73.7169 183.8C73.7169 179.72 77.0769 176.12 83.3569 176.12C89.4769 176.12 92.9569 179.68 92.9569 183.8ZM100.237 173.72H66.5569V171.72H76.3569V165.88C74.3569 164.52 73.1569 162.48 73.1569 160.2C73.1569 155.8 77.5169 152.44 83.3969 152.44C89.2769 152.44 93.6769 155.8 93.6769 160.2C93.6769 162.52 92.4369 164.56 90.3969 165.92V171.72H100.237V173.72ZM137.594 166.32H131.114V185.8H129.034V152.48H131.114V164.32H137.594V166.32ZM123.314 175.48L122.034 177.16C117.914 175.28 113.754 170.72 112.794 167.2C111.954 170.84 108.154 175.96 103.754 177.92L102.434 176.28C107.714 173.72 111.714 168.52 111.714 161.76V157.4H103.114V155.4H122.474V157.4H113.874V161.44C113.874 168.16 117.994 172.92 123.314 175.48ZM141.511 162.36C141.511 157.72 145.311 154.12 150.631 154.12C155.911 154.12 159.791 157.72 159.791 162.36C159.791 167.08 155.911 170.76 150.631 170.76C145.311 170.76 141.511 167.08 141.511 162.36ZM143.671 162.36C143.671 166.24 146.671 168.76 150.631 168.76C154.471 168.76 157.511 166.24 157.511 162.36C157.511 158.64 154.471 156.16 150.631 156.16C146.671 156.16 143.671 158.64 143.671 162.36ZM163.471 174.8L163.711 176.64C159.071 177.2 154.071 177.52 150.151 177.72C146.271 177.84 142.591 177.96 138.911 177.92L138.711 175.84C141.751 175.92 146.031 175.84 149.591 175.72C153.991 175.56 159.151 175.24 163.471 174.8ZM166.951 185.8V152.48H168.991V185.8H166.951ZM206.238 157.52H186.558V155.52H206.238V157.52ZM213.518 185.8V152.52H215.598V185.8H213.518ZM208.398 172.8L208.598 174.96C203.198 175.68 195.598 176.04 185.558 176.28L185.438 174.08C186.918 174.08 188.918 174.08 191.158 174L189.878 160.36L192.238 160.08L193.238 173.96C195.158 173.88 197.198 173.8 199.158 173.68L200.238 160L202.518 160.16L201.198 173.56C204.078 173.36 206.678 173.12 208.398 172.8ZM254.635 181.32H220.955V179.32H236.755V172.36H226.755V162.04H246.995V155.96H226.755V153.96H249.075V164.08H228.795V170.36H249.715V172.36H238.915V179.32H254.635V181.32ZM291.992 163.72H285.512V173.12H283.472V152.44H285.512V161.72H291.992V163.72ZM283.472 187.6V177.36H267.392V187.6H283.472ZM285.512 189.6H265.352V175.36H285.512V189.6ZM258.712 154.28H275.512C275.312 164.92 267.072 170.88 258.112 173.48L256.952 171.6C265.912 169.04 272.032 164.2 273.072 156.28H258.712V154.28ZM326.629 171.92H292.949V169.92H326.629V171.92ZM321.869 190.4H298.629V181.64H318.709V177.32H298.629V175.32H320.709V183.6H300.629V188.36H321.869V190.4ZM300.469 160.12C300.469 155.8 304.429 152.44 309.949 152.44C315.469 152.44 319.469 155.8 319.469 160.12C319.469 164.48 315.469 167.8 309.949 167.8C304.429 167.8 300.469 164.48 300.469 160.12ZM302.669 160.12C302.669 163.64 305.869 165.96 309.949 165.96C313.989 165.96 317.269 163.64 317.269 160.12C317.269 156.64 313.989 154.4 309.949 154.4C305.869 154.4 302.669 156.64 302.669 160.12ZM367.957 155.72H357.277V156.12C357.277 160.88 362.757 163.96 369.597 165.08L368.797 166.92C362.837 165.8 358.077 163.4 356.197 159.92C354.317 163.4 349.557 165.84 343.597 166.96L342.757 165.08C349.597 163.96 355.117 160.88 355.117 156.12V155.72H344.397V153.72H367.957V155.72ZM368.357 190.36H344.957V181.6H365.197V177.36H344.957V175.32H355.157V171.32H339.357V169.24H373.037V171.32H357.317V175.32H367.197V183.64H346.997V188.36H368.357V190.36ZM376.194 164.84C376.194 159.2 380.234 155.04 385.714 155.04C391.274 155.04 395.354 159.04 395.354 164.84C395.354 170.4 391.274 174.72 385.714 174.72C380.234 174.72 376.194 170.4 376.194 164.84ZM378.434 164.84C378.434 169.56 381.474 172.6 385.714 172.6C389.954 172.6 393.074 169.56 393.074 164.84C393.074 160.12 389.954 157.04 385.714 157.04C381.474 157.04 378.434 160.12 378.434 164.84ZM404.474 185.8V170.52H396.834L396.914 168.52H404.474V161.04H396.914L396.834 158.92H404.474V152.48H406.514V185.8H404.474ZM439.951 155.72H429.271V156.12C429.271 160.88 434.751 163.96 441.591 165.08L440.791 166.92C434.831 165.8 430.071 163.4 428.191 159.92C426.311 163.4 421.551 165.84 415.591 166.96L414.751 165.08C421.591 163.96 427.111 160.88 427.111 156.12V155.72H416.391V153.72H439.951V155.72ZM440.351 190.36H416.951V181.6H437.191V177.36H416.951V175.32H427.151V171.32H411.351V169.24H445.031V171.32H429.311V175.32H439.191V183.64H418.991V188.36H440.351V190.36ZM473.558 153.24H475.718V156.08C475.718 161.36 481.358 166.24 488.158 167.52L487.238 169.36C481.198 168.08 476.358 164.48 474.638 160.36C472.918 164.48 468.078 168.12 462.038 169.4L461.078 167.52C467.918 166.24 473.558 161.36 473.558 156.08V153.24ZM475.678 188.76H473.518V175.6H457.758V173.6H491.438V175.6H475.678V188.76ZM49.68 243.8L48.16 245.36C46 244.28 44.28 241.84 43.52 239.8C42.44 243.28 39.6 246.44 35.72 248.16L34.64 246.44C38.44 244.68 42.4 241.36 42.4 235.32V233.08H44.52V235.28C44.52 239.92 47.2 242.6 49.68 243.8ZM49.72 248.04L48.56 246.44C52.96 244.6 55.68 241 55.68 235.44V232.96H57.8V235.36C57.8 240.56 60.96 244.08 65.08 246.04L63.88 247.64C61 246.36 57.76 242.96 56.8 239.88C55.84 243.4 53.4 246.44 49.72 248.04ZM34.52 220.64C34.52 224.32 37.64 227.16 41.48 227.16C45.4 227.16 48.56 224.32 48.56 220.64C48.56 217 45.4 214.16 41.48 214.16C37.64 214.16 34.52 217 34.52 220.64ZM32.24 220.64C32.24 215.92 36.36 212.04 41.48 212.04C46.68 212.04 50.76 215.92 50.76 220.64C50.76 225.36 46.68 229.2 41.48 229.2C36.36 229.2 32.24 225.36 32.24 220.64ZM59.56 230.88V210.4H61.64V230.88H59.56ZM100.237 239.32H66.5569V237.28H82.3569V228.52H72.3169V212.4H94.7169V214.44H74.3569V226.48H94.9969V228.52H84.5169V237.28H100.237V239.32ZM130.514 248.32H128.474V239.2H107.754V237.2H130.514V248.32ZM136.234 233.12H102.554V231.08H118.394V226.48H108.354V217.68H128.234V212.96H108.354V211H130.274V219.6H110.394V224.52H131.114V226.48H120.554V231.08H136.234V233.12ZM180.522 231.68H176.082V210.44H180.522V231.68ZM180.522 247.72H176.082V237.32H158.602V233.56H180.522V247.72ZM158.642 216.2H151.042V212.4H170.522V216.2H163.282C163.282 218.88 164.082 221.12 165.682 222.92C167.322 224.72 169.522 226.04 172.282 226.92L170.122 230.48C166.442 229.36 162.642 226.4 161.002 223.04C159.562 226.6 156.002 229.56 152.002 231.04L149.882 227.48C155.282 225.52 158.642 221.64 158.642 216.24V216.2ZM187.238 212.44H205.718C205.838 217.44 205.678 222.8 204.918 225.88L200.558 225.52C201.078 222.8 201.358 218.48 201.238 216.28H187.238V212.44ZM207.958 228.32L208.238 231.72C205.358 232.16 200.358 232.64 196.558 232.84C193.278 232.96 188.598 233.08 185.078 233.08L184.638 229.2C186.038 229.24 187.998 229.28 189.958 229.28H191.918V221.52H196.398V229.16L199.118 229.04C202.478 228.8 205.838 228.56 207.958 228.32ZM215.558 247.16H193.118V235.6H197.598V243.32H215.558V247.16ZM220.078 224.72H214.718V237.76H210.278V210.44H214.718V220.96H220.078V224.72ZM252.515 231.44H248.075V222.44H240.915V218.68H248.075V210.4H252.515V231.44ZM252.515 248.2H248.075V237.28H230.075V233.52H252.515V248.2ZM229.915 216.04H222.395V212.28H241.795V216.04H234.555V216.12C234.555 221.56 237.995 225.4 243.475 226.88L241.355 230.48C237.715 229.24 233.715 226.52 232.355 223.04C230.875 226.68 227.475 229.48 223.435 231.08L221.315 227.52C226.635 225.56 229.915 221.64 229.915 216.2V216.04ZM257.872 222.92C257.872 216.8 262.112 212.64 267.952 212.64C273.752 212.64 278.032 216.8 278.032 222.92C278.032 229.04 273.752 233.16 267.952 233.16C262.112 233.16 257.872 229.04 257.872 222.92ZM262.392 222.88C262.392 226.76 264.712 229.12 267.952 229.12C271.152 229.12 273.512 226.76 273.512 222.88C273.512 219 271.112 216.64 267.952 216.64C264.712 216.64 262.392 219 262.392 222.88ZM283.632 243.8V210.48H288.072V243.8H283.632ZM312.189 233.6H294.549V212.56H312.189V216.72H320.069V210.48H324.549V243.8H320.069V229.12H312.189V233.6ZM307.829 229.84V216.4H299.029V229.84H307.829ZM312.189 225.36H320.069V220.56H312.189V225.36ZM48.4 273.16H36.6V269.4H48.4V273.16ZM62.12 294.92H57.68V268.44H62.12V294.92ZM62.72 305.16H40.4V293.08H44.84V301.32H62.72V305.16ZM40.04 279.24H32.16V275.48H52.52V279.24H44.96C45 280.32 45.24 281.28 45.68 282.12C47.16 285.04 50.16 286.64 53.8 287.72L51.84 291.28C48.2 290.52 43.76 287.56 42.52 284.84C41.28 287.6 37.36 290.64 33.36 291.84L31.28 288.32C34.76 287.36 37.88 285.32 39.32 282.28C39.76 281.36 40 280.36 40.04 279.24ZM98.1169 287.52H93.6769V280H86.2769V276.28H93.6769V268.4H98.1169V287.52ZM75.4769 273.68H67.9569V269.92H87.2769V273.68H80.1169C80.1569 276.28 80.9169 278.48 82.4769 280.24C84.0369 282.04 86.1969 283.36 88.9569 284.16L86.8769 287.76C83.0369 286.64 79.5569 283.84 77.9169 280.32C76.4769 283.96 73.0369 286.92 68.9169 288.56L66.7969 284.88C69.4769 283.92 71.5969 282.48 73.1569 280.56C74.6769 278.64 75.4369 276.36 75.4769 273.68ZM98.7569 306.4H76.3969V296.16H93.6769V293.28H76.3569V289.48H98.1169V299.92H80.7969V302.6H98.7569V306.4ZM132.594 305.64H110.474V295.28H114.914V301.84H132.594V305.64ZM123.834 278.64H102.554V274.88H123.834V278.64ZM118.514 272.92H108.314V269.08H118.514V272.92ZM117.434 286.84C117.434 285.04 115.914 283.64 113.514 283.64C111.114 283.64 109.514 285.04 109.514 286.84C109.514 288.64 111.114 290.04 113.514 290.04C115.914 290.04 117.434 288.64 117.434 286.84ZM121.754 286.8C121.754 291 118.034 293.52 113.514 293.52C108.834 293.52 105.074 291 105.074 286.8C105.074 282.72 108.834 280.04 113.514 280.04C118.154 280.04 121.754 282.72 121.754 286.8ZM137.594 283.56H131.554V296.28H127.154V268.44H131.554V279.68H137.594V283.56ZM160.962 299.76C154.322 299.76 149.962 295.6 149.962 287.72V270.32H154.442V287.04C154.442 293.28 157.002 295.64 161.042 295.64C165.002 295.64 167.242 293.32 167.242 287.08V270.32H171.722V287.6C171.722 295.72 167.642 299.76 160.962 299.76ZM174.391 299.4L184.471 284.12L175.271 270.32H180.711L187.191 280.56L193.631 270.32H199.111L189.871 284.24L199.991 299.4H194.591L187.111 287.8L179.751 299.4H174.391ZM200.224 306.8L210.104 268.4H213.744L203.824 306.8H200.224ZM227.077 299.76C220.437 299.76 216.077 295.6 216.077 287.72V270.32H220.557V287.04C220.557 293.28 223.117 295.64 227.157 295.64C231.117 295.64 233.357 293.32 233.357 287.08V270.32H237.837V287.6C237.837 295.72 233.757 299.76 227.077 299.76ZM242.627 299.4V270.32H247.147V299.4H242.627ZM279.858 306.4H256.618V297.84H276.698V293.68H256.618V291.68H278.698V299.8H258.618V304.36H279.858V306.4ZM284.618 288.48H250.938V286.36H284.618V288.48ZM279.498 282.8H256.738V274.68H276.618V270.64H256.738V268.64H278.658V276.64H258.778V280.84H279.498V282.8ZM328.946 301.8H326.826V268.48H328.946V301.8ZM321.626 301.04H319.506V281.32H312.546V279.32H319.506V268.96H321.626V301.04ZM306.426 282.56C305.386 286.36 302.546 290.2 298.586 293L297.146 291.28C302.186 288.08 305.306 283.08 305.306 276.44V273.04H298.186V271.04H314.426V273.04H307.426V276.48C307.426 282.68 310.226 287.68 315.466 290.64L314.146 292.28C310.746 290.2 307.426 286.36 306.426 282.56ZM361.743 269.44V272.56C361.743 276.16 361.343 279.72 360.503 282.88L358.303 282.64C359.183 279.88 359.623 275.76 359.623 272.8V271.48H338.823V269.44H361.743ZM367.023 288.12H333.343V286.04H348.023V277.88H350.023V286.04H367.023V288.12ZM357.663 299.24C357.663 295.8 354.743 293.16 350.143 293.16C345.503 293.16 342.583 295.8 342.583 299.24C342.583 302.76 345.543 305.36 350.143 305.36C354.743 305.36 357.663 302.76 357.663 299.24ZM359.743 299.24C359.743 303.48 356.543 307.36 350.143 307.36C343.703 307.36 340.503 303.44 340.503 299.24C340.503 294.92 343.863 291.2 350.143 291.2C356.263 291.2 359.743 294.88 359.743 299.24ZM399.06 305.4H377.54V295.6H379.58V303.36H399.06V305.4ZM374.26 286.32C374.26 289 376.9 291.04 380.34 291.04C383.7 291.04 386.34 289 386.34 286.32C386.34 283.6 383.7 281.48 380.34 281.48C376.9 281.48 374.26 283.6 374.26 286.32ZM372.1 286.32C372.1 282.36 375.7 279.48 380.3 279.48C384.9 279.48 388.42 282.36 388.42 286.32C388.42 290.24 384.9 293.04 380.3 293.04C375.7 293.04 372.1 290.24 372.1 286.32ZM404.38 282.6H397.9V296.32H395.86V268.44H397.9V280.6H404.38V282.6ZM390.62 277.12H369.34V275.08H390.62V277.12ZM385.3 271.16H375.1V269.12H385.3V271.16ZM440.377 282.16H433.937V301.8H431.737V268.48H433.937V280.16H440.377V282.16ZM406.857 291.56V270.96H423.337V272.96H408.897V289.6H411.497C416.857 289.6 423.377 289.16 427.497 288.32L427.697 290.24C422.337 291.12 416.977 291.56 410.377 291.56H406.857ZM442.533 300.56V297.76H445.413V300.56H442.533Z" fill="white"/>
<path d="M10.8 89.82V97.26H3V91.68C3 85.92 5.88 82.38 10.5 81.12L11.88 84.36C9.18 85.2 7.44 86.88 7.2 89.82H10.8ZM21.48 89.82V97.26H13.68V91.68C13.68 85.92 16.56 82.38 21.18 81.12L22.56 84.36C19.86 85.2 18.12 86.88 17.88 89.82H21.48Z" fill="white"/>
<path d="M467.04 271.6V264.16H474.84V269.74C474.84 275.5 471.96 279.04 467.34 280.3L465.96 277.06C468.66 276.22 470.4 274.54 470.64 271.6H467.04ZM456.36 271.6V264.16H464.16V269.74C464.16 275.5 461.28 279.04 456.66 280.3L455.28 277.06C457.98 276.22 459.72 274.54 459.96 271.6H456.36Z" fill="white"/>
<rect x="29" width="152" height="45" rx="12" fill="#ED0080"/>
<path d="M49.3689 18.744C48.2169 18.744 46.8249 19.704 46.3209 20.664V26.304C46.8489 27.072 48.2649 27.72 49.2969 27.72C51.2409 27.72 52.7289 26.256 52.7289 23.376V22.992C52.7289 19.896 51.1929 18.744 49.3689 18.744ZM49.8969 16.536C52.3929 16.536 55.3209 18.192 55.3209 22.968V23.304C55.3209 27.624 52.8009 29.856 49.8489 29.856C48.4569 29.856 47.0889 29.328 46.3209 28.584V34.8H43.8969V16.8H46.2729V18.336C47.0409 17.376 48.3849 16.536 49.8969 16.536ZM62.7834 18.528C61.4394 18.528 59.7354 19.488 59.5434 21.96H65.8074C65.8074 19.584 64.4394 18.528 62.7834 18.528ZM63.2634 29.952C59.3994 29.952 56.9994 27.384 56.9994 23.52V23.04C56.9994 18.624 59.7594 16.416 62.7834 16.416C66.0954 16.416 68.2074 18.624 68.2074 22.584V23.856H59.5674C59.6394 26.592 61.3674 27.768 63.4794 27.768C65.0874 27.768 66.6474 27.12 67.4394 26.544L68.1354 28.416C67.2954 29.136 65.3514 29.952 63.2634 29.952ZM70.5229 29.592V16.8H72.9229V18.432C73.6429 17.28 74.8909 16.56 76.1629 16.56C77.0749 16.56 77.9869 16.776 78.5389 17.16L77.8669 19.488C77.4349 19.176 76.6429 18.912 75.9709 18.912C74.6749 18.912 73.7149 19.536 72.9229 20.712V29.592H70.5229ZM83.0464 29.952C81.4144 29.952 79.5664 29.4 78.5824 28.8L79.2304 26.736C80.1184 27.288 81.8944 27.816 82.9504 27.816C84.6064 27.816 85.5424 26.976 85.5424 26.016C85.5424 25.032 84.8704 24.504 83.6464 24.264L82.1344 24C80.3104 23.616 78.8944 22.464 78.8944 20.304C78.8944 18.048 80.7184 16.488 83.6224 16.488C85.3984 16.488 86.9824 17.064 87.7984 17.568L87.1024 19.56C86.2864 19.056 85.0384 18.528 83.8624 18.528C82.3984 18.528 81.3424 19.152 81.3424 20.232C81.3424 21.312 81.9904 21.768 83.0944 21.96L84.6544 22.224C86.8144 22.632 87.9904 23.856 87.9904 25.896C87.9904 28.224 86.0224 29.952 83.0464 29.952ZM95.4724 18.744C94.3204 18.744 92.9284 19.704 92.4244 20.664V26.304C92.9524 27.072 94.3684 27.72 95.4004 27.72C97.3444 27.72 98.8324 26.256 98.8324 23.376V22.992C98.8324 19.896 97.2964 18.744 95.4724 18.744ZM96.0004 16.536C98.4964 16.536 101.424 18.192 101.424 22.968V23.304C101.424 27.624 98.9044 29.856 95.9524 29.856C94.5604 29.856 93.1924 29.328 92.4244 28.584V34.8H90.0004V16.8H92.3764V18.336C93.1444 17.376 94.4884 16.536 96.0004 16.536ZM108.887 18.528C107.543 18.528 105.839 19.488 105.647 21.96H111.911C111.911 19.584 110.543 18.528 108.887 18.528ZM109.367 29.952C105.503 29.952 103.103 27.384 103.103 23.52V23.04C103.103 18.624 105.863 16.416 108.887 16.416C112.199 16.416 114.311 18.624 114.311 22.584V23.856H105.671C105.743 26.592 107.471 27.768 109.583 27.768C111.191 27.768 112.751 27.12 113.543 26.544L114.239 28.416C113.399 29.136 111.455 29.952 109.367 29.952ZM122.266 29.928C118.81 29.928 116.098 27.48 116.098 23.232V22.872C116.098 18.6 119.122 16.464 122.266 16.464C124.138 16.464 125.554 17.016 126.394 17.688L125.602 19.704C124.882 19.128 123.778 18.624 122.458 18.624C120.562 18.624 118.69 20.208 118.69 22.776V23.304C118.69 25.992 120.37 27.72 122.578 27.72C123.874 27.72 125.146 27.192 125.794 26.712L126.466 28.776C125.722 29.376 123.898 29.928 122.266 29.928ZM133.417 29.808C131.401 29.808 129.793 28.68 129.793 25.896V18.84H127.753V16.8H129.793V13.536H132.217V16.8H135.961V18.84H132.217V25.512C132.217 26.88 132.793 27.624 134.041 27.624C134.665 27.624 135.793 27.312 136.369 26.904L136.825 28.968C136.177 29.424 134.737 29.808 133.417 29.808ZM138.402 14.376V11.784H140.898V14.376H138.402ZM138.45 29.616V16.752H140.85V29.616H138.45ZM147.288 29.664L142.272 16.776H144.936L148.704 26.856L152.352 16.776H154.968L149.928 29.664H147.288ZM160.956 18.528C159.612 18.528 157.908 19.488 157.716 21.96H163.98C163.98 19.584 162.612 18.528 160.956 18.528ZM161.436 29.952C157.572 29.952 155.172 27.384 155.172 23.52V23.04C155.172 18.624 157.932 16.416 160.956 16.416C164.268 16.416 166.38 18.624 166.38 22.584V23.856H157.74C157.812 26.592 159.54 27.768 161.652 27.768C163.26 27.768 164.82 27.12 165.612 26.544L166.308 28.416C165.468 29.136 163.524 29.952 161.436 29.952Z" fill="white"/>
<path d="M29 32L49 45C38.4766 46.1693 30.1693 54.4766 29 65V32Z" fill="#ED0080"/>
</svg>
